G04*
G04 #@! TF.GenerationSoftware,Altium Limited,Altium Designer,26.2.0 (7)*
G04*
G04 Layer_Color=2752767*
%FSLAX25Y25*%
%MOIN*%
G70*
G04*
G04 #@! TF.SameCoordinates,CECF952D-64F9-48ED-BA59-EEDE46F112F8*
G04*
G04*
G04 #@! TF.FilePolarity,Positive*
G04*
G01*
G75*
%ADD13C,0.00500*%
%ADD71C,0.00667*%
%ADD72C,0.00400*%
D13*
X250000Y441500D02*
Y445500D01*
X254000D01*
Y441500D01*
X250000D01*
X250800Y442300D02*
Y444700D01*
X253200D01*
Y442300D01*
X250800D01*
X250000Y431500D02*
Y435500D01*
X254000D01*
Y431500D01*
X250000D01*
X250800Y432300D02*
Y434700D01*
X253200D01*
Y432300D01*
X250800D01*
X250000Y421500D02*
Y425500D01*
X254000D01*
Y421500D01*
X250000D01*
X250800Y422300D02*
Y424700D01*
X253200D01*
Y422300D01*
X250800D01*
X568000Y230000D02*
Y234000D01*
X572000D01*
Y230000D01*
X568000D01*
Y240000D02*
Y244000D01*
X572000D01*
Y240000D01*
X568000D01*
Y287000D02*
Y291000D01*
X572000D01*
Y287000D01*
X568000D01*
Y297000D02*
Y301000D01*
X572000D01*
Y297000D01*
X568000D01*
X567000Y340000D02*
Y344000D01*
X571000D01*
Y340000D01*
X567000D01*
Y350000D02*
Y354000D01*
X571000D01*
Y350000D01*
X567000D01*
X363000Y488000D02*
Y492000D01*
X367000D01*
Y488000D01*
X363000D01*
X373000D02*
Y492000D01*
X377000D01*
Y488000D01*
X373000D01*
X568000Y397000D02*
Y401000D01*
X572000D01*
Y397000D01*
X568000D01*
Y407000D02*
Y411000D01*
X572000D01*
Y407000D01*
X568000D01*
X534000Y487500D02*
Y491500D01*
X538000D01*
Y487500D01*
X534000D01*
X514000D02*
Y491500D01*
X518000D01*
Y487500D01*
X514000D01*
X504000D02*
Y491500D01*
X508000D01*
Y487500D01*
X504000D01*
X494000D02*
Y491500D01*
X498000D01*
Y487500D01*
X494000D01*
X484000D02*
Y491500D01*
X488000D01*
Y487500D01*
X484000D01*
X474000D02*
Y491500D01*
X478000D01*
Y487500D01*
X474000D01*
X464000D02*
Y491500D01*
X468000D01*
Y487500D01*
X464000D01*
X454000D02*
Y491500D01*
X458000D01*
Y487500D01*
X454000D01*
X524000D02*
Y491500D01*
X528000D01*
Y487500D01*
X524000D01*
X328000Y488000D02*
Y492000D01*
X332000D01*
Y488000D01*
X328000D01*
X338000D02*
Y492000D01*
X342000D01*
Y488000D01*
X338000D01*
X350500Y215500D02*
Y219500D01*
X354500D01*
Y215500D01*
X350500D01*
X360500D02*
Y219500D01*
X364500D01*
Y215500D01*
X360500D01*
X370500D02*
Y219500D01*
X374500D01*
Y215500D01*
X370500D01*
X113000Y193000D02*
Y197000D01*
X117000D01*
Y193000D01*
X113000D01*
Y203000D02*
Y207000D01*
X117000D01*
Y203000D01*
X113000D01*
X403000Y488000D02*
Y492000D01*
X407000D01*
Y488000D01*
X403000D01*
X413000D02*
Y492000D01*
X417000D01*
Y488000D01*
X413000D01*
X423000D02*
Y492000D01*
X427000D01*
Y488000D01*
X423000D01*
X433000D02*
Y492000D01*
X437000D01*
Y488000D01*
X433000D01*
X113000Y438000D02*
Y442000D01*
X117000D01*
Y438000D01*
X113000D01*
Y448000D02*
Y452000D01*
X117000D01*
Y448000D01*
X113000D01*
X290500Y488000D02*
Y492000D01*
X294500D01*
Y488000D01*
X290500D01*
X300500D02*
Y492000D01*
X304500D01*
Y488000D01*
X300500D01*
X373000Y159122D02*
X374000D01*
X375000Y160122D01*
X376000Y159122D01*
X377000D01*
Y160122D01*
X376000Y161122D01*
X377000Y162122D01*
Y163122D01*
X376000D01*
X375000Y162122D01*
X374000Y163122D01*
X373000D01*
Y162122D01*
X374000Y161122D01*
X373000Y160122D01*
Y159122D01*
X374000Y136500D02*
Y135500D01*
X376000D01*
Y136500D01*
X377000D01*
Y138500D01*
X376000D01*
Y139500D01*
X374000D01*
Y138500D01*
X373000D01*
Y136500D01*
X374000D01*
X392504Y148311D02*
Y147311D01*
X394504D01*
Y148311D01*
X395504D01*
Y150311D01*
X394504D01*
Y151311D01*
X392504D01*
Y150311D01*
X391504D01*
Y148311D01*
X392504D01*
X563000Y115000D02*
X565000Y117000D01*
X567000Y115000D01*
X565000Y113000D01*
X563000Y115000D01*
X113000D02*
X115000Y117000D01*
X117000Y115000D01*
X115000Y113000D01*
X113000Y115000D01*
X563000Y485000D02*
X565000Y487000D01*
X567000Y485000D01*
X565000Y483000D01*
X563000Y485000D01*
X113000D02*
X115000Y487000D01*
X117000Y485000D01*
X115000Y483000D01*
X113000Y485000D01*
X163413Y120500D02*
X164413Y122500D01*
X163413Y124500D01*
X165413Y123500D01*
X167413Y124500D01*
X166413Y122500D01*
X167413Y120500D01*
X165413Y121500D01*
X163413Y120500D01*
X237587D02*
X238587Y122500D01*
X237587Y124500D01*
X239587Y123500D01*
X241587Y124500D01*
X240587Y122500D01*
X241587Y120500D01*
X239587Y121500D01*
X237587Y120500D01*
X163413Y148000D02*
X164413Y150000D01*
X163413Y152000D01*
X165413Y151000D01*
X167413Y152000D01*
X166413Y150000D01*
X167413Y148000D01*
X165413Y149000D01*
X163413Y148000D01*
X237587D02*
X238587Y150000D01*
X237587Y152000D01*
X239587Y151000D01*
X241587Y152000D01*
X240587Y150000D01*
X241587Y148000D01*
X239587Y149000D01*
X237587Y148000D01*
Y175500D02*
X238587Y177500D01*
X237587Y179500D01*
X239587Y178500D01*
X241587Y179500D01*
X240587Y177500D01*
X241587Y175500D01*
X239587Y176500D01*
X237587Y175500D01*
X163413D02*
X164413Y177500D01*
X163413Y179500D01*
X165413Y178500D01*
X167413Y179500D01*
X166413Y177500D01*
X167413Y175500D01*
X165413Y176500D01*
X163413Y175500D01*
X237587Y203000D02*
X238587Y205000D01*
X237587Y207000D01*
X239587Y206000D01*
X241587Y207000D01*
X240587Y205000D01*
X241587Y203000D01*
X239587Y204000D01*
X237587Y203000D01*
X163413D02*
X164413Y205000D01*
X163413Y207000D01*
X165413Y206000D01*
X167413Y207000D01*
X166413Y205000D01*
X167413Y203000D01*
X165413Y204000D01*
X163413Y203000D01*
X159500Y346000D02*
X160500Y347000D01*
X161500D01*
X160500Y348000D01*
X161500Y349000D01*
X160500D01*
X159500Y350000D01*
X158500Y349000D01*
X157500D01*
X158500Y348000D01*
X157500Y347000D01*
X158500D01*
X159500Y346000D01*
X129500D02*
X130500Y347000D01*
X131500D01*
X130500Y348000D01*
X131500Y349000D01*
X130500D01*
X129500Y350000D01*
X128500Y349000D01*
X127500D01*
X128500Y348000D01*
X127500Y347000D01*
X128500D01*
X129500Y346000D01*
X445000Y208000D02*
X446000Y209000D01*
X447000D01*
X446000Y210000D01*
X447000Y211000D01*
X446000D01*
X445000Y212000D01*
X444000Y211000D01*
X443000D01*
X444000Y210000D01*
X443000Y209000D01*
X444000D01*
X445000Y208000D01*
X475000D02*
X476000Y209000D01*
X477000D01*
X476000Y210000D01*
X477000Y211000D01*
X476000D01*
X475000Y212000D01*
X474000Y211000D01*
X473000D01*
X474000Y210000D01*
X473000Y209000D01*
X474000D01*
X475000Y208000D01*
X443000Y265000D02*
X444000Y266000D01*
X445000D01*
X444000Y267000D01*
X445000Y268000D01*
X444000D01*
X443000Y269000D01*
X442000Y268000D01*
X441000D01*
X442000Y267000D01*
X441000Y266000D01*
X442000D01*
X443000Y265000D01*
X473000D02*
X474000Y266000D01*
X475000D01*
X474000Y267000D01*
X475000Y268000D01*
X474000D01*
X473000Y269000D01*
X472000Y268000D01*
X471000D01*
X472000Y267000D01*
X471000Y266000D01*
X472000D01*
X473000Y265000D01*
X506000Y224000D02*
Y228000D01*
X510000D01*
Y224000D01*
X506000D01*
Y214000D02*
Y218000D01*
X510000D01*
Y214000D01*
X506000D01*
X508000Y279000D02*
Y283000D01*
X512000D01*
Y279000D01*
X508000D01*
Y269000D02*
Y273000D01*
X512000D01*
Y269000D01*
X508000D01*
X442500Y320500D02*
X443500Y321500D01*
X444500D01*
X443500Y322500D01*
X444500Y323500D01*
X443500D01*
X442500Y324500D01*
X441500Y323500D01*
X440500D01*
X441500Y322500D01*
X440500Y321500D01*
X441500D01*
X442500Y320500D01*
X472500D02*
X473500Y321500D01*
X474500D01*
X473500Y322500D01*
X474500Y323500D01*
X473500D01*
X472500Y324500D01*
X471500Y323500D01*
X470500D01*
X471500Y322500D01*
X470500Y321500D01*
X471500D01*
X472500Y320500D01*
X508000Y332500D02*
Y336500D01*
X512000D01*
Y332500D01*
X508000D01*
Y322500D02*
Y326500D01*
X512000D01*
Y322500D01*
X508000D01*
X345000Y123000D02*
X346000Y124000D01*
X347000D01*
X346000Y125000D01*
X347000Y126000D01*
X346000D01*
X345000Y127000D01*
X344000Y126000D01*
X343000D01*
X344000Y125000D01*
X343000Y124000D01*
X344000D01*
X345000Y123000D01*
Y153000D02*
X346000Y154000D01*
X347000D01*
X346000Y155000D01*
X347000Y156000D01*
X346000D01*
X345000Y157000D01*
X344000Y156000D01*
X343000D01*
X344000Y155000D01*
X343000Y154000D01*
X344000D01*
X345000Y153000D01*
X310000Y140500D02*
X311000Y141500D01*
X312000D01*
X311000Y142500D01*
X312000Y143500D01*
X311000D01*
X310000Y144500D01*
X309000Y143500D01*
X308000D01*
X309000Y142500D01*
X308000Y141500D01*
X309000D01*
X310000Y140500D01*
Y170500D02*
X311000Y171500D01*
X312000D01*
X311000Y172500D01*
X312000Y173500D01*
X311000D01*
X310000Y174500D01*
X309000Y173500D01*
X308000D01*
X309000Y172500D01*
X308000Y171500D01*
X309000D01*
X310000Y170500D01*
X415500Y135500D02*
Y139500D01*
X419500D01*
Y135500D01*
X415500D01*
Y125500D02*
Y129500D01*
X419500D01*
Y125500D01*
X415500D01*
X138000Y369000D02*
Y373000D01*
X142000D01*
Y369000D01*
X138000D01*
X148000D02*
Y373000D01*
X152000D01*
Y369000D01*
X148000D01*
X280500Y165500D02*
Y169500D01*
X284500D01*
Y165500D01*
X280500D01*
Y155500D02*
Y159500D01*
X284500D01*
Y155500D01*
X280500D01*
X182500Y278500D02*
Y282500D01*
X186500D01*
Y278500D01*
X182500D01*
Y268500D02*
Y272500D01*
X186500D01*
Y268500D01*
X182500D01*
X440000Y378000D02*
X441000Y379000D01*
X442000D01*
X441000Y380000D01*
X442000Y381000D01*
X441000D01*
X440000Y382000D01*
X439000Y381000D01*
X438000D01*
X439000Y380000D01*
X438000Y379000D01*
X439000D01*
X440000Y378000D01*
X470000D02*
X471000Y379000D01*
X472000D01*
X471000Y380000D01*
X472000Y381000D01*
X471000D01*
X470000Y382000D01*
X469000Y381000D01*
X468000D01*
X469000Y380000D01*
X468000Y379000D01*
X469000D01*
X470000Y378000D01*
X508000Y390500D02*
Y394500D01*
X512000D01*
Y390500D01*
X508000D01*
Y380500D02*
Y384500D01*
X512000D01*
Y380500D01*
X508000D01*
X130000Y445500D02*
X131000Y446500D01*
X132000D01*
X131000Y447500D01*
X132000Y448500D01*
X131000D01*
X130000Y449500D01*
X129000Y448500D01*
X128000D01*
X129000Y447500D01*
X128000Y446500D01*
X129000D01*
X130000Y445500D01*
Y415500D02*
X131000Y416500D01*
X132000D01*
X131000Y417500D01*
X132000Y418500D01*
X131000D01*
X130000Y419500D01*
X129000Y418500D01*
X128000D01*
X129000Y417500D01*
X128000Y416500D01*
X129000D01*
X130000Y415500D01*
X153000Y445500D02*
Y449500D01*
X157000D01*
Y445500D01*
X153000D01*
Y435500D02*
Y439500D01*
X157000D01*
Y435500D01*
X153000D01*
X229000Y310000D02*
X227000Y314000D01*
X231000D01*
X229000Y310000D01*
X403000Y397000D02*
X401000Y401000D01*
X405000D01*
X403000Y397000D01*
X237000Y341000D02*
X235000Y345000D01*
X239000D01*
X237000Y341000D01*
X275000Y299000D02*
X273000Y303000D01*
X277000D01*
X275000Y299000D01*
X276000Y290000D02*
X274000Y294000D01*
X278000D01*
X276000Y290000D01*
X266000Y307000D02*
X264000Y311000D01*
X268000D01*
X266000Y307000D01*
X252000Y283000D02*
X250000Y287000D01*
X254000D01*
X252000Y283000D01*
X253000Y290000D02*
X251000Y294000D01*
X255000D01*
X253000Y290000D01*
X482000Y231000D02*
X480000Y235000D01*
X484000D01*
X482000Y231000D01*
Y240000D02*
X480000Y244000D01*
X484000D01*
X482000Y240000D01*
X480000Y287000D02*
X478000Y291000D01*
X482000D01*
X480000Y287000D01*
Y296000D02*
X478000Y300000D01*
X482000D01*
X480000Y296000D01*
X481000Y341000D02*
X479000Y345000D01*
X483000D01*
X481000Y341000D01*
Y350000D02*
X479000Y354000D01*
X483000D01*
X481000Y350000D01*
Y408000D02*
X479000Y412000D01*
X483000D01*
X481000Y408000D01*
Y398000D02*
X479000Y402000D01*
X483000D01*
X481000Y398000D01*
X435000Y228000D02*
X433000Y232000D01*
X437000D01*
X435000Y228000D01*
Y236000D02*
X433000Y240000D01*
X437000D01*
X435000Y236000D01*
X426500Y405000D02*
X424500Y409000D01*
X428500D01*
X426500Y405000D01*
Y395500D02*
X424500Y399500D01*
X428500D01*
X426500Y395500D01*
X432000Y283000D02*
X430000Y287000D01*
X434000D01*
X432000Y283000D01*
Y292000D02*
X430000Y296000D01*
X434000D01*
X432000Y292000D01*
X433000Y349000D02*
X431000Y353000D01*
X435000D01*
X433000Y349000D01*
Y338000D02*
X431000Y342000D01*
X435000D01*
X433000Y338000D01*
X239500Y278500D02*
X237500Y282500D01*
X241500D01*
X239500Y278500D01*
X351000Y408500D02*
X349000Y412500D01*
X353000D01*
X351000Y408500D01*
X363000Y403000D02*
X361000Y407000D01*
X365000D01*
X363000Y403000D01*
X353500Y396500D02*
X351500Y400500D01*
X355500D01*
X353500Y396500D01*
X384500Y401000D02*
X382500Y405000D01*
X386500D01*
X384500Y401000D01*
X225000Y426500D02*
X223000Y430500D01*
X227000D01*
X225000Y426500D01*
X211000Y316500D02*
X209000Y320500D01*
X213000D01*
X211000Y316500D01*
D71*
X189500Y250500D02*
G03*
X189500Y250500I-2000J0D01*
G01*
X159500D02*
G03*
X159500Y250500I-2000J0D01*
G01*
X257000Y345000D02*
G03*
X257000Y345000I-2000J0D01*
G01*
Y375000D02*
G03*
X257000Y375000I-2000J0D01*
G01*
X229000Y250500D02*
G03*
X229000Y250500I-2000J0D01*
G01*
X199000D02*
G03*
X199000Y250500I-2000J0D01*
G01*
X319500Y380000D02*
G03*
X319500Y380000I-2000J0D01*
G01*
X289500D02*
G03*
X289500Y380000I-2000J0D01*
G01*
X317000Y332500D02*
G03*
X317000Y332500I-2000J0D01*
G01*
X287000D02*
G03*
X287000Y332500I-2000J0D01*
G01*
X327000Y285000D02*
G03*
X327000Y285000I-2000J0D01*
G01*
X297000D02*
G03*
X297000Y285000I-2000J0D01*
G01*
X266000Y490500D02*
G03*
X266000Y490500I-2000J0D01*
G01*
Y460500D02*
G03*
X266000Y460500I-2000J0D01*
G01*
X302000Y367500D02*
G03*
X302000Y367500I-2000J0D01*
G01*
Y357500D02*
G03*
X302000Y357500I-2000J0D01*
G01*
X194500Y487500D02*
G03*
X194500Y487500I-2000J0D01*
G01*
Y477500D02*
G03*
X194500Y477500I-2000J0D01*
G01*
X299500Y320000D02*
G03*
X299500Y320000I-2000J0D01*
G01*
Y310000D02*
G03*
X299500Y310000I-2000J0D01*
G01*
Y272500D02*
G03*
X299500Y272500I-2000J0D01*
G01*
Y262500D02*
G03*
X299500Y262500I-2000J0D01*
G01*
D72*
X301200Y367500D02*
G03*
X301200Y367500I-1200J0D01*
G01*
Y357500D02*
G03*
X301200Y357500I-1200J0D01*
G01*
X193700Y487500D02*
G03*
X193700Y487500I-1200J0D01*
G01*
Y477500D02*
G03*
X193700Y477500I-1200J0D01*
G01*
X298700Y320000D02*
G03*
X298700Y320000I-1200J0D01*
G01*
Y310000D02*
G03*
X298700Y310000I-1200J0D01*
G01*
Y272500D02*
G03*
X298700Y272500I-1200J0D01*
G01*
Y262500D02*
G03*
X298700Y262500I-1200J0D01*
G01*
M02*
