G04*
G04 #@! TF.GenerationSoftware,Altium Limited,Altium Designer,26.2.0 (7)*
G04*
G04 Layer_Color=8388736*
%FSLAX25Y25*%
%MOIN*%
G70*
G04*
G04 #@! TF.SameCoordinates,CECF952D-64F9-48ED-BA59-EEDE46F112F8*
G04*
G04*
G04 #@! TF.FilePolarity,Negative*
G04*
G01*
G75*
%ADD17R,0.07756X0.02097*%
%ADD18R,0.05100X0.01000*%
%ADD19R,0.01000X0.02800*%
%ADD26R,0.09400X0.12600*%
G04:AMPARAMS|DCode=27|XSize=55.64mil|YSize=30.84mil|CornerRadius=6.85mil|HoleSize=0mil|Usage=FLASHONLY|Rotation=90.000|XOffset=0mil|YOffset=0mil|HoleType=Round|Shape=RoundedRectangle|*
%AMROUNDEDRECTD27*
21,1,0.05564,0.01713,0,0,90.0*
21,1,0.04193,0.03084,0,0,90.0*
1,1,0.01371,0.00856,0.02097*
1,1,0.01371,0.00856,-0.02097*
1,1,0.01371,-0.00856,-0.02097*
1,1,0.01371,-0.00856,0.02097*
%
%ADD27ROUNDEDRECTD27*%
%ADD28R,0.06669X0.14268*%
%ADD29R,0.20879X0.08280*%
%ADD30R,0.06312X0.05131*%
%ADD31R,0.05131X0.06312*%
%ADD32R,0.05131X0.11036*%
%ADD33C,0.06312*%
%ADD34C,0.07099*%
%ADD35R,0.07099X0.07099*%
%ADD36R,0.06706X0.06706*%
%ADD37C,0.06706*%
%ADD38R,0.06706X0.06706*%
%ADD39O,0.20485X0.10642*%
%ADD40O,0.18517X0.09658*%
%ADD41O,0.09658X0.18517*%
%ADD42C,0.17300*%
%ADD43C,0.07800*%
%ADD44R,0.11824X0.11824*%
%ADD45C,0.11824*%
%ADD46C,0.05524*%
%ADD47C,0.05800*%
D17*
X469700Y242500D02*
D03*
Y237500D02*
D03*
Y232500D02*
D03*
Y227500D02*
D03*
X450300D02*
D03*
Y232500D02*
D03*
Y237500D02*
D03*
Y242500D02*
D03*
X467200Y297500D02*
D03*
Y292500D02*
D03*
Y287500D02*
D03*
Y282500D02*
D03*
X447800D02*
D03*
Y287500D02*
D03*
Y292500D02*
D03*
Y297500D02*
D03*
X467200Y352500D02*
D03*
Y347500D02*
D03*
Y342500D02*
D03*
Y337500D02*
D03*
X447800D02*
D03*
Y342500D02*
D03*
Y347500D02*
D03*
Y352500D02*
D03*
X467200Y410000D02*
D03*
Y405000D02*
D03*
Y400000D02*
D03*
Y395000D02*
D03*
X447800D02*
D03*
Y400000D02*
D03*
Y405000D02*
D03*
Y410000D02*
D03*
D18*
X234972Y299969D02*
D03*
Y298000D02*
D03*
Y296031D02*
D03*
X244028D02*
D03*
Y298000D02*
D03*
Y299969D02*
D03*
D19*
X235562Y292291D02*
D03*
X237531D02*
D03*
X239500D02*
D03*
X241469D02*
D03*
X243438D02*
D03*
Y303709D02*
D03*
X241469D02*
D03*
X239500D02*
D03*
X237531D02*
D03*
X235562D02*
D03*
D26*
X460000Y235000D02*
D03*
X457500Y290000D02*
D03*
Y345000D02*
D03*
Y402500D02*
D03*
D27*
X221260Y437559D02*
D03*
X225000D02*
D03*
X228740D02*
D03*
X221260Y447441D02*
D03*
X225000D02*
D03*
X228740D02*
D03*
D28*
X205528Y348000D02*
D03*
X228472D02*
D03*
D29*
X192000Y302232D02*
D03*
Y318768D02*
D03*
D30*
X221000Y297953D02*
D03*
Y292047D02*
D03*
X487500Y225905D02*
D03*
Y220000D02*
D03*
X487000Y280906D02*
D03*
Y275000D02*
D03*
X487500Y335000D02*
D03*
Y329095D02*
D03*
X235500Y326905D02*
D03*
Y321000D02*
D03*
X487500Y392953D02*
D03*
Y387047D02*
D03*
X202500Y445453D02*
D03*
Y439547D02*
D03*
D31*
X254500Y273000D02*
D03*
X260405D02*
D03*
X227000Y278500D02*
D03*
X221094D02*
D03*
D32*
X142815Y205000D02*
D03*
X132185D02*
D03*
D33*
X187500Y250500D02*
D03*
X157500D02*
D03*
X255000Y345000D02*
D03*
Y375000D02*
D03*
X227000Y250500D02*
D03*
X197000D02*
D03*
X317500Y380000D02*
D03*
X287500D02*
D03*
X315000Y332500D02*
D03*
X285000D02*
D03*
X325000Y285000D02*
D03*
X295000D02*
D03*
X264000Y490500D02*
D03*
Y460500D02*
D03*
D34*
X252000Y443500D02*
D03*
Y433500D02*
D03*
D35*
Y423500D02*
D03*
D36*
X570000Y232000D02*
D03*
Y289000D02*
D03*
X569000Y342000D02*
D03*
X570000Y399000D02*
D03*
X115000Y195000D02*
D03*
Y440000D02*
D03*
D37*
X570000Y242000D02*
D03*
Y299000D02*
D03*
X569000Y352000D02*
D03*
X375000Y490000D02*
D03*
X570000Y409000D02*
D03*
X516000Y489500D02*
D03*
X506000D02*
D03*
X496000D02*
D03*
X486000D02*
D03*
X476000D02*
D03*
X466000D02*
D03*
X456000D02*
D03*
X526000D02*
D03*
X340000Y490000D02*
D03*
X362500Y217500D02*
D03*
X372500D02*
D03*
X115000Y205000D02*
D03*
X405000Y490000D02*
D03*
X415000D02*
D03*
X425000D02*
D03*
X115000Y450000D02*
D03*
X302500Y490000D02*
D03*
X508000Y226000D02*
D03*
Y216000D02*
D03*
X510000Y281000D02*
D03*
Y271000D02*
D03*
Y334500D02*
D03*
Y324500D02*
D03*
X417500Y137500D02*
D03*
Y127500D02*
D03*
X140000Y371000D02*
D03*
X150000D02*
D03*
X282500Y167500D02*
D03*
Y157500D02*
D03*
X184500Y280500D02*
D03*
Y270500D02*
D03*
X510000Y392500D02*
D03*
Y382500D02*
D03*
X155000Y447500D02*
D03*
Y437500D02*
D03*
D38*
X365000Y490000D02*
D03*
X536000Y489500D02*
D03*
X330000Y490000D02*
D03*
X352500Y217500D02*
D03*
X435000Y490000D02*
D03*
X292500D02*
D03*
D39*
X375000Y161122D02*
D03*
D40*
Y137500D02*
D03*
D41*
X393504Y149311D02*
D03*
D42*
X565000Y115000D02*
D03*
X115000D02*
D03*
X565000Y485000D02*
D03*
X115000D02*
D03*
D43*
X300000Y367500D02*
D03*
Y357500D02*
D03*
X192500Y487500D02*
D03*
Y477500D02*
D03*
X297500Y320000D02*
D03*
Y310000D02*
D03*
Y272500D02*
D03*
Y262500D02*
D03*
D44*
X165413Y122500D02*
D03*
Y150000D02*
D03*
X239587Y177500D02*
D03*
Y205000D02*
D03*
D45*
Y122500D02*
D03*
Y150000D02*
D03*
X165413Y177500D02*
D03*
Y205000D02*
D03*
D46*
X159500Y348000D02*
D03*
X129500D02*
D03*
X445000Y210000D02*
D03*
X475000D02*
D03*
X443000Y267000D02*
D03*
X473000D02*
D03*
X442500Y322500D02*
D03*
X472500D02*
D03*
X345000Y125000D02*
D03*
Y155000D02*
D03*
X310000Y142500D02*
D03*
Y172500D02*
D03*
X440000Y380000D02*
D03*
X470000D02*
D03*
X130000Y447500D02*
D03*
Y417500D02*
D03*
D47*
X229000Y312000D02*
D03*
X403000Y399000D02*
D03*
X237000Y343000D02*
D03*
X275000Y301000D02*
D03*
X276000Y292000D02*
D03*
X266000Y309000D02*
D03*
X252000Y285000D02*
D03*
X253000Y292000D02*
D03*
X482000Y233000D02*
D03*
Y242000D02*
D03*
X480000Y289000D02*
D03*
Y298000D02*
D03*
X481000Y343000D02*
D03*
Y352000D02*
D03*
Y410000D02*
D03*
Y400000D02*
D03*
X435000Y230000D02*
D03*
Y238000D02*
D03*
X426500Y407000D02*
D03*
Y397500D02*
D03*
X432000Y285000D02*
D03*
Y294000D02*
D03*
X433000Y351000D02*
D03*
Y340000D02*
D03*
X239500Y280500D02*
D03*
X351000Y410500D02*
D03*
X363000Y405000D02*
D03*
X353500Y398500D02*
D03*
X384500Y403000D02*
D03*
X225000Y428500D02*
D03*
X211000Y318500D02*
D03*
M02*
