G04*
G04 #@! TF.GenerationSoftware,Altium Limited,Altium Designer,26.2.0 (7)*
G04*
G04 Layer_Color=65535*
%FSLAX25Y25*%
%MOIN*%
G70*
G04*
G04 #@! TF.SameCoordinates,CECF952D-64F9-48ED-BA59-EEDE46F112F8*
G04*
G04*
G04 #@! TF.FilePolarity,Positive*
G04*
G01*
G75*
%ADD10C,0.00787*%
%ADD11C,0.00984*%
%ADD12C,0.01575*%
%ADD13C,0.00500*%
%ADD14C,0.00600*%
%ADD15C,0.01000*%
%ADD16R,0.03150X0.22047*%
D10*
X221654Y432657D02*
G03*
X221654Y432657I-394J0D01*
G01*
X192394Y325854D02*
G03*
X192394Y325854I-394J0D01*
G01*
X162500Y250500D02*
Y253500D01*
X182500D01*
Y247500D02*
Y253500D01*
X162500Y247500D02*
X182500D01*
X162500D02*
Y250500D01*
X255000Y370000D02*
X258000D01*
Y350000D02*
Y370000D01*
X252000Y350000D02*
X258000D01*
X252000D02*
Y370000D01*
X255000D01*
X202000Y250500D02*
Y253500D01*
X222000D01*
Y247500D02*
Y253500D01*
X202000Y247500D02*
X222000D01*
X202000D02*
Y250500D01*
X292500Y380000D02*
Y383000D01*
X312500D01*
Y377000D02*
Y383000D01*
X292500Y377000D02*
X312500D01*
X292500D02*
Y380000D01*
X290000Y332500D02*
Y335500D01*
X310000D01*
Y329500D02*
Y335500D01*
X290000Y329500D02*
X310000D01*
X290000D02*
Y332500D01*
X300000Y285000D02*
Y288000D01*
X320000D01*
Y282000D02*
Y288000D01*
X300000Y282000D02*
X320000D01*
X300000D02*
Y285000D01*
X261000Y465500D02*
X264000D01*
X261000D02*
Y485500D01*
X267000D01*
Y465500D02*
Y485500D01*
X264000Y465500D02*
X267000D01*
X240779Y454563D02*
X259283D01*
X240779Y412437D02*
X259283D01*
Y454563D01*
X240779Y412437D02*
Y454563D01*
X242748Y412437D02*
Y454563D01*
X565000Y247000D02*
X575000D01*
Y227000D02*
Y247000D01*
X565000Y227000D02*
X575000D01*
X565000D02*
Y247000D01*
Y304000D02*
X575000D01*
Y284000D02*
Y304000D01*
X565000Y284000D02*
X575000D01*
X565000D02*
Y304000D01*
X564000Y357000D02*
X574000D01*
Y337000D02*
Y357000D01*
X564000Y337000D02*
X574000D01*
X564000D02*
Y357000D01*
X380000Y485000D02*
Y495000D01*
X360000Y485000D02*
X380000D01*
X360000D02*
Y495000D01*
X380000D01*
X565000Y414000D02*
X575000D01*
Y394000D02*
Y414000D01*
X565000Y394000D02*
X575000D01*
X565000D02*
Y414000D01*
X451000Y484500D02*
Y494500D01*
X541000D01*
Y484500D02*
Y494500D01*
X451000Y484500D02*
X541000D01*
X345000Y485000D02*
Y495000D01*
X325000Y485000D02*
X345000D01*
X325000D02*
Y495000D01*
X345000D01*
X347500Y212500D02*
X377500D01*
Y222500D01*
X347500D02*
X377500D01*
X347500Y212500D02*
Y222500D01*
X110000Y210000D02*
X120000D01*
Y190000D02*
Y210000D01*
X110000Y190000D02*
X120000D01*
X110000D02*
Y210000D01*
X440000Y485000D02*
Y495000D01*
X400000Y485000D02*
X440000D01*
X400000Y495000D02*
X440000D01*
X400000Y485000D02*
Y495000D01*
X110000Y455000D02*
X120000D01*
Y435000D02*
Y455000D01*
X110000Y435000D02*
X120000D01*
X110000D02*
Y455000D01*
X307500Y485000D02*
Y495000D01*
X287500Y485000D02*
X307500D01*
X287500D02*
Y495000D01*
X307500D01*
X221398Y111476D02*
Y133524D01*
X183602Y111476D02*
X221398D01*
X183602Y133524D02*
X221398D01*
Y138976D02*
Y161024D01*
X183602Y138976D02*
X221398D01*
X183602Y161024D02*
X221398D01*
X183602Y166476D02*
Y188524D01*
X221398D01*
X183602Y166476D02*
X221398D01*
X183602Y193976D02*
Y216024D01*
X221398D01*
X183602Y193976D02*
X221398D01*
X167000Y340500D02*
Y355500D01*
X122000Y340500D02*
X167000D01*
X122000D02*
Y355500D01*
X167000D01*
X437500Y202500D02*
Y217500D01*
X482500D01*
Y202500D02*
Y217500D01*
X437500Y202500D02*
X482500D01*
X435500Y259500D02*
Y274500D01*
X480500D01*
Y259500D02*
Y274500D01*
X435500Y259500D02*
X480500D01*
X435000Y315000D02*
Y330000D01*
X480000D01*
Y315000D02*
Y330000D01*
X435000Y315000D02*
X480000D01*
X337500Y117500D02*
X352500D01*
X337500D02*
Y162500D01*
X352500D01*
Y117500D02*
Y162500D01*
X302500Y135000D02*
X317500D01*
X302500D02*
Y180000D01*
X317500D01*
Y135000D02*
Y180000D01*
X135925Y200276D02*
X139075D01*
X135925Y209724D02*
X139075D01*
X432500Y372500D02*
Y387500D01*
X477500D01*
Y372500D02*
Y387500D01*
X432500Y372500D02*
X477500D01*
X122500Y455000D02*
X137500D01*
Y410000D02*
Y455000D01*
X122500Y410000D02*
X137500D01*
X122500D02*
Y455000D01*
D11*
X257217Y414996D02*
G03*
X257217Y414996I-492J0D01*
G01*
X520500Y221000D02*
G03*
X520500Y221000I-12500J0D01*
G01*
X522500Y276000D02*
G03*
X522500Y276000I-12500J0D01*
G01*
Y329500D02*
G03*
X522500Y329500I-12500J0D01*
G01*
X430000Y132500D02*
G03*
X430000Y132500I-12500J0D01*
G01*
X157500Y371000D02*
G03*
X157500Y371000I-12500J0D01*
G01*
X295000Y162500D02*
G03*
X295000Y162500I-12500J0D01*
G01*
X197000Y275500D02*
G03*
X197000Y275500I-12500J0D01*
G01*
X522500Y387500D02*
G03*
X522500Y387500I-12500J0D01*
G01*
X167500Y442500D02*
G03*
X167500Y442500I-12500J0D01*
G01*
D12*
X375787Y168996D02*
G03*
X375787Y168996I-787J0D01*
G01*
D13*
X330500Y353000D02*
G03*
X330500Y372000I0J9500D01*
G01*
X223000Y473000D02*
G03*
X223000Y492000I0J9500D01*
G01*
X328000Y305500D02*
G03*
X328000Y324500I0J9500D01*
G01*
Y258000D02*
G03*
X328000Y277000I0J9500D01*
G01*
X218858Y439350D02*
Y445650D01*
X231142Y439350D02*
Y445650D01*
X209717Y354693D02*
X224284D01*
X209717Y341307D02*
X224284D01*
X180189Y298689D02*
Y322311D01*
X203811Y298689D02*
Y322311D01*
X357283Y107185D02*
X392717D01*
X357283D02*
Y163878D01*
X392717Y162122D02*
Y163878D01*
X357283D02*
X360200D01*
X392717Y107185D02*
Y135522D01*
X388500Y163878D02*
X392717D01*
X285000Y350500D02*
X320500D01*
Y374500D01*
X285000D02*
X320500D01*
Y353000D02*
X330500D01*
X320500Y372000D02*
X330500D01*
X285000Y350500D02*
Y355000D01*
X295000D01*
Y370000D01*
X285000D02*
X295000D01*
X285000D02*
Y374500D01*
X177500Y470500D02*
X213000D01*
Y494500D01*
X177500D02*
X213000D01*
Y473000D02*
X223000D01*
X213000Y492000D02*
X223000D01*
X177500Y470500D02*
Y475000D01*
X187500D01*
Y490000D01*
X177500D02*
X187500D01*
X177500D02*
Y494500D01*
X282500Y303000D02*
X318000D01*
Y327000D01*
X282500D02*
X318000D01*
Y305500D02*
X328000D01*
X318000Y324500D02*
X328000D01*
X282500Y303000D02*
Y307500D01*
X292500D01*
Y322500D01*
X282500D02*
X292500D01*
X282500D02*
Y327000D01*
Y255500D02*
X318000D01*
Y279500D01*
X282500D02*
X318000D01*
Y258000D02*
X328000D01*
X318000Y277000D02*
X328000D01*
X282500Y255500D02*
Y260000D01*
X292500D01*
Y275000D01*
X282500D02*
X292500D01*
X282500D02*
Y279500D01*
D14*
X451650Y245350D02*
X468350D01*
X451650Y224650D02*
X468350D01*
X449150Y300350D02*
X465850D01*
X449150Y279650D02*
X465850D01*
X449150Y355350D02*
X465850D01*
X449150Y334650D02*
X465850D01*
X232900Y291400D02*
X233752D01*
X246100D02*
Y294221D01*
X245248Y304600D02*
X246100D01*
X232900Y301779D02*
Y304600D01*
Y291400D02*
Y294221D01*
X245248Y291400D02*
X246100D01*
Y301779D02*
Y304600D01*
X232900D02*
X233752D01*
X449150Y412850D02*
X465850D01*
X449150Y392150D02*
X465850D01*
D15*
X518000Y236000D02*
X523000D01*
X520500Y233500D02*
Y238500D01*
X520000Y291000D02*
X525000D01*
X522500Y288500D02*
Y293500D01*
X520000Y344500D02*
X525000D01*
X522500Y342000D02*
Y347000D01*
X427500Y147500D02*
X432500D01*
X430000Y145000D02*
Y150000D01*
X130000Y381000D02*
Y386000D01*
X127500Y383500D02*
X132500D01*
X292500Y177500D02*
X297500D01*
X295000Y175000D02*
Y180000D01*
X194500Y290500D02*
X199500D01*
X197000Y288000D02*
Y293000D01*
X520000Y402500D02*
X525000D01*
X522500Y400000D02*
Y405000D01*
X165000Y457500D02*
X170000D01*
X167500Y455000D02*
Y460000D01*
X447500Y497500D02*
X555000D01*
X385000D02*
X445000D01*
X117500Y390000D02*
X270000D01*
Y237500D02*
Y390000D01*
X447500Y422500D02*
X555000Y422500D01*
Y497500D01*
X447500Y422500D02*
Y497500D01*
X385000Y422500D02*
X445000Y422500D01*
Y497500D01*
X385000Y422500D02*
Y497500D01*
X272500Y422500D02*
Y497500D01*
X382500D01*
Y422500D02*
Y497500D01*
X272500Y422500D02*
X382500Y422500D01*
X412500Y420000D02*
X425000D01*
X412500Y197500D02*
Y420000D01*
Y197500D02*
X577500D01*
Y420000D01*
X425000D02*
X577500D01*
X102500Y392500D02*
Y472500D01*
X170000D01*
Y392500D02*
Y472500D01*
X102500Y392500D02*
X170000D01*
X272500Y237500D02*
Y390000D01*
Y237500D02*
X405000D01*
Y390000D01*
X272500D02*
X405000D01*
X325000Y105000D02*
Y107500D01*
Y105000D02*
X450000D01*
Y185000D01*
X325000D02*
X450000D01*
X325000Y107500D02*
Y185000D01*
X245000Y497500D02*
X270000D01*
X172500D02*
X220000D01*
X245000D01*
X270000Y392500D02*
Y497500D01*
X172500Y392500D02*
X270000D01*
X172500D02*
Y497500D01*
X102500Y350938D02*
Y390000D01*
Y237500D02*
Y274688D01*
Y209375D02*
Y227500D01*
Y132500D02*
Y158125D01*
Y132500D02*
X150000D01*
Y105000D02*
Y132500D01*
Y105000D02*
X322500D01*
Y227500D01*
X102500Y227500D02*
X322500Y227500D01*
X102500Y158125D02*
Y209375D01*
Y390000D02*
X117500D01*
X102500Y274688D02*
Y350938D01*
Y237500D02*
X270000Y237500D01*
X542499Y401498D02*
X540500D01*
X539500Y400498D01*
Y396500D01*
X540500Y395500D01*
X542499D01*
X543499Y396500D01*
Y400498D01*
X542499Y401498D01*
X545498D02*
Y396500D01*
X546498Y395500D01*
X548497D01*
X549497Y396500D01*
Y401498D01*
X551496D02*
X555495D01*
X553496D01*
Y395500D01*
X557494D02*
X559493D01*
X558494D01*
Y401498D01*
X557494Y400498D01*
X542999Y410998D02*
X541000D01*
X540000Y409998D01*
Y406000D01*
X541000Y405000D01*
X542999D01*
X543999Y406000D01*
Y409998D01*
X542999Y410998D01*
X545998D02*
Y406000D01*
X546998Y405000D01*
X548997D01*
X549997Y406000D01*
Y410998D01*
X551996D02*
X555995D01*
X553996D01*
Y405000D01*
X561993D02*
X557994D01*
X561993Y408999D01*
Y409998D01*
X560993Y410998D01*
X558994D01*
X557994Y409998D01*
X288002Y453500D02*
X292001D01*
X294000Y455499D01*
X292001Y457499D01*
X288002D01*
Y459498D02*
X294000D01*
Y462497D01*
X293000Y463497D01*
X292001D01*
X291001Y462497D01*
Y459498D01*
Y462497D01*
X290001Y463497D01*
X289002D01*
X288002Y462497D01*
Y459498D01*
X294000Y465496D02*
X290001D01*
X288002Y467495D01*
X290001Y469495D01*
X294000D01*
X291001D01*
Y465496D01*
X288002Y471494D02*
Y475493D01*
Y473493D01*
X294000D01*
X288002Y477492D02*
Y481491D01*
Y479492D01*
X294000D01*
X432002Y443000D02*
X438000D01*
Y446999D01*
X432002Y451997D02*
Y449998D01*
X433002Y448998D01*
X437001D01*
X438000Y449998D01*
Y451997D01*
X437001Y452997D01*
X433002D01*
X432002Y451997D01*
X438000Y454996D02*
X434002D01*
X432002Y456995D01*
X434002Y458995D01*
X438000D01*
X435001D01*
Y454996D01*
X432002Y460994D02*
X438000D01*
Y463993D01*
X437001Y464993D01*
X433002D01*
X432002Y463993D01*
Y460994D01*
X439000Y466992D02*
Y470991D01*
X432002Y475989D02*
Y473990D01*
X433002Y472990D01*
X437001D01*
X438000Y473990D01*
Y475989D01*
X437001Y476989D01*
X433002D01*
X432002Y475989D01*
X438000Y478988D02*
X432002D01*
X438000Y482987D01*
X432002D01*
X424002Y452499D02*
X423002Y451499D01*
Y449500D01*
X424002Y448500D01*
X428000D01*
X429000Y449500D01*
Y451499D01*
X428000Y452499D01*
X423002Y454498D02*
X429000D01*
X426001D01*
Y458497D01*
X423002D01*
X429000D01*
X424002Y464495D02*
X423002Y463495D01*
Y461496D01*
X424002Y460496D01*
X428000D01*
X429000Y461496D01*
Y463495D01*
X428000Y464495D01*
X426001D01*
Y462496D01*
X423002Y470493D02*
Y466494D01*
X429000D01*
Y470493D01*
X426001Y466494D02*
Y468494D01*
X429000Y472492D02*
X423002D01*
X429000Y476491D01*
X423002D01*
X429000Y478490D02*
X425001D01*
Y481489D01*
X426001Y482489D01*
X429000D01*
X414002Y452499D02*
X413002Y451499D01*
Y449500D01*
X414002Y448500D01*
X418000D01*
X419000Y449500D01*
Y451499D01*
X418000Y452499D01*
X413002Y454498D02*
X419000D01*
X416001D01*
Y458497D01*
X413002D01*
X419000D01*
X414002Y464495D02*
X413002Y463495D01*
Y461496D01*
X414002Y460496D01*
X418000D01*
X419000Y461496D01*
Y463495D01*
X418000Y464495D01*
X416001D01*
Y462496D01*
X413002Y469493D02*
Y467494D01*
X414002Y466494D01*
X418000D01*
X419000Y467494D01*
Y469493D01*
X418000Y470493D01*
X414002D01*
X413002Y469493D01*
Y472492D02*
X419000D01*
X417001D01*
X413002Y476491D01*
X416001Y473492D01*
X419000Y476491D01*
Y478490D02*
X415001D01*
Y481489D01*
X416001Y482489D01*
X419000D01*
X409000Y453500D02*
X405001D01*
X403002Y455499D01*
X405001Y457499D01*
X409000D01*
X406001D01*
Y453500D01*
X404002Y463497D02*
X403002Y462497D01*
Y460498D01*
X404002Y459498D01*
X408000D01*
X409000Y460498D01*
Y462497D01*
X408000Y463497D01*
X403002Y468495D02*
Y466496D01*
X404002Y465496D01*
X408000D01*
X409000Y466496D01*
Y468495D01*
X408000Y469495D01*
X404002D01*
X403002Y468495D01*
Y471494D02*
X409000D01*
X407001D01*
X403002Y475493D01*
X406001Y472494D01*
X409000Y475493D01*
Y477492D02*
X405001D01*
Y480491D01*
X406001Y481491D01*
X409000D01*
X363002Y453500D02*
X367001D01*
X369000Y455499D01*
X367001Y457499D01*
X363002D01*
Y459498D02*
X369000D01*
Y463497D01*
X363002Y468495D02*
Y466496D01*
X364002Y465496D01*
X368000D01*
X369000Y466496D01*
Y468495D01*
X368000Y469495D01*
X364002D01*
X363002Y468495D01*
X369000Y471494D02*
X365001D01*
X363002Y473493D01*
X365001Y475493D01*
X369000D01*
X366001D01*
Y471494D01*
X363002Y477492D02*
X369000D01*
Y480491D01*
X368000Y481491D01*
X364002D01*
X363002Y480491D01*
Y477492D01*
X325502Y461000D02*
X329501D01*
X331500Y462999D01*
X329501Y464999D01*
X325502D01*
X326502Y470997D02*
X325502Y469997D01*
Y467998D01*
X326502Y466998D01*
X330500D01*
X331500Y467998D01*
Y469997D01*
X330500Y470997D01*
X325502Y472996D02*
X331500D01*
X328501D01*
Y476995D01*
X325502D01*
X331500D01*
X326502Y482993D02*
X325502Y481993D01*
Y479994D01*
X326502Y478994D01*
X330500D01*
X331500Y479994D01*
Y481993D01*
X330500Y482993D01*
X328501D01*
Y480994D01*
X336502Y469999D02*
X335502Y468999D01*
Y467000D01*
X336502Y466000D01*
X340500D01*
X341500Y467000D01*
Y468999D01*
X340500Y469999D01*
X338501D01*
Y467999D01*
X341500Y471998D02*
X335502D01*
X341500Y475997D01*
X335502D01*
Y477996D02*
X341500D01*
Y480995D01*
X340500Y481995D01*
X336502D01*
X335502Y480995D01*
Y477996D01*
X374002Y469999D02*
X373002Y468999D01*
Y467000D01*
X374002Y466000D01*
X378000D01*
X379000Y467000D01*
Y468999D01*
X378000Y469999D01*
X376001D01*
Y467999D01*
X379000Y471998D02*
X373002D01*
X379000Y475997D01*
X373002D01*
Y477996D02*
X379000D01*
Y480995D01*
X378000Y481995D01*
X374002D01*
X373002Y480995D01*
Y477996D01*
X299002Y469999D02*
X298002Y468999D01*
Y467000D01*
X299002Y466000D01*
X303000D01*
X304000Y467000D01*
Y468999D01*
X303000Y469999D01*
X301001D01*
Y467999D01*
X304000Y471998D02*
X298002D01*
X304000Y475997D01*
X298002D01*
Y477996D02*
X304000D01*
Y480995D01*
X303000Y481995D01*
X299002D01*
X298002Y480995D01*
Y477996D01*
X533002Y466000D02*
Y467999D01*
Y467000D01*
X539000D01*
Y466000D01*
Y467999D01*
Y470998D02*
X533002D01*
X539000Y474997D01*
X533002D01*
X539000Y476996D02*
Y478996D01*
Y477996D01*
X533002D01*
X534002Y476996D01*
X513002Y466000D02*
Y467999D01*
Y467000D01*
X519000D01*
Y466000D01*
Y467999D01*
Y470998D02*
X513002D01*
X519000Y474997D01*
X513002D01*
X514002Y476996D02*
X513002Y477996D01*
Y479995D01*
X514002Y480995D01*
X515001D01*
X516001Y479995D01*
Y478996D01*
Y479995D01*
X517001Y480995D01*
X518000D01*
X519000Y479995D01*
Y477996D01*
X518000Y476996D01*
X523002Y466000D02*
Y467999D01*
Y467000D01*
X529000D01*
Y466000D01*
Y467999D01*
Y470998D02*
X523002D01*
X529000Y474997D01*
X523002D01*
X529000Y480995D02*
Y476996D01*
X525001Y480995D01*
X524002D01*
X523002Y479995D01*
Y477996D01*
X524002Y476996D01*
X454002Y466000D02*
X453002Y467000D01*
Y468999D01*
X454002Y469999D01*
X455001D01*
X456001Y468999D01*
Y467999D01*
Y468999D01*
X457001Y469999D01*
X458000D01*
X459000Y468999D01*
Y467000D01*
X458000Y466000D01*
X453002Y471998D02*
X457001D01*
X459000Y473997D01*
X457001Y475997D01*
X453002D01*
X454002Y477996D02*
X453002Y478996D01*
Y480995D01*
X454002Y481995D01*
X455001D01*
X456001Y480995D01*
Y479995D01*
Y480995D01*
X457001Y481995D01*
X458000D01*
X459000Y480995D01*
Y478996D01*
X458000Y477996D01*
X463002Y466000D02*
Y467999D01*
Y467000D01*
X469000D01*
Y466000D01*
Y467999D01*
Y470998D02*
X463002D01*
X469000Y474997D01*
X463002D01*
X464002Y476996D02*
X463002Y477996D01*
Y479995D01*
X464002Y480995D01*
X465001D01*
X466001Y479995D01*
X467001Y480995D01*
X468000D01*
X469000Y479995D01*
Y477996D01*
X468000Y476996D01*
X467001D01*
X466001Y477996D01*
X465001Y476996D01*
X464002D01*
X466001Y477996D02*
Y479995D01*
X473002Y466000D02*
Y467999D01*
Y467000D01*
X479000D01*
Y466000D01*
Y467999D01*
Y470998D02*
X473002D01*
X479000Y474997D01*
X473002D01*
Y476996D02*
Y480995D01*
X474002D01*
X478000Y476996D01*
X479000D01*
X503002Y466000D02*
Y467999D01*
Y467000D01*
X509000D01*
Y466000D01*
Y467999D01*
Y470998D02*
X503002D01*
X509000Y474997D01*
X503002D01*
X509000Y479995D02*
X503002D01*
X506001Y476996D01*
Y480995D01*
X483002Y466000D02*
Y467999D01*
Y467000D01*
X489000D01*
Y466000D01*
Y467999D01*
Y470998D02*
X483002D01*
X489000Y474997D01*
X483002D01*
Y480995D02*
X484002Y478996D01*
X486001Y476996D01*
X488000D01*
X489000Y477996D01*
Y479995D01*
X488000Y480995D01*
X487001D01*
X486001Y479995D01*
Y476996D01*
X493002Y466000D02*
Y467999D01*
Y467000D01*
X499000D01*
Y466000D01*
Y467999D01*
Y470998D02*
X493002D01*
X499000Y474997D01*
X493002D01*
Y480995D02*
Y476996D01*
X496001D01*
X495001Y478996D01*
Y479995D01*
X496001Y480995D01*
X498000D01*
X499000Y479995D01*
Y477996D01*
X498000Y476996D01*
X178500Y466998D02*
Y461000D01*
X182499D01*
X187497Y466998D02*
X185498D01*
X184498Y465998D01*
Y462000D01*
X185498Y461000D01*
X187497D01*
X188497Y462000D01*
Y465998D01*
X187497Y466998D01*
X190496Y461000D02*
Y464999D01*
X192496Y466998D01*
X194495Y464999D01*
Y461000D01*
Y463999D01*
X190496D01*
X196494Y466998D02*
Y461000D01*
X199493D01*
X200493Y462000D01*
Y465998D01*
X199493Y466998D01*
X196494D01*
X211489D02*
X209490D01*
X208490Y465998D01*
Y462000D01*
X209490Y461000D01*
X211489D01*
X212489Y462000D01*
Y465998D01*
X211489Y466998D01*
X214488Y461000D02*
Y466998D01*
X218487Y461000D01*
Y466998D01*
X393500Y441497D02*
Y435499D01*
X396499D01*
X397499Y436499D01*
Y440498D01*
X396499Y441497D01*
X393500D01*
X399498Y435499D02*
X401497D01*
X400498D01*
Y439498D01*
X399498D01*
X406496Y433500D02*
X407495D01*
X408495Y434500D01*
Y439498D01*
X405496D01*
X404496Y438498D01*
Y436499D01*
X405496Y435499D01*
X408495D01*
X410495D02*
X412494D01*
X411494D01*
Y439498D01*
X410495D01*
X416493Y440498D02*
Y439498D01*
X415493D01*
X417492D01*
X416493D01*
Y436499D01*
X417492Y435499D01*
X421491Y439498D02*
X423490D01*
X424490Y438498D01*
Y435499D01*
X421491D01*
X420491Y436499D01*
X421491Y437499D01*
X424490D01*
X426489Y435499D02*
X428489D01*
X427489D01*
Y441497D01*
X426489D01*
X293500Y428500D02*
Y434498D01*
X296499D01*
X297499Y433498D01*
Y431499D01*
X296499Y430499D01*
X293500D01*
X300498Y428500D02*
X302497D01*
X303497Y429500D01*
Y431499D01*
X302497Y432499D01*
X300498D01*
X299498Y431499D01*
Y429500D01*
X300498Y428500D01*
X305496Y432499D02*
Y429500D01*
X306496Y428500D01*
X307495Y429500D01*
X308495Y428500D01*
X309495Y429500D01*
Y432499D01*
X314493Y428500D02*
X312494D01*
X311494Y429500D01*
Y431499D01*
X312494Y432499D01*
X314493D01*
X315493Y431499D01*
Y430499D01*
X311494D01*
X317492Y432499D02*
Y428500D01*
Y430499D01*
X318492Y431499D01*
X319492Y432499D01*
X320491D01*
X330488Y433498D02*
Y432499D01*
X329488D01*
X331488D01*
X330488D01*
Y429500D01*
X331488Y428500D01*
X335486D02*
X337486D01*
X338485Y429500D01*
Y431499D01*
X337486Y432499D01*
X335486D01*
X334487Y431499D01*
Y429500D01*
X335486Y428500D01*
X346483D02*
Y434498D01*
X349482D01*
X350482Y433498D01*
Y431499D01*
X349482Y430499D01*
X346483D01*
X356480Y433498D02*
X355480Y434498D01*
X353481D01*
X352481Y433498D01*
Y429500D01*
X353481Y428500D01*
X355480D01*
X356480Y429500D01*
X358479Y434498D02*
Y428500D01*
X361478D01*
X362478Y429500D01*
Y430499D01*
X361478Y431499D01*
X358479D01*
X361478D01*
X362478Y432499D01*
Y433498D01*
X361478Y434498D01*
X358479D01*
X364477Y428500D02*
X366476D01*
X365477D01*
Y434498D01*
X364477Y433498D01*
X392499Y431998D02*
X388500D01*
Y428999D01*
X390499D01*
X388500D01*
Y426000D01*
X394498Y429999D02*
Y426000D01*
Y427999D01*
X395498Y428999D01*
X396497Y429999D01*
X397497D01*
X401496Y426000D02*
X403495D01*
X404495Y427000D01*
Y428999D01*
X403495Y429999D01*
X401496D01*
X400496Y428999D01*
Y427000D01*
X401496Y426000D01*
X406494D02*
Y429999D01*
X407494D01*
X408494Y428999D01*
Y426000D01*
Y428999D01*
X409493Y429999D01*
X410493Y428999D01*
Y426000D01*
X418490D02*
Y431998D01*
X421489D01*
X422489Y430998D01*
Y428999D01*
X421489Y427999D01*
X418490D01*
X428487Y430998D02*
X427487Y431998D01*
X425488D01*
X424488Y430998D01*
Y427000D01*
X425488Y426000D01*
X427487D01*
X428487Y427000D01*
X430486Y431998D02*
Y426000D01*
X433486D01*
X434485Y427000D01*
Y427999D01*
X433486Y428999D01*
X430486D01*
X433486D01*
X434485Y429999D01*
Y430998D01*
X433486Y431998D01*
X430486D01*
X436484Y426000D02*
X438484D01*
X437484D01*
Y431998D01*
X436484Y430998D01*
X348500Y256000D02*
Y261998D01*
X351499D01*
X352499Y260998D01*
Y258999D01*
X351499Y257999D01*
X348500D01*
X355498Y256000D02*
X357497D01*
X358497Y257000D01*
Y258999D01*
X357497Y259999D01*
X355498D01*
X354498Y258999D01*
Y257000D01*
X355498Y256000D01*
X360496Y259999D02*
Y257000D01*
X361496Y256000D01*
X362495Y257000D01*
X363495Y256000D01*
X364495Y257000D01*
Y259999D01*
X369493Y256000D02*
X367494D01*
X366494Y257000D01*
Y258999D01*
X367494Y259999D01*
X369493D01*
X370493Y258999D01*
Y257999D01*
X366494D01*
X372492Y259999D02*
Y256000D01*
Y257999D01*
X373492Y258999D01*
X374492Y259999D01*
X375491D01*
X348500Y275499D02*
Y281497D01*
X351499D01*
X352499Y280498D01*
Y278498D01*
X351499Y277499D01*
X348500D01*
X350499D02*
X352499Y275499D01*
X357497D02*
X355498D01*
X354498Y276499D01*
Y278498D01*
X355498Y279498D01*
X357497D01*
X358497Y278498D01*
Y277499D01*
X354498D01*
X364495Y279498D02*
X361496D01*
X360496Y278498D01*
Y276499D01*
X361496Y275499D01*
X364495D01*
X369493D02*
X367494D01*
X366494Y276499D01*
Y278498D01*
X367494Y279498D01*
X369493D01*
X370493Y278498D01*
Y277499D01*
X366494D01*
X372492Y275499D02*
X374492D01*
X373492D01*
Y279498D01*
X372492D01*
X377491D02*
X379490Y275499D01*
X381489Y279498D01*
X383489Y275499D02*
X385488D01*
X384488D01*
Y279498D01*
X383489D01*
X388487Y275499D02*
Y279498D01*
X391486D01*
X392486Y278498D01*
Y275499D01*
X396484Y273500D02*
X397484D01*
X398484Y274500D01*
Y279498D01*
X395485D01*
X394485Y278498D01*
Y276499D01*
X395485Y275499D01*
X398484D01*
X540999Y244998D02*
X539000D01*
X538000Y243998D01*
Y240000D01*
X539000Y239000D01*
X540999D01*
X541999Y240000D01*
Y243998D01*
X540999Y244998D01*
X543998D02*
Y240000D01*
X544998Y239000D01*
X546997D01*
X547997Y240000D01*
Y244998D01*
X549996D02*
X553995D01*
X551996D01*
Y239000D01*
X555994Y243998D02*
X556994Y244998D01*
X558993D01*
X559993Y243998D01*
Y242999D01*
X558993Y241999D01*
X559993Y240999D01*
Y240000D01*
X558993Y239000D01*
X556994D01*
X555994Y240000D01*
Y240999D01*
X556994Y241999D01*
X555994Y242999D01*
Y243998D01*
X556994Y241999D02*
X558993D01*
X541999Y233998D02*
X540000D01*
X539000Y232998D01*
Y229000D01*
X540000Y228000D01*
X541999D01*
X542999Y229000D01*
Y232998D01*
X541999Y233998D01*
X544998D02*
Y229000D01*
X545998Y228000D01*
X547997D01*
X548997Y229000D01*
Y233998D01*
X550996D02*
X554995D01*
X552995D01*
Y228000D01*
X556994Y233998D02*
X560993D01*
Y232998D01*
X556994Y229000D01*
Y228000D01*
X542999Y301998D02*
X541000D01*
X540000Y300998D01*
Y297000D01*
X541000Y296000D01*
X542999D01*
X543999Y297000D01*
Y300998D01*
X542999Y301998D01*
X545998D02*
Y297000D01*
X546998Y296000D01*
X548997D01*
X549997Y297000D01*
Y301998D01*
X551996D02*
X555995D01*
X553996D01*
Y296000D01*
X561993Y301998D02*
X559994Y300998D01*
X557994Y298999D01*
Y297000D01*
X558994Y296000D01*
X560993D01*
X561993Y297000D01*
Y297999D01*
X560993Y298999D01*
X557994D01*
X542999Y288998D02*
X541000D01*
X540000Y287998D01*
Y284000D01*
X541000Y283000D01*
X542999D01*
X543999Y284000D01*
Y287998D01*
X542999Y288998D01*
X545998D02*
Y284000D01*
X546998Y283000D01*
X548997D01*
X549997Y284000D01*
Y288998D01*
X551996D02*
X555995D01*
X553996D01*
Y283000D01*
X561993Y288998D02*
X557994D01*
Y285999D01*
X559994Y286999D01*
X560993D01*
X561993Y285999D01*
Y284000D01*
X560993Y283000D01*
X558994D01*
X557994Y284000D01*
X542999Y355998D02*
X541000D01*
X540000Y354998D01*
Y351000D01*
X541000Y350000D01*
X542999D01*
X543999Y351000D01*
Y354998D01*
X542999Y355998D01*
X545998D02*
Y351000D01*
X546998Y350000D01*
X548997D01*
X549997Y351000D01*
Y355998D01*
X551996D02*
X555995D01*
X553996D01*
Y350000D01*
X560993D02*
Y355998D01*
X557994Y352999D01*
X561993D01*
X542999Y346998D02*
X541000D01*
X540000Y345998D01*
Y342000D01*
X541000Y341000D01*
X542999D01*
X543999Y342000D01*
Y345998D01*
X542999Y346998D01*
X545998D02*
Y342000D01*
X546998Y341000D01*
X548997D01*
X549997Y342000D01*
Y346998D01*
X551996D02*
X555995D01*
X553996D01*
Y341000D01*
X557994Y345998D02*
X558994Y346998D01*
X560993D01*
X561993Y345998D01*
Y344999D01*
X560993Y343999D01*
X559994D01*
X560993D01*
X561993Y342999D01*
Y342000D01*
X560993Y341000D01*
X558994D01*
X557994Y342000D01*
X418500Y171497D02*
X420499D01*
X419500D01*
Y165499D01*
X418500D01*
X420499D01*
X423498D02*
Y169498D01*
X426497D01*
X427497Y168498D01*
Y165499D01*
X429496Y163500D02*
Y169498D01*
X432495D01*
X433495Y168498D01*
Y166499D01*
X432495Y165499D01*
X429496D01*
X435495Y169498D02*
Y166499D01*
X436494Y165499D01*
X439493D01*
Y169498D01*
X442492Y170498D02*
Y169498D01*
X441493D01*
X443492D01*
X442492D01*
Y166499D01*
X443492Y165499D01*
X418500Y181998D02*
Y176000D01*
X420499Y177999D01*
X422499Y176000D01*
Y181998D01*
X424498Y176000D02*
X426497D01*
X425498D01*
Y179999D01*
X424498D01*
X429496D02*
Y176000D01*
Y177999D01*
X430496Y178999D01*
X431496Y179999D01*
X432495D01*
X438493Y176000D02*
X436494D01*
X435495Y177000D01*
Y178999D01*
X436494Y179999D01*
X438493D01*
X439493Y178999D01*
Y177999D01*
X435495D01*
X445491Y181998D02*
Y176000D01*
X442492D01*
X441493Y177000D01*
Y178999D01*
X442492Y179999D01*
X445491D01*
X352499Y318498D02*
X351499Y319498D01*
X349500D01*
X348500Y318498D01*
Y314500D01*
X349500Y313500D01*
X351499D01*
X352499Y314500D01*
X354498Y319498D02*
Y313500D01*
Y316499D01*
X358497D01*
Y319498D01*
Y313500D01*
X364495Y318498D02*
X363495Y319498D01*
X361496D01*
X360496Y318498D01*
Y314500D01*
X361496Y313500D01*
X363495D01*
X364495Y314500D01*
Y316499D01*
X362495D01*
X369493Y319498D02*
X367494D01*
X366494Y318498D01*
Y314500D01*
X367494Y313500D01*
X369493D01*
X370493Y314500D01*
Y318498D01*
X369493Y319498D01*
X372492D02*
Y313500D01*
Y315499D01*
X376491Y319498D01*
X373492Y316499D01*
X376491Y313500D01*
X378490D02*
Y317499D01*
X381489D01*
X382489Y316499D01*
Y313500D01*
X348500Y361000D02*
Y364999D01*
X350499Y366998D01*
X352499Y364999D01*
Y361000D01*
Y363999D01*
X348500D01*
X358497Y365998D02*
X357497Y366998D01*
X355498D01*
X354498Y365998D01*
Y362000D01*
X355498Y361000D01*
X357497D01*
X358497Y362000D01*
X363495Y366998D02*
X361496D01*
X360496Y365998D01*
Y362000D01*
X361496Y361000D01*
X363495D01*
X364495Y362000D01*
Y365998D01*
X363495Y366998D01*
X366494D02*
Y361000D01*
Y362999D01*
X370493Y366998D01*
X367494Y363999D01*
X370493Y361000D01*
X372492D02*
Y364999D01*
X375491D01*
X376491Y363999D01*
Y361000D01*
X111000Y159498D02*
Y153500D01*
X112999Y155499D01*
X114999Y153500D01*
Y159498D01*
X116998Y153500D02*
X118997D01*
X117998D01*
Y157499D01*
X116998D01*
X121996D02*
Y153500D01*
Y155499D01*
X122996Y156499D01*
X123996Y157499D01*
X124996D01*
X130993Y153500D02*
X128994D01*
X127995Y154500D01*
Y156499D01*
X128994Y157499D01*
X130993D01*
X131993Y156499D01*
Y155499D01*
X127995D01*
X133993Y153500D02*
X135992D01*
X134992D01*
Y159498D01*
X133993D01*
X141990Y153500D02*
X139991D01*
X138991Y154500D01*
Y156499D01*
X139991Y157499D01*
X141990D01*
X142990Y156499D01*
Y155499D01*
X138991D01*
X144989Y153500D02*
X147988D01*
X148988Y154500D01*
X147988Y155499D01*
X145989D01*
X144989Y156499D01*
X145989Y157499D01*
X148988D01*
X150987Y153500D02*
X153986D01*
X154986Y154500D01*
X153986Y155499D01*
X151987D01*
X150987Y156499D01*
X151987Y157499D01*
X154986D01*
X111000Y143500D02*
Y149498D01*
X113999D01*
X114999Y148498D01*
Y146499D01*
X113999Y145499D01*
X111000D01*
X112999D02*
X114999Y143500D01*
X119997D02*
X117998D01*
X116998Y144500D01*
Y146499D01*
X117998Y147499D01*
X119997D01*
X120997Y146499D01*
Y145499D01*
X116998D01*
X126995Y147499D02*
X123996D01*
X122996Y146499D01*
Y144500D01*
X123996Y143500D01*
X126995D01*
X131993D02*
X129994D01*
X128994Y144500D01*
Y146499D01*
X129994Y147499D01*
X131993D01*
X132993Y146499D01*
Y145499D01*
X128994D01*
X134992Y143500D02*
X136992D01*
X135992D01*
Y147499D01*
X134992D01*
X139991D02*
X141990Y143500D01*
X143989Y147499D01*
X148988Y143500D02*
X146988D01*
X145989Y144500D01*
Y146499D01*
X146988Y147499D01*
X148988D01*
X149987Y146499D01*
Y145499D01*
X145989D01*
X151987Y147499D02*
Y143500D01*
Y145499D01*
X152986Y146499D01*
X153986Y147499D01*
X154986D01*
X456000Y175499D02*
Y181497D01*
X458999D01*
X459999Y180498D01*
Y178498D01*
X458999Y177499D01*
X456000D01*
X457999D02*
X459999Y175499D01*
X461998Y179498D02*
Y176499D01*
X462998Y175499D01*
X465997D01*
Y174500D01*
X464997Y173500D01*
X463997D01*
X465997Y175499D02*
Y179498D01*
X468996D02*
X470995D01*
X471995Y178498D01*
Y175499D01*
X468996D01*
X467996Y176499D01*
X468996Y177499D01*
X471995D01*
X473994Y175499D02*
Y179498D01*
X476993D01*
X477993Y178498D01*
Y175499D01*
X485990D02*
Y181497D01*
X488989D01*
X489989Y180498D01*
Y178498D01*
X488989Y177499D01*
X485990D01*
X487990D02*
X489989Y175499D01*
X492988D02*
X494987D01*
X495987Y176499D01*
Y178498D01*
X494987Y179498D01*
X492988D01*
X491988Y178498D01*
Y176499D01*
X492988Y175499D01*
X497986Y181497D02*
Y175499D01*
X500985D01*
X501985Y176499D01*
Y177499D01*
Y178498D01*
X500985Y179498D01*
X497986D01*
X503984Y175499D02*
X505984D01*
X504984D01*
Y179498D01*
X503984D01*
X508983Y175499D02*
Y179498D01*
X511982D01*
X512982Y178498D01*
Y175499D01*
X514981D02*
X517980D01*
X518980Y176499D01*
X517980Y177499D01*
X515981D01*
X514981Y178498D01*
X515981Y179498D01*
X518980D01*
X521979Y175499D02*
X523978D01*
X524978Y176499D01*
Y178498D01*
X523978Y179498D01*
X521979D01*
X520979Y178498D01*
Y176499D01*
X521979Y175499D01*
X526977D02*
Y179498D01*
X529976D01*
X530976Y178498D01*
Y175499D01*
X348500Y271998D02*
Y266000D01*
X350499Y267999D01*
X352499Y266000D01*
Y271998D01*
X354498Y266000D02*
X356497D01*
X355498D01*
Y269999D01*
X354498D01*
X359496D02*
Y266000D01*
Y267999D01*
X360496Y268999D01*
X361496Y269999D01*
X362495D01*
X368494Y266000D02*
X366494D01*
X365494Y267000D01*
Y268999D01*
X366494Y269999D01*
X368494D01*
X369493Y268999D01*
Y267999D01*
X365494D01*
X371493Y266000D02*
X373492D01*
X372492D01*
Y271998D01*
X371493D01*
X379490Y266000D02*
X377491D01*
X376491Y267000D01*
Y268999D01*
X377491Y269999D01*
X379490D01*
X380490Y268999D01*
Y267999D01*
X376491D01*
X382489Y266000D02*
X385488D01*
X386488Y267000D01*
X385488Y267999D01*
X383489D01*
X382489Y268999D01*
X383489Y269999D01*
X386488D01*
X388487Y266000D02*
X391486D01*
X392486Y267000D01*
X391486Y267999D01*
X389487D01*
X388487Y268999D01*
X389487Y269999D01*
X392486D01*
X123000Y302498D02*
X124999D01*
X124000D01*
Y296500D01*
X123000D01*
X124999D01*
X131997Y301498D02*
X130997Y302498D01*
X128998D01*
X127998Y301498D01*
Y297500D01*
X128998Y296500D01*
X130997D01*
X131997Y297500D01*
X114499Y310998D02*
X113499Y311997D01*
X111500D01*
X110500Y310998D01*
Y306999D01*
X111500Y305999D01*
X113499D01*
X114499Y306999D01*
X116498Y311997D02*
Y305999D01*
Y308998D01*
X117498Y309998D01*
X119497D01*
X120497Y308998D01*
Y305999D01*
X123496Y309998D02*
X125495D01*
X126495Y308998D01*
Y305999D01*
X123496D01*
X122496Y306999D01*
X123496Y307999D01*
X126495D01*
X128494Y309998D02*
Y305999D01*
Y307999D01*
X129494Y308998D01*
X130493Y309998D01*
X131493D01*
X136492Y304000D02*
X137491D01*
X138491Y305000D01*
Y309998D01*
X135492D01*
X134492Y308998D01*
Y306999D01*
X135492Y305999D01*
X138491D01*
X143489D02*
X141490D01*
X140490Y306999D01*
Y308998D01*
X141490Y309998D01*
X143489D01*
X144489Y308998D01*
Y307999D01*
X140490D01*
X146488Y309998D02*
Y305999D01*
Y307999D01*
X147488Y308998D01*
X148488Y309998D01*
X149487D01*
X334999Y208498D02*
X333999Y209498D01*
X332000D01*
X331000Y208498D01*
Y204500D01*
X332000Y203500D01*
X333999D01*
X334999Y204500D01*
X336998Y209498D02*
Y203500D01*
Y206499D01*
X340997D01*
Y209498D01*
Y203500D01*
X346995Y208498D02*
X345995Y209498D01*
X343996D01*
X342996Y208498D01*
Y204500D01*
X343996Y203500D01*
X345995D01*
X346995Y204500D01*
Y206499D01*
X344995D01*
X358991Y208498D02*
X357991Y209498D01*
X355992D01*
X354992Y208498D01*
Y207499D01*
X355992Y206499D01*
X357991D01*
X358991Y205499D01*
Y204500D01*
X357991Y203500D01*
X355992D01*
X354992Y204500D01*
X364989Y209498D02*
X360990D01*
Y203500D01*
X364989D01*
X360990Y206499D02*
X362990D01*
X366988Y209498D02*
Y203500D01*
X370987D01*
X376985Y209498D02*
X372986D01*
Y203500D01*
X376985D01*
X372986Y206499D02*
X374986D01*
X382983Y208498D02*
X381983Y209498D01*
X379984D01*
X378984Y208498D01*
Y204500D01*
X379984Y203500D01*
X381983D01*
X382983Y204500D01*
X384982Y209498D02*
X388981D01*
X386982D01*
Y203500D01*
X393980Y209498D02*
X391980D01*
X390981Y208498D01*
Y204500D01*
X391980Y203500D01*
X393980D01*
X394979Y204500D01*
Y208498D01*
X393980Y209498D01*
X396979Y203500D02*
Y209498D01*
X399978D01*
X400977Y208498D01*
Y206499D01*
X399978Y205499D01*
X396979D01*
X398978D02*
X400977Y203500D01*
X201000Y406998D02*
Y401000D01*
X204999D01*
X207998D02*
X209997D01*
X210997Y402000D01*
Y403999D01*
X209997Y404999D01*
X207998D01*
X206998Y403999D01*
Y402000D01*
X207998Y401000D01*
X213996Y404999D02*
X215995D01*
X216995Y403999D01*
Y401000D01*
X213996D01*
X212996Y402000D01*
X213996Y402999D01*
X216995D01*
X222993Y406998D02*
Y401000D01*
X219994D01*
X218994Y402000D01*
Y403999D01*
X219994Y404999D01*
X222993D01*
X234989Y405998D02*
X233989Y406998D01*
X231990D01*
X230990Y405998D01*
Y404999D01*
X231990Y403999D01*
X233989D01*
X234989Y402999D01*
Y402000D01*
X233989Y401000D01*
X231990D01*
X230990Y402000D01*
X236988Y404999D02*
Y402000D01*
X237988Y401000D01*
X238988Y402000D01*
X239987Y401000D01*
X240987Y402000D01*
Y404999D01*
X242986Y401000D02*
X244986D01*
X243986D01*
Y404999D01*
X242986D01*
X248985Y405998D02*
Y404999D01*
X247985D01*
X249984D01*
X248985D01*
Y402000D01*
X249984Y401000D01*
X256982Y404999D02*
X253983D01*
X252983Y403999D01*
Y402000D01*
X253983Y401000D01*
X256982D01*
X258981Y406998D02*
Y401000D01*
Y403999D01*
X259981Y404999D01*
X261980D01*
X262980Y403999D01*
Y401000D01*
X108500Y404498D02*
Y400499D01*
X110499Y398500D01*
X112499Y400499D01*
Y404498D01*
X114498D02*
Y398500D01*
X117497D01*
X118497Y399500D01*
Y400499D01*
X117497Y401499D01*
X114498D01*
X117497D01*
X118497Y402499D01*
Y403498D01*
X117497Y404498D01*
X114498D01*
X120496Y398500D02*
Y402499D01*
X122495Y404498D01*
X124495Y402499D01*
Y398500D01*
Y401499D01*
X120496D01*
X126494Y404498D02*
X130493D01*
X128493D01*
Y398500D01*
X132492Y404498D02*
X136491D01*
X134492D01*
Y398500D01*
X479999Y431998D02*
X476000D01*
Y428999D01*
X477999D01*
X476000D01*
Y426000D01*
X481998Y429999D02*
Y426000D01*
Y427999D01*
X482998Y428999D01*
X483997Y429999D01*
X484997D01*
X488996Y426000D02*
X490995D01*
X491995Y427000D01*
Y428999D01*
X490995Y429999D01*
X488996D01*
X487996Y428999D01*
Y427000D01*
X488996Y426000D01*
X493994D02*
Y429999D01*
X494994D01*
X495994Y428999D01*
Y426000D01*
Y428999D01*
X496993Y429999D01*
X497993Y428999D01*
Y426000D01*
X505990D02*
Y431998D01*
X508989D01*
X509989Y430998D01*
Y428999D01*
X508989Y427999D01*
X505990D01*
X515987Y430998D02*
X514987Y431998D01*
X512988D01*
X511988Y430998D01*
Y427000D01*
X512988Y426000D01*
X514987D01*
X515987Y427000D01*
X517986Y431998D02*
Y426000D01*
X520986D01*
X521985Y427000D01*
Y427999D01*
X520986Y428999D01*
X517986D01*
X520986D01*
X521985Y429999D01*
Y430998D01*
X520986Y431998D01*
X517986D01*
X523984Y426000D02*
X525984D01*
X524984D01*
Y431998D01*
X523984Y430998D01*
X466000Y435000D02*
Y440998D01*
X467999Y438999D01*
X469999Y440998D01*
Y435000D01*
X472998D02*
X474997D01*
X475997Y436000D01*
Y437999D01*
X474997Y438999D01*
X472998D01*
X471998Y437999D01*
Y436000D01*
X472998Y435000D01*
X478996Y439998D02*
Y438999D01*
X477996D01*
X479995D01*
X478996D01*
Y436000D01*
X479995Y435000D01*
X483994D02*
X485993D01*
X486993Y436000D01*
Y437999D01*
X485993Y438999D01*
X483994D01*
X482995Y437999D01*
Y436000D01*
X483994Y435000D01*
X488993Y438999D02*
Y435000D01*
Y436999D01*
X489992Y437999D01*
X490992Y438999D01*
X491992D01*
X504987Y439998D02*
X503988Y440998D01*
X501988D01*
X500989Y439998D01*
Y436000D01*
X501988Y435000D01*
X503988D01*
X504987Y436000D01*
X507986Y435000D02*
X509986D01*
X510986Y436000D01*
Y437999D01*
X509986Y438999D01*
X507986D01*
X506987Y437999D01*
Y436000D01*
X507986Y435000D01*
X512985D02*
Y438999D01*
X515984D01*
X516984Y437999D01*
Y435000D01*
X519982Y439998D02*
Y438999D01*
X518983D01*
X520982D01*
X519982D01*
Y436000D01*
X520982Y435000D01*
X523981Y438999D02*
Y435000D01*
Y436999D01*
X524981Y437999D01*
X525981Y438999D01*
X526980D01*
X530979Y435000D02*
X532978D01*
X533978Y436000D01*
Y437999D01*
X532978Y438999D01*
X530979D01*
X529979Y437999D01*
Y436000D01*
X530979Y435000D01*
X535977D02*
X537977D01*
X536977D01*
Y440998D01*
X535977D01*
X456000Y113500D02*
Y119498D01*
X457999Y117499D01*
X459999Y119498D01*
Y113500D01*
X462998D02*
X464997D01*
X465997Y114500D01*
Y116499D01*
X464997Y117499D01*
X462998D01*
X461998Y116499D01*
Y114500D01*
X462998Y113500D01*
X468996Y118498D02*
Y117499D01*
X467996D01*
X469995D01*
X468996D01*
Y114500D01*
X469995Y113500D01*
X473994D02*
X475993D01*
X476993Y114500D01*
Y116499D01*
X475993Y117499D01*
X473994D01*
X472995Y116499D01*
Y114500D01*
X473994Y113500D01*
X478993Y117499D02*
Y113500D01*
Y115499D01*
X479992Y116499D01*
X480992Y117499D01*
X481992D01*
X490989Y119498D02*
Y113500D01*
X493988D01*
X494987Y114500D01*
Y118498D01*
X493988Y119498D01*
X490989D01*
X496987Y117499D02*
Y113500D01*
Y115499D01*
X497986Y116499D01*
X498986Y117499D01*
X499986D01*
X502985Y113500D02*
X504984D01*
X503984D01*
Y117499D01*
X502985D01*
X507983D02*
X509982Y113500D01*
X511982Y117499D01*
X516980Y113500D02*
X514981D01*
X513981Y114500D01*
Y116499D01*
X514981Y117499D01*
X516980D01*
X517980Y116499D01*
Y115499D01*
X513981D01*
X519979Y117499D02*
Y113500D01*
Y115499D01*
X520979Y116499D01*
X521979Y117499D01*
X522978D01*
X525977Y113500D02*
X528976D01*
X529976Y114500D01*
X528976Y115499D01*
X526977D01*
X525977Y116499D01*
X526977Y117499D01*
X529976D01*
X459999Y130498D02*
X458999Y131497D01*
X457000D01*
X456000Y130498D01*
Y126499D01*
X457000Y125499D01*
X458999D01*
X459999Y126499D01*
X461998Y131497D02*
Y125499D01*
Y128498D01*
X462998Y129498D01*
X464997D01*
X465997Y128498D01*
Y125499D01*
X468996Y129498D02*
X470995D01*
X471995Y128498D01*
Y125499D01*
X468996D01*
X467996Y126499D01*
X468996Y127499D01*
X471995D01*
X473994Y129498D02*
Y125499D01*
Y127499D01*
X474994Y128498D01*
X475993Y129498D01*
X476993D01*
X481992Y123500D02*
X482991D01*
X483991Y124500D01*
Y129498D01*
X480992D01*
X479992Y128498D01*
Y126499D01*
X480992Y125499D01*
X483991D01*
X488989D02*
X486990D01*
X485990Y126499D01*
Y128498D01*
X486990Y129498D01*
X488989D01*
X489989Y128498D01*
Y127499D01*
X485990D01*
X491988Y129498D02*
Y125499D01*
Y127499D01*
X492988Y128498D01*
X493988Y129498D01*
X494987D01*
X503984Y131497D02*
X505984D01*
X504984D01*
Y125499D01*
X503984D01*
X505984D01*
X512982Y130498D02*
X511982Y131497D01*
X509982D01*
X508983Y130498D01*
Y126499D01*
X509982Y125499D01*
X511982D01*
X512982Y126499D01*
X515981Y124500D02*
X516980Y125499D01*
Y126499D01*
X515981D01*
Y125499D01*
X516980D01*
X515981Y124500D01*
X514981Y123500D01*
X456000Y143997D02*
Y137999D01*
X457999Y139999D01*
X459999Y137999D01*
Y143997D01*
X461998Y137999D02*
X463997D01*
X462998D01*
Y141998D01*
X461998D01*
X466996D02*
Y137999D01*
Y139999D01*
X467996Y140998D01*
X468996Y141998D01*
X469995D01*
X475993Y137999D02*
X473994D01*
X472995Y138999D01*
Y140998D01*
X473994Y141998D01*
X475993D01*
X476993Y140998D01*
Y139999D01*
X472995D01*
X478993Y137999D02*
X480992D01*
X479992D01*
Y143997D01*
X478993D01*
X486990Y137999D02*
X484991D01*
X483991Y138999D01*
Y140998D01*
X484991Y141998D01*
X486990D01*
X487990Y140998D01*
Y139999D01*
X483991D01*
X489989Y137999D02*
X492988D01*
X493988Y138999D01*
X492988Y139999D01*
X490989D01*
X489989Y140998D01*
X490989Y141998D01*
X493988D01*
X495987Y137999D02*
X498986D01*
X499986Y138999D01*
X498986Y139999D01*
X496987D01*
X495987Y140998D01*
X496987Y141998D01*
X499986D01*
X501985Y137999D02*
X505984Y141998D01*
X507983Y143997D02*
Y137999D01*
X509982Y139999D01*
X511982Y137999D01*
Y143997D01*
X513981Y137999D02*
X515981D01*
X514981D01*
Y141998D01*
X513981D01*
X518980D02*
Y137999D01*
Y139999D01*
X519979Y140998D01*
X520979Y141998D01*
X521979D01*
X527977Y137999D02*
X525977D01*
X524978Y138999D01*
Y140998D01*
X525977Y141998D01*
X527977D01*
X528976Y140998D01*
Y139999D01*
X524978D01*
X534974Y143997D02*
Y137999D01*
X531975D01*
X530976Y138999D01*
Y140998D01*
X531975Y141998D01*
X534974D01*
X542972Y143997D02*
X544971D01*
X543971D01*
Y137999D01*
X542972D01*
X544971D01*
X547970D02*
Y143997D01*
X551969Y137999D01*
Y143997D01*
X554968Y137000D02*
X555968Y137999D01*
Y138999D01*
X554968D01*
Y137999D01*
X555968D01*
X554968Y137000D01*
X553968Y136000D01*
X456000Y150499D02*
Y156497D01*
X458999D01*
X459999Y155498D01*
Y153498D01*
X458999Y152499D01*
X456000D01*
X462998Y150499D02*
X464997D01*
X465997Y151499D01*
Y153498D01*
X464997Y154498D01*
X462998D01*
X461998Y153498D01*
Y151499D01*
X462998Y150499D01*
X467996Y154498D02*
Y151499D01*
X468996Y150499D01*
X469995Y151499D01*
X470995Y150499D01*
X471995Y151499D01*
Y154498D01*
X476993Y150499D02*
X474994D01*
X473994Y151499D01*
Y153498D01*
X474994Y154498D01*
X476993D01*
X477993Y153498D01*
Y152499D01*
X473994D01*
X479992Y154498D02*
Y150499D01*
Y152499D01*
X480992Y153498D01*
X481992Y154498D01*
X482991D01*
X491988Y150499D02*
Y156497D01*
X494987D01*
X495987Y155498D01*
Y153498D01*
X494987Y152499D01*
X491988D01*
X498986Y154498D02*
X500985D01*
X501985Y153498D01*
Y150499D01*
X498986D01*
X497986Y151499D01*
X498986Y152499D01*
X501985D01*
X504984Y155498D02*
Y154498D01*
X503984D01*
X505984D01*
X504984D01*
Y151499D01*
X505984Y150499D01*
X508983Y156497D02*
Y150499D01*
Y153498D01*
X509982Y154498D01*
X511982D01*
X512982Y153498D01*
Y150499D01*
X515981Y149500D02*
X516980Y150499D01*
Y151499D01*
X515981D01*
Y150499D01*
X516980D01*
X515981Y149500D01*
X514981Y148500D01*
X456000Y163500D02*
Y169498D01*
X458999D01*
X459999Y168498D01*
Y166499D01*
X458999Y165499D01*
X456000D01*
X462998Y163500D02*
X464997D01*
X465997Y164500D01*
Y166499D01*
X464997Y167499D01*
X462998D01*
X461998Y166499D01*
Y164500D01*
X462998Y163500D01*
X467996Y167499D02*
Y164500D01*
X468996Y163500D01*
X469995Y164500D01*
X470995Y163500D01*
X471995Y164500D01*
Y167499D01*
X476993Y163500D02*
X474994D01*
X473994Y164500D01*
Y166499D01*
X474994Y167499D01*
X476993D01*
X477993Y166499D01*
Y165499D01*
X473994D01*
X479992Y167499D02*
Y163500D01*
Y165499D01*
X480992Y166499D01*
X481992Y167499D01*
X482991D01*
X491988Y169498D02*
Y163500D01*
X494987D01*
X495987Y164500D01*
Y165499D01*
X494987Y166499D01*
X491988D01*
X494987D01*
X495987Y167499D01*
Y168498D01*
X494987Y169498D01*
X491988D01*
X498986Y163500D02*
X500985D01*
X501985Y164500D01*
Y166499D01*
X500985Y167499D01*
X498986D01*
X497986Y166499D01*
Y164500D01*
X498986Y163500D01*
X504984Y167499D02*
X506984D01*
X507983Y166499D01*
Y163500D01*
X504984D01*
X503984Y164500D01*
X504984Y165499D01*
X507983D01*
X509982Y167499D02*
Y163500D01*
Y165499D01*
X510982Y166499D01*
X511982Y167499D01*
X512982D01*
X519979Y169498D02*
Y163500D01*
X516980D01*
X515981Y164500D01*
Y166499D01*
X516980Y167499D01*
X519979D01*
X559502Y216001D02*
Y221999D01*
X562501D01*
X563501Y220999D01*
Y219000D01*
X562501Y218000D01*
X559502D01*
X565500Y216001D02*
X567500D01*
X566500D01*
Y221999D01*
X565500Y220999D01*
X574498Y216001D02*
X570499D01*
X574498Y220000D01*
Y220999D01*
X573498Y221999D01*
X571498D01*
X570499Y220999D01*
X562502Y273001D02*
Y278999D01*
X565501D01*
X566501Y277999D01*
Y276000D01*
X565501Y275000D01*
X562502D01*
X568500Y273001D02*
X570500D01*
X569500D01*
Y278999D01*
X568500Y277999D01*
X573498Y273001D02*
X575498D01*
X574498D01*
Y278999D01*
X573498Y277999D01*
X559502Y327001D02*
Y332999D01*
X562501D01*
X563501Y331999D01*
Y330000D01*
X562501Y329000D01*
X559502D01*
X565500Y327001D02*
X567500D01*
X566500D01*
Y332999D01*
X565500Y331999D01*
X570499D02*
X571498Y332999D01*
X573498D01*
X574498Y331999D01*
Y328001D01*
X573498Y327001D01*
X571498D01*
X570499Y328001D01*
Y331999D01*
X177001Y477502D02*
X182999D01*
Y480501D01*
X181999Y481500D01*
X178001D01*
X177001Y480501D01*
Y477502D01*
Y483500D02*
Y487498D01*
X178001D01*
X181999Y483500D01*
X182999D01*
X250501Y488001D02*
Y493999D01*
X253500D01*
X254500Y492999D01*
Y491000D01*
X253500Y490000D01*
X250501D01*
X252501D02*
X254500Y488001D01*
X256499D02*
X258499D01*
X257499D01*
Y493999D01*
X256499Y492999D01*
X115501Y362499D02*
X114502Y363499D01*
X112502D01*
X111503Y362499D01*
Y358501D01*
X112502Y357501D01*
X114502D01*
X115501Y358501D01*
X121499Y357501D02*
X117501D01*
X121499Y361500D01*
Y362499D01*
X120500Y363499D01*
X118500D01*
X117501Y362499D01*
X123499Y363499D02*
X127497D01*
Y362499D01*
X123499Y358501D01*
Y357501D01*
X210001Y292001D02*
X209001Y291002D01*
Y289002D01*
X210001Y288003D01*
X213999D01*
X214999Y289002D01*
Y291002D01*
X213999Y292001D01*
X214999Y297999D02*
Y294001D01*
X211000Y297999D01*
X210001D01*
X209001Y297000D01*
Y295000D01*
X210001Y294001D01*
X209001Y303997D02*
X210001Y301998D01*
X212000Y299999D01*
X213999D01*
X214999Y300998D01*
Y302998D01*
X213999Y303997D01*
X213000D01*
X212000Y302998D01*
Y299999D01*
X436002Y253999D02*
Y249001D01*
X437001Y248001D01*
X439001D01*
X440000Y249001D01*
Y253999D01*
X445998D02*
X443999Y252999D01*
X442000Y251000D01*
Y249001D01*
X442999Y248001D01*
X444999D01*
X445998Y249001D01*
Y250000D01*
X444999Y251000D01*
X442000D01*
X437002Y308999D02*
Y304001D01*
X438001Y303001D01*
X440001D01*
X441000Y304001D01*
Y308999D01*
X446998D02*
X443000D01*
Y306000D01*
X444999Y307000D01*
X445999D01*
X446998Y306000D01*
Y304001D01*
X445999Y303001D01*
X443999D01*
X443000Y304001D01*
X436002Y363999D02*
Y359001D01*
X437001Y358001D01*
X439001D01*
X440000Y359001D01*
Y363999D01*
X444999Y358001D02*
Y363999D01*
X442000Y361000D01*
X445998D01*
X237002Y314999D02*
Y310001D01*
X238001Y309001D01*
X240001D01*
X241000Y310001D01*
Y314999D01*
X243000Y313999D02*
X243999Y314999D01*
X245999D01*
X246998Y313999D01*
Y313000D01*
X245999Y312000D01*
X244999D01*
X245999D01*
X246998Y311000D01*
Y310001D01*
X245999Y309001D01*
X243999D01*
X243000Y310001D01*
X431002Y416999D02*
Y412001D01*
X432001Y411001D01*
X434001D01*
X435000Y412001D01*
Y416999D01*
X440998Y411001D02*
X437000D01*
X440998Y415000D01*
Y415999D01*
X439999Y416999D01*
X437999D01*
X437000Y415999D01*
X209501Y438501D02*
X214499D01*
X215499Y439501D01*
Y441500D01*
X214499Y442500D01*
X209501D01*
X215499Y444499D02*
Y446499D01*
Y445499D01*
X209501D01*
X210501Y444499D01*
X155300Y256900D02*
Y262898D01*
X158299D01*
X159299Y261898D01*
Y259899D01*
X158299Y258899D01*
X155300D01*
X157299D02*
X159299Y256900D01*
X161298Y262898D02*
X165297D01*
X163297D01*
Y256900D01*
X167296D02*
X169296D01*
X168296D01*
Y262898D01*
X167296Y261898D01*
X252600Y381200D02*
Y387198D01*
X255599D01*
X256599Y386198D01*
Y384199D01*
X255599Y383199D01*
X252600D01*
X254599D02*
X256599Y381200D01*
X258598D02*
X260597D01*
X259598D01*
Y387198D01*
X258598Y386198D01*
X267595Y381200D02*
X263596D01*
X267595Y385199D01*
Y386198D01*
X266596Y387198D01*
X264596D01*
X263596Y386198D01*
X194800Y256900D02*
Y262898D01*
X197799D01*
X198799Y261898D01*
Y259899D01*
X197799Y258899D01*
X194800D01*
X196799D02*
X198799Y256900D01*
X200798D02*
X202797D01*
X201798D01*
Y262898D01*
X200798Y261898D01*
X205796Y256900D02*
X207796D01*
X206796D01*
Y262898D01*
X205796Y261898D01*
X322502Y377001D02*
Y382999D01*
X325501D01*
X326501Y381999D01*
Y380000D01*
X325501Y379000D01*
X322502D01*
X324502D02*
X326501Y377001D01*
X328501D02*
X330500D01*
X329500D01*
Y382999D01*
X328501Y381999D01*
X333499D02*
X334499Y382999D01*
X336498D01*
X337498Y381999D01*
Y378001D01*
X336498Y377001D01*
X334499D01*
X333499Y378001D01*
Y381999D01*
X202500Y358800D02*
Y364798D01*
X205499D01*
X206499Y363798D01*
Y361799D01*
X205499Y360799D01*
X202500D01*
X204499D02*
X206499Y358800D01*
X208498Y359800D02*
X209498Y358800D01*
X211497D01*
X212497Y359800D01*
Y363798D01*
X211497Y364798D01*
X209498D01*
X208498Y363798D01*
Y362799D01*
X209498Y361799D01*
X212497D01*
X320002Y329501D02*
Y335499D01*
X323001D01*
X324000Y334499D01*
Y332500D01*
X323001Y331500D01*
X320002D01*
X322001D02*
X324000Y329501D01*
X326000Y334499D02*
X326999Y335499D01*
X328999D01*
X329998Y334499D01*
Y333500D01*
X328999Y332500D01*
X329998Y331500D01*
Y330501D01*
X328999Y329501D01*
X326999D01*
X326000Y330501D01*
Y331500D01*
X326999Y332500D01*
X326000Y333500D01*
Y334499D01*
X326999Y332500D02*
X328999D01*
X330002Y282001D02*
Y287999D01*
X333001D01*
X334000Y286999D01*
Y285000D01*
X333001Y284000D01*
X330002D01*
X332001D02*
X334000Y282001D01*
X336000Y287999D02*
X339998D01*
Y286999D01*
X336000Y283001D01*
Y282001D01*
X250000Y458501D02*
Y462499D01*
X249000Y463499D01*
X247001D01*
X246001Y462499D01*
Y458501D01*
X247001Y457501D01*
X249000D01*
X248001Y459500D02*
X250000Y457501D01*
X249000D02*
X250000Y458501D01*
X251999Y457501D02*
X253999D01*
X252999D01*
Y463499D01*
X251999Y462499D01*
X347502Y487001D02*
Y492999D01*
X350501D01*
X351500Y491999D01*
Y490000D01*
X350501Y489000D01*
X347502D01*
X353500Y488001D02*
X354499Y487001D01*
X356499D01*
X357498Y488001D01*
Y491999D01*
X356499Y492999D01*
X354499D01*
X353500Y491999D01*
Y491000D01*
X354499Y490000D01*
X357498D01*
X564002Y385001D02*
Y390999D01*
X567001D01*
X568000Y389999D01*
Y388000D01*
X567001Y387000D01*
X564002D01*
X570000Y389999D02*
X570999Y390999D01*
X572999D01*
X573998Y389999D01*
Y389000D01*
X572999Y388000D01*
X573998Y387000D01*
Y386001D01*
X572999Y385001D01*
X570999D01*
X570000Y386001D01*
Y387000D01*
X570999Y388000D01*
X570000Y389000D01*
Y389999D01*
X570999Y388000D02*
X572999D01*
X543002Y486001D02*
Y491999D01*
X546001D01*
X547000Y490999D01*
Y489000D01*
X546001Y488000D01*
X543002D01*
X549000Y491999D02*
X552998D01*
Y490999D01*
X549000Y487001D01*
Y486001D01*
X312502Y487001D02*
Y492999D01*
X315501D01*
X316500Y491999D01*
Y490000D01*
X315501Y489000D01*
X312502D01*
X322498Y492999D02*
X320499Y491999D01*
X318500Y490000D01*
Y488001D01*
X319499Y487001D01*
X321499D01*
X322498Y488001D01*
Y489000D01*
X321499Y490000D01*
X318500D01*
X348100Y225900D02*
Y231898D01*
X351099D01*
X352099Y230898D01*
Y228899D01*
X351099Y227899D01*
X348100D01*
X358097Y231898D02*
X354098D01*
Y228899D01*
X356097Y229899D01*
X357097D01*
X358097Y228899D01*
Y226900D01*
X357097Y225900D01*
X355098D01*
X354098Y226900D01*
X110600Y213400D02*
Y219398D01*
X113599D01*
X114599Y218398D01*
Y216399D01*
X113599Y215399D01*
X110600D01*
X119597Y213400D02*
Y219398D01*
X116598Y216399D01*
X120597D01*
X387502Y487001D02*
Y492999D01*
X390501D01*
X391500Y491999D01*
Y490000D01*
X390501Y489000D01*
X387502D01*
X393500Y491999D02*
X394499Y492999D01*
X396499D01*
X397498Y491999D01*
Y491000D01*
X396499Y490000D01*
X395499D01*
X396499D01*
X397498Y489000D01*
Y488001D01*
X396499Y487001D01*
X394499D01*
X393500Y488001D01*
X110002Y459501D02*
Y465499D01*
X113001D01*
X114000Y464499D01*
Y462500D01*
X113001Y461500D01*
X110002D01*
X119998Y459501D02*
X116000D01*
X119998Y463500D01*
Y464499D01*
X118999Y465499D01*
X116999D01*
X116000Y464499D01*
X276001Y487001D02*
Y492999D01*
X279000D01*
X280000Y491999D01*
Y490000D01*
X279000Y489000D01*
X276001D01*
X281999Y487001D02*
X283999D01*
X282999D01*
Y492999D01*
X281999Y491999D01*
X180501Y330999D02*
Y325001D01*
X184500D01*
X186499D02*
X188499D01*
X187499D01*
Y330999D01*
X186499Y329999D01*
X361199Y179598D02*
X359199D01*
X360199D01*
Y174600D01*
X359199Y173600D01*
X358200D01*
X357200Y174600D01*
X363198Y173600D02*
X365197D01*
X364198D01*
Y179598D01*
X363198Y178598D01*
X542502Y117999D02*
Y112001D01*
Y115000D01*
X546500D01*
Y117999D01*
Y112001D01*
X551499D02*
Y117999D01*
X548500Y115000D01*
X552498D01*
X130002Y117999D02*
Y112001D01*
Y115000D01*
X134000D01*
Y117999D01*
Y112001D01*
X136000Y116999D02*
X136999Y117999D01*
X138999D01*
X139998Y116999D01*
Y116000D01*
X138999Y115000D01*
X137999D01*
X138999D01*
X139998Y114000D01*
Y113001D01*
X138999Y112001D01*
X136999D01*
X136000Y113001D01*
X562502Y472999D02*
Y467001D01*
Y470000D01*
X566500D01*
Y472999D01*
Y467001D01*
X572498D02*
X568500D01*
X572498Y471000D01*
Y471999D01*
X571499Y472999D01*
X569499D01*
X568500Y471999D01*
X126001Y487999D02*
Y482001D01*
Y485000D01*
X130000D01*
Y487999D01*
Y482001D01*
X131999D02*
X133999D01*
X132999D01*
Y487999D01*
X131999Y486999D01*
X280002Y365499D02*
Y359501D01*
X283001D01*
X284000Y360501D01*
Y364499D01*
X283001Y365499D01*
X280002D01*
X286000Y364499D02*
X286999Y365499D01*
X288999D01*
X289998Y364499D01*
Y363500D01*
X288999Y362500D01*
X289998Y361500D01*
Y360501D01*
X288999Y359501D01*
X286999D01*
X286000Y360501D01*
Y361500D01*
X286999Y362500D01*
X286000Y363500D01*
Y364499D01*
X286999Y362500D02*
X288999D01*
X277502Y317999D02*
Y312001D01*
X280501D01*
X281500Y313001D01*
Y316999D01*
X280501Y317999D01*
X277502D01*
X287498D02*
X285499Y316999D01*
X283500Y315000D01*
Y313001D01*
X284499Y312001D01*
X286499D01*
X287498Y313001D01*
Y314000D01*
X286499Y315000D01*
X283500D01*
X277502Y270499D02*
Y264501D01*
X280501D01*
X281500Y265501D01*
Y269499D01*
X280501Y270499D01*
X277502D01*
X287498D02*
X283500D01*
Y267500D01*
X285499Y268500D01*
X286499D01*
X287498Y267500D01*
Y265501D01*
X286499Y264501D01*
X284499D01*
X283500Y265501D01*
X250002Y125499D02*
Y119501D01*
X253001D01*
X254000Y120501D01*
Y124499D01*
X253001Y125499D01*
X250002D01*
X258999Y119501D02*
Y125499D01*
X256000Y122500D01*
X259998D01*
X250002Y152999D02*
Y147001D01*
X253001D01*
X254000Y148001D01*
Y151999D01*
X253001Y152999D01*
X250002D01*
X256000Y151999D02*
X256999Y152999D01*
X258999D01*
X259998Y151999D01*
Y151000D01*
X258999Y150000D01*
X257999D01*
X258999D01*
X259998Y149000D01*
Y148001D01*
X258999Y147001D01*
X256999D01*
X256000Y148001D01*
X250002Y180499D02*
Y174501D01*
X253001D01*
X254000Y175501D01*
Y179499D01*
X253001Y180499D01*
X250002D01*
X259998Y174501D02*
X256000D01*
X259998Y178500D01*
Y179499D01*
X258999Y180499D01*
X256999D01*
X256000Y179499D01*
X251001Y207999D02*
Y202001D01*
X254000D01*
X255000Y203001D01*
Y206999D01*
X254000Y207999D01*
X251001D01*
X256999Y202001D02*
X258999D01*
X257999D01*
Y207999D01*
X256999Y206999D01*
X421001Y211999D02*
X420002Y212999D01*
X418002D01*
X417003Y211999D01*
Y208001D01*
X418002Y207001D01*
X420002D01*
X421001Y208001D01*
X426999Y207001D02*
X423001D01*
X426999Y211000D01*
Y211999D01*
X426000Y212999D01*
X424000D01*
X423001Y211999D01*
X432997Y212999D02*
X428999D01*
Y210000D01*
X430998Y211000D01*
X431998D01*
X432997Y210000D01*
Y208001D01*
X431998Y207001D01*
X429998D01*
X428999Y208001D01*
X421501Y268999D02*
X420502Y269999D01*
X418502D01*
X417503Y268999D01*
Y265001D01*
X418502Y264001D01*
X420502D01*
X421501Y265001D01*
X427499Y264001D02*
X423501D01*
X427499Y268000D01*
Y268999D01*
X426500Y269999D01*
X424500D01*
X423501Y268999D01*
X432498Y264001D02*
Y269999D01*
X429499Y267000D01*
X433497D01*
X489999Y211999D02*
X490999Y212998D01*
Y214998D01*
X489999Y215997D01*
X486001D01*
X485001Y214998D01*
Y212998D01*
X486001Y211999D01*
X485001Y206001D02*
Y209999D01*
X489000Y206001D01*
X489999D01*
X490999Y207000D01*
Y209000D01*
X489999Y209999D01*
Y204001D02*
X490999Y203002D01*
Y201002D01*
X489999Y200003D01*
X489000D01*
X488000Y201002D01*
Y202002D01*
Y201002D01*
X487000Y200003D01*
X486001D01*
X485001Y201002D01*
Y203002D01*
X486001Y204001D01*
X489499Y266404D02*
X490499Y267404D01*
Y269403D01*
X489499Y270403D01*
X485501D01*
X484501Y269403D01*
Y267404D01*
X485501Y266404D01*
X484501Y260406D02*
Y264405D01*
X488500Y260406D01*
X489499D01*
X490499Y261406D01*
Y263405D01*
X489499Y264405D01*
X484501Y254408D02*
Y258407D01*
X488500Y254408D01*
X489499D01*
X490499Y255408D01*
Y257407D01*
X489499Y258407D01*
X502501Y242999D02*
X501501Y243999D01*
X499502D01*
X498502Y242999D01*
Y239001D01*
X499502Y238001D01*
X501501D01*
X502501Y239001D01*
X508499Y238001D02*
X504500D01*
X508499Y242000D01*
Y242999D01*
X507499Y243999D01*
X505500D01*
X504500Y242999D01*
X510498Y238001D02*
X512498D01*
X511498D01*
Y243999D01*
X510498Y242999D01*
X503501Y297999D02*
X502502Y298999D01*
X500502D01*
X499503Y297999D01*
Y294001D01*
X500502Y293001D01*
X502502D01*
X503501Y294001D01*
X509499Y293001D02*
X505501D01*
X509499Y297000D01*
Y297999D01*
X508500Y298999D01*
X506500D01*
X505501Y297999D01*
X511499D02*
X512498Y298999D01*
X514498D01*
X515497Y297999D01*
Y294001D01*
X514498Y293001D01*
X512498D01*
X511499Y294001D01*
Y297999D01*
X421501Y324499D02*
X420502Y325499D01*
X418502D01*
X417502Y324499D01*
Y320501D01*
X418502Y319501D01*
X420502D01*
X421501Y320501D01*
X423500Y319501D02*
X425500D01*
X424500D01*
Y325499D01*
X423500Y324499D01*
X428499Y320501D02*
X429498Y319501D01*
X431498D01*
X432498Y320501D01*
Y324499D01*
X431498Y325499D01*
X429498D01*
X428499Y324499D01*
Y323500D01*
X429498Y322500D01*
X432498D01*
X489999Y320499D02*
X490999Y321498D01*
Y323498D01*
X489999Y324498D01*
X486001D01*
X485001Y323498D01*
Y321498D01*
X486001Y320499D01*
X485001Y318499D02*
Y316500D01*
Y317500D01*
X490999D01*
X489999Y318499D01*
Y313501D02*
X490999Y312501D01*
Y310502D01*
X489999Y309502D01*
X489000D01*
X488000Y310502D01*
X487000Y309502D01*
X486001D01*
X485001Y310502D01*
Y312501D01*
X486001Y313501D01*
X487000D01*
X488000Y312501D01*
X489000Y313501D01*
X489999D01*
X488000Y312501D02*
Y310502D01*
X504001Y351499D02*
X503001Y352499D01*
X501002D01*
X500002Y351499D01*
Y347501D01*
X501002Y346501D01*
X503001D01*
X504001Y347501D01*
X506001Y346501D02*
X508000D01*
X507000D01*
Y352499D01*
X506001Y351499D01*
X510999Y352499D02*
X514998D01*
Y351499D01*
X510999Y347501D01*
Y346501D01*
X341501Y111999D02*
X340501Y112999D01*
X338502D01*
X337502Y111999D01*
Y108001D01*
X338502Y107001D01*
X340501D01*
X341501Y108001D01*
X343500Y107001D02*
X345500D01*
X344500D01*
Y112999D01*
X343500Y111999D01*
X352498Y112999D02*
X350498Y111999D01*
X348499Y110000D01*
Y108001D01*
X349499Y107001D01*
X351498D01*
X352498Y108001D01*
Y109000D01*
X351498Y110000D01*
X348499D01*
X253501Y264999D02*
X252502Y265999D01*
X250502D01*
X249502Y264999D01*
Y261001D01*
X250502Y260001D01*
X252502D01*
X253501Y261001D01*
X255501Y260001D02*
X257500D01*
X256500D01*
Y265999D01*
X255501Y264999D01*
X264498Y265999D02*
X260499D01*
Y263000D01*
X262498Y264000D01*
X263498D01*
X264498Y263000D01*
Y261001D01*
X263498Y260001D01*
X261498D01*
X260499Y261001D01*
X306501Y186999D02*
X305502Y187999D01*
X303502D01*
X302502Y186999D01*
Y183001D01*
X303502Y182001D01*
X305502D01*
X306501Y183001D01*
X308501Y182001D02*
X310500D01*
X309500D01*
Y187999D01*
X308501Y186999D01*
X316498Y182001D02*
Y187999D01*
X313499Y185000D01*
X317498D01*
X414001Y114499D02*
X413001Y115499D01*
X411002D01*
X410002Y114499D01*
Y110501D01*
X411002Y109501D01*
X413001D01*
X414001Y110501D01*
X416001Y109501D02*
X418000D01*
X417000D01*
Y115499D01*
X416001Y114499D01*
X420999D02*
X421999Y115499D01*
X423998D01*
X424998Y114499D01*
Y113500D01*
X423998Y112500D01*
X422998D01*
X423998D01*
X424998Y111500D01*
Y110501D01*
X423998Y109501D01*
X421999D01*
X420999Y110501D01*
X159501Y385499D02*
X158502Y386499D01*
X156502D01*
X155502Y385499D01*
Y381501D01*
X156502Y380501D01*
X158502D01*
X159501Y381501D01*
X161501Y380501D02*
X163500D01*
X162500D01*
Y386499D01*
X161501Y385499D01*
X170498Y380501D02*
X166499D01*
X170498Y384500D01*
Y385499D01*
X169498Y386499D01*
X167499D01*
X166499Y385499D01*
X222501Y271999D02*
X221501Y272999D01*
X219502D01*
X218502Y271999D01*
Y268001D01*
X219502Y267001D01*
X221501D01*
X222501Y268001D01*
X224500Y267001D02*
X226500D01*
X225500D01*
Y272999D01*
X224500Y271999D01*
X229499Y267001D02*
X231498D01*
X230498D01*
Y272999D01*
X229499Y271999D01*
X276501Y186999D02*
X275501Y187999D01*
X273502D01*
X272502Y186999D01*
Y183001D01*
X273502Y182001D01*
X275501D01*
X276501Y183001D01*
X278501Y182001D02*
X280500D01*
X279500D01*
Y187999D01*
X278501Y186999D01*
X283499D02*
X284499Y187999D01*
X286498D01*
X287498Y186999D01*
Y183001D01*
X286498Y182001D01*
X284499D01*
X283499Y183001D01*
Y186999D01*
X134399Y218698D02*
X133399Y219698D01*
X131400D01*
X130400Y218698D01*
Y214700D01*
X131400Y213700D01*
X133399D01*
X134399Y214700D01*
X136398D02*
X137398Y213700D01*
X139397D01*
X140397Y214700D01*
Y218698D01*
X139397Y219698D01*
X137398D01*
X136398Y218698D01*
Y217699D01*
X137398Y216699D01*
X140397D01*
X168500Y294999D02*
X167501Y295999D01*
X165501D01*
X164502Y294999D01*
Y291001D01*
X165501Y290001D01*
X167501D01*
X168500Y291001D01*
X170500Y294999D02*
X171499Y295999D01*
X173499D01*
X174498Y294999D01*
Y294000D01*
X173499Y293000D01*
X174498Y292000D01*
Y291001D01*
X173499Y290001D01*
X171499D01*
X170500Y291001D01*
Y292000D01*
X171499Y293000D01*
X170500Y294000D01*
Y294999D01*
X171499Y293000D02*
X173499D01*
X245000Y328999D02*
X244001Y329999D01*
X242001D01*
X241002Y328999D01*
Y325001D01*
X242001Y324001D01*
X244001D01*
X245000Y325001D01*
X247000Y329999D02*
X250998D01*
Y328999D01*
X247000Y325001D01*
Y324001D01*
X424000Y381999D02*
X423001Y382999D01*
X421001D01*
X420002Y381999D01*
Y378001D01*
X421001Y377001D01*
X423001D01*
X424000Y378001D01*
X429998Y382999D02*
X427999Y381999D01*
X426000Y380000D01*
Y378001D01*
X426999Y377001D01*
X428999D01*
X429998Y378001D01*
Y379000D01*
X428999Y380000D01*
X426000D01*
X489999Y378000D02*
X490999Y378999D01*
Y380999D01*
X489999Y381998D01*
X486001D01*
X485001Y380999D01*
Y378999D01*
X486001Y378000D01*
X490999Y372002D02*
Y376000D01*
X488000D01*
X489000Y374001D01*
Y373001D01*
X488000Y372002D01*
X486001D01*
X485001Y373001D01*
Y375001D01*
X486001Y376000D01*
X509000Y409499D02*
X508001Y410499D01*
X506001D01*
X505002Y409499D01*
Y405501D01*
X506001Y404501D01*
X508001D01*
X509000Y405501D01*
X513999Y404501D02*
Y410499D01*
X511000Y407500D01*
X514998D01*
X190501Y441500D02*
X189501Y440501D01*
Y438501D01*
X190501Y437502D01*
X194499D01*
X195499Y438501D01*
Y440501D01*
X194499Y441500D01*
X190501Y443500D02*
X189501Y444499D01*
Y446499D01*
X190501Y447498D01*
X191500D01*
X192500Y446499D01*
Y445499D01*
Y446499D01*
X193500Y447498D01*
X194499D01*
X195499Y446499D01*
Y444499D01*
X194499Y443500D01*
X129000Y461999D02*
X128001Y462999D01*
X126001D01*
X125002Y461999D01*
Y458001D01*
X126001Y457001D01*
X128001D01*
X129000Y458001D01*
X134998Y457001D02*
X131000D01*
X134998Y461000D01*
Y461999D01*
X133999Y462999D01*
X131999D01*
X131000Y461999D01*
X152500D02*
X151500Y462999D01*
X149501D01*
X148501Y461999D01*
Y458001D01*
X149501Y457001D01*
X151500D01*
X152500Y458001D01*
X154499Y457001D02*
X156499D01*
X155499D01*
Y462999D01*
X154499Y461999D01*
D16*
X184783Y122500D02*
D03*
Y150000D02*
D03*
X220216Y177500D02*
D03*
Y205000D02*
D03*
M02*
