G04*
G04 #@! TF.GenerationSoftware,Altium Limited,Altium Designer,26.2.0 (7)*
G04*
G04 Layer_Physical_Order=1*
G04 Layer_Color=255*
%FSLAX25Y25*%
%MOIN*%
G70*
G04*
G04 #@! TF.SameCoordinates,CECF952D-64F9-48ED-BA59-EEDE46F112F8*
G04*
G04*
G04 #@! TF.FilePolarity,Positive*
G04*
G01*
G75*
%ADD15C,0.01000*%
%ADD17R,0.07756X0.02097*%
%ADD18R,0.05100X0.01000*%
%ADD19R,0.01000X0.02800*%
G04:AMPARAMS|DCode=20|XSize=47.64mil|YSize=22.84mil|CornerRadius=2.85mil|HoleSize=0mil|Usage=FLASHONLY|Rotation=90.000|XOffset=0mil|YOffset=0mil|HoleType=Round|Shape=RoundedRectangle|*
%AMROUNDEDRECTD20*
21,1,0.04764,0.01713,0,0,90.0*
21,1,0.04193,0.02284,0,0,90.0*
1,1,0.00571,0.00856,0.02097*
1,1,0.00571,0.00856,-0.02097*
1,1,0.00571,-0.00856,-0.02097*
1,1,0.00571,-0.00856,0.02097*
%
%ADD20ROUNDEDRECTD20*%
%ADD21R,0.05866X0.13465*%
%ADD22R,0.20079X0.07480*%
%ADD23R,0.05512X0.04331*%
%ADD24R,0.04331X0.05512*%
%ADD25R,0.04331X0.10236*%
%ADD26R,0.09400X0.12600*%
%ADD48C,0.02000*%
%ADD49C,0.04000*%
%ADD50C,0.05512*%
%ADD51C,0.06299*%
%ADD52R,0.06299X0.06299*%
%ADD53R,0.05906X0.05906*%
%ADD54C,0.05906*%
%ADD55R,0.05906X0.05906*%
%ADD56O,0.19685X0.09843*%
%ADD57O,0.17717X0.08858*%
%ADD58O,0.08858X0.17717*%
%ADD59C,0.16500*%
%ADD60C,0.07000*%
%ADD61R,0.11024X0.11024*%
%ADD62C,0.11024*%
%ADD63C,0.04724*%
%ADD64C,0.05000*%
G36*
X578675Y101326D02*
X101326D01*
Y443151D01*
X101335Y443164D01*
X101619Y443429D01*
X101760Y443508D01*
X102325Y443719D01*
X102343Y443715D01*
X102497Y443684D01*
X110080Y443653D01*
X110731Y443121D01*
X110836Y443065D01*
X110935Y442999D01*
X110976Y442991D01*
X111012Y442972D01*
X111047Y442968D01*
Y440500D01*
X115000D01*
Y439500D01*
X111047D01*
Y437032D01*
X111012Y437028D01*
X110976Y437009D01*
X110935Y437001D01*
X110836Y436935D01*
X110731Y436879D01*
X109984Y436269D01*
X109958Y436237D01*
X109923Y436214D01*
X109857Y436115D01*
X109782Y436023D01*
X109769Y435984D01*
X109746Y435949D01*
X109723Y435833D01*
X109688Y435719D01*
X109692Y435678D01*
X109684Y435637D01*
Y381500D01*
X109746Y381188D01*
X109923Y380923D01*
X110188Y380746D01*
X110500Y380684D01*
X117684D01*
Y338000D01*
X117746Y337688D01*
X117923Y337423D01*
X118188Y337246D01*
X118500Y337184D01*
X146000D01*
X146312Y337246D01*
X146577Y337423D01*
X146754Y337688D01*
X146816Y338000D01*
Y367180D01*
X147080Y367410D01*
X147816Y367697D01*
X148474Y367317D01*
X149480Y367047D01*
X149500D01*
Y371000D01*
X150000D01*
Y371500D01*
X153953D01*
Y371520D01*
X153683Y372526D01*
X153163Y373427D01*
X152427Y374163D01*
X152390Y374184D01*
X152658Y375184D01*
X217184D01*
Y357622D01*
X217006Y357486D01*
X216077Y357077D01*
X215812Y357254D01*
X215500Y357316D01*
X210021D01*
X209959Y357303D01*
X209896Y357306D01*
X209805Y357273D01*
X209709Y357254D01*
X209657Y357218D01*
X209597Y357196D01*
X209525Y357131D01*
X209445Y357077D01*
X209409Y357024D01*
X209363Y356981D01*
X208802Y356213D01*
X208761Y356125D01*
X208707Y356045D01*
X208695Y355982D01*
X208668Y355925D01*
X208664Y355828D01*
X208645Y355732D01*
X208645Y355532D01*
X202410D01*
X202410Y355732D01*
X202391Y355828D01*
X202387Y355925D01*
X202360Y355982D01*
X202348Y356045D01*
X202294Y356125D01*
X202253Y356213D01*
X201692Y356981D01*
X201646Y357024D01*
X201610Y357077D01*
X201530Y357131D01*
X201458Y357196D01*
X201399Y357218D01*
X201346Y357254D01*
X201251Y357273D01*
X201159Y357306D01*
X201096Y357303D01*
X201034Y357316D01*
X168000D01*
X167688Y357254D01*
X167423Y357077D01*
X167246Y356812D01*
X167184Y356500D01*
Y311000D01*
X167246Y310688D01*
X167294Y310617D01*
X167423Y310333D01*
Y309667D01*
X167294Y309383D01*
X167246Y309312D01*
X167184Y309000D01*
Y293000D01*
X167246Y292688D01*
X167423Y292423D01*
X167688Y292246D01*
X168000Y292184D01*
X209000D01*
X209184Y292033D01*
Y290316D01*
X168000D01*
X167688Y290254D01*
X167423Y290077D01*
X167246Y289812D01*
X167184Y289500D01*
Y275500D01*
X167246Y275188D01*
X167423Y274923D01*
X167688Y274746D01*
X168000Y274684D01*
X181842D01*
X182110Y273684D01*
X182073Y273663D01*
X181337Y272927D01*
X180817Y272026D01*
X180547Y271020D01*
Y271000D01*
X184500D01*
X188453D01*
Y271020D01*
X188183Y272026D01*
X187663Y272927D01*
X186927Y273663D01*
X186890Y273684D01*
X187158Y274684D01*
X195200D01*
X195512Y274746D01*
X195611Y274813D01*
X195776Y274923D01*
X196704Y275122D01*
X196882Y275124D01*
X213176Y258830D01*
Y234843D01*
X213272Y234112D01*
X213554Y233431D01*
X214003Y232846D01*
X216346Y230503D01*
X216931Y230054D01*
X217612Y229772D01*
X218343Y229676D01*
X356330D01*
X358690Y227316D01*
X358276Y226316D01*
X228000D01*
X227688Y226254D01*
X227423Y226077D01*
X227246Y225812D01*
X227184Y225500D01*
Y160000D01*
X227246Y159688D01*
X227423Y159423D01*
X227688Y159246D01*
X228000Y159184D01*
X277824D01*
X278591Y158184D01*
X278547Y158020D01*
Y158000D01*
X282500D01*
X286453D01*
Y158020D01*
X286409Y158184D01*
X287176Y159184D01*
X360000D01*
X360184Y159221D01*
X360512Y159115D01*
X361184Y158670D01*
Y156325D01*
X347886D01*
X347530Y156942D01*
X346942Y157530D01*
X346221Y157947D01*
X345416Y158162D01*
X344584D01*
X343779Y157947D01*
X343058Y157530D01*
X342470Y156942D01*
X342053Y156221D01*
X341838Y155416D01*
Y154584D01*
X342053Y153779D01*
X342470Y153058D01*
X343058Y152470D01*
X343779Y152053D01*
X344584Y151838D01*
X345416D01*
X346221Y152053D01*
X346942Y152470D01*
X347530Y153058D01*
X347886Y153674D01*
X363957D01*
X364464Y153775D01*
X364894Y154063D01*
X365458Y154627D01*
X366089Y154616D01*
X366112Y154620D01*
X366136Y154617D01*
X366268Y154649D01*
X366402Y154673D01*
X366422Y154686D01*
X366445Y154691D01*
X366555Y154771D01*
X366670Y154845D01*
X366683Y154865D01*
X366702Y154879D01*
X366773Y154995D01*
X366851Y155107D01*
X366856Y155130D01*
X366868Y155150D01*
X366973Y155435D01*
X367889Y155837D01*
X368585Y155548D01*
X370079Y155351D01*
X379921D01*
X381415Y155548D01*
X381673Y155655D01*
X382564Y155202D01*
X382625Y154951D01*
X382649Y154900D01*
X382659Y154843D01*
X382715Y154756D01*
X382759Y154663D01*
X382801Y154624D01*
X382832Y154576D01*
X382916Y154517D01*
X382993Y154447D01*
X383046Y154427D01*
X383093Y154395D01*
X383194Y154373D01*
X383291Y154337D01*
X383348Y154340D01*
X383404Y154327D01*
X387786Y154254D01*
X388230Y153740D01*
Y144882D01*
X388409Y143517D01*
X388936Y142245D01*
X389774Y141152D01*
X390867Y140314D01*
X392139Y139787D01*
X393504Y139608D01*
X394869Y139787D01*
X396141Y140314D01*
X397233Y141152D01*
X398072Y142245D01*
X398599Y143517D01*
X398778Y144882D01*
Y153279D01*
X399778Y153694D01*
X414193Y139278D01*
X414003Y138949D01*
X413747Y137994D01*
Y137006D01*
X414003Y136051D01*
X414497Y135196D01*
X415196Y134497D01*
X416051Y134003D01*
X417006Y133747D01*
X417994D01*
X418949Y134003D01*
X419804Y134497D01*
X420503Y135196D01*
X420997Y136051D01*
X421253Y137006D01*
Y137994D01*
X420997Y138949D01*
X420503Y139804D01*
X419804Y140503D01*
X418949Y140997D01*
X417994Y141253D01*
X417006D01*
X416187Y141033D01*
X395162Y162059D01*
X394731Y162347D01*
X394224Y162448D01*
X392816D01*
Y223162D01*
X393577Y223923D01*
X393754Y224188D01*
X393816Y224500D01*
X393754Y224812D01*
X393339Y225812D01*
X393163Y226077D01*
X392898Y226254D01*
X392586Y226316D01*
X365324D01*
Y227500D01*
X365228Y228231D01*
X364946Y228912D01*
X364497Y229497D01*
X359497Y234497D01*
X358912Y234946D01*
X358231Y235228D01*
X357500Y235324D01*
X219513D01*
X218824Y236013D01*
Y260000D01*
X218728Y260731D01*
X218446Y261412D01*
X217997Y261997D01*
X206234Y273760D01*
X206616Y274684D01*
X215500D01*
X215812Y274746D01*
X216077Y274923D01*
X216254Y275188D01*
X216316Y275500D01*
Y288709D01*
X217244Y288882D01*
Y288882D01*
X220500D01*
Y292047D01*
X221500D01*
Y288882D01*
X224184D01*
Y282256D01*
X221595D01*
Y278500D01*
Y274744D01*
X224260D01*
Y274944D01*
X225675D01*
Y253826D01*
X225627Y253814D01*
X224817Y253345D01*
X224155Y252683D01*
X223686Y251872D01*
X223444Y250968D01*
Y250032D01*
X223686Y249128D01*
X224155Y248317D01*
X224817Y247655D01*
X225627Y247186D01*
X226532Y246944D01*
X227468D01*
X228373Y247186D01*
X229183Y247655D01*
X229845Y248317D01*
X230314Y249128D01*
X230556Y250032D01*
Y250968D01*
X230314Y251872D01*
X229845Y252683D01*
X229183Y253345D01*
X228373Y253814D01*
X228326Y253826D01*
Y274944D01*
X229575D01*
X229589Y274923D01*
X229853Y274746D01*
X230165Y274684D01*
X233947D01*
X234260Y274746D01*
X234524Y274923D01*
X234701Y275188D01*
X234763Y275500D01*
Y289891D01*
X235062D01*
Y292291D01*
X236062D01*
Y289891D01*
X237031D01*
Y292291D01*
X238031D01*
Y289891D01*
X238175D01*
Y283545D01*
X237474Y283141D01*
X236859Y282526D01*
X236425Y281774D01*
X236200Y280935D01*
Y280065D01*
X236425Y279226D01*
X236859Y278474D01*
X237474Y277859D01*
X238226Y277425D01*
X239066Y277200D01*
X239934D01*
X240774Y277425D01*
X241526Y277859D01*
X242141Y278474D01*
X242575Y279226D01*
X242800Y280065D01*
Y280935D01*
X242575Y281774D01*
X242141Y282526D01*
X241526Y283141D01*
X240826Y283545D01*
Y290091D01*
X241938D01*
Y289891D01*
X242938D01*
Y292291D01*
X243938D01*
Y289891D01*
X244752D01*
Y289840D01*
X244853Y289333D01*
X245140Y288903D01*
X248700Y285343D01*
Y284565D01*
X248925Y283726D01*
X249359Y282974D01*
X249974Y282359D01*
X250726Y281925D01*
X251566Y281700D01*
X252434D01*
X253274Y281925D01*
X254026Y282359D01*
X254641Y282974D01*
X255075Y283726D01*
X255300Y284565D01*
Y285435D01*
X255075Y286274D01*
X254641Y287026D01*
X254026Y287641D01*
X253810Y287765D01*
X253952Y288839D01*
X254274Y288925D01*
X255026Y289359D01*
X255641Y289974D01*
X256075Y290726D01*
X256300Y291565D01*
Y292435D01*
X256075Y293274D01*
X255641Y294026D01*
X255026Y294641D01*
X254274Y295075D01*
X253434Y295300D01*
X252602D01*
X252011Y295891D01*
Y296451D01*
X252011Y296451D01*
X251910Y296958D01*
X251623Y297388D01*
X251291Y297720D01*
X251674Y298643D01*
X259763D01*
X267344Y291063D01*
X267774Y290775D01*
X268281Y290674D01*
X272955D01*
X273359Y289974D01*
X273974Y289359D01*
X274726Y288925D01*
X275566Y288700D01*
X276434D01*
X277274Y288925D01*
X278026Y289359D01*
X278641Y289974D01*
X278675Y290032D01*
X279675Y289764D01*
Y284549D01*
X269451Y274325D01*
X263371D01*
Y276556D01*
X257665D01*
Y276756D01*
X255000D01*
Y273000D01*
Y269244D01*
X257665D01*
Y269444D01*
X263371D01*
Y271674D01*
X270000D01*
X270507Y271775D01*
X270937Y272063D01*
X281937Y283063D01*
X282225Y283493D01*
X282326Y284000D01*
Y305000D01*
X282225Y305507D01*
X281937Y305937D01*
X273937Y313937D01*
X273507Y314225D01*
X273000Y314325D01*
X246500D01*
X245993Y314225D01*
X245563Y313937D01*
X245473Y313847D01*
X245308Y313737D01*
X239780Y308210D01*
X238857Y308592D01*
Y318035D01*
X239056D01*
Y323940D01*
Y329871D01*
X231944D01*
Y328326D01*
X229000D01*
X228493Y328225D01*
X228063Y327937D01*
X223063Y322937D01*
X222775Y322507D01*
X222674Y322000D01*
Y315549D01*
X215451Y308326D01*
X210260D01*
X209825Y309326D01*
X209886Y309512D01*
X210330Y310184D01*
X215500D01*
X215812Y310246D01*
X216077Y310423D01*
X216254Y310688D01*
X216316Y311000D01*
Y336878D01*
X216494Y337014D01*
X217423Y337423D01*
X217688Y337246D01*
X218000Y337184D01*
X240500D01*
X240812Y337246D01*
X241077Y337423D01*
X241254Y337688D01*
X241316Y338000D01*
Y340136D01*
X241254Y340448D01*
X241077Y340713D01*
X240812Y340890D01*
X240285Y341108D01*
X240075Y341726D01*
X240300Y342565D01*
Y343435D01*
X240075Y344274D01*
X240285Y344892D01*
X240812Y345110D01*
X241077Y345287D01*
X241254Y345552D01*
X241316Y345864D01*
Y388000D01*
X241254Y388312D01*
X241077Y388577D01*
X240812Y388754D01*
X240500Y388816D01*
X191816D01*
Y442607D01*
X192524Y443312D01*
X198032Y443290D01*
X198034Y443289D01*
X198680Y442879D01*
X198734Y442830D01*
X198944Y442548D01*
Y436582D01*
X203460D01*
X205340Y434702D01*
X205936Y434304D01*
X206638Y434165D01*
X219701D01*
X220403Y434304D01*
X220459Y434342D01*
X221118D01*
X221188Y434356D01*
X222116D01*
X222540Y434440D01*
X222899Y434680D01*
X223642Y434252D01*
X224144Y434152D01*
X224500D01*
Y437559D01*
Y440966D01*
X224144D01*
X223642Y440866D01*
X222899Y440438D01*
X222540Y440678D01*
X222116Y440762D01*
X220404D01*
X219980Y440678D01*
X219621Y440438D01*
X219381Y440079D01*
X219297Y439655D01*
Y437897D01*
X219176Y437873D01*
X219120Y437835D01*
X207398D01*
X206056Y439177D01*
Y442276D01*
X206074Y442366D01*
X206231Y442621D01*
X207056Y443252D01*
X218536Y443205D01*
X218584Y443214D01*
X218633Y443210D01*
X218739Y443244D01*
X218848Y443266D01*
X218889Y443293D01*
X218935Y443307D01*
X219021Y443380D01*
X219114Y443441D01*
X219141Y443482D01*
X219178Y443513D01*
X219452Y443858D01*
X219980Y444322D01*
X220404Y444238D01*
X222116D01*
X222540Y444322D01*
X222899Y444562D01*
X223361D01*
X223720Y444322D01*
X224144Y444238D01*
X225062D01*
X225074Y444180D01*
X225361Y443750D01*
X226912Y442199D01*
X226984Y441620D01*
X226735Y440974D01*
X226358Y440866D01*
X225856Y440966D01*
X225500D01*
Y437559D01*
Y434152D01*
X225856D01*
X226358Y434252D01*
X226420Y434287D01*
X227415Y433818D01*
Y432789D01*
X226216Y431591D01*
X225434Y431800D01*
X224566D01*
X223726Y431575D01*
X222974Y431141D01*
X222359Y430526D01*
X221925Y429774D01*
X221700Y428934D01*
Y428065D01*
X221925Y427226D01*
X222359Y426474D01*
X222974Y425859D01*
X223675Y425455D01*
Y414000D01*
X223775Y413493D01*
X224063Y413063D01*
X227563Y409563D01*
X227993Y409275D01*
X228500Y409174D01*
X347955D01*
X348359Y408474D01*
X348974Y407859D01*
X349726Y407425D01*
X350097Y407326D01*
X349966Y406325D01*
X344843D01*
X344336Y406225D01*
X343906Y405937D01*
X340294Y402325D01*
X281000D01*
X280493Y402225D01*
X280063Y401937D01*
X256415Y378289D01*
X256372Y378314D01*
X255468Y378556D01*
X254532D01*
X253627Y378314D01*
X252817Y377845D01*
X252155Y377183D01*
X251686Y376373D01*
X251444Y375468D01*
Y374532D01*
X251686Y373627D01*
X252155Y372817D01*
X252817Y372155D01*
X253627Y371686D01*
X254532Y371444D01*
X255468D01*
X256372Y371686D01*
X257183Y372155D01*
X257845Y372817D01*
X258314Y373627D01*
X258556Y374532D01*
Y375468D01*
X258314Y376373D01*
X258289Y376415D01*
X281549Y399675D01*
X340843D01*
X341350Y399775D01*
X341780Y400063D01*
X345392Y403675D01*
X359955D01*
X360359Y402974D01*
X360974Y402359D01*
X361726Y401925D01*
X362565Y401700D01*
X363435D01*
X364274Y401925D01*
X365026Y402359D01*
X365641Y402974D01*
X366075Y403726D01*
X366300Y404565D01*
Y405435D01*
X366075Y406274D01*
X365641Y407026D01*
X365026Y407641D01*
X364274Y408075D01*
X363435Y408300D01*
X362565D01*
X361726Y408075D01*
X360974Y407641D01*
X360359Y407026D01*
X359955Y406325D01*
X352034D01*
X351903Y407326D01*
X352274Y407425D01*
X353026Y407859D01*
X353641Y408474D01*
X354075Y409226D01*
X354300Y410066D01*
Y410934D01*
X354075Y411774D01*
X353641Y412526D01*
X353026Y413141D01*
X352274Y413575D01*
X351434Y413800D01*
X350566D01*
X349726Y413575D01*
X348974Y413141D01*
X348359Y412526D01*
X347955Y411826D01*
X229049D01*
X226325Y414549D01*
Y425455D01*
X227026Y425859D01*
X227641Y426474D01*
X228075Y427226D01*
X228300Y428065D01*
Y428934D01*
X228091Y429716D01*
X229675Y431300D01*
X229687Y431300D01*
X230675Y430995D01*
Y428000D01*
X230775Y427493D01*
X231063Y427063D01*
X233000Y425126D01*
Y418500D01*
X259184D01*
X259246Y418188D01*
X259423Y417923D01*
X259688Y417746D01*
X260000Y417684D01*
X486184D01*
Y396118D01*
X486020Y395918D01*
X484560D01*
Y396118D01*
X484535Y396243D01*
X484520Y396369D01*
X484235Y397251D01*
X484219Y397280D01*
X484212Y397312D01*
X484142Y397418D01*
X484080Y397529D01*
X484042Y397567D01*
X484036Y397577D01*
X483841Y397772D01*
X484058Y398696D01*
X484075Y398726D01*
X484300Y399566D01*
Y400434D01*
X484075Y401274D01*
X483641Y402026D01*
X483026Y402641D01*
X482274Y403075D01*
X481434Y403300D01*
X480566D01*
X479726Y403075D01*
X478974Y402641D01*
X478359Y402026D01*
X477955Y401326D01*
X471878D01*
Y401848D01*
X463000D01*
Y402952D01*
X466700D01*
Y405000D01*
Y407048D01*
X463000D01*
Y408152D01*
X471878D01*
Y408674D01*
X477955D01*
X478359Y407974D01*
X478974Y407359D01*
X479726Y406925D01*
X480566Y406700D01*
X481434D01*
X482274Y406925D01*
X483026Y407359D01*
X483641Y407974D01*
X484075Y408726D01*
X484300Y409565D01*
Y410434D01*
X484075Y411274D01*
X483641Y412026D01*
X483026Y412641D01*
X482274Y413075D01*
X481434Y413300D01*
X480566D01*
X479726Y413075D01*
X478974Y412641D01*
X478359Y412026D01*
X477955Y411326D01*
X471878D01*
Y411848D01*
X462522D01*
Y409600D01*
X452678D01*
Y412048D01*
X448300D01*
Y410000D01*
Y407952D01*
X452000D01*
Y406848D01*
X443122D01*
Y406325D01*
X430131D01*
X429800Y406657D01*
Y407435D01*
X429575Y408274D01*
X429141Y409026D01*
X428526Y409641D01*
X427774Y410075D01*
X426934Y410300D01*
X426065D01*
X425226Y410075D01*
X424474Y409641D01*
X423859Y409026D01*
X423425Y408274D01*
X423200Y407435D01*
Y406566D01*
X423425Y405726D01*
X423859Y404974D01*
X424474Y404359D01*
X425226Y403925D01*
X426065Y403700D01*
X426934D01*
X427774Y403925D01*
X428414Y404294D01*
X428645Y404063D01*
X429075Y403775D01*
X429582Y403675D01*
X443122D01*
Y403152D01*
X452000D01*
Y401848D01*
X443122D01*
Y401076D01*
X429832D01*
X429325Y400975D01*
X428895Y400687D01*
X428414Y400206D01*
X427774Y400575D01*
X426934Y400800D01*
X426065D01*
X425226Y400575D01*
X424474Y400141D01*
X423859Y399526D01*
X423425Y398774D01*
X423200Y397935D01*
Y397065D01*
X423425Y396226D01*
X423859Y395474D01*
X424474Y394859D01*
X425226Y394425D01*
X426065Y394200D01*
X426934D01*
X427774Y394425D01*
X428526Y394859D01*
X429141Y395474D01*
X429575Y396226D01*
X429800Y397065D01*
Y397843D01*
X430381Y398425D01*
X434040D01*
X434326Y397718D01*
X434388Y397425D01*
X434246Y397213D01*
X434184Y396901D01*
Y389718D01*
X433260Y389335D01*
X431824Y390771D01*
X431229Y391169D01*
X430526Y391309D01*
X413286D01*
X406243Y398353D01*
X406300Y398566D01*
Y399434D01*
X406075Y400274D01*
X405641Y401026D01*
X405026Y401641D01*
X404274Y402075D01*
X403435Y402300D01*
X402565D01*
X401726Y402075D01*
X400974Y401641D01*
X400359Y401026D01*
X399925Y400274D01*
X399700Y399434D01*
Y398566D01*
X399925Y397726D01*
X400359Y396974D01*
X400974Y396359D01*
X401726Y395925D01*
X402565Y395700D01*
X403435D01*
X403648Y395757D01*
X411229Y388176D01*
X411824Y387778D01*
X412526Y387638D01*
X429766D01*
X434184Y383220D01*
Y376059D01*
X425063Y366937D01*
X424775Y366507D01*
X424675Y366000D01*
Y339000D01*
X424775Y338493D01*
X425063Y338063D01*
X436786Y326340D01*
Y318660D01*
X426063Y307937D01*
X425775Y307507D01*
X425674Y307000D01*
Y283000D01*
X425775Y282493D01*
X426063Y282063D01*
X437785Y270340D01*
Y268325D01*
X434000D01*
X433493Y268225D01*
X433063Y267937D01*
X426063Y260937D01*
X425775Y260507D01*
X425674Y260000D01*
Y224000D01*
X425775Y223493D01*
X426063Y223063D01*
X439184Y209941D01*
Y205000D01*
X439246Y204688D01*
X439423Y204423D01*
X439688Y204246D01*
X440000Y204184D01*
X452000D01*
X452312Y204246D01*
X452577Y204423D01*
X452754Y204688D01*
X452816Y205000D01*
Y225452D01*
X452980Y225652D01*
X454978D01*
Y227900D01*
X465022D01*
Y226267D01*
X465000D01*
X464688Y226205D01*
X464423Y226028D01*
X464246Y225764D01*
X464184Y225452D01*
Y222000D01*
X464246Y221688D01*
X464423Y221423D01*
X464688Y221246D01*
X465000Y221184D01*
X483117D01*
X483451Y220808D01*
X483666Y220501D01*
X483667Y220500D01*
X487500D01*
X491333D01*
X491334Y220501D01*
X491549Y220808D01*
X491883Y221184D01*
X505051D01*
X505142Y221202D01*
X505235Y221205D01*
X505296Y221233D01*
X505363Y221246D01*
X505440Y221298D01*
X505525Y221336D01*
X505571Y221386D01*
X505627Y221423D01*
X505679Y221500D01*
X505743Y221568D01*
X505947Y221896D01*
X506228Y222178D01*
X507123Y222350D01*
X507506Y222247D01*
X508494D01*
X508877Y222350D01*
X509772Y222178D01*
X510053Y221896D01*
X510257Y221568D01*
X510321Y221500D01*
X510372Y221423D01*
X510429Y221386D01*
X510475Y221336D01*
X510560Y221298D01*
X510637Y221246D01*
X510704Y221233D01*
X510765Y221205D01*
X510858Y221202D01*
X510949Y221184D01*
X523000D01*
X523312Y221246D01*
X523577Y221423D01*
X523754Y221688D01*
X523816Y222000D01*
Y222184D01*
X535500D01*
X535812Y222246D01*
X536077Y222423D01*
X536254Y222688D01*
X536316Y223000D01*
Y391500D01*
Y437500D01*
Y455000D01*
X536254Y455312D01*
X536077Y455577D01*
X535812Y455754D01*
X535500Y455816D01*
X371316D01*
Y486680D01*
X372316Y487094D01*
X372573Y486837D01*
X373474Y486317D01*
X374480Y486047D01*
X374500D01*
Y490000D01*
Y493953D01*
X374480D01*
X373474Y493683D01*
X372573Y493163D01*
X372316Y492906D01*
X371316Y493320D01*
Y496500D01*
X371254Y496812D01*
X371077Y497077D01*
X370812Y497254D01*
X370500Y497316D01*
X349500D01*
X349188Y497254D01*
X348923Y497077D01*
X348746Y496812D01*
X348684Y496500D01*
Y455816D01*
X271000D01*
X270688Y455754D01*
X270423Y455577D01*
X270381Y455514D01*
X269381Y455699D01*
Y465684D01*
X297500D01*
X297812Y465746D01*
X298077Y465923D01*
X298254Y466188D01*
X298316Y466500D01*
Y487342D01*
X299316Y487610D01*
X299337Y487573D01*
X300073Y486837D01*
X300974Y486317D01*
X301980Y486047D01*
X302000D01*
Y490000D01*
Y493953D01*
X301980D01*
X300974Y493683D01*
X300073Y493163D01*
X299337Y492427D01*
X299316Y492390D01*
X298316Y492658D01*
Y496000D01*
X298254Y496312D01*
X298077Y496577D01*
X297812Y496754D01*
X297500Y496816D01*
X251500D01*
X251188Y496754D01*
X250923Y496577D01*
X250746Y496312D01*
X250684Y496000D01*
Y473316D01*
X196094D01*
X195680Y474316D01*
X196101Y474737D01*
X196693Y475763D01*
X197000Y476908D01*
Y477000D01*
X192500D01*
X188000D01*
Y476908D01*
X188307Y475763D01*
X188899Y474737D01*
X189320Y474316D01*
X188906Y473316D01*
X102500D01*
X102325Y473281D01*
X101937Y473426D01*
X101326Y473845D01*
Y501675D01*
X578675D01*
Y101326D01*
D02*
G37*
G36*
X297500Y466500D02*
X269381D01*
Y486444D01*
X269281Y486951D01*
X268993Y487381D01*
X267289Y489085D01*
X267314Y489127D01*
X267556Y490032D01*
Y490968D01*
X267314Y491873D01*
X266845Y492683D01*
X266183Y493345D01*
X265372Y493814D01*
X264468Y494056D01*
X263532D01*
X262628Y493814D01*
X261817Y493345D01*
X261155Y492683D01*
X260686Y491873D01*
X260444Y490968D01*
Y490032D01*
X260686Y489127D01*
X261155Y488317D01*
X261817Y487655D01*
X262628Y487186D01*
X263532Y486944D01*
X264468D01*
X265372Y487186D01*
X265415Y487211D01*
X266730Y485895D01*
Y466500D01*
X259500D01*
Y446582D01*
X257099Y444181D01*
X256023Y444519D01*
X255867Y445102D01*
X255321Y446048D01*
X254548Y446820D01*
X253602Y447367D01*
X252546Y447650D01*
X252500D01*
Y443500D01*
X252000D01*
Y443000D01*
X247850D01*
Y442954D01*
X248133Y441898D01*
X248679Y440952D01*
X249452Y440179D01*
X250398Y439633D01*
X250992Y439474D01*
X251286Y438558D01*
X250779Y438000D01*
X244000D01*
X242500Y439500D01*
Y462000D01*
X220430D01*
X220622Y451070D01*
X220404Y450848D01*
X219902Y450748D01*
X219477Y450464D01*
X219193Y450039D01*
X219093Y449537D01*
Y447941D01*
X221260D01*
Y446941D01*
X219093D01*
Y445344D01*
X219158Y445018D01*
X218814Y444366D01*
X218540Y444021D01*
X206256Y444071D01*
Y444953D01*
X202500D01*
X198744D01*
Y444811D01*
X198036Y444105D01*
X191000Y444134D01*
Y388000D01*
X240500D01*
Y345864D01*
X239500Y345450D01*
X239149Y345801D01*
X238351Y346262D01*
X237500Y346490D01*
Y343000D01*
Y339510D01*
X238351Y339738D01*
X239149Y340199D01*
X239500Y340550D01*
X240500Y340136D01*
Y338000D01*
X218000D01*
Y376000D01*
X146000D01*
Y338000D01*
X118500D01*
Y381500D01*
X110500D01*
Y435637D01*
X111247Y436247D01*
X111500Y436247D01*
X118753D01*
Y443753D01*
X111500D01*
X111247Y443753D01*
X110500Y444363D01*
Y444467D01*
X102500Y444500D01*
Y472500D01*
X251500D01*
Y496000D01*
X297500D01*
Y466500D01*
D02*
G37*
G36*
X261817Y457655D02*
X262628Y457186D01*
X263532Y456944D01*
X264468D01*
X265372Y457186D01*
X265730Y457393D01*
X266730Y456850D01*
Y453812D01*
X261240Y448321D01*
X260316Y448704D01*
Y457796D01*
X260651Y458004D01*
X261316Y458155D01*
X261817Y457655D01*
D02*
G37*
G36*
X241684Y439500D02*
X241684Y439500D01*
X241746Y439188D01*
X241923Y438923D01*
X243031Y437816D01*
X242617Y436816D01*
X240316D01*
Y451000D01*
X240254Y451312D01*
X240077Y451577D01*
X239812Y451754D01*
X239500Y451816D01*
X231368D01*
X231265Y451795D01*
X231160Y451789D01*
X231110Y451764D01*
X231056Y451754D01*
X230968Y451695D01*
X230874Y451649D01*
X230837Y451608D01*
X230791Y451577D01*
X230733Y451489D01*
X230663Y451411D01*
X230190Y450599D01*
X230020Y450560D01*
X229596Y450644D01*
X227884D01*
X227460Y450560D01*
X227101Y450320D01*
X226639D01*
X226280Y450560D01*
X225856Y450644D01*
X224144D01*
X223720Y450560D01*
X223361Y450320D01*
X222899D01*
X222540Y450560D01*
X222290Y450609D01*
X222116Y450644D01*
X221437Y451084D01*
X221272Y460471D01*
X221973Y461184D01*
X241684D01*
Y439500D01*
D02*
G37*
G36*
X269783Y452584D02*
X270184Y452446D01*
X270184Y436816D01*
X256348D01*
X256244Y436795D01*
X256137Y436788D01*
X256089Y436764D01*
X256036Y436754D01*
X255947Y436694D01*
X255852Y436647D01*
X255767Y436576D01*
X255331Y436477D01*
X254702Y436823D01*
X254571Y437903D01*
X268993Y452326D01*
X269184Y452612D01*
X269783Y452584D01*
D02*
G37*
G36*
X370500Y455000D02*
X535500D01*
Y437500D01*
Y391500D01*
Y223000D01*
X523000D01*
Y222000D01*
X510949D01*
X510745Y222327D01*
X510590Y223000D01*
X511163Y223573D01*
X511683Y224474D01*
X511953Y225480D01*
Y225500D01*
X508000D01*
X504047D01*
Y225480D01*
X504317Y224474D01*
X504837Y223573D01*
X505410Y223000D01*
X505255Y222327D01*
X505051Y222000D01*
X491883D01*
X491256Y222740D01*
Y225406D01*
X487500D01*
X483744D01*
Y222740D01*
X483117Y222000D01*
X465000D01*
Y225452D01*
X469200D01*
Y227500D01*
X469700D01*
Y228000D01*
X474578D01*
Y228376D01*
X475287Y229081D01*
X483744Y229045D01*
Y226406D01*
X487500D01*
X491256D01*
Y228303D01*
X491964Y229009D01*
X504009Y228957D01*
X504564Y227954D01*
X504317Y227526D01*
X504047Y226520D01*
Y226500D01*
X508000D01*
X511953D01*
Y226520D01*
X511683Y227526D01*
X511453Y227924D01*
X512032Y228922D01*
X516000Y228904D01*
Y277000D01*
X512949D01*
X512745Y277327D01*
X512590Y278000D01*
X513163Y278573D01*
X513683Y279474D01*
X513953Y280480D01*
Y280500D01*
X510000D01*
X506047D01*
Y280480D01*
X506317Y279474D01*
X506837Y278573D01*
X507410Y278000D01*
X507255Y277327D01*
X507051Y277000D01*
X491383D01*
X490756Y277740D01*
Y280405D01*
X487000D01*
X483244D01*
Y277740D01*
X482617Y277000D01*
X463030D01*
Y280452D01*
X466700D01*
Y282500D01*
X467200D01*
Y283000D01*
X472078D01*
Y284000D01*
X483244D01*
Y281405D01*
X487000D01*
X490756D01*
Y284000D01*
X506066D01*
X506590Y283000D01*
X506317Y282526D01*
X506047Y281520D01*
Y281500D01*
X510000D01*
X513953D01*
Y281520D01*
X513683Y282526D01*
X513410Y283000D01*
X513934Y284000D01*
X516000D01*
Y331000D01*
X513504D01*
X513090Y332000D01*
X513163Y332073D01*
X513683Y332974D01*
X513953Y333980D01*
Y334000D01*
X510000D01*
X506047D01*
Y333980D01*
X506317Y332974D01*
X506837Y332073D01*
X506910Y332000D01*
X506496Y331000D01*
X491655D01*
X491256Y331835D01*
Y334500D01*
X487500D01*
X483744D01*
Y331835D01*
X483345Y331000D01*
X463000D01*
Y335452D01*
X466700D01*
Y337500D01*
X467200D01*
Y338000D01*
X472078D01*
Y338711D01*
X472788Y339415D01*
X507628Y339112D01*
X507768Y338931D01*
X507573Y337663D01*
X506837Y336927D01*
X506317Y336026D01*
X506047Y335020D01*
Y335000D01*
X510000D01*
X513953D01*
Y335020D01*
X513683Y336026D01*
X513163Y336927D01*
X512427Y337663D01*
X511711Y338076D01*
X511806Y338886D01*
X511881Y339075D01*
X516000Y339039D01*
Y391500D01*
X514321D01*
X513953Y391980D01*
Y392000D01*
X510000D01*
X506047D01*
Y391980D01*
X505679Y391500D01*
X491256D01*
Y392453D01*
X487500D01*
X483744D01*
Y390000D01*
X464000D01*
Y392952D01*
X466700D01*
Y395000D01*
X467200D01*
Y395500D01*
X472078D01*
Y397000D01*
X479596D01*
X479726Y396925D01*
X480566Y396700D01*
X481434D01*
X482274Y396925D01*
X482404Y397000D01*
X483459D01*
X483744Y396118D01*
X483744D01*
Y393453D01*
X487500D01*
X491256D01*
Y396118D01*
X487000D01*
Y418500D01*
X260000D01*
Y427206D01*
X252618Y428380D01*
X252546Y429350D01*
X253602Y429633D01*
X254548Y430180D01*
X255321Y430952D01*
X255867Y431898D01*
X256150Y432954D01*
Y433000D01*
X252000D01*
X247850D01*
Y432954D01*
X248133Y431898D01*
X248679Y430952D01*
X249452Y430180D01*
X250130Y429788D01*
X249790Y428830D01*
X233326Y431448D01*
Y439494D01*
X233225Y440001D01*
X233000Y440337D01*
Y444500D01*
X231689D01*
X230907Y445344D01*
Y446941D01*
X228740D01*
Y447941D01*
X230907D01*
Y449537D01*
X230815Y450000D01*
X230810Y450044D01*
X231368Y451000D01*
X239500D01*
Y436000D01*
X247652D01*
X248026Y435352D01*
X248106Y435000D01*
X247850Y434046D01*
Y434000D01*
X252000D01*
X256150D01*
Y434046D01*
X255894Y435000D01*
X255974Y435352D01*
X256348Y436000D01*
X271000D01*
X271000Y455000D01*
X349500D01*
Y496500D01*
X370500D01*
Y455000D01*
D02*
G37*
G36*
X442922Y395500D02*
X447800D01*
Y395000D01*
X448300D01*
Y392952D01*
X450000D01*
Y372901D01*
X435000D01*
Y396901D01*
X442922D01*
Y395500D01*
D02*
G37*
G36*
X462522Y393152D02*
X463020D01*
X463184Y392952D01*
Y390000D01*
X463246Y389688D01*
X463423Y389423D01*
X463688Y389246D01*
X464000Y389184D01*
X483744D01*
Y387547D01*
X487500D01*
X491256D01*
Y389742D01*
X491256Y390213D01*
X492061Y390684D01*
X505679D01*
X505732Y390695D01*
X505786Y390691D01*
X505887Y390726D01*
X505991Y390746D01*
X506603Y390501D01*
X506836Y390368D01*
X506884Y390333D01*
X506972Y390239D01*
X506997Y390196D01*
X507696Y389497D01*
X508552Y389003D01*
X509506Y388747D01*
X510494D01*
X511448Y389003D01*
X512304Y389497D01*
X513003Y390196D01*
X513028Y390239D01*
X513116Y390333D01*
X513164Y390368D01*
X513397Y390501D01*
X514009Y390746D01*
X514113Y390726D01*
X514214Y390691D01*
X515184Y390520D01*
Y340572D01*
X514474Y339868D01*
X511889Y339891D01*
X511880Y339889D01*
X511871Y339891D01*
X511724Y339859D01*
X511576Y339831D01*
X511568Y339826D01*
X511559Y339824D01*
X511436Y339739D01*
X511310Y339657D01*
X511305Y339649D01*
X511297Y339644D01*
X511215Y339518D01*
X511131Y339394D01*
X511129Y339385D01*
X511124Y339377D01*
X511048Y339188D01*
X511040Y339142D01*
X510963Y338933D01*
X510494Y338253D01*
X509506Y338253D01*
X509501Y338251D01*
X508994Y338555D01*
X508583Y338960D01*
X508565Y339036D01*
X508561Y339124D01*
X508557Y339134D01*
X508556Y339144D01*
X508490Y339277D01*
X508427Y339413D01*
X508419Y339420D01*
X508414Y339429D01*
X508274Y339611D01*
X508237Y339643D01*
X508210Y339684D01*
X508118Y339746D01*
X508034Y339820D01*
X507988Y339835D01*
X507947Y339863D01*
X507838Y339885D01*
X507732Y339921D01*
X507684Y339918D01*
X507636Y339928D01*
X484212Y340131D01*
X483923Y340558D01*
X483734Y341135D01*
X484075Y341726D01*
X484300Y342565D01*
Y343435D01*
X484075Y344274D01*
X483641Y345026D01*
X483026Y345641D01*
X482274Y346075D01*
X481434Y346300D01*
X480566D01*
X479726Y346075D01*
X478974Y345641D01*
X478359Y345026D01*
X477925Y344274D01*
X477872Y344075D01*
X471878D01*
Y344348D01*
X463000D01*
Y345452D01*
X466700D01*
Y347500D01*
Y349548D01*
X463000D01*
Y350652D01*
X471878D01*
Y350924D01*
X477872D01*
X477925Y350726D01*
X478359Y349974D01*
X478974Y349359D01*
X479726Y348925D01*
X480566Y348700D01*
X481434D01*
X482274Y348925D01*
X483026Y349359D01*
X483641Y349974D01*
X484075Y350726D01*
X484300Y351566D01*
Y352434D01*
X484075Y353274D01*
X483641Y354026D01*
X483026Y354641D01*
X482274Y355075D01*
X481434Y355300D01*
X480566D01*
X479726Y355075D01*
X478974Y354641D01*
X478359Y354026D01*
X478099Y353575D01*
X471878D01*
Y354348D01*
X462522D01*
Y352100D01*
X452678D01*
Y354548D01*
X448300D01*
Y352500D01*
Y350452D01*
X452000D01*
Y349348D01*
X443122D01*
Y348826D01*
X437049D01*
X436091Y349784D01*
X436300Y350566D01*
Y351434D01*
X436075Y352274D01*
X435641Y353026D01*
X435026Y353641D01*
X434274Y354075D01*
X433434Y354300D01*
X432565D01*
X431726Y354075D01*
X430974Y353641D01*
X430359Y353026D01*
X429925Y352274D01*
X429700Y351434D01*
Y350566D01*
X429925Y349726D01*
X430359Y348974D01*
X430974Y348359D01*
X431726Y347925D01*
X432565Y347700D01*
X433434D01*
X434216Y347909D01*
X435563Y346563D01*
X435993Y346275D01*
X436500Y346175D01*
X443122D01*
Y345652D01*
X452000D01*
Y344348D01*
X443122D01*
Y343576D01*
X436332D01*
X435825Y343475D01*
X435395Y343187D01*
X434914Y342706D01*
X434274Y343075D01*
X433434Y343300D01*
X432565D01*
X431726Y343075D01*
X430974Y342641D01*
X430359Y342026D01*
X429925Y341274D01*
X429700Y340435D01*
Y339565D01*
X429925Y338726D01*
X430359Y337974D01*
X430974Y337359D01*
X431726Y336925D01*
X432565Y336700D01*
X433434D01*
X434274Y336925D01*
X435026Y337359D01*
X435641Y337974D01*
X435785Y338225D01*
X436786Y337957D01*
Y331396D01*
X435862Y331013D01*
X427325Y339549D01*
Y365451D01*
X434219Y372344D01*
X434423Y372324D01*
X434688Y372147D01*
X435000Y372085D01*
X450000D01*
X450312Y372147D01*
X450577Y372324D01*
X450754Y372589D01*
X450816Y372901D01*
Y392952D01*
X450980Y393152D01*
X452478D01*
Y395400D01*
X462522D01*
Y393152D01*
D02*
G37*
G36*
X215500Y311000D02*
X168000D01*
Y356500D01*
X201034D01*
X201594Y355732D01*
X201594Y355500D01*
Y348500D01*
X209461D01*
Y355500D01*
X209461Y355732D01*
X210021Y356500D01*
X215500D01*
Y311000D01*
D02*
G37*
G36*
X442922Y338000D02*
X447800D01*
Y337500D01*
X448300D01*
Y335452D01*
X449601D01*
Y314760D01*
X437601D01*
Y338760D01*
X442922D01*
Y338000D01*
D02*
G37*
G36*
X462522Y336094D02*
X462423Y336028D01*
X462246Y335764D01*
X462184Y335452D01*
Y331000D01*
X462246Y330688D01*
X462423Y330423D01*
X462688Y330246D01*
X463000Y330184D01*
X483345D01*
X483604Y329594D01*
X487500D01*
X491396D01*
X491655Y330184D01*
X506496D01*
X506808Y330246D01*
X507072Y330423D01*
X507249Y330688D01*
X508479Y331045D01*
X508552Y331003D01*
X509506Y330747D01*
X510494D01*
X511448Y331003D01*
X511520Y331045D01*
X512751Y330688D01*
X512927Y330423D01*
X513192Y330246D01*
X513504Y330184D01*
X515184D01*
Y284816D01*
X513934D01*
X513813Y284792D01*
X513691Y284779D01*
X513658Y284761D01*
X513622Y284754D01*
X513519Y284685D01*
X513412Y284626D01*
X513388Y284597D01*
X513357Y284577D01*
X513289Y284474D01*
X513270Y284451D01*
X513115Y284343D01*
X511983Y284189D01*
X511448Y284497D01*
X510494Y284753D01*
X509506D01*
X508552Y284497D01*
X508017Y284189D01*
X506885Y284343D01*
X506730Y284451D01*
X506711Y284474D01*
X506643Y284577D01*
X506612Y284597D01*
X506589Y284626D01*
X506481Y284685D01*
X506378Y284754D01*
X506342Y284761D01*
X506309Y284779D01*
X506187Y284792D01*
X506066Y284816D01*
X490756D01*
X490444Y284754D01*
X490179Y284577D01*
X490002Y284312D01*
X489940Y284000D01*
Y283871D01*
X484060D01*
Y284000D01*
X483998Y284312D01*
X483821Y284577D01*
X483556Y284754D01*
X483244Y284816D01*
X480998D01*
X480866Y285816D01*
X481274Y285925D01*
X482026Y286359D01*
X482641Y286974D01*
X483075Y287726D01*
X483300Y288565D01*
Y289435D01*
X483075Y290274D01*
X482641Y291026D01*
X482026Y291641D01*
X481274Y292075D01*
X480435Y292300D01*
X479565D01*
X478726Y292075D01*
X477974Y291641D01*
X477359Y291026D01*
X476925Y290274D01*
X476700Y289435D01*
Y288825D01*
X471878D01*
Y289348D01*
X463000D01*
Y290452D01*
X466700D01*
Y292500D01*
Y294548D01*
X463000D01*
Y295652D01*
X471878D01*
Y296425D01*
X477099D01*
X477359Y295974D01*
X477974Y295359D01*
X478726Y294925D01*
X479565Y294700D01*
X480435D01*
X481274Y294925D01*
X482026Y295359D01*
X482641Y295974D01*
X483075Y296726D01*
X483300Y297566D01*
Y298434D01*
X483075Y299274D01*
X482641Y300026D01*
X482026Y300641D01*
X481274Y301075D01*
X480435Y301300D01*
X479565D01*
X478726Y301075D01*
X477974Y300641D01*
X477359Y300026D01*
X476925Y299274D01*
X476872Y299076D01*
X471878D01*
Y299348D01*
X462522D01*
Y297100D01*
X452678D01*
Y299548D01*
X448300D01*
Y297500D01*
Y295452D01*
X452000D01*
Y294348D01*
X443122D01*
Y293826D01*
X435300D01*
Y294434D01*
X435075Y295274D01*
X434641Y296026D01*
X434026Y296641D01*
X433274Y297075D01*
X432435Y297300D01*
X431566D01*
X430726Y297075D01*
X429974Y296641D01*
X429359Y296026D01*
X429325Y295968D01*
X428326Y296235D01*
Y306451D01*
X435971Y314097D01*
X435981Y314101D01*
X437024Y314183D01*
X437289Y314006D01*
X437601Y313944D01*
X449601D01*
X449913Y314006D01*
X450178Y314183D01*
X450355Y314448D01*
X450417Y314760D01*
Y335452D01*
X450581Y335652D01*
X452478D01*
Y337900D01*
X462522D01*
Y336094D01*
D02*
G37*
G36*
X263359Y306974D02*
X263974Y306359D01*
X264726Y305925D01*
X265097Y305825D01*
X264966Y304825D01*
X254562D01*
X253842Y305546D01*
X253412Y305833D01*
X252904Y305934D01*
X245106D01*
X244723Y306858D01*
X245540Y307675D01*
X262955D01*
X263359Y306974D01*
D02*
G37*
G36*
X231944Y323940D02*
Y318035D01*
X236206D01*
Y306109D01*
X236062D01*
Y303709D01*
X235562D01*
Y303209D01*
X234062D01*
Y301595D01*
X234062D01*
X234062D01*
X233143Y301296D01*
X233068Y301294D01*
X229080D01*
X227437Y302937D01*
X227007Y303225D01*
X226500Y303326D01*
X209816D01*
Y305675D01*
X216000D01*
X216507Y305775D01*
X216937Y306063D01*
X224937Y314063D01*
X225225Y314493D01*
X225325Y315000D01*
Y321451D01*
X229549Y325675D01*
X231944D01*
Y323940D01*
D02*
G37*
G36*
X279675Y304451D02*
Y294235D01*
X278675Y293968D01*
X278641Y294026D01*
X278026Y294641D01*
X277274Y295075D01*
X276434Y295300D01*
X275566D01*
X274726Y295075D01*
X273974Y294641D01*
X273359Y294026D01*
X272955Y293325D01*
X268830D01*
X261249Y300906D01*
X260819Y301194D01*
X261014Y302174D01*
X270972D01*
X271700Y301434D01*
Y300566D01*
X271925Y299726D01*
X272359Y298974D01*
X272974Y298359D01*
X273726Y297925D01*
X274566Y297700D01*
X275434D01*
X276274Y297925D01*
X277026Y298359D01*
X277641Y298974D01*
X278075Y299726D01*
X278300Y300566D01*
Y301434D01*
X278075Y302274D01*
X277641Y303026D01*
X277026Y303641D01*
X276274Y304075D01*
X275434Y304300D01*
X274566D01*
X273726Y304075D01*
X273356Y303861D01*
X272780Y304437D01*
X272350Y304725D01*
X271843Y304825D01*
X267034D01*
X266903Y305825D01*
X267274Y305925D01*
X268026Y306359D01*
X268641Y306974D01*
X269075Y307726D01*
X269300Y308565D01*
Y309435D01*
X269075Y310274D01*
X268844Y310675D01*
X269272Y311585D01*
X269372Y311674D01*
X272451D01*
X279675Y304451D01*
D02*
G37*
G36*
X209000Y293000D02*
X168000D01*
Y309000D01*
X209000D01*
Y293000D01*
D02*
G37*
G36*
X429359Y291974D02*
X429974Y291359D01*
X430726Y290925D01*
X431566Y290700D01*
X432435D01*
X433274Y290925D01*
X433985Y291336D01*
X434075Y291275D01*
X434582Y291175D01*
X443122D01*
Y290652D01*
X452000D01*
Y289348D01*
X443122D01*
Y288825D01*
X435157D01*
X434650Y288725D01*
X434220Y288437D01*
X433644Y287861D01*
X433274Y288075D01*
X432435Y288300D01*
X431566D01*
X430726Y288075D01*
X429974Y287641D01*
X429359Y287026D01*
X429325Y286968D01*
X428326Y287235D01*
Y291764D01*
X429325Y292032D01*
X429359Y291974D01*
D02*
G37*
G36*
X231422Y296531D02*
X234972D01*
Y295531D01*
X231422D01*
Y294531D01*
X233947D01*
Y275500D01*
X230165D01*
Y278000D01*
X227000D01*
Y278500D01*
X226500D01*
Y282256D01*
X225000D01*
Y291500D01*
X230174Y296674D01*
X231422D01*
Y296531D01*
D02*
G37*
G36*
X217244Y298453D02*
X221000D01*
Y297453D01*
X217244D01*
Y295500D01*
X215500D01*
Y275500D01*
X204494D01*
X197497Y282497D01*
X196912Y282946D01*
X196231Y283228D01*
X195500Y283324D01*
X187266D01*
X186927Y283663D01*
X186026Y284183D01*
X185020Y284453D01*
X185000D01*
Y280500D01*
Y276547D01*
X185020D01*
X186026Y276817D01*
X186927Y277337D01*
X187266Y277676D01*
X194330D01*
X195582Y276424D01*
X195200Y275500D01*
X168000D01*
Y289500D01*
X210000D01*
Y299500D01*
X210500Y300000D01*
X217244D01*
Y298453D01*
D02*
G37*
G36*
X437732Y285785D02*
X437916Y285174D01*
X437848Y285072D01*
X437785Y284760D01*
Y275396D01*
X436862Y275013D01*
X431080Y280795D01*
X431536Y281645D01*
X431589Y281700D01*
X432435D01*
X433274Y281925D01*
X434026Y282359D01*
X434641Y282974D01*
X435075Y283726D01*
X435300Y284565D01*
Y285434D01*
X436028Y286175D01*
X437478D01*
X437732Y285785D01*
D02*
G37*
G36*
X442922Y284548D02*
Y283000D01*
X447800D01*
Y282500D01*
X448300D01*
Y280452D01*
X450601D01*
Y260760D01*
X438601D01*
Y284760D01*
X442010D01*
X442922Y284548D01*
D02*
G37*
G36*
X462522Y281074D02*
X462454Y281028D01*
X462277Y280764D01*
X462215Y280452D01*
Y277000D01*
X462277Y276688D01*
X462454Y276423D01*
X462718Y276246D01*
X463030Y276184D01*
X482617D01*
X482951Y275807D01*
X483166Y275501D01*
X483167Y275500D01*
X487000D01*
X490833D01*
X490834Y275501D01*
X491049Y275807D01*
X491383Y276184D01*
X507051D01*
X507142Y276202D01*
X507235Y276205D01*
X507296Y276233D01*
X507363Y276246D01*
X507440Y276298D01*
X507525Y276336D01*
X507571Y276386D01*
X507627Y276423D01*
X507679Y276501D01*
X507743Y276568D01*
X507947Y276895D01*
X508228Y277178D01*
X509123Y277350D01*
X509506Y277247D01*
X510494D01*
X510877Y277350D01*
X511772Y277178D01*
X512053Y276895D01*
X512257Y276568D01*
X512321Y276501D01*
X512372Y276423D01*
X512429Y276386D01*
X512475Y276336D01*
X512560Y276298D01*
X512637Y276246D01*
X512704Y276233D01*
X512765Y276205D01*
X512858Y276202D01*
X512949Y276184D01*
X515184D01*
Y230432D01*
X514476Y229727D01*
X512036Y229737D01*
X511930Y229717D01*
X511823Y229710D01*
X511775Y229687D01*
X511723Y229677D01*
X511634Y229617D01*
X511537Y229570D01*
X511502Y229530D01*
X511458Y229501D01*
X511398Y229412D01*
X511356Y229365D01*
X511060Y229102D01*
X510304Y229003D01*
X509448Y229497D01*
X508494Y229753D01*
X507506D01*
X506552Y229497D01*
X505971Y229162D01*
X504823Y229287D01*
X504680Y229402D01*
X504651Y229437D01*
X504589Y229531D01*
X504549Y229558D01*
X504518Y229594D01*
X504418Y229646D01*
X504325Y229709D01*
X504278Y229718D01*
X504235Y229740D01*
X504123Y229750D01*
X504013Y229772D01*
X491968Y229824D01*
X491967Y229824D01*
X491966Y229824D01*
X491807Y229793D01*
X491656Y229764D01*
X491655Y229763D01*
X491654Y229763D01*
X491523Y229676D01*
X491390Y229588D01*
X491390Y229587D01*
X491389Y229587D01*
X490680Y228881D01*
X490680Y228881D01*
X490679Y228880D01*
X490673Y228871D01*
X484560D01*
Y229045D01*
X484529Y229199D01*
X484499Y229353D01*
X484498Y229355D01*
X484498Y229357D01*
X484440Y229443D01*
X484319Y229698D01*
X484302Y230398D01*
X484335Y230603D01*
X484369Y230702D01*
X484641Y230974D01*
X485075Y231726D01*
X485300Y232565D01*
Y233435D01*
X485075Y234274D01*
X484641Y235026D01*
X484026Y235641D01*
X483274Y236075D01*
X482435Y236300D01*
X481566D01*
X480726Y236075D01*
X479974Y235641D01*
X479359Y235026D01*
X478925Y234274D01*
X478872Y234075D01*
X474378D01*
Y234348D01*
X465500D01*
Y235452D01*
X469200D01*
Y237500D01*
Y239548D01*
X465500D01*
Y240652D01*
X474378D01*
Y240925D01*
X478872D01*
X478925Y240726D01*
X479359Y239974D01*
X479974Y239359D01*
X480726Y238925D01*
X481566Y238700D01*
X482435D01*
X483274Y238925D01*
X484026Y239359D01*
X484641Y239974D01*
X485075Y240726D01*
X485300Y241565D01*
Y242435D01*
X485075Y243274D01*
X484641Y244026D01*
X484026Y244641D01*
X483274Y245075D01*
X482435Y245300D01*
X481566D01*
X480726Y245075D01*
X479974Y244641D01*
X479359Y244026D01*
X479099Y243576D01*
X474378D01*
Y244348D01*
X465022D01*
Y242100D01*
X455178D01*
Y244548D01*
X450800D01*
Y242500D01*
Y240452D01*
X454500D01*
Y239348D01*
X445622D01*
Y239075D01*
X438128D01*
X438075Y239274D01*
X437641Y240026D01*
X437026Y240641D01*
X436274Y241075D01*
X435434Y241300D01*
X434565D01*
X433726Y241075D01*
X432974Y240641D01*
X432359Y240026D01*
X431925Y239274D01*
X431700Y238435D01*
Y237565D01*
X431925Y236726D01*
X432359Y235974D01*
X432974Y235359D01*
X433726Y234925D01*
X434565Y234700D01*
X435434D01*
X436274Y234925D01*
X437026Y235359D01*
X437641Y235974D01*
X437901Y236424D01*
X445622D01*
Y235652D01*
X454500D01*
Y234348D01*
X445622D01*
Y233825D01*
X438157D01*
X437650Y233725D01*
X437220Y233437D01*
X436644Y232861D01*
X436274Y233075D01*
X435434Y233300D01*
X434565D01*
X433726Y233075D01*
X432974Y232641D01*
X432359Y232026D01*
X431925Y231274D01*
X431700Y230434D01*
Y229566D01*
X431925Y228726D01*
X432359Y227974D01*
X432974Y227359D01*
X433726Y226925D01*
X434565Y226700D01*
X435434D01*
X436274Y226925D01*
X437026Y227359D01*
X437641Y227974D01*
X438075Y228726D01*
X438212Y229236D01*
X439186Y229009D01*
X439184Y229000D01*
Y214997D01*
X438261Y214614D01*
X428326Y224549D01*
Y259451D01*
X434549Y265674D01*
X437785D01*
Y260760D01*
X437848Y260448D01*
X438024Y260183D01*
X438289Y260006D01*
X438601Y259944D01*
X450601D01*
X450913Y260006D01*
X451178Y260183D01*
X451355Y260448D01*
X451417Y260760D01*
Y280452D01*
X451581Y280652D01*
X452478D01*
Y282900D01*
X462522D01*
Y281074D01*
D02*
G37*
G36*
X445422Y228000D02*
X450300D01*
Y227500D01*
X450800D01*
Y225452D01*
X452000D01*
Y205000D01*
X440000D01*
Y229000D01*
X445422D01*
Y228000D01*
D02*
G37*
G36*
X359676Y225324D02*
Y219983D01*
X359497Y219804D01*
X359003Y218949D01*
X358747Y217994D01*
Y217006D01*
X359003Y216052D01*
X359497Y215196D01*
X360000Y214693D01*
Y160000D01*
X285307D01*
X284804Y160503D01*
X283948Y160997D01*
X282994Y161253D01*
X282006D01*
X281051Y160997D01*
X280196Y160503D01*
X279693Y160000D01*
X228000D01*
Y225500D01*
X359500D01*
X359676Y225324D01*
D02*
G37*
G36*
X393000Y224500D02*
X392000Y223500D01*
Y158777D01*
X390867Y158308D01*
X389774Y157470D01*
X388936Y156377D01*
X388409Y155105D01*
X388404Y155060D01*
X383418Y155143D01*
X383175Y156147D01*
X383227Y156175D01*
X384128Y156915D01*
X384868Y157817D01*
X385418Y158845D01*
X385757Y159961D01*
X385822Y160622D01*
X364178D01*
X364243Y159961D01*
X364582Y158845D01*
X365132Y157817D01*
X365872Y156915D01*
X366467Y156426D01*
X366103Y155432D01*
X362000Y155500D01*
Y213743D01*
X362006Y213747D01*
X362994D01*
X363948Y214003D01*
X364804Y214497D01*
X365503Y215196D01*
X365997Y216052D01*
X366253Y217006D01*
Y217994D01*
X365997Y218949D01*
X365503Y219804D01*
X365324Y219983D01*
Y225500D01*
X392586D01*
X393000Y224500D01*
D02*
G37*
%LPC*%
G36*
X375520Y493953D02*
X375500D01*
Y490500D01*
X378953D01*
Y490520D01*
X378683Y491526D01*
X378163Y492427D01*
X377427Y493163D01*
X376526Y493683D01*
X375520Y493953D01*
D02*
G37*
G36*
X340520D02*
X340500D01*
Y490500D01*
X343953D01*
Y490520D01*
X343683Y491526D01*
X343163Y492427D01*
X342427Y493163D01*
X341526Y493683D01*
X340520Y493953D01*
D02*
G37*
G36*
X339500D02*
X339480D01*
X338474Y493683D01*
X337573Y493163D01*
X336837Y492427D01*
X336317Y491526D01*
X336047Y490520D01*
Y490500D01*
X339500D01*
Y493953D01*
D02*
G37*
G36*
X303020D02*
X303000D01*
Y490500D01*
X306453D01*
Y490520D01*
X306183Y491526D01*
X305663Y492427D01*
X304927Y493163D01*
X304026Y493683D01*
X303020Y493953D01*
D02*
G37*
G36*
X438753Y493753D02*
X431247D01*
Y486247D01*
X438753D01*
Y493753D01*
D02*
G37*
G36*
X425494D02*
X424506D01*
X423552Y493497D01*
X422696Y493003D01*
X421997Y492304D01*
X421503Y491448D01*
X421247Y490494D01*
Y489506D01*
X421503Y488552D01*
X421997Y487696D01*
X422696Y486997D01*
X423552Y486503D01*
X424506Y486247D01*
X425494D01*
X426448Y486503D01*
X427304Y486997D01*
X428003Y487696D01*
X428497Y488552D01*
X428753Y489506D01*
Y490494D01*
X428497Y491448D01*
X428003Y492304D01*
X427304Y493003D01*
X426448Y493497D01*
X425494Y493753D01*
D02*
G37*
G36*
X415494D02*
X414506D01*
X413552Y493497D01*
X412696Y493003D01*
X411997Y492304D01*
X411503Y491448D01*
X411247Y490494D01*
Y489506D01*
X411503Y488552D01*
X411997Y487696D01*
X412696Y486997D01*
X413552Y486503D01*
X414506Y486247D01*
X415494D01*
X416448Y486503D01*
X417304Y486997D01*
X418003Y487696D01*
X418497Y488552D01*
X418753Y489506D01*
Y490494D01*
X418497Y491448D01*
X418003Y492304D01*
X417304Y493003D01*
X416448Y493497D01*
X415494Y493753D01*
D02*
G37*
G36*
X405494D02*
X404506D01*
X403551Y493497D01*
X402696Y493003D01*
X401997Y492304D01*
X401503Y491448D01*
X401247Y490494D01*
Y489506D01*
X401503Y488552D01*
X401997Y487696D01*
X402696Y486997D01*
X403551Y486503D01*
X404506Y486247D01*
X405494D01*
X406449Y486503D01*
X407304Y486997D01*
X408003Y487696D01*
X408497Y488552D01*
X408753Y489506D01*
Y490494D01*
X408497Y491448D01*
X408003Y492304D01*
X407304Y493003D01*
X406449Y493497D01*
X405494Y493753D01*
D02*
G37*
G36*
X333753D02*
X326247D01*
Y486247D01*
X333753D01*
Y493753D01*
D02*
G37*
G36*
X378953Y489500D02*
X375500D01*
Y486047D01*
X375520D01*
X376526Y486317D01*
X377427Y486837D01*
X378163Y487573D01*
X378683Y488474D01*
X378953Y489480D01*
Y489500D01*
D02*
G37*
G36*
X343953D02*
X340500D01*
Y486047D01*
X340520D01*
X341526Y486317D01*
X342427Y486837D01*
X343163Y487573D01*
X343683Y488474D01*
X343953Y489480D01*
Y489500D01*
D02*
G37*
G36*
X339500D02*
X336047D01*
Y489480D01*
X336317Y488474D01*
X336837Y487573D01*
X337573Y486837D01*
X338474Y486317D01*
X339480Y486047D01*
X339500D01*
Y489500D01*
D02*
G37*
G36*
X306453D02*
X303000D01*
Y486047D01*
X303020D01*
X304026Y486317D01*
X304927Y486837D01*
X305663Y487573D01*
X306183Y488474D01*
X306453Y489480D01*
Y489500D01*
D02*
G37*
G36*
X539753Y493253D02*
X532247D01*
Y485747D01*
X539753D01*
Y493253D01*
D02*
G37*
G36*
X526494D02*
X525506D01*
X524551Y492997D01*
X523696Y492503D01*
X522997Y491804D01*
X522503Y490948D01*
X522247Y489994D01*
Y489006D01*
X522503Y488052D01*
X522997Y487196D01*
X523696Y486497D01*
X524551Y486003D01*
X525506Y485747D01*
X526494D01*
X527449Y486003D01*
X528304Y486497D01*
X529003Y487196D01*
X529497Y488052D01*
X529753Y489006D01*
Y489994D01*
X529497Y490948D01*
X529003Y491804D01*
X528304Y492503D01*
X527449Y492997D01*
X526494Y493253D01*
D02*
G37*
G36*
X516494D02*
X515506D01*
X514551Y492997D01*
X513696Y492503D01*
X512997Y491804D01*
X512503Y490948D01*
X512247Y489994D01*
Y489006D01*
X512503Y488052D01*
X512997Y487196D01*
X513696Y486497D01*
X514551Y486003D01*
X515506Y485747D01*
X516494D01*
X517449Y486003D01*
X518304Y486497D01*
X519003Y487196D01*
X519497Y488052D01*
X519753Y489006D01*
Y489994D01*
X519497Y490948D01*
X519003Y491804D01*
X518304Y492503D01*
X517449Y492997D01*
X516494Y493253D01*
D02*
G37*
G36*
X506494D02*
X505506D01*
X504552Y492997D01*
X503696Y492503D01*
X502997Y491804D01*
X502503Y490948D01*
X502247Y489994D01*
Y489006D01*
X502503Y488052D01*
X502997Y487196D01*
X503696Y486497D01*
X504552Y486003D01*
X505506Y485747D01*
X506494D01*
X507448Y486003D01*
X508304Y486497D01*
X509003Y487196D01*
X509497Y488052D01*
X509753Y489006D01*
Y489994D01*
X509497Y490948D01*
X509003Y491804D01*
X508304Y492503D01*
X507448Y492997D01*
X506494Y493253D01*
D02*
G37*
G36*
X496494D02*
X495506D01*
X494552Y492997D01*
X493696Y492503D01*
X492997Y491804D01*
X492503Y490948D01*
X492247Y489994D01*
Y489006D01*
X492503Y488052D01*
X492997Y487196D01*
X493696Y486497D01*
X494552Y486003D01*
X495506Y485747D01*
X496494D01*
X497448Y486003D01*
X498304Y486497D01*
X499003Y487196D01*
X499497Y488052D01*
X499753Y489006D01*
Y489994D01*
X499497Y490948D01*
X499003Y491804D01*
X498304Y492503D01*
X497448Y492997D01*
X496494Y493253D01*
D02*
G37*
G36*
X486494D02*
X485506D01*
X484551Y492997D01*
X483696Y492503D01*
X482997Y491804D01*
X482503Y490948D01*
X482247Y489994D01*
Y489006D01*
X482503Y488052D01*
X482997Y487196D01*
X483696Y486497D01*
X484551Y486003D01*
X485506Y485747D01*
X486494D01*
X487449Y486003D01*
X488304Y486497D01*
X489003Y487196D01*
X489497Y488052D01*
X489753Y489006D01*
Y489994D01*
X489497Y490948D01*
X489003Y491804D01*
X488304Y492503D01*
X487449Y492997D01*
X486494Y493253D01*
D02*
G37*
G36*
X476494D02*
X475506D01*
X474551Y492997D01*
X473696Y492503D01*
X472997Y491804D01*
X472503Y490948D01*
X472247Y489994D01*
Y489006D01*
X472503Y488052D01*
X472997Y487196D01*
X473696Y486497D01*
X474551Y486003D01*
X475506Y485747D01*
X476494D01*
X477449Y486003D01*
X478304Y486497D01*
X479003Y487196D01*
X479497Y488052D01*
X479753Y489006D01*
Y489994D01*
X479497Y490948D01*
X479003Y491804D01*
X478304Y492503D01*
X477449Y492997D01*
X476494Y493253D01*
D02*
G37*
G36*
X466494D02*
X465506D01*
X464551Y492997D01*
X463696Y492503D01*
X462997Y491804D01*
X462503Y490948D01*
X462247Y489994D01*
Y489006D01*
X462503Y488052D01*
X462997Y487196D01*
X463696Y486497D01*
X464551Y486003D01*
X465506Y485747D01*
X466494D01*
X467449Y486003D01*
X468304Y486497D01*
X469003Y487196D01*
X469497Y488052D01*
X469753Y489006D01*
Y489994D01*
X469497Y490948D01*
X469003Y491804D01*
X468304Y492503D01*
X467449Y492997D01*
X466494Y493253D01*
D02*
G37*
G36*
X456494D02*
X455506D01*
X454552Y492997D01*
X453696Y492503D01*
X452997Y491804D01*
X452503Y490948D01*
X452247Y489994D01*
Y489006D01*
X452503Y488052D01*
X452997Y487196D01*
X453696Y486497D01*
X454552Y486003D01*
X455506Y485747D01*
X456494D01*
X457448Y486003D01*
X458304Y486497D01*
X459003Y487196D01*
X459497Y488052D01*
X459753Y489006D01*
Y489994D01*
X459497Y490948D01*
X459003Y491804D01*
X458304Y492503D01*
X457448Y492997D01*
X456494Y493253D01*
D02*
G37*
G36*
X193066Y491800D02*
X191934D01*
X190840Y491507D01*
X189860Y490941D01*
X189059Y490140D01*
X188493Y489160D01*
X188200Y488066D01*
Y486934D01*
X188493Y485840D01*
X189059Y484860D01*
X189860Y484059D01*
X190840Y483493D01*
X191934Y483200D01*
X193066D01*
X194160Y483493D01*
X195140Y484059D01*
X195941Y484860D01*
X196507Y485840D01*
X196800Y486934D01*
Y488066D01*
X196507Y489160D01*
X195941Y490140D01*
X195140Y490941D01*
X194160Y491507D01*
X193066Y491800D01*
D02*
G37*
G36*
X193092Y482000D02*
X193000D01*
Y478000D01*
X197000D01*
Y478092D01*
X196693Y479237D01*
X196101Y480263D01*
X195263Y481101D01*
X194237Y481693D01*
X193092Y482000D01*
D02*
G37*
G36*
X192000D02*
X191908D01*
X190763Y481693D01*
X189737Y481101D01*
X188899Y480263D01*
X188307Y479237D01*
X188000Y478092D01*
Y478000D01*
X192000D01*
Y482000D01*
D02*
G37*
G36*
X565891Y494050D02*
X564109D01*
X562360Y493702D01*
X560713Y493020D01*
X559231Y492030D01*
X557970Y490769D01*
X556980Y489287D01*
X556298Y487640D01*
X555950Y485891D01*
Y484109D01*
X556298Y482360D01*
X556980Y480713D01*
X557970Y479231D01*
X559231Y477970D01*
X560713Y476980D01*
X562360Y476298D01*
X564109Y475950D01*
X565891D01*
X567640Y476298D01*
X569287Y476980D01*
X570769Y477970D01*
X572030Y479231D01*
X573020Y480713D01*
X573702Y482360D01*
X574050Y484109D01*
Y485891D01*
X573702Y487640D01*
X573020Y489287D01*
X572030Y490769D01*
X570769Y492030D01*
X569287Y493020D01*
X567640Y493702D01*
X565891Y494050D01*
D02*
G37*
G36*
X115891D02*
X114109D01*
X112360Y493702D01*
X110713Y493020D01*
X109231Y492030D01*
X107970Y490769D01*
X106980Y489287D01*
X106298Y487640D01*
X105950Y485891D01*
Y484109D01*
X106298Y482360D01*
X106980Y480713D01*
X107970Y479231D01*
X109231Y477970D01*
X110713Y476980D01*
X112360Y476298D01*
X114109Y475950D01*
X115891D01*
X117640Y476298D01*
X119287Y476980D01*
X120769Y477970D01*
X122030Y479231D01*
X123020Y480713D01*
X123702Y482360D01*
X124050Y484109D01*
Y485891D01*
X123702Y487640D01*
X123020Y489287D01*
X122030Y490769D01*
X120769Y492030D01*
X119287Y493020D01*
X117640Y493702D01*
X115891Y494050D01*
D02*
G37*
G36*
X447300Y412048D02*
X442922D01*
Y410500D01*
X447300D01*
Y412048D01*
D02*
G37*
G36*
Y409500D02*
X442922D01*
Y407952D01*
X447300D01*
Y409500D01*
D02*
G37*
G36*
X472078Y407048D02*
X467700D01*
Y405500D01*
X472078D01*
Y407048D01*
D02*
G37*
G36*
X570494Y412753D02*
X569506D01*
X568551Y412497D01*
X567696Y412003D01*
X566997Y411304D01*
X566503Y410449D01*
X566247Y409494D01*
Y408506D01*
X566503Y407551D01*
X566997Y406696D01*
X567696Y405997D01*
X568551Y405503D01*
X569506Y405247D01*
X570494D01*
X571449Y405503D01*
X572304Y405997D01*
X573003Y406696D01*
X573497Y407551D01*
X573753Y408506D01*
Y409494D01*
X573497Y410449D01*
X573003Y411304D01*
X572304Y412003D01*
X571449Y412497D01*
X570494Y412753D01*
D02*
G37*
G36*
X472078Y404500D02*
X467700D01*
Y402952D01*
X472078D01*
Y404500D01*
D02*
G37*
G36*
X573753Y402753D02*
X566247D01*
Y395247D01*
X573753D01*
Y402753D01*
D02*
G37*
G36*
X353935Y401800D02*
X353065D01*
X352226Y401575D01*
X351474Y401141D01*
X350859Y400526D01*
X350425Y399774D01*
X350200Y398935D01*
Y398065D01*
X350409Y397284D01*
X311951Y358825D01*
X304097D01*
X304007Y359160D01*
X303441Y360140D01*
X302640Y360941D01*
X301660Y361507D01*
X300566Y361800D01*
X299434D01*
X298340Y361507D01*
X297360Y360941D01*
X296559Y360140D01*
X295993Y359160D01*
X295700Y358066D01*
Y356934D01*
X295993Y355840D01*
X296559Y354860D01*
X297360Y354059D01*
X298340Y353493D01*
X299434Y353200D01*
X300566D01*
X301660Y353493D01*
X302640Y354059D01*
X303441Y354860D01*
X304007Y355840D01*
X304097Y356174D01*
X312500D01*
X313007Y356275D01*
X313437Y356563D01*
X352284Y395409D01*
X353065Y395200D01*
X353935D01*
X354774Y395425D01*
X355526Y395859D01*
X356141Y396474D01*
X356575Y397226D01*
X356800Y398065D01*
Y398935D01*
X356575Y399774D01*
X356141Y400526D01*
X355526Y401141D01*
X354774Y401575D01*
X353935Y401800D01*
D02*
G37*
G36*
X317968Y383556D02*
X317032D01*
X316127Y383314D01*
X315317Y382845D01*
X314655Y382183D01*
X314186Y381372D01*
X313944Y380468D01*
Y379532D01*
X314186Y378627D01*
X314211Y378585D01*
X305599Y369973D01*
X303537D01*
X303441Y370140D01*
X302640Y370941D01*
X301660Y371507D01*
X300566Y371800D01*
X299434D01*
X298340Y371507D01*
X297360Y370941D01*
X296559Y370140D01*
X295993Y369160D01*
X295700Y368066D01*
Y366934D01*
X295993Y365840D01*
X296559Y364860D01*
X297360Y364059D01*
X298340Y363493D01*
X299434Y363200D01*
X300566D01*
X301660Y363493D01*
X302640Y364059D01*
X303441Y364860D01*
X304007Y365840D01*
X304300Y366934D01*
Y367323D01*
X306148D01*
X306655Y367424D01*
X307085Y367711D01*
X316085Y376711D01*
X316127Y376686D01*
X317032Y376444D01*
X317968D01*
X318872Y376686D01*
X319683Y377155D01*
X320345Y377817D01*
X320814Y378627D01*
X321056Y379532D01*
Y380468D01*
X320814Y381372D01*
X320345Y382183D01*
X319683Y382845D01*
X318872Y383314D01*
X317968Y383556D01*
D02*
G37*
G36*
X153953Y370500D02*
X150500D01*
Y367047D01*
X150520D01*
X151526Y367317D01*
X152427Y367837D01*
X153163Y368573D01*
X153683Y369474D01*
X153953Y370480D01*
Y370500D01*
D02*
G37*
G36*
X160000Y351347D02*
Y348500D01*
X162847D01*
X162633Y349298D01*
X162190Y350064D01*
X161564Y350690D01*
X160798Y351133D01*
X160000Y351347D01*
D02*
G37*
G36*
X159000D02*
X158202Y351133D01*
X157436Y350690D01*
X156810Y350064D01*
X156367Y349298D01*
X156153Y348500D01*
X159000D01*
Y351347D01*
D02*
G37*
G36*
X569494Y355753D02*
X568506D01*
X567552Y355497D01*
X566696Y355003D01*
X565997Y354304D01*
X565503Y353449D01*
X565247Y352494D01*
Y351506D01*
X565503Y350552D01*
X565997Y349696D01*
X566696Y348997D01*
X567552Y348503D01*
X568506Y348247D01*
X569494D01*
X570448Y348503D01*
X571304Y348997D01*
X572003Y349696D01*
X572497Y350552D01*
X572753Y351506D01*
Y352494D01*
X572497Y353449D01*
X572003Y354304D01*
X571304Y355003D01*
X570448Y355497D01*
X569494Y355753D01*
D02*
G37*
G36*
X162847Y347500D02*
X160000D01*
Y344653D01*
X160798Y344867D01*
X161564Y345310D01*
X162190Y345936D01*
X162633Y346702D01*
X162847Y347500D01*
D02*
G37*
G36*
X159000D02*
X156153D01*
X156367Y346702D01*
X156810Y345936D01*
X157436Y345310D01*
X158202Y344867D01*
X159000Y344653D01*
Y347500D01*
D02*
G37*
G36*
X255468Y348556D02*
X254532D01*
X253627Y348314D01*
X252817Y347845D01*
X252155Y347183D01*
X251686Y346373D01*
X251444Y345468D01*
Y344532D01*
X251686Y343628D01*
X252155Y342817D01*
X252817Y342155D01*
X253627Y341686D01*
X254532Y341444D01*
X255468D01*
X256372Y341686D01*
X257183Y342155D01*
X257845Y342817D01*
X258314Y343628D01*
X258556Y344532D01*
Y345468D01*
X258314Y346373D01*
X257845Y347183D01*
X257183Y347845D01*
X256372Y348314D01*
X255468Y348556D01*
D02*
G37*
G36*
X572753Y345753D02*
X565247D01*
Y338247D01*
X572753D01*
Y345753D01*
D02*
G37*
G36*
X384934Y406300D02*
X384066D01*
X383226Y406075D01*
X382474Y405641D01*
X381859Y405026D01*
X381425Y404274D01*
X381200Y403435D01*
Y402565D01*
X381425Y401726D01*
X381859Y400974D01*
X382474Y400359D01*
X383174Y399955D01*
Y396813D01*
X319512Y333150D01*
X318421Y333473D01*
X318314Y333873D01*
X317845Y334683D01*
X317183Y335345D01*
X316372Y335814D01*
X315468Y336056D01*
X314532D01*
X313628Y335814D01*
X312817Y335345D01*
X312155Y334683D01*
X311686Y333873D01*
X311444Y332968D01*
Y332032D01*
X311686Y331128D01*
X311711Y331085D01*
X302488Y321862D01*
X302300Y321824D01*
X301274Y322063D01*
X300941Y322640D01*
X300140Y323441D01*
X299160Y324007D01*
X298066Y324300D01*
X296934D01*
X295840Y324007D01*
X294860Y323441D01*
X294059Y322640D01*
X293493Y321660D01*
X293200Y320566D01*
Y319434D01*
X293493Y318340D01*
X294059Y317360D01*
X294860Y316559D01*
X295840Y315993D01*
X296934Y315700D01*
X298066D01*
X299160Y315993D01*
X300140Y316559D01*
X300941Y317360D01*
X301507Y318340D01*
X301596Y318674D01*
X302500D01*
X303007Y318775D01*
X303437Y319063D01*
X313091Y328717D01*
X313548Y328601D01*
X313853Y327491D01*
X299926Y313565D01*
X299160Y314007D01*
X298066Y314300D01*
X296934D01*
X295840Y314007D01*
X294860Y313441D01*
X294059Y312640D01*
X293493Y311660D01*
X293200Y310566D01*
Y309434D01*
X293493Y308340D01*
X294059Y307360D01*
X294860Y306559D01*
X295840Y305993D01*
X296934Y305700D01*
X298066D01*
X299160Y305993D01*
X300140Y306559D01*
X300941Y307360D01*
X301507Y308340D01*
X301800Y309434D01*
Y310566D01*
X301563Y311452D01*
X385437Y395327D01*
X385725Y395757D01*
X385825Y396264D01*
Y399955D01*
X386526Y400359D01*
X387141Y400974D01*
X387575Y401726D01*
X387800Y402565D01*
Y403435D01*
X387575Y404274D01*
X387141Y405026D01*
X386526Y405641D01*
X385774Y406075D01*
X384934Y406300D01*
D02*
G37*
G36*
X287968Y383556D02*
X287032D01*
X286127Y383314D01*
X285317Y382845D01*
X284655Y382183D01*
X284186Y381372D01*
X283944Y380468D01*
Y379532D01*
X284186Y378627D01*
X284584Y377939D01*
X284063Y377418D01*
X283775Y376989D01*
X283675Y376481D01*
Y335826D01*
X283628Y335814D01*
X282817Y335345D01*
X282155Y334683D01*
X281686Y333873D01*
X281444Y332968D01*
Y332032D01*
X281686Y331128D01*
X282155Y330317D01*
X282817Y329655D01*
X283628Y329186D01*
X284532Y328944D01*
X285468D01*
X286372Y329186D01*
X287183Y329655D01*
X287845Y330317D01*
X288314Y331128D01*
X288556Y332032D01*
Y332968D01*
X288314Y333873D01*
X287845Y334683D01*
X287183Y335345D01*
X286372Y335814D01*
X286326Y335826D01*
Y375745D01*
X287032Y376444D01*
X287968D01*
X288873Y376686D01*
X289683Y377155D01*
X290345Y377817D01*
X290814Y378627D01*
X291056Y379532D01*
Y380468D01*
X290814Y381372D01*
X290345Y382183D01*
X289683Y382845D01*
X288873Y383314D01*
X287968Y383556D01*
D02*
G37*
G36*
X570494Y302753D02*
X569506D01*
X568551Y302497D01*
X567696Y302003D01*
X566997Y301304D01*
X566503Y300448D01*
X566247Y299494D01*
Y298506D01*
X566503Y297551D01*
X566997Y296696D01*
X567696Y295997D01*
X568551Y295503D01*
X569506Y295247D01*
X570494D01*
X571449Y295503D01*
X572304Y295997D01*
X573003Y296696D01*
X573497Y297551D01*
X573753Y298506D01*
Y299494D01*
X573497Y300448D01*
X573003Y301304D01*
X572304Y302003D01*
X571449Y302497D01*
X570494Y302753D01*
D02*
G37*
G36*
X573753Y292753D02*
X566247D01*
Y285247D01*
X573753D01*
Y292753D01*
D02*
G37*
G36*
X325468Y288556D02*
X324532D01*
X323627Y288314D01*
X322817Y287845D01*
X322155Y287183D01*
X321686Y286372D01*
X321674Y286326D01*
X310000D01*
X309493Y286225D01*
X309063Y285937D01*
X299459Y276334D01*
X299160Y276507D01*
X298066Y276800D01*
X296934D01*
X295840Y276507D01*
X294860Y275941D01*
X294059Y275140D01*
X293493Y274160D01*
X293200Y273066D01*
Y271934D01*
X293493Y270840D01*
X294059Y269860D01*
X294860Y269059D01*
X295840Y268493D01*
X296934Y268200D01*
X298066D01*
X299160Y268493D01*
X300140Y269059D01*
X300941Y269860D01*
X301507Y270840D01*
X301800Y271934D01*
Y273066D01*
X301507Y274160D01*
X301334Y274459D01*
X310549Y283675D01*
X321674D01*
X321686Y283628D01*
X322155Y282817D01*
X322817Y282155D01*
X323627Y281686D01*
X324532Y281444D01*
X325468D01*
X326373Y281686D01*
X327183Y282155D01*
X327845Y282817D01*
X328314Y283628D01*
X328556Y284532D01*
Y285468D01*
X328314Y286372D01*
X327845Y287183D01*
X327183Y287845D01*
X326373Y288314D01*
X325468Y288556D01*
D02*
G37*
G36*
X295468D02*
X294532D01*
X293628Y288314D01*
X292817Y287845D01*
X292155Y287183D01*
X291686Y286372D01*
X291444Y285468D01*
Y284532D01*
X291686Y283628D01*
X292155Y282817D01*
X292817Y282155D01*
X293628Y281686D01*
X294532Y281444D01*
X295468D01*
X296373Y281686D01*
X297183Y282155D01*
X297845Y282817D01*
X298314Y283628D01*
X298556Y284532D01*
Y285468D01*
X298314Y286372D01*
X297845Y287183D01*
X297183Y287845D01*
X296373Y288314D01*
X295468Y288556D01*
D02*
G37*
G36*
X220595Y282256D02*
X217929D01*
Y279000D01*
X220595D01*
Y282256D01*
D02*
G37*
G36*
Y278000D02*
X217929D01*
Y274744D01*
X220595D01*
Y278000D01*
D02*
G37*
G36*
X254000Y276756D02*
X251335D01*
Y273500D01*
X254000D01*
Y276756D01*
D02*
G37*
G36*
Y272500D02*
X251335D01*
Y269244D01*
X254000D01*
Y272500D01*
D02*
G37*
G36*
X188453Y270000D02*
X185000D01*
Y266547D01*
X185020D01*
X186026Y266817D01*
X186927Y267337D01*
X187663Y268073D01*
X188183Y268974D01*
X188453Y269980D01*
Y270000D01*
D02*
G37*
G36*
X184000D02*
X180547D01*
Y269980D01*
X180817Y268974D01*
X181337Y268073D01*
X182073Y267337D01*
X182974Y266817D01*
X183980Y266547D01*
X184000D01*
Y270000D01*
D02*
G37*
G36*
X298092Y267000D02*
X298000D01*
Y263000D01*
X302000D01*
Y263092D01*
X301693Y264237D01*
X301101Y265263D01*
X300263Y266101D01*
X299237Y266693D01*
X298092Y267000D01*
D02*
G37*
G36*
X297000D02*
X296908D01*
X295763Y266693D01*
X294737Y266101D01*
X293899Y265263D01*
X293307Y264237D01*
X293000Y263092D01*
Y263000D01*
X297000D01*
Y267000D01*
D02*
G37*
G36*
X302000Y262000D02*
X298000D01*
Y258000D01*
X298092D01*
X299237Y258307D01*
X300263Y258899D01*
X301101Y259737D01*
X301693Y260763D01*
X302000Y261908D01*
Y262000D01*
D02*
G37*
G36*
X297000D02*
X293000D01*
Y261908D01*
X293307Y260763D01*
X293899Y259737D01*
X294737Y258899D01*
X295763Y258307D01*
X296908Y258000D01*
X297000D01*
Y262000D01*
D02*
G37*
G36*
X197468Y254056D02*
X196532D01*
X195627Y253814D01*
X194817Y253345D01*
X194155Y252683D01*
X193686Y251872D01*
X193674Y251825D01*
X190826D01*
X190814Y251872D01*
X190345Y252683D01*
X189683Y253345D01*
X188873Y253814D01*
X187968Y254056D01*
X187032D01*
X186127Y253814D01*
X185317Y253345D01*
X184655Y252683D01*
X184186Y251872D01*
X183944Y250968D01*
Y250032D01*
X184186Y249128D01*
X184655Y248317D01*
X185317Y247655D01*
X186127Y247186D01*
X187032Y246944D01*
X187968D01*
X188873Y247186D01*
X189683Y247655D01*
X190345Y248317D01*
X190814Y249128D01*
X190826Y249174D01*
X193674D01*
X193686Y249128D01*
X194155Y248317D01*
X194817Y247655D01*
X195627Y247186D01*
X196532Y246944D01*
X197468D01*
X198372Y247186D01*
X199183Y247655D01*
X199845Y248317D01*
X200314Y249128D01*
X200556Y250032D01*
Y250968D01*
X200314Y251872D01*
X199845Y252683D01*
X199183Y253345D01*
X198372Y253814D01*
X197468Y254056D01*
D02*
G37*
G36*
X158000Y254254D02*
Y251000D01*
X161254D01*
X161000Y251950D01*
X160505Y252806D01*
X159806Y253505D01*
X158950Y254000D01*
X158000Y254254D01*
D02*
G37*
G36*
X157000D02*
X156050Y254000D01*
X155194Y253505D01*
X154495Y252806D01*
X154000Y251950D01*
X153746Y251000D01*
X157000D01*
Y254254D01*
D02*
G37*
G36*
X161254Y250000D02*
X158000D01*
Y246746D01*
X158950Y247000D01*
X159806Y247495D01*
X160505Y248194D01*
X161000Y249050D01*
X161254Y250000D01*
D02*
G37*
G36*
X157000D02*
X153746D01*
X154000Y249050D01*
X154495Y248194D01*
X155194Y247495D01*
X156050Y247000D01*
X157000Y246746D01*
Y250000D01*
D02*
G37*
G36*
X570494Y245753D02*
X569506D01*
X568551Y245497D01*
X567696Y245003D01*
X566997Y244304D01*
X566503Y243448D01*
X566247Y242494D01*
Y241506D01*
X566503Y240551D01*
X566997Y239696D01*
X567696Y238997D01*
X568551Y238503D01*
X569506Y238247D01*
X570494D01*
X571449Y238503D01*
X572304Y238997D01*
X573003Y239696D01*
X573497Y240551D01*
X573753Y241506D01*
Y242494D01*
X573497Y243448D01*
X573003Y244304D01*
X572304Y245003D01*
X571449Y245497D01*
X570494Y245753D01*
D02*
G37*
G36*
X573753Y235753D02*
X566247D01*
Y228247D01*
X573753D01*
Y235753D01*
D02*
G37*
G36*
X491256Y219500D02*
X488000D01*
Y216835D01*
X491256D01*
Y219500D01*
D02*
G37*
G36*
X487000D02*
X483744D01*
Y216835D01*
X487000D01*
Y219500D01*
D02*
G37*
G36*
X508520Y219953D02*
X508500D01*
Y216500D01*
X511953D01*
Y216520D01*
X511683Y217526D01*
X511163Y218427D01*
X510427Y219163D01*
X509526Y219683D01*
X508520Y219953D01*
D02*
G37*
G36*
X507500D02*
X507480D01*
X506474Y219683D01*
X505573Y219163D01*
X504837Y218427D01*
X504317Y217526D01*
X504047Y216520D01*
Y216500D01*
X507500D01*
Y219953D01*
D02*
G37*
G36*
X511953Y215500D02*
X508500D01*
Y212047D01*
X508520D01*
X509526Y212317D01*
X510427Y212837D01*
X511163Y213573D01*
X511683Y214474D01*
X511953Y215480D01*
Y215500D01*
D02*
G37*
G36*
X507500D02*
X504047D01*
Y215480D01*
X504317Y214474D01*
X504837Y213573D01*
X505573Y212837D01*
X506474Y212317D01*
X507480Y212047D01*
X507500D01*
Y215500D01*
D02*
G37*
G36*
X475500Y213347D02*
Y210500D01*
X478347D01*
X478133Y211298D01*
X477690Y212064D01*
X477064Y212690D01*
X476298Y213133D01*
X475500Y213347D01*
D02*
G37*
G36*
X474500D02*
X473702Y213133D01*
X472936Y212690D01*
X472310Y212064D01*
X471867Y211298D01*
X471653Y210500D01*
X474500D01*
Y213347D01*
D02*
G37*
G36*
X166035Y211312D02*
X164792D01*
X163572Y211069D01*
X162424Y210593D01*
X161390Y209903D01*
X160511Y209023D01*
X159820Y207990D01*
X159751Y207824D01*
X145780D01*
Y210918D01*
X139850D01*
Y199082D01*
X145780D01*
Y202176D01*
X159751D01*
X159820Y202010D01*
X160511Y200976D01*
X161390Y200097D01*
X162424Y199407D01*
X163572Y198931D01*
X164792Y198688D01*
X166035D01*
X167254Y198931D01*
X168403Y199407D01*
X168757Y199643D01*
X168999Y199457D01*
X169084Y199422D01*
X182176Y186330D01*
Y170756D01*
X167731Y156312D01*
X159102D01*
Y143688D01*
X171725D01*
Y152318D01*
X186997Y167590D01*
X187446Y168175D01*
X187728Y168856D01*
X187824Y169587D01*
Y187500D01*
X187728Y188231D01*
X187446Y188912D01*
X186997Y189497D01*
X172594Y203900D01*
X172009Y204349D01*
X171924Y204384D01*
X171725Y204583D01*
Y205622D01*
X171483Y206841D01*
X171007Y207990D01*
X170316Y209023D01*
X169437Y209903D01*
X168403Y210593D01*
X167254Y211069D01*
X166035Y211312D01*
D02*
G37*
G36*
X135150Y210918D02*
X129220D01*
Y207824D01*
X117483D01*
X117304Y208003D01*
X116448Y208497D01*
X115494Y208753D01*
X114506D01*
X113551Y208497D01*
X112696Y208003D01*
X111997Y207304D01*
X111503Y206449D01*
X111247Y205494D01*
Y204506D01*
X111503Y203552D01*
X111997Y202696D01*
X112696Y201997D01*
X113551Y201503D01*
X114506Y201247D01*
X115494D01*
X116448Y201503D01*
X117304Y201997D01*
X117483Y202176D01*
X129220D01*
Y199082D01*
X135150D01*
Y210918D01*
D02*
G37*
G36*
X478347Y209500D02*
X475500D01*
Y206653D01*
X476298Y206867D01*
X477064Y207310D01*
X477690Y207936D01*
X478133Y208702D01*
X478347Y209500D01*
D02*
G37*
G36*
X474500D02*
X471653D01*
X471867Y208702D01*
X472310Y207936D01*
X472936Y207310D01*
X473702Y206867D01*
X474500Y206653D01*
Y209500D01*
D02*
G37*
G36*
X118753Y198753D02*
X111247D01*
Y191247D01*
X118753D01*
Y198753D01*
D02*
G37*
G36*
X166035Y183812D02*
X164792D01*
X163572Y183569D01*
X162424Y183094D01*
X161390Y182403D01*
X160511Y181524D01*
X159820Y180490D01*
X159344Y179341D01*
X159102Y178122D01*
Y176878D01*
X159344Y175659D01*
X159820Y174510D01*
X160511Y173477D01*
X161390Y172597D01*
X162424Y171906D01*
X163572Y171431D01*
X164792Y171188D01*
X166035D01*
X167254Y171431D01*
X168403Y171906D01*
X169437Y172597D01*
X170316Y173477D01*
X171007Y174510D01*
X171483Y175659D01*
X171725Y176878D01*
Y178122D01*
X171483Y179341D01*
X171007Y180490D01*
X170316Y181524D01*
X169437Y182403D01*
X168403Y183094D01*
X167254Y183569D01*
X166035Y183812D01*
D02*
G37*
G36*
X286453Y157000D02*
X283000D01*
Y153547D01*
X283020D01*
X284026Y153817D01*
X284927Y154337D01*
X285663Y155073D01*
X286183Y155974D01*
X286453Y156980D01*
Y157000D01*
D02*
G37*
G36*
X282000D02*
X278547D01*
Y156980D01*
X278817Y155974D01*
X279337Y155073D01*
X280073Y154337D01*
X280974Y153817D01*
X281980Y153547D01*
X282000D01*
Y157000D01*
D02*
G37*
G36*
X240228Y156512D02*
X240087D01*
Y150500D01*
X246098D01*
Y150641D01*
X245848Y151899D01*
X245357Y153085D01*
X244645Y154151D01*
X243738Y155058D01*
X242671Y155771D01*
X241486Y156262D01*
X240228Y156512D01*
D02*
G37*
G36*
X239087D02*
X238945D01*
X237687Y156262D01*
X236502Y155771D01*
X235436Y155058D01*
X234529Y154151D01*
X233816Y153085D01*
X233325Y151899D01*
X233075Y150641D01*
Y150500D01*
X239087D01*
Y156512D01*
D02*
G37*
G36*
X246098Y149500D02*
X240087D01*
Y143488D01*
X240228D01*
X241486Y143738D01*
X242671Y144229D01*
X243738Y144942D01*
X244645Y145849D01*
X245357Y146915D01*
X245848Y148101D01*
X246098Y149359D01*
Y149500D01*
D02*
G37*
G36*
X239087D02*
X233075D01*
Y149359D01*
X233325Y148101D01*
X233816Y146915D01*
X234529Y145849D01*
X235436Y144942D01*
X236502Y144229D01*
X237687Y143738D01*
X238945Y143488D01*
X239087D01*
Y149500D01*
D02*
G37*
G36*
X310500Y145847D02*
Y143000D01*
X313347D01*
X313133Y143798D01*
X312690Y144564D01*
X312064Y145190D01*
X311298Y145633D01*
X310500Y145847D01*
D02*
G37*
G36*
X309500D02*
X308702Y145633D01*
X307936Y145190D01*
X307310Y144564D01*
X306867Y143798D01*
X306653Y143000D01*
X309500D01*
Y145847D01*
D02*
G37*
G36*
X313347Y142000D02*
X310500D01*
Y139153D01*
X311298Y139367D01*
X312064Y139810D01*
X312690Y140436D01*
X313133Y141202D01*
X313347Y142000D01*
D02*
G37*
G36*
X309500D02*
X306653D01*
X306867Y141202D01*
X307310Y140436D01*
X307936Y139810D01*
X308702Y139367D01*
X309500Y139153D01*
Y142000D01*
D02*
G37*
G36*
X379429Y142976D02*
X375500D01*
Y138000D01*
X384839D01*
X384718Y138917D01*
X384172Y140238D01*
X383301Y141372D01*
X382167Y142242D01*
X380846Y142789D01*
X379429Y142976D01*
D02*
G37*
G36*
X374500D02*
X370571D01*
X369154Y142789D01*
X367833Y142242D01*
X366699Y141372D01*
X365828Y140238D01*
X365282Y138917D01*
X365161Y138000D01*
X374500D01*
Y142976D01*
D02*
G37*
G36*
X384839Y137000D02*
X375500D01*
Y132024D01*
X379429D01*
X380846Y132211D01*
X382167Y132758D01*
X383301Y133628D01*
X384172Y134762D01*
X384718Y136083D01*
X384839Y137000D01*
D02*
G37*
G36*
X374500D02*
X365161D01*
X365282Y136083D01*
X365828Y134762D01*
X366699Y133628D01*
X367833Y132758D01*
X369154Y132211D01*
X370571Y132024D01*
X374500D01*
Y137000D01*
D02*
G37*
G36*
X418020Y131453D02*
X418000D01*
Y128000D01*
X421453D01*
Y128020D01*
X421183Y129026D01*
X420663Y129927D01*
X419927Y130663D01*
X419026Y131183D01*
X418020Y131453D01*
D02*
G37*
G36*
X417000D02*
X416980D01*
X415974Y131183D01*
X415073Y130663D01*
X414337Y129927D01*
X413817Y129026D01*
X413547Y128020D01*
Y128000D01*
X417000D01*
Y131453D01*
D02*
G37*
G36*
X345500Y128347D02*
Y125500D01*
X348347D01*
X348133Y126298D01*
X347690Y127064D01*
X347064Y127690D01*
X346298Y128133D01*
X345500Y128347D01*
D02*
G37*
G36*
X344500D02*
X343702Y128133D01*
X342936Y127690D01*
X342310Y127064D01*
X341867Y126298D01*
X341653Y125500D01*
X344500D01*
Y128347D01*
D02*
G37*
G36*
X421453Y127000D02*
X418000D01*
Y123547D01*
X418020D01*
X419026Y123817D01*
X419927Y124337D01*
X420663Y125073D01*
X421183Y125974D01*
X421453Y126980D01*
Y127000D01*
D02*
G37*
G36*
X417000D02*
X413547D01*
Y126980D01*
X413817Y125974D01*
X414337Y125073D01*
X415073Y124337D01*
X415974Y123817D01*
X416980Y123547D01*
X417000D01*
Y127000D01*
D02*
G37*
G36*
X240228Y129012D02*
X240087D01*
Y123000D01*
X246098D01*
Y123141D01*
X245848Y124399D01*
X245357Y125584D01*
X244645Y126651D01*
X243738Y127558D01*
X242671Y128271D01*
X241486Y128762D01*
X240228Y129012D01*
D02*
G37*
G36*
X239087D02*
X238945D01*
X237687Y128762D01*
X236502Y128271D01*
X235436Y127558D01*
X234529Y126651D01*
X233816Y125584D01*
X233325Y124399D01*
X233075Y123141D01*
Y123000D01*
X239087D01*
Y129012D01*
D02*
G37*
G36*
X348347Y124500D02*
X345500D01*
Y121653D01*
X346298Y121867D01*
X347064Y122310D01*
X347690Y122936D01*
X348133Y123702D01*
X348347Y124500D01*
D02*
G37*
G36*
X344500D02*
X341653D01*
X341867Y123702D01*
X342310Y122936D01*
X342936Y122310D01*
X343702Y121867D01*
X344500Y121653D01*
Y124500D01*
D02*
G37*
G36*
X171725Y128812D02*
X159102D01*
Y116188D01*
X171725D01*
Y128812D01*
D02*
G37*
G36*
X246098Y122000D02*
X240087D01*
Y115988D01*
X240228D01*
X241486Y116238D01*
X242671Y116729D01*
X243738Y117442D01*
X244645Y118349D01*
X245357Y119415D01*
X245848Y120601D01*
X246098Y121859D01*
Y122000D01*
D02*
G37*
G36*
X239087D02*
X233075D01*
Y121859D01*
X233325Y120601D01*
X233816Y119415D01*
X234529Y118349D01*
X235436Y117442D01*
X236502Y116729D01*
X237687Y116238D01*
X238945Y115988D01*
X239087D01*
Y122000D01*
D02*
G37*
G36*
X565891Y124050D02*
X564109D01*
X562360Y123702D01*
X560713Y123020D01*
X559231Y122030D01*
X557970Y120769D01*
X556980Y119287D01*
X556298Y117640D01*
X555950Y115891D01*
Y114109D01*
X556298Y112360D01*
X556980Y110713D01*
X557970Y109231D01*
X559231Y107970D01*
X560713Y106980D01*
X562360Y106298D01*
X564109Y105950D01*
X565891D01*
X567640Y106298D01*
X569287Y106980D01*
X570769Y107970D01*
X572030Y109231D01*
X573020Y110713D01*
X573702Y112360D01*
X574050Y114109D01*
Y115891D01*
X573702Y117640D01*
X573020Y119287D01*
X572030Y120769D01*
X570769Y122030D01*
X569287Y123020D01*
X567640Y123702D01*
X565891Y124050D01*
D02*
G37*
G36*
X115891D02*
X114109D01*
X112360Y123702D01*
X110713Y123020D01*
X109231Y122030D01*
X107970Y120769D01*
X106980Y119287D01*
X106298Y117640D01*
X105950Y115891D01*
Y114109D01*
X106298Y112360D01*
X106980Y110713D01*
X107970Y109231D01*
X109231Y107970D01*
X110713Y106980D01*
X112360Y106298D01*
X114109Y105950D01*
X115891D01*
X117640Y106298D01*
X119287Y106980D01*
X120769Y107970D01*
X122030Y109231D01*
X123020Y110713D01*
X123702Y112360D01*
X124050Y114109D01*
Y115891D01*
X123702Y117640D01*
X123020Y119287D01*
X122030Y120769D01*
X120769Y122030D01*
X119287Y123020D01*
X117640Y123702D01*
X115891Y124050D01*
D02*
G37*
G36*
X296453Y493953D02*
X293000D01*
Y490500D01*
X296453D01*
Y493953D01*
D02*
G37*
G36*
X292000D02*
X288547D01*
Y490500D01*
X292000D01*
Y493953D01*
D02*
G37*
G36*
X296453Y489500D02*
X293000D01*
Y486047D01*
X296453D01*
Y489500D01*
D02*
G37*
G36*
X292000D02*
X288547D01*
Y486047D01*
X292000D01*
Y489500D01*
D02*
G37*
G36*
X115520Y453953D02*
X115500D01*
Y450500D01*
X118953D01*
Y450520D01*
X118683Y451526D01*
X118163Y452427D01*
X117427Y453163D01*
X116843Y453500D01*
X116526Y453683D01*
X115520Y453953D01*
D02*
G37*
G36*
X114500D02*
X114480D01*
X113474Y453683D01*
X112573Y453163D01*
X111837Y452427D01*
X111317Y451526D01*
X111047Y450520D01*
Y450500D01*
X114500D01*
Y453953D01*
D02*
G37*
G36*
X155520Y451453D02*
X155500D01*
Y448000D01*
X158953D01*
Y448020D01*
X158683Y449026D01*
X158163Y449927D01*
X157427Y450663D01*
X156526Y451183D01*
X155520Y451453D01*
D02*
G37*
G36*
X130500Y450847D02*
Y448000D01*
X133347D01*
X133133Y448798D01*
X132690Y449564D01*
X132064Y450190D01*
X131298Y450633D01*
X130500Y450847D01*
D02*
G37*
G36*
X129500D02*
X128702Y450633D01*
X127936Y450190D01*
X127310Y449564D01*
X126867Y448798D01*
X126653Y448000D01*
X129500D01*
Y450847D01*
D02*
G37*
G36*
X154500Y451453D02*
X154480D01*
X153474Y451183D01*
X152573Y450663D01*
X151837Y449927D01*
X151317Y449026D01*
X151047Y448020D01*
Y448000D01*
X154500D01*
Y451453D01*
D02*
G37*
G36*
X118953Y449500D02*
X115500D01*
Y446047D01*
X115520D01*
X116526Y446317D01*
X117427Y446837D01*
X118163Y447573D01*
X118683Y448474D01*
X118953Y449480D01*
Y449500D01*
D02*
G37*
G36*
X114500D02*
X111047D01*
Y449480D01*
X111317Y448474D01*
X111500Y448157D01*
X111625Y447941D01*
X111837Y447573D01*
X112573Y446837D01*
X113474Y446317D01*
X114480Y446047D01*
X114500D01*
Y449500D01*
D02*
G37*
G36*
X206256Y448618D02*
X203000D01*
Y445953D01*
X206256D01*
Y448618D01*
D02*
G37*
G36*
X202000D02*
X198744D01*
Y445953D01*
X202000D01*
Y448618D01*
D02*
G37*
G36*
X133347Y447000D02*
X130500D01*
Y444153D01*
X131298Y444367D01*
X132064Y444810D01*
X132630Y445375D01*
X132690Y445436D01*
X133133Y446202D01*
X133347Y447000D01*
D02*
G37*
G36*
X129500D02*
X126653D01*
X126867Y446202D01*
X127310Y445436D01*
X127348Y445397D01*
X127936Y444810D01*
X128702Y444367D01*
X129500Y444153D01*
Y447000D01*
D02*
G37*
G36*
X251500Y447650D02*
X251454D01*
X250398Y447367D01*
X249452Y446820D01*
X248679Y446048D01*
X248133Y445102D01*
X247850Y444046D01*
Y444000D01*
X251500D01*
Y447650D01*
D02*
G37*
G36*
X158953Y447000D02*
X155500D01*
Y443547D01*
X155520D01*
X156526Y443817D01*
X157427Y444337D01*
X158163Y445073D01*
X158320Y445344D01*
X158683Y445974D01*
X158953Y446980D01*
Y447000D01*
D02*
G37*
G36*
X154500D02*
X151047D01*
Y446980D01*
X151317Y445974D01*
X151837Y445073D01*
X152573Y444337D01*
X153474Y443817D01*
X154480Y443547D01*
X154500D01*
Y447000D01*
D02*
G37*
G36*
X155494Y441253D02*
X154506D01*
X153551Y440997D01*
X152696Y440503D01*
X151997Y439804D01*
X151503Y438948D01*
X151247Y437994D01*
Y437006D01*
X151503Y436052D01*
X151997Y435196D01*
X152696Y434497D01*
X153551Y434003D01*
X154506Y433747D01*
X155494D01*
X156448Y434003D01*
X157304Y434497D01*
X158003Y435196D01*
X158497Y436052D01*
X158753Y437006D01*
Y437994D01*
X158497Y438948D01*
X158003Y439804D01*
X157304Y440503D01*
X156448Y440997D01*
X155494Y441253D01*
D02*
G37*
G36*
X130416Y420662D02*
X129584D01*
X128779Y420447D01*
X128058Y420030D01*
X127470Y419442D01*
X127053Y418721D01*
X126838Y417916D01*
Y417084D01*
X127053Y416279D01*
X127470Y415558D01*
X128058Y414970D01*
X128779Y414553D01*
X129584Y414338D01*
X130416D01*
X131221Y414553D01*
X131942Y414970D01*
X132530Y415558D01*
X132947Y416279D01*
X133162Y417084D01*
Y417916D01*
X132947Y418721D01*
X132530Y419442D01*
X131942Y420030D01*
X131221Y420447D01*
X130416Y420662D01*
D02*
G37*
G36*
X140520Y374953D02*
X140500D01*
Y371500D01*
X143953D01*
Y371520D01*
X143683Y372526D01*
X143163Y373427D01*
X142427Y374163D01*
X141526Y374683D01*
X140520Y374953D01*
D02*
G37*
G36*
X139500D02*
X139480D01*
X138474Y374683D01*
X137573Y374163D01*
X136837Y373427D01*
X136317Y372526D01*
X136047Y371520D01*
Y371500D01*
X139500D01*
Y374953D01*
D02*
G37*
G36*
X143953Y370500D02*
X140500D01*
Y367047D01*
X140520D01*
X141526Y367317D01*
X142427Y367837D01*
X143163Y368573D01*
X143683Y369474D01*
X143953Y370480D01*
Y370500D01*
D02*
G37*
G36*
X139500D02*
X136047D01*
Y370480D01*
X136317Y369474D01*
X136837Y368573D01*
X137573Y367837D01*
X138474Y367317D01*
X139480Y367047D01*
X139500D01*
Y370500D01*
D02*
G37*
G36*
X232405Y355732D02*
X228972D01*
Y348500D01*
X232405D01*
Y355732D01*
D02*
G37*
G36*
X227972D02*
X224539D01*
Y348500D01*
X227972D01*
Y355732D01*
D02*
G37*
G36*
X130000Y351347D02*
Y348500D01*
X132847D01*
X132633Y349298D01*
X132190Y350064D01*
X131564Y350690D01*
X130798Y351133D01*
X130000Y351347D01*
D02*
G37*
G36*
X129000D02*
X128202Y351133D01*
X127436Y350690D01*
X126810Y350064D01*
X126367Y349298D01*
X126153Y348500D01*
X129000D01*
Y351347D01*
D02*
G37*
G36*
X132847Y347500D02*
X130000D01*
Y344653D01*
X130798Y344867D01*
X131564Y345310D01*
X132190Y345936D01*
X132633Y346702D01*
X132847Y347500D01*
D02*
G37*
G36*
X129000D02*
X126153D01*
X126367Y346702D01*
X126810Y345936D01*
X127436Y345310D01*
X128202Y344867D01*
X129000Y344653D01*
Y347500D01*
D02*
G37*
G36*
X236500Y346490D02*
X235649Y346262D01*
X234851Y345801D01*
X234199Y345149D01*
X233738Y344351D01*
X233510Y343500D01*
X236500D01*
Y346490D01*
D02*
G37*
G36*
X232405Y347500D02*
X228972D01*
Y340268D01*
X232405D01*
Y347500D01*
D02*
G37*
G36*
X227972D02*
X224539D01*
Y340268D01*
X227972D01*
Y347500D01*
D02*
G37*
G36*
X236500Y342500D02*
X233510D01*
X233738Y341649D01*
X234199Y340851D01*
X234851Y340199D01*
X235649Y339738D01*
X236500Y339510D01*
Y342500D01*
D02*
G37*
G36*
X368953Y493953D02*
X365500D01*
Y490500D01*
X368953D01*
Y493953D01*
D02*
G37*
G36*
X364500D02*
X361047D01*
Y490500D01*
X364500D01*
Y493953D01*
D02*
G37*
G36*
X368953Y489500D02*
X365500D01*
Y486047D01*
X368953D01*
Y489500D01*
D02*
G37*
G36*
X364500D02*
X361047D01*
Y486047D01*
X364500D01*
Y489500D01*
D02*
G37*
G36*
X510520Y396453D02*
X510500D01*
Y393000D01*
X513953D01*
Y393020D01*
X513683Y394026D01*
X513163Y394927D01*
X512427Y395663D01*
X511526Y396183D01*
X510520Y396453D01*
D02*
G37*
G36*
X509500D02*
X509480D01*
X508474Y396183D01*
X507573Y395663D01*
X506837Y394927D01*
X506317Y394026D01*
X506047Y393020D01*
Y393000D01*
X509500D01*
Y396453D01*
D02*
G37*
G36*
X472078Y394500D02*
X467700D01*
Y392952D01*
X472078D01*
Y394500D01*
D02*
G37*
G36*
X491256Y338165D02*
X488000D01*
Y335500D01*
X491256D01*
Y338165D01*
D02*
G37*
G36*
X487000D02*
X483744D01*
Y335500D01*
X487000D01*
Y338165D01*
D02*
G37*
G36*
X472078Y337000D02*
X467700D01*
Y335452D01*
X472078D01*
Y337000D01*
D02*
G37*
G36*
Y282000D02*
X467700D01*
Y280452D01*
X472078D01*
Y282000D01*
D02*
G37*
G36*
X474578Y227000D02*
X470200D01*
Y225452D01*
X474578D01*
Y227000D01*
D02*
G37*
G36*
X447300Y394500D02*
X442922D01*
Y392952D01*
X447300D01*
Y394500D01*
D02*
G37*
G36*
X440500Y383347D02*
Y380500D01*
X443347D01*
X443133Y381298D01*
X442690Y382064D01*
X442064Y382690D01*
X441298Y383133D01*
X440500Y383347D01*
D02*
G37*
G36*
X439500D02*
X438702Y383133D01*
X437936Y382690D01*
X437310Y382064D01*
X436867Y381298D01*
X436653Y380500D01*
X439500D01*
Y383347D01*
D02*
G37*
G36*
X443347Y379500D02*
X440500D01*
Y376653D01*
X441298Y376867D01*
X442064Y377310D01*
X442690Y377936D01*
X443133Y378702D01*
X443347Y379500D01*
D02*
G37*
G36*
X439500D02*
X436653D01*
X436867Y378702D01*
X437310Y377936D01*
X437936Y377310D01*
X438702Y376867D01*
X439500Y376653D01*
Y379500D01*
D02*
G37*
G36*
X491256Y386547D02*
X488000D01*
Y383882D01*
X491256D01*
Y386547D01*
D02*
G37*
G36*
X487000D02*
X483744D01*
Y383882D01*
X487000D01*
Y386547D01*
D02*
G37*
G36*
X510520Y386453D02*
X510500D01*
Y383000D01*
X513953D01*
Y383020D01*
X513683Y384026D01*
X513163Y384927D01*
X512427Y385663D01*
X511526Y386183D01*
X510520Y386453D01*
D02*
G37*
G36*
X509500D02*
X509480D01*
X508474Y386183D01*
X507573Y385663D01*
X506837Y384927D01*
X506317Y384026D01*
X506047Y383020D01*
Y383000D01*
X509500D01*
Y386453D01*
D02*
G37*
G36*
X470500Y383347D02*
Y380500D01*
X473347D01*
X473133Y381298D01*
X472690Y382064D01*
X472064Y382690D01*
X471298Y383133D01*
X470500Y383347D01*
D02*
G37*
G36*
X469500D02*
X468702Y383133D01*
X467936Y382690D01*
X467310Y382064D01*
X466867Y381298D01*
X466653Y380500D01*
X469500D01*
Y383347D01*
D02*
G37*
G36*
X513953Y382000D02*
X510500D01*
Y378547D01*
X510520D01*
X511526Y378817D01*
X512427Y379337D01*
X513163Y380073D01*
X513683Y380974D01*
X513953Y381980D01*
Y382000D01*
D02*
G37*
G36*
X509500D02*
X506047D01*
Y381980D01*
X506317Y380974D01*
X506837Y380073D01*
X507573Y379337D01*
X508474Y378817D01*
X509480Y378547D01*
X509500D01*
Y382000D01*
D02*
G37*
G36*
X473347Y379500D02*
X470500D01*
Y376653D01*
X471298Y376867D01*
X472064Y377310D01*
X472690Y377936D01*
X473133Y378702D01*
X473347Y379500D01*
D02*
G37*
G36*
X469500D02*
X466653D01*
X466867Y378702D01*
X467310Y377936D01*
X467936Y377310D01*
X468702Y376867D01*
X469500Y376653D01*
Y379500D01*
D02*
G37*
G36*
X447300Y354548D02*
X442922D01*
Y353000D01*
X447300D01*
Y354548D01*
D02*
G37*
G36*
Y352000D02*
X442922D01*
Y350452D01*
X447300D01*
Y352000D01*
D02*
G37*
G36*
X472078Y349548D02*
X467700D01*
Y348000D01*
X472078D01*
Y349548D01*
D02*
G37*
G36*
Y347000D02*
X467700D01*
Y345452D01*
X472078D01*
Y347000D01*
D02*
G37*
G36*
X209461Y347500D02*
X206028D01*
Y340268D01*
X209461D01*
Y347500D01*
D02*
G37*
G36*
X205028D02*
X201594D01*
Y340268D01*
X205028D01*
Y347500D01*
D02*
G37*
G36*
X203039Y323508D02*
X192500D01*
Y319268D01*
X203039D01*
Y323508D01*
D02*
G37*
G36*
X191500D02*
X180961D01*
Y319268D01*
X191500D01*
Y323508D01*
D02*
G37*
G36*
X211500Y321989D02*
Y319000D01*
X214490D01*
X214262Y319851D01*
X213801Y320649D01*
X213149Y321301D01*
X212351Y321761D01*
X211500Y321989D01*
D02*
G37*
G36*
X210500D02*
X209649Y321761D01*
X208851Y321301D01*
X208199Y320649D01*
X207738Y319851D01*
X207510Y319000D01*
X210500D01*
Y321989D01*
D02*
G37*
G36*
X214490Y318000D02*
X211500D01*
Y315010D01*
X212351Y315238D01*
X213149Y315699D01*
X213801Y316351D01*
X214262Y317149D01*
X214490Y318000D01*
D02*
G37*
G36*
X210500D02*
X207510D01*
X207738Y317149D01*
X208199Y316351D01*
X208851Y315699D01*
X209649Y315238D01*
X210500Y315010D01*
Y318000D01*
D02*
G37*
G36*
X203039Y318268D02*
X192500D01*
Y314028D01*
X203039D01*
Y318268D01*
D02*
G37*
G36*
X191500D02*
X180961D01*
Y314028D01*
X191500D01*
Y318268D01*
D02*
G37*
G36*
X447300Y337000D02*
X442922D01*
Y335452D01*
X447300D01*
Y337000D01*
D02*
G37*
G36*
X443000Y325847D02*
Y323000D01*
X445847D01*
X445633Y323798D01*
X445190Y324564D01*
X444564Y325190D01*
X443798Y325633D01*
X443000Y325847D01*
D02*
G37*
G36*
X442000D02*
X441202Y325633D01*
X440436Y325190D01*
X439810Y324564D01*
X439367Y323798D01*
X439153Y323000D01*
X442000D01*
Y325847D01*
D02*
G37*
G36*
X445847Y322000D02*
X443000D01*
Y319153D01*
X443798Y319367D01*
X444564Y319810D01*
X445190Y320436D01*
X445633Y321202D01*
X445847Y322000D01*
D02*
G37*
G36*
X442000D02*
X439153D01*
X439367Y321202D01*
X439810Y320436D01*
X440436Y319810D01*
X441202Y319367D01*
X442000Y319153D01*
Y322000D01*
D02*
G37*
G36*
X491256Y328594D02*
X488000D01*
Y325929D01*
X491256D01*
Y328594D01*
D02*
G37*
G36*
X487000D02*
X483744D01*
Y325929D01*
X487000D01*
Y328594D01*
D02*
G37*
G36*
X510520Y328453D02*
X510500D01*
Y325000D01*
X513953D01*
Y325020D01*
X513683Y326026D01*
X513163Y326927D01*
X512427Y327663D01*
X511526Y328183D01*
X510520Y328453D01*
D02*
G37*
G36*
X509500D02*
X509480D01*
X508474Y328183D01*
X507573Y327663D01*
X506837Y326927D01*
X506317Y326026D01*
X506047Y325020D01*
Y325000D01*
X509500D01*
Y328453D01*
D02*
G37*
G36*
X473000Y325847D02*
Y323000D01*
X475847D01*
X475633Y323798D01*
X475190Y324564D01*
X474564Y325190D01*
X473798Y325633D01*
X473000Y325847D01*
D02*
G37*
G36*
X472000D02*
X471202Y325633D01*
X470436Y325190D01*
X469810Y324564D01*
X469367Y323798D01*
X469153Y323000D01*
X472000D01*
Y325847D01*
D02*
G37*
G36*
X513953Y324000D02*
X510500D01*
Y320547D01*
X510520D01*
X511526Y320817D01*
X512427Y321337D01*
X513163Y322073D01*
X513683Y322974D01*
X513953Y323980D01*
Y324000D01*
D02*
G37*
G36*
X509500D02*
X506047D01*
Y323980D01*
X506317Y322974D01*
X506837Y322073D01*
X507573Y321337D01*
X508474Y320817D01*
X509480Y320547D01*
X509500D01*
Y324000D01*
D02*
G37*
G36*
X475847Y322000D02*
X473000D01*
Y319153D01*
X473798Y319367D01*
X474564Y319810D01*
X475190Y320436D01*
X475633Y321202D01*
X475847Y322000D01*
D02*
G37*
G36*
X472000D02*
X469153D01*
X469367Y321202D01*
X469810Y320436D01*
X470436Y319810D01*
X471202Y319367D01*
X472000Y319153D01*
Y322000D01*
D02*
G37*
G36*
X447300Y299548D02*
X442922D01*
Y298000D01*
X447300D01*
Y299548D01*
D02*
G37*
G36*
Y297000D02*
X442922D01*
Y295452D01*
X447300D01*
Y297000D01*
D02*
G37*
G36*
X472078Y294548D02*
X467700D01*
Y293000D01*
X472078D01*
Y294548D01*
D02*
G37*
G36*
Y292000D02*
X467700D01*
Y290452D01*
X472078D01*
Y292000D01*
D02*
G37*
G36*
X229500Y315490D02*
Y312500D01*
X232489D01*
X232261Y313351D01*
X231801Y314149D01*
X231149Y314801D01*
X230351Y315262D01*
X229500Y315490D01*
D02*
G37*
G36*
X228500D02*
X227649Y315262D01*
X226851Y314801D01*
X226199Y314149D01*
X225739Y313351D01*
X225511Y312500D01*
X228500D01*
Y315490D01*
D02*
G37*
G36*
X232489Y311500D02*
X229500D01*
Y308510D01*
X230351Y308738D01*
X231149Y309199D01*
X231801Y309851D01*
X232261Y310649D01*
X232489Y311500D01*
D02*
G37*
G36*
X228500D02*
X225511D01*
X225739Y310649D01*
X226199Y309851D01*
X226851Y309199D01*
X227649Y308738D01*
X228500Y308510D01*
Y311500D01*
D02*
G37*
G36*
X235062Y306109D02*
X234062D01*
Y304209D01*
X235062D01*
Y306109D01*
D02*
G37*
G36*
X203039Y306972D02*
X192500D01*
Y302732D01*
X203039D01*
Y306972D01*
D02*
G37*
G36*
X191500D02*
X180961D01*
Y302732D01*
X191500D01*
Y306972D01*
D02*
G37*
G36*
X203039Y301732D02*
X192500D01*
Y297492D01*
X203039D01*
Y301732D01*
D02*
G37*
G36*
X191500D02*
X180961D01*
Y297492D01*
X191500D01*
Y301732D01*
D02*
G37*
G36*
X230165Y282256D02*
X227500D01*
Y279000D01*
X230165D01*
Y282256D01*
D02*
G37*
G36*
X184000Y284453D02*
X183980D01*
X182974Y284183D01*
X182073Y283663D01*
X181337Y282927D01*
X180817Y282026D01*
X180547Y281020D01*
Y281000D01*
X184000D01*
Y284453D01*
D02*
G37*
G36*
Y280000D02*
X180547D01*
Y279980D01*
X180817Y278974D01*
X181337Y278073D01*
X182073Y277337D01*
X182974Y276817D01*
X183980Y276547D01*
X184000D01*
Y280000D01*
D02*
G37*
G36*
X447300Y282000D02*
X442922D01*
Y280452D01*
X447300D01*
Y282000D01*
D02*
G37*
G36*
X443500Y270347D02*
Y267500D01*
X446347D01*
X446133Y268298D01*
X445690Y269064D01*
X445064Y269690D01*
X444298Y270133D01*
X443500Y270347D01*
D02*
G37*
G36*
X442500D02*
X441702Y270133D01*
X440936Y269690D01*
X440310Y269064D01*
X439867Y268298D01*
X439653Y267500D01*
X442500D01*
Y270347D01*
D02*
G37*
G36*
X446347Y266500D02*
X443500D01*
Y263653D01*
X444298Y263867D01*
X445064Y264310D01*
X445690Y264936D01*
X446133Y265702D01*
X446347Y266500D01*
D02*
G37*
G36*
X442500D02*
X439653D01*
X439867Y265702D01*
X440310Y264936D01*
X440936Y264310D01*
X441702Y263867D01*
X442500Y263653D01*
Y266500D01*
D02*
G37*
G36*
X490756Y274500D02*
X487500D01*
Y271835D01*
X490756D01*
Y274500D01*
D02*
G37*
G36*
X486500D02*
X483244D01*
Y271835D01*
X486500D01*
Y274500D01*
D02*
G37*
G36*
X510520Y274953D02*
X510500D01*
Y271500D01*
X513953D01*
Y271520D01*
X513683Y272526D01*
X513163Y273427D01*
X512427Y274163D01*
X511526Y274683D01*
X510520Y274953D01*
D02*
G37*
G36*
X509500D02*
X509480D01*
X508474Y274683D01*
X507573Y274163D01*
X506837Y273427D01*
X506317Y272526D01*
X506047Y271520D01*
Y271500D01*
X509500D01*
Y274953D01*
D02*
G37*
G36*
X473500Y270347D02*
Y267500D01*
X476347D01*
X476133Y268298D01*
X475690Y269064D01*
X475064Y269690D01*
X474298Y270133D01*
X473500Y270347D01*
D02*
G37*
G36*
X472500D02*
X471702Y270133D01*
X470936Y269690D01*
X470310Y269064D01*
X469867Y268298D01*
X469653Y267500D01*
X472500D01*
Y270347D01*
D02*
G37*
G36*
X513953Y270500D02*
X510500D01*
Y267047D01*
X510520D01*
X511526Y267317D01*
X512427Y267837D01*
X513163Y268573D01*
X513683Y269474D01*
X513953Y270480D01*
Y270500D01*
D02*
G37*
G36*
X509500D02*
X506047D01*
Y270480D01*
X506317Y269474D01*
X506837Y268573D01*
X507573Y267837D01*
X508474Y267317D01*
X509480Y267047D01*
X509500D01*
Y270500D01*
D02*
G37*
G36*
X476347Y266500D02*
X473500D01*
Y263653D01*
X474298Y263867D01*
X475064Y264310D01*
X475690Y264936D01*
X476133Y265702D01*
X476347Y266500D01*
D02*
G37*
G36*
X472500D02*
X469653D01*
X469867Y265702D01*
X470310Y264936D01*
X470936Y264310D01*
X471702Y263867D01*
X472500Y263653D01*
Y266500D01*
D02*
G37*
G36*
X449800Y244548D02*
X445422D01*
Y243000D01*
X449800D01*
Y244548D01*
D02*
G37*
G36*
Y242000D02*
X445422D01*
Y240452D01*
X449800D01*
Y242000D01*
D02*
G37*
G36*
X474578Y239548D02*
X470200D01*
Y238000D01*
X474578D01*
Y239548D01*
D02*
G37*
G36*
Y237000D02*
X470200D01*
Y235452D01*
X474578D01*
Y237000D01*
D02*
G37*
G36*
X449800Y227000D02*
X445422D01*
Y225452D01*
X449800D01*
Y227000D01*
D02*
G37*
G36*
X445500Y213347D02*
Y210500D01*
X448347D01*
X448133Y211298D01*
X447690Y212064D01*
X447064Y212690D01*
X446298Y213133D01*
X445500Y213347D01*
D02*
G37*
G36*
X444500D02*
X443702Y213133D01*
X442936Y212690D01*
X442310Y212064D01*
X441867Y211298D01*
X441653Y210500D01*
X444500D01*
Y213347D01*
D02*
G37*
G36*
X448347Y209500D02*
X445500D01*
Y206653D01*
X446298Y206867D01*
X447064Y207310D01*
X447690Y207936D01*
X448133Y208702D01*
X448347Y209500D01*
D02*
G37*
G36*
X444500D02*
X441653D01*
X441867Y208702D01*
X442310Y207936D01*
X442936Y207310D01*
X443702Y206867D01*
X444500Y206653D01*
Y209500D01*
D02*
G37*
G36*
X356453Y221453D02*
X353000D01*
Y218000D01*
X356453D01*
Y221453D01*
D02*
G37*
G36*
X352000D02*
X348547D01*
Y218000D01*
X352000D01*
Y221453D01*
D02*
G37*
G36*
X356453Y217000D02*
X353000D01*
Y213547D01*
X356453D01*
Y217000D01*
D02*
G37*
G36*
X352000D02*
X348547D01*
Y213547D01*
X352000D01*
Y217000D01*
D02*
G37*
G36*
X246098Y211512D02*
X240087D01*
Y205500D01*
X246098D01*
Y211512D01*
D02*
G37*
G36*
X239087D02*
X233075D01*
Y205500D01*
X239087D01*
Y211512D01*
D02*
G37*
G36*
X246098Y204500D02*
X240087D01*
Y198488D01*
X246098D01*
Y204500D01*
D02*
G37*
G36*
X239087D02*
X233075D01*
Y198488D01*
X239087D01*
Y204500D01*
D02*
G37*
G36*
X246098Y184012D02*
X240087D01*
Y178000D01*
X246098D01*
Y184012D01*
D02*
G37*
G36*
X239087D02*
X233075D01*
Y178000D01*
X239087D01*
Y184012D01*
D02*
G37*
G36*
X310500Y175847D02*
Y173000D01*
X313347D01*
X313133Y173798D01*
X312690Y174564D01*
X312064Y175190D01*
X311298Y175633D01*
X310500Y175847D01*
D02*
G37*
G36*
X309500D02*
X308702Y175633D01*
X307936Y175190D01*
X307310Y174564D01*
X306867Y173798D01*
X306653Y173000D01*
X309500D01*
Y175847D01*
D02*
G37*
G36*
X246098Y177000D02*
X240087D01*
Y170988D01*
X246098D01*
Y177000D01*
D02*
G37*
G36*
X239087D02*
X233075D01*
Y170988D01*
X239087D01*
Y177000D01*
D02*
G37*
G36*
X313347Y172000D02*
X310500D01*
Y169153D01*
X311298Y169367D01*
X312064Y169810D01*
X312690Y170436D01*
X313133Y171202D01*
X313347Y172000D01*
D02*
G37*
G36*
X309500D02*
X306653D01*
X306867Y171202D01*
X307310Y170436D01*
X307936Y169810D01*
X308702Y169367D01*
X309500Y169153D01*
Y172000D01*
D02*
G37*
G36*
X283020Y171453D02*
X283000D01*
Y168000D01*
X286453D01*
Y168020D01*
X286183Y169026D01*
X285663Y169927D01*
X284927Y170663D01*
X284026Y171183D01*
X283020Y171453D01*
D02*
G37*
G36*
X282000D02*
X281980D01*
X280974Y171183D01*
X280073Y170663D01*
X279337Y169927D01*
X278817Y169026D01*
X278547Y168020D01*
Y168000D01*
X282000D01*
Y171453D01*
D02*
G37*
G36*
X286453Y167000D02*
X283000D01*
Y163547D01*
X283020D01*
X284026Y163817D01*
X284927Y164337D01*
X285663Y165073D01*
X286183Y165974D01*
X286453Y166980D01*
Y167000D01*
D02*
G37*
G36*
X282000D02*
X278547D01*
Y166980D01*
X278817Y165974D01*
X279337Y165073D01*
X280073Y164337D01*
X280974Y163817D01*
X281980Y163547D01*
X282000D01*
Y167000D01*
D02*
G37*
G36*
X373020Y221453D02*
X373000D01*
Y218000D01*
X376453D01*
Y218020D01*
X376183Y219026D01*
X375663Y219927D01*
X374927Y220663D01*
X374026Y221183D01*
X373020Y221453D01*
D02*
G37*
G36*
X372000D02*
X371980D01*
X370974Y221183D01*
X370073Y220663D01*
X369337Y219927D01*
X368817Y219026D01*
X368547Y218020D01*
Y218000D01*
X372000D01*
Y221453D01*
D02*
G37*
G36*
X376453Y217000D02*
X373000D01*
Y213547D01*
X373020D01*
X374026Y213817D01*
X374927Y214337D01*
X375663Y215073D01*
X376183Y215974D01*
X376453Y216980D01*
Y217000D01*
D02*
G37*
G36*
X372000D02*
X368547D01*
Y216980D01*
X368817Y215974D01*
X369337Y215073D01*
X370073Y214337D01*
X370974Y213817D01*
X371980Y213547D01*
X372000D01*
Y217000D01*
D02*
G37*
G36*
X379921Y167072D02*
X375500D01*
Y161622D01*
X385822D01*
X385757Y162283D01*
X385418Y163399D01*
X384868Y164428D01*
X384128Y165329D01*
X383227Y166069D01*
X382198Y166619D01*
X381082Y166958D01*
X379921Y167072D01*
D02*
G37*
G36*
X374500D02*
X370079D01*
X368918Y166958D01*
X367802Y166619D01*
X366773Y166069D01*
X365872Y165329D01*
X365132Y164428D01*
X364582Y163399D01*
X364243Y162283D01*
X364178Y161622D01*
X374500D01*
Y167072D01*
D02*
G37*
%LPD*%
D15*
X481750Y232750D02*
X482000Y233000D01*
X469950Y232750D02*
X481750D01*
X469700Y232500D02*
X469950Y232750D01*
X481750Y242250D02*
X482000Y242000D01*
X469950Y242250D02*
X481750D01*
X469700Y242500D02*
X469950Y242250D01*
X478918Y289000D02*
X480000D01*
X477418Y287500D02*
X478918Y289000D01*
X470500Y287500D02*
X477418D01*
X470000Y288000D02*
X470500Y287500D01*
X469500D02*
X470000Y288000D01*
X467200Y287500D02*
X469500D01*
X479750Y297750D02*
X480000Y298000D01*
X467450Y297750D02*
X479750D01*
X467200Y297500D02*
X467450Y297750D01*
X224000Y315000D02*
Y322000D01*
X229000Y327000D01*
X216000Y307000D02*
X224000Y315000D01*
X235405Y327000D02*
X235500Y326905D01*
X229000Y327000D02*
X235405D01*
X208000Y307000D02*
X216000D01*
X447471Y227500D02*
X450300D01*
X445000Y225029D02*
X447471Y227500D01*
X445000Y210000D02*
Y225029D01*
X444971Y282500D02*
X447800D01*
X443000Y280529D02*
X444971Y282500D01*
X443000Y267000D02*
Y280529D01*
X444971Y337500D02*
X447800D01*
X442500Y335030D02*
X444971Y337500D01*
X442500Y322500D02*
Y335030D01*
X444971Y395000D02*
X447800D01*
X440000Y390030D02*
X444971Y395000D01*
X440000Y380000D02*
Y390030D01*
X426000Y339000D02*
X442500Y322500D01*
X426000Y366000D02*
X440000Y380000D01*
X426000Y339000D02*
Y366000D01*
X427000Y283000D02*
Y307000D01*
X442500Y322500D01*
X427000Y283000D02*
X443000Y267000D01*
X427000Y260000D02*
X434000Y267000D01*
X427000Y224000D02*
Y260000D01*
X434000Y267000D02*
X443000D01*
X427000Y224000D02*
X441000Y210000D01*
X445000D01*
X227000Y250500D02*
Y278500D01*
X246078Y289840D02*
X250918Y285000D01*
X246078Y289840D02*
Y296031D01*
X271843Y303500D02*
X274343Y301000D01*
X254013Y303500D02*
X271843D01*
X274343Y301000D02*
X275000D01*
X252904Y304609D02*
X254013Y303500D01*
X268281Y292000D02*
X276000D01*
X260312Y299969D02*
X268281Y292000D01*
X270000Y273000D02*
X281000Y284000D01*
X260405Y273000D02*
X270000D01*
X281000Y284000D02*
Y305000D01*
X246500Y313000D02*
X273000D01*
X281000Y305000D01*
X244991Y309000D02*
X266000D01*
X244028Y299969D02*
X260312D01*
X250918Y285000D02*
X252000D01*
X250685Y295342D02*
Y296451D01*
Y295342D02*
X253000Y293027D01*
X249136Y298000D02*
X250685Y296451D01*
X253000Y292000D02*
Y293027D01*
X244028Y298000D02*
X249136D01*
X480750Y342750D02*
X481000Y343000D01*
X467450Y342750D02*
X480750D01*
X467200Y342500D02*
X467450Y342750D01*
X480750Y352250D02*
X481000Y352000D01*
X467450Y352250D02*
X480750D01*
X467200Y352500D02*
X467450Y352250D01*
X467200Y410000D02*
X481000D01*
X467200Y400000D02*
X481000D01*
X287500Y378981D02*
Y380000D01*
X285000Y376481D02*
X287500Y378981D01*
X285000Y332500D02*
Y376481D01*
X438157Y232500D02*
X450300D01*
X435657Y230000D02*
X438157Y232500D01*
X435000Y230000D02*
X435657D01*
X450050Y237750D02*
X450300Y237500D01*
X435250Y237750D02*
X450050D01*
X435000Y238000D02*
X435250Y237750D01*
X426500Y407000D02*
X427582D01*
X426500Y397500D02*
X427582D01*
X434582Y292500D02*
X447800D01*
X433082Y294000D02*
X434582Y292500D01*
X432000Y294000D02*
X433082D01*
X435157Y287500D02*
X447800D01*
X432657Y285000D02*
X435157Y287500D01*
X432000Y285000D02*
X432657D01*
X427582Y397500D02*
X429832Y399750D01*
X427582Y407000D02*
X429582Y405000D01*
X429832Y399750D02*
X447550D01*
X429582Y405000D02*
X447800D01*
X433000Y351000D02*
X436500Y347500D01*
X434082Y340000D02*
X436332Y342250D01*
X433000Y340000D02*
X434082D01*
X436332Y342250D02*
X447550D01*
X447800Y342500D01*
X436500Y347500D02*
X447800D01*
X447550Y399750D02*
X447800Y400000D01*
X187500Y250500D02*
X197000D01*
X350047Y215047D02*
X352500Y217500D01*
X244028Y296031D02*
X246078D01*
X239500Y280500D02*
Y292291D01*
X228500Y410500D02*
X351000D01*
X225000Y414000D02*
X228500Y410500D01*
X225000Y414000D02*
Y428500D01*
X344843Y405000D02*
X363000D01*
X340843Y401000D02*
X344843Y405000D01*
X281000Y401000D02*
X340843D01*
X312500Y357500D02*
X353500Y398500D01*
X300000Y357500D02*
X312500D01*
X255000Y375000D02*
X281000Y401000D01*
X384500Y396264D02*
Y403000D01*
X298236Y310000D02*
X384500Y396264D01*
X297500Y310000D02*
X298236D01*
X306148Y368648D02*
X317500Y380000D01*
X301148Y368648D02*
X306148D01*
X300000Y367500D02*
X301148Y368648D01*
X243438Y304609D02*
X252904D01*
X243438Y303709D02*
Y304609D01*
X264000Y490500D02*
X268056Y486444D01*
Y453263D02*
Y486444D01*
X252942Y438150D02*
X268056Y453263D01*
X252942Y434442D02*
Y438150D01*
X252000Y433500D02*
X252942Y434442D01*
X221000Y297953D02*
X221047Y298000D01*
X234972D01*
X228740Y432240D02*
Y437559D01*
X225000Y428500D02*
X228740Y432240D01*
X232000Y428000D02*
X236500Y423500D01*
X232000Y428000D02*
Y439494D01*
X236500Y423500D02*
X252000D01*
X228994Y442500D02*
X232000Y439494D01*
X228486Y442500D02*
X228994D01*
X226298Y444688D02*
X228486Y442500D01*
X226298Y444688D02*
Y444902D01*
X225000Y446201D02*
X226298Y444902D01*
X225000Y446201D02*
Y447441D01*
X375000Y161122D02*
X394224D01*
X417500Y137846D01*
Y137500D02*
Y137846D01*
X370079Y161122D02*
X375000D01*
X363957Y155000D02*
X370079Y161122D01*
X345000Y155000D02*
X363957D01*
X297500Y272500D02*
X310000Y285000D01*
X325000D01*
X297500Y320000D02*
X302500D01*
X315000Y332500D01*
X192000Y318768D02*
X193500Y320268D01*
X192000Y302232D02*
X192232Y302000D01*
X226500D01*
X241469Y305478D02*
X244991Y309000D01*
X241469Y303709D02*
Y305478D01*
X246245Y312800D02*
X246300D01*
X239500Y306055D02*
X246245Y312800D01*
X239500Y303709D02*
Y306055D01*
X246300Y312800D02*
X246500Y313000D01*
X235500Y321000D02*
X235866D01*
X237531Y319335D01*
Y303709D02*
Y319335D01*
X232922Y296031D02*
X234972D01*
X226500Y302000D02*
X228531Y299969D01*
X234972D01*
X202500Y439547D02*
X203091D01*
D17*
X469700Y242500D02*
D03*
Y237500D02*
D03*
Y232500D02*
D03*
Y227500D02*
D03*
X450300D02*
D03*
Y232500D02*
D03*
Y237500D02*
D03*
Y242500D02*
D03*
X467200Y297500D02*
D03*
Y292500D02*
D03*
Y287500D02*
D03*
Y282500D02*
D03*
X447800D02*
D03*
Y287500D02*
D03*
Y292500D02*
D03*
Y297500D02*
D03*
X467200Y352500D02*
D03*
Y347500D02*
D03*
Y342500D02*
D03*
Y337500D02*
D03*
X447800D02*
D03*
Y342500D02*
D03*
Y347500D02*
D03*
Y352500D02*
D03*
X467200Y410000D02*
D03*
Y405000D02*
D03*
Y400000D02*
D03*
Y395000D02*
D03*
X447800D02*
D03*
Y400000D02*
D03*
Y405000D02*
D03*
Y410000D02*
D03*
D18*
X234972Y299969D02*
D03*
Y298000D02*
D03*
Y296031D02*
D03*
X244028D02*
D03*
Y298000D02*
D03*
Y299969D02*
D03*
D19*
X235562Y292291D02*
D03*
X237531D02*
D03*
X239500D02*
D03*
X241469D02*
D03*
X243438D02*
D03*
Y303709D02*
D03*
X241469D02*
D03*
X239500D02*
D03*
X237531D02*
D03*
X235562D02*
D03*
D20*
X221260Y437559D02*
D03*
X225000D02*
D03*
X228740D02*
D03*
X221260Y447441D02*
D03*
X225000D02*
D03*
X228740D02*
D03*
D21*
X205528Y348000D02*
D03*
X228472D02*
D03*
D22*
X192000Y302232D02*
D03*
Y318768D02*
D03*
D23*
X221000Y297953D02*
D03*
Y292047D02*
D03*
X487500Y225905D02*
D03*
Y220000D02*
D03*
X487000Y280906D02*
D03*
Y275000D02*
D03*
X487500Y335000D02*
D03*
Y329095D02*
D03*
X235500Y326905D02*
D03*
Y321000D02*
D03*
X487500Y392953D02*
D03*
Y387047D02*
D03*
X202500Y445453D02*
D03*
Y439547D02*
D03*
D24*
X254500Y273000D02*
D03*
X260405D02*
D03*
X227000Y278500D02*
D03*
X221094D02*
D03*
D25*
X142815Y205000D02*
D03*
X132185D02*
D03*
D26*
X460000Y235000D02*
D03*
X457500Y290000D02*
D03*
Y345000D02*
D03*
Y402500D02*
D03*
D48*
X430526Y389474D02*
X440000Y380000D01*
X412526Y389474D02*
X430526D01*
X403000Y399000D02*
X412526Y389474D01*
X221047Y278547D02*
X221094Y278500D01*
X221047Y278547D02*
Y292000D01*
X221000Y292047D02*
X221047Y292000D01*
X219701Y436000D02*
X219878Y436177D01*
X221260Y436319D02*
Y437559D01*
X221118Y436177D02*
X221260Y436319D01*
X206638Y436000D02*
X219701D01*
X203091Y439547D02*
X206638Y436000D01*
X219878Y436177D02*
X221118D01*
D49*
X115000Y205000D02*
X132185D01*
X142815D02*
X165413D01*
X170597Y201903D02*
X185000Y187500D01*
Y169587D02*
Y187500D01*
X165413Y150000D02*
X185000Y169587D01*
X170411Y201903D02*
X170597D01*
X165413Y205000D02*
X167314D01*
X170411Y201903D01*
X165413Y205000D02*
X165413Y205000D01*
X115000D02*
X115000Y205000D01*
X357500Y232500D02*
X362500Y227500D01*
Y217500D02*
Y227500D01*
X218343Y232500D02*
X357500D01*
X216000Y234843D02*
X218343Y232500D01*
X216000Y234843D02*
Y260000D01*
X195500Y280500D02*
X216000Y260000D01*
X184500Y280500D02*
X195500D01*
D50*
X187500Y250500D02*
D03*
X157500D02*
D03*
X255000Y345000D02*
D03*
Y375000D02*
D03*
X227000Y250500D02*
D03*
X197000D02*
D03*
X317500Y380000D02*
D03*
X287500D02*
D03*
X315000Y332500D02*
D03*
X285000D02*
D03*
X325000Y285000D02*
D03*
X295000D02*
D03*
X264000Y490500D02*
D03*
Y460500D02*
D03*
D51*
X252000Y443500D02*
D03*
Y433500D02*
D03*
D52*
Y423500D02*
D03*
D53*
X570000Y232000D02*
D03*
Y289000D02*
D03*
X569000Y342000D02*
D03*
X570000Y399000D02*
D03*
X115000Y195000D02*
D03*
Y440000D02*
D03*
D54*
X570000Y242000D02*
D03*
Y299000D02*
D03*
X569000Y352000D02*
D03*
X375000Y490000D02*
D03*
X570000Y409000D02*
D03*
X516000Y489500D02*
D03*
X506000D02*
D03*
X496000D02*
D03*
X486000D02*
D03*
X476000D02*
D03*
X466000D02*
D03*
X456000D02*
D03*
X526000D02*
D03*
X340000Y490000D02*
D03*
X362500Y217500D02*
D03*
X372500D02*
D03*
X115000Y205000D02*
D03*
X405000Y490000D02*
D03*
X415000D02*
D03*
X425000D02*
D03*
X115000Y450000D02*
D03*
X302500Y490000D02*
D03*
X508000Y226000D02*
D03*
Y216000D02*
D03*
X510000Y281000D02*
D03*
Y271000D02*
D03*
Y334500D02*
D03*
Y324500D02*
D03*
X417500Y137500D02*
D03*
Y127500D02*
D03*
X140000Y371000D02*
D03*
X150000D02*
D03*
X282500Y167500D02*
D03*
Y157500D02*
D03*
X184500Y280500D02*
D03*
Y270500D02*
D03*
X510000Y392500D02*
D03*
Y382500D02*
D03*
X155000Y447500D02*
D03*
Y437500D02*
D03*
D55*
X365000Y490000D02*
D03*
X536000Y489500D02*
D03*
X330000Y490000D02*
D03*
X352500Y217500D02*
D03*
X435000Y490000D02*
D03*
X292500D02*
D03*
D56*
X375000Y161122D02*
D03*
D57*
Y137500D02*
D03*
D58*
X393504Y149311D02*
D03*
D59*
X565000Y115000D02*
D03*
X115000D02*
D03*
X565000Y485000D02*
D03*
X115000D02*
D03*
D60*
X300000Y367500D02*
D03*
Y357500D02*
D03*
X192500Y487500D02*
D03*
Y477500D02*
D03*
X297500Y320000D02*
D03*
Y310000D02*
D03*
Y272500D02*
D03*
Y262500D02*
D03*
D61*
X165413Y122500D02*
D03*
Y150000D02*
D03*
X239587Y177500D02*
D03*
Y205000D02*
D03*
D62*
Y122500D02*
D03*
Y150000D02*
D03*
X165413Y177500D02*
D03*
Y205000D02*
D03*
D63*
X159500Y348000D02*
D03*
X129500D02*
D03*
X445000Y210000D02*
D03*
X475000D02*
D03*
X443000Y267000D02*
D03*
X473000D02*
D03*
X442500Y322500D02*
D03*
X472500D02*
D03*
X345000Y125000D02*
D03*
Y155000D02*
D03*
X310000Y142500D02*
D03*
Y172500D02*
D03*
X440000Y380000D02*
D03*
X470000D02*
D03*
X130000Y447500D02*
D03*
Y417500D02*
D03*
D64*
X229000Y312000D02*
D03*
X403000Y399000D02*
D03*
X237000Y343000D02*
D03*
X275000Y301000D02*
D03*
X276000Y292000D02*
D03*
X266000Y309000D02*
D03*
X252000Y285000D02*
D03*
X253000Y292000D02*
D03*
X482000Y233000D02*
D03*
Y242000D02*
D03*
X480000Y289000D02*
D03*
Y298000D02*
D03*
X481000Y343000D02*
D03*
Y352000D02*
D03*
Y410000D02*
D03*
Y400000D02*
D03*
X435000Y230000D02*
D03*
Y238000D02*
D03*
X426500Y407000D02*
D03*
Y397500D02*
D03*
X432000Y285000D02*
D03*
Y294000D02*
D03*
X433000Y351000D02*
D03*
Y340000D02*
D03*
X239500Y280500D02*
D03*
X351000Y410500D02*
D03*
X363000Y405000D02*
D03*
X353500Y398500D02*
D03*
X384500Y403000D02*
D03*
X225000Y428500D02*
D03*
X211000Y318500D02*
D03*
M02*
