G04*
G04 #@! TF.GenerationSoftware,Altium Limited,Altium Designer,26.2.0 (7)*
G04*
G04 Layer_Physical_Order=2*
G04 Layer_Color=16711680*
%FSLAX25Y25*%
%MOIN*%
G70*
G04*
G04 #@! TF.SameCoordinates,CECF952D-64F9-48ED-BA59-EEDE46F112F8*
G04*
G04*
G04 #@! TF.FilePolarity,Positive*
G04*
G01*
G75*
%ADD15C,0.01000*%
%ADD48C,0.02000*%
%ADD49C,0.04000*%
%ADD50C,0.05512*%
%ADD51C,0.06299*%
%ADD52R,0.06299X0.06299*%
%ADD53R,0.05906X0.05906*%
%ADD54C,0.05906*%
%ADD55R,0.05906X0.05906*%
%ADD56O,0.19685X0.09843*%
%ADD57O,0.17717X0.08858*%
%ADD58O,0.08858X0.17717*%
%ADD59C,0.16500*%
%ADD60C,0.07000*%
%ADD61R,0.11024X0.11024*%
%ADD62C,0.11024*%
%ADD63C,0.04724*%
%ADD64C,0.05000*%
G36*
X578675Y101326D02*
X101326D01*
Y500000D01*
X394319D01*
X394702Y499076D01*
X372945Y477320D01*
X372658Y476890D01*
X372557Y476383D01*
Y433932D01*
X352216Y413591D01*
X351434Y413800D01*
X350566D01*
X349726Y413575D01*
X348974Y413141D01*
X348359Y412526D01*
X347925Y411774D01*
X347700Y410934D01*
Y410066D01*
X347925Y409226D01*
X348359Y408474D01*
X348974Y407859D01*
X349726Y407425D01*
X350566Y407200D01*
X351434D01*
X352274Y407425D01*
X353026Y407859D01*
X353641Y408474D01*
X354075Y409226D01*
X354300Y410066D01*
Y410934D01*
X354091Y411716D01*
X374820Y432445D01*
X375107Y432875D01*
X375208Y433383D01*
Y475834D01*
X397549Y498174D01*
X400312D01*
X400926Y497247D01*
X400918Y497175D01*
X400563Y496937D01*
X386563Y482937D01*
X386275Y482507D01*
X386175Y482000D01*
Y430049D01*
X364216Y408091D01*
X363435Y408300D01*
X362565D01*
X361726Y408075D01*
X360974Y407641D01*
X360359Y407026D01*
X359925Y406274D01*
X359700Y405435D01*
Y404565D01*
X359925Y403726D01*
X360359Y402974D01*
X360974Y402359D01*
X361726Y401925D01*
X362565Y401700D01*
X363435D01*
X364274Y401925D01*
X365026Y402359D01*
X365641Y402974D01*
X366075Y403726D01*
X366300Y404565D01*
Y405435D01*
X366091Y406216D01*
X388437Y428563D01*
X388725Y428993D01*
X388825Y429500D01*
Y481451D01*
X402049Y494674D01*
X404082D01*
X404214Y493675D01*
X403551Y493497D01*
X402696Y493003D01*
X401997Y492304D01*
X401503Y491448D01*
X401247Y490494D01*
Y489506D01*
X401503Y488552D01*
X401567Y488441D01*
X393563Y480437D01*
X393275Y480007D01*
X393175Y479500D01*
Y427549D01*
X365951Y400325D01*
X356257D01*
X356141Y400526D01*
X355526Y401141D01*
X354774Y401575D01*
X353935Y401800D01*
X353065D01*
X352226Y401575D01*
X351474Y401141D01*
X350859Y400526D01*
X350425Y399774D01*
X350200Y398935D01*
Y398065D01*
X350425Y397226D01*
X350859Y396474D01*
X351474Y395859D01*
X352226Y395425D01*
X352634Y395316D01*
X352502Y394316D01*
X337316D01*
Y485831D01*
X338316Y486408D01*
X338474Y486317D01*
X339480Y486047D01*
X339500D01*
Y490000D01*
Y493953D01*
X339480D01*
X338474Y493683D01*
X338316Y493592D01*
X337316Y494169D01*
Y496000D01*
X337254Y496312D01*
X337077Y496577D01*
X336812Y496754D01*
X336500Y496816D01*
X310500D01*
X310188Y496754D01*
X309923Y496577D01*
X309746Y496312D01*
X309684Y496000D01*
Y354500D01*
X309746Y354188D01*
X309923Y353923D01*
X310188Y353746D01*
X310500Y353684D01*
X327184D01*
Y345826D01*
X297000D01*
X296493Y345725D01*
X296063Y345437D01*
X286415Y335789D01*
X286372Y335814D01*
X285468Y336056D01*
X284532D01*
X283628Y335814D01*
X282817Y335345D01*
X282155Y334683D01*
X281686Y333873D01*
X281444Y332968D01*
Y332032D01*
X281686Y331128D01*
X282155Y330317D01*
X282817Y329655D01*
X283628Y329186D01*
X284532Y328944D01*
X285468D01*
X286372Y329186D01*
X287183Y329655D01*
X287845Y330317D01*
X288314Y331128D01*
X288556Y332032D01*
Y332968D01*
X288314Y333873D01*
X288289Y333915D01*
X297549Y343175D01*
X327184D01*
Y289000D01*
X326776Y288655D01*
X326184Y288364D01*
X325468Y288556D01*
X324532D01*
X323627Y288314D01*
X322817Y287845D01*
X322155Y287183D01*
X321686Y286372D01*
X321444Y285468D01*
Y284532D01*
X321686Y283628D01*
X322155Y282817D01*
X322817Y282155D01*
X323627Y281686D01*
X324532Y281444D01*
X325468D01*
X326184Y281636D01*
X326776Y281345D01*
X327184Y281000D01*
Y211500D01*
X327246Y211188D01*
X327423Y210923D01*
X327688Y210746D01*
X328000Y210684D01*
X401500D01*
X401812Y210746D01*
X402077Y210923D01*
X402254Y211188D01*
X402316Y211500D01*
Y393500D01*
X402254Y393812D01*
X402077Y394077D01*
X401812Y394254D01*
X401500Y394316D01*
X354498D01*
X354366Y395316D01*
X354774Y395425D01*
X355526Y395859D01*
X356141Y396474D01*
X356575Y397226D01*
X356695Y397674D01*
X366500D01*
X367007Y397775D01*
X367437Y398063D01*
X395437Y426063D01*
X395674Y426418D01*
X395747Y426426D01*
X396674Y425812D01*
Y417049D01*
X385716Y406091D01*
X384934Y406300D01*
X384066D01*
X383226Y406075D01*
X382474Y405641D01*
X381859Y405026D01*
X381425Y404274D01*
X381200Y403435D01*
Y402565D01*
X381425Y401726D01*
X381859Y400974D01*
X382474Y400359D01*
X383226Y399925D01*
X384066Y399700D01*
X384934D01*
X385774Y399925D01*
X386526Y400359D01*
X387141Y400974D01*
X387575Y401726D01*
X387800Y402565D01*
Y403435D01*
X387591Y404216D01*
X398937Y415563D01*
X399225Y415993D01*
X399325Y416500D01*
Y472451D01*
X413441Y486567D01*
X413552Y486503D01*
X414506Y486247D01*
X415494D01*
X416448Y486503D01*
X417304Y486997D01*
X418003Y487696D01*
X418497Y488552D01*
X418753Y489506D01*
Y490494D01*
X418497Y491448D01*
X418003Y492304D01*
X417304Y493003D01*
X416448Y493497D01*
X415786Y493675D01*
X415918Y494674D01*
X418451D01*
X421567Y491559D01*
X421503Y491448D01*
X421247Y490494D01*
Y489506D01*
X421503Y488552D01*
X421997Y487696D01*
X422696Y486997D01*
X423552Y486503D01*
X424506Y486247D01*
X425494D01*
X426448Y486503D01*
X427304Y486997D01*
X428003Y487696D01*
X428497Y488552D01*
X428753Y489506D01*
Y490494D01*
X428497Y491448D01*
X428003Y492304D01*
X427304Y493003D01*
X426448Y493497D01*
X425494Y493753D01*
X424506D01*
X423552Y493497D01*
X423441Y493433D01*
X419937Y496937D01*
X419582Y497175D01*
X419574Y497247D01*
X420188Y498174D01*
X424951D01*
X431247Y491878D01*
Y486247D01*
X438753D01*
Y493753D01*
X433122D01*
X427798Y499076D01*
X428181Y500000D01*
X578675D01*
Y101326D01*
D02*
G37*
G36*
X414214Y493675D02*
X413552Y493497D01*
X412696Y493003D01*
X411997Y492304D01*
X411503Y491448D01*
X411247Y490494D01*
Y489506D01*
X411503Y488552D01*
X411567Y488441D01*
X397063Y473937D01*
X396826Y473582D01*
X396753Y473574D01*
X395826Y474188D01*
Y478951D01*
X403441Y486567D01*
X403551Y486503D01*
X404506Y486247D01*
X405494D01*
X406449Y486503D01*
X407304Y486997D01*
X408003Y487696D01*
X408497Y488552D01*
X408753Y489506D01*
Y490494D01*
X408497Y491448D01*
X408003Y492304D01*
X407304Y493003D01*
X406449Y493497D01*
X405786Y493675D01*
X405918Y494674D01*
X414082D01*
X414214Y493675D01*
D02*
G37*
G36*
X336500Y491437D02*
X336247Y490494D01*
Y489506D01*
X336500Y488563D01*
Y393500D01*
X401500D01*
Y211500D01*
X328000D01*
Y283084D01*
X328314Y283628D01*
X328556Y284532D01*
Y285468D01*
X328314Y286372D01*
X328000Y286916D01*
Y354500D01*
X310500D01*
Y496000D01*
X336500D01*
Y491437D01*
D02*
G37*
%LPC*%
G36*
X375520Y493953D02*
X375500D01*
Y490500D01*
X378953D01*
Y490520D01*
X378683Y491526D01*
X378163Y492427D01*
X377427Y493163D01*
X376526Y493683D01*
X375520Y493953D01*
D02*
G37*
G36*
X374500D02*
X374480D01*
X373474Y493683D01*
X372573Y493163D01*
X371837Y492427D01*
X371317Y491526D01*
X371047Y490520D01*
Y490500D01*
X374500D01*
Y493953D01*
D02*
G37*
G36*
X340520D02*
X340500D01*
Y490500D01*
X343953D01*
Y490520D01*
X343683Y491526D01*
X343163Y492427D01*
X342427Y493163D01*
X341526Y493683D01*
X340520Y493953D01*
D02*
G37*
G36*
X303020D02*
X303000D01*
Y490500D01*
X306453D01*
Y490520D01*
X306183Y491526D01*
X305663Y492427D01*
X304927Y493163D01*
X304026Y493683D01*
X303020Y493953D01*
D02*
G37*
G36*
X302000D02*
X301980D01*
X300974Y493683D01*
X300073Y493163D01*
X299337Y492427D01*
X298817Y491526D01*
X298547Y490520D01*
Y490500D01*
X302000D01*
Y493953D01*
D02*
G37*
G36*
X264468Y494056D02*
X263532D01*
X262628Y493814D01*
X261817Y493345D01*
X261155Y492683D01*
X260686Y491873D01*
X260444Y490968D01*
Y490032D01*
X260686Y489127D01*
X261155Y488317D01*
X261817Y487655D01*
X262628Y487186D01*
X263532Y486944D01*
X264468D01*
X265372Y487186D01*
X266183Y487655D01*
X266845Y488317D01*
X267314Y489127D01*
X267556Y490032D01*
Y490968D01*
X267314Y491873D01*
X266845Y492683D01*
X266183Y493345D01*
X265372Y493814D01*
X264468Y494056D01*
D02*
G37*
G36*
X368753Y493753D02*
X361247D01*
Y486247D01*
X368753D01*
Y493753D01*
D02*
G37*
G36*
X296253D02*
X288747D01*
Y486247D01*
X296253D01*
Y493753D01*
D02*
G37*
G36*
X378953Y489500D02*
X375500D01*
Y486047D01*
X375520D01*
X376526Y486317D01*
X377427Y486837D01*
X378163Y487573D01*
X378683Y488474D01*
X378953Y489480D01*
Y489500D01*
D02*
G37*
G36*
X374500D02*
X371047D01*
Y489480D01*
X371317Y488474D01*
X371837Y487573D01*
X372573Y486837D01*
X373474Y486317D01*
X374480Y486047D01*
X374500D01*
Y489500D01*
D02*
G37*
G36*
X343953D02*
X340500D01*
Y486047D01*
X340520D01*
X341526Y486317D01*
X342427Y486837D01*
X343163Y487573D01*
X343683Y488474D01*
X343953Y489480D01*
Y489500D01*
D02*
G37*
G36*
X306453D02*
X303000D01*
Y486047D01*
X303020D01*
X304026Y486317D01*
X304927Y486837D01*
X305663Y487573D01*
X306183Y488474D01*
X306453Y489480D01*
Y489500D01*
D02*
G37*
G36*
X302000D02*
X298547D01*
Y489480D01*
X298817Y488474D01*
X299337Y487573D01*
X300073Y486837D01*
X300974Y486317D01*
X301980Y486047D01*
X302000D01*
Y489500D01*
D02*
G37*
G36*
X476494Y493253D02*
X475506D01*
X474551Y492997D01*
X473696Y492503D01*
X472997Y491804D01*
X472503Y490948D01*
X472247Y489994D01*
Y489006D01*
X472503Y488052D01*
X472567Y487941D01*
X468275Y483650D01*
X467593Y483901D01*
X467325Y484114D01*
Y485970D01*
X467449Y486003D01*
X468304Y486497D01*
X469003Y487196D01*
X469497Y488052D01*
X469753Y489006D01*
Y489994D01*
X469497Y490948D01*
X469003Y491804D01*
X468304Y492503D01*
X467449Y492997D01*
X466494Y493253D01*
X465506D01*
X464551Y492997D01*
X463696Y492503D01*
X462997Y491804D01*
X462503Y490948D01*
X462247Y489994D01*
Y489006D01*
X462503Y488052D01*
X462997Y487196D01*
X463696Y486497D01*
X464551Y486003D01*
X464675Y485970D01*
Y484549D01*
X407063Y426937D01*
X406775Y426507D01*
X406674Y426000D01*
Y401235D01*
X405675Y400968D01*
X405641Y401026D01*
X405026Y401641D01*
X404835Y401751D01*
Y435740D01*
X454983Y485887D01*
X455506Y485747D01*
X456494D01*
X457448Y486003D01*
X458304Y486497D01*
X459003Y487196D01*
X459497Y488052D01*
X459753Y489006D01*
Y489994D01*
X459497Y490948D01*
X459003Y491804D01*
X458304Y492503D01*
X457448Y492997D01*
X456494Y493253D01*
X455506D01*
X454552Y492997D01*
X453696Y492503D01*
X452997Y491804D01*
X452503Y490948D01*
X452247Y489994D01*
Y489006D01*
X452387Y488483D01*
X401702Y437798D01*
X401304Y437202D01*
X401165Y436500D01*
Y401751D01*
X400974Y401641D01*
X400359Y401026D01*
X399925Y400274D01*
X399700Y399434D01*
Y398566D01*
X399925Y397726D01*
X400359Y396974D01*
X400974Y396359D01*
X401726Y395925D01*
X402565Y395700D01*
X403435D01*
X404274Y395925D01*
X405026Y396359D01*
X405641Y396974D01*
X405675Y397032D01*
X406674Y396764D01*
Y276000D01*
X406775Y275493D01*
X407063Y275063D01*
X433674Y248451D01*
Y241045D01*
X432974Y240641D01*
X432359Y240026D01*
X431925Y239274D01*
X431700Y238435D01*
Y237565D01*
X431925Y236726D01*
X432359Y235974D01*
X432974Y235359D01*
X433726Y234925D01*
X434565Y234700D01*
X435434D01*
X436274Y234925D01*
X437026Y235359D01*
X437641Y235974D01*
X438075Y236726D01*
X438300Y237565D01*
Y238435D01*
X438075Y239274D01*
X437641Y240026D01*
X437026Y240641D01*
X436326Y241045D01*
Y249000D01*
X436225Y249507D01*
X435937Y249937D01*
X409372Y276502D01*
X409474Y277441D01*
X410359Y277766D01*
X439675Y248451D01*
Y236549D01*
X436216Y233091D01*
X435434Y233300D01*
X434565D01*
X433726Y233075D01*
X432974Y232641D01*
X432359Y232026D01*
X431925Y231274D01*
X431700Y230434D01*
Y229566D01*
X431925Y228726D01*
X432359Y227974D01*
X432974Y227359D01*
X433726Y226925D01*
X434565Y226700D01*
X435434D01*
X436274Y226925D01*
X437026Y227359D01*
X437641Y227974D01*
X438075Y228726D01*
X438300Y229566D01*
Y230434D01*
X438091Y231216D01*
X441937Y235063D01*
X442225Y235493D01*
X442325Y236000D01*
Y249000D01*
X442225Y249507D01*
X441937Y249937D01*
X412325Y279549D01*
Y423951D01*
X474441Y486067D01*
X474551Y486003D01*
X475506Y485747D01*
X476494D01*
X477449Y486003D01*
X478304Y486497D01*
X479003Y487196D01*
X479497Y488052D01*
X479753Y489006D01*
Y489994D01*
X479497Y490948D01*
X479003Y491804D01*
X478304Y492503D01*
X477449Y492997D01*
X476494Y493253D01*
D02*
G37*
G36*
X193092Y482000D02*
X193000D01*
Y478000D01*
X197000D01*
Y478092D01*
X196693Y479237D01*
X196101Y480263D01*
X195263Y481101D01*
X194237Y481693D01*
X193092Y482000D01*
D02*
G37*
G36*
X192000D02*
X191908D01*
X190763Y481693D01*
X189737Y481101D01*
X188899Y480263D01*
X188307Y479237D01*
X188000Y478092D01*
Y478000D01*
X192000D01*
Y482000D01*
D02*
G37*
G36*
X565891Y494050D02*
X564109D01*
X562360Y493702D01*
X560713Y493020D01*
X559231Y492030D01*
X557970Y490769D01*
X556980Y489287D01*
X556298Y487640D01*
X555950Y485891D01*
Y484109D01*
X556298Y482360D01*
X556980Y480713D01*
X557970Y479231D01*
X559231Y477970D01*
X560713Y476980D01*
X562360Y476298D01*
X564109Y475950D01*
X565891D01*
X567640Y476298D01*
X569287Y476980D01*
X570769Y477970D01*
X572030Y479231D01*
X573020Y480713D01*
X573702Y482360D01*
X574050Y484109D01*
Y485891D01*
X573702Y487640D01*
X573020Y489287D01*
X572030Y490769D01*
X570769Y492030D01*
X569287Y493020D01*
X567640Y493702D01*
X565891Y494050D01*
D02*
G37*
G36*
X115891D02*
X114109D01*
X112360Y493702D01*
X110713Y493020D01*
X109231Y492030D01*
X107970Y490769D01*
X106980Y489287D01*
X106298Y487640D01*
X105950Y485891D01*
Y484109D01*
X106298Y482360D01*
X106980Y480713D01*
X107970Y479231D01*
X109231Y477970D01*
X110713Y476980D01*
X112360Y476298D01*
X114109Y475950D01*
X115891D01*
X117640Y476298D01*
X119287Y476980D01*
X120769Y477970D01*
X122030Y479231D01*
X123020Y480713D01*
X123702Y482360D01*
X124050Y484109D01*
Y485891D01*
X123702Y487640D01*
X123020Y489287D01*
X122030Y490769D01*
X120769Y492030D01*
X119287Y493020D01*
X117640Y493702D01*
X115891Y494050D01*
D02*
G37*
G36*
X197000Y477000D02*
X193000D01*
Y473000D01*
X193092D01*
X194237Y473307D01*
X195263Y473899D01*
X196101Y474737D01*
X196693Y475763D01*
X197000Y476908D01*
Y477000D01*
D02*
G37*
G36*
X192000D02*
X188000D01*
Y476908D01*
X188307Y475763D01*
X188899Y474737D01*
X189737Y473899D01*
X190763Y473307D01*
X191908Y473000D01*
X192000D01*
Y477000D01*
D02*
G37*
G36*
X193066Y491800D02*
X191934D01*
X190840Y491507D01*
X189860Y490941D01*
X189059Y490140D01*
X188493Y489160D01*
X188200Y488066D01*
Y486934D01*
X188493Y485840D01*
X189059Y484860D01*
X189860Y484059D01*
X190840Y483493D01*
X191934Y483200D01*
X193066D01*
X194160Y483493D01*
X195140Y484059D01*
X195941Y484860D01*
X196507Y485840D01*
X196597Y486174D01*
X236451D01*
X260711Y461915D01*
X260686Y461872D01*
X260444Y460968D01*
Y460032D01*
X260686Y459128D01*
X261155Y458317D01*
X261817Y457655D01*
X262628Y457186D01*
X263532Y456944D01*
X264468D01*
X265372Y457186D01*
X266183Y457655D01*
X266845Y458317D01*
X267314Y459128D01*
X267556Y460032D01*
Y460968D01*
X267314Y461872D01*
X266845Y462683D01*
X266183Y463345D01*
X265372Y463814D01*
X264468Y464056D01*
X263532D01*
X262628Y463814D01*
X262585Y463789D01*
X237937Y488437D01*
X237507Y488725D01*
X237000Y488826D01*
X196597D01*
X196507Y489160D01*
X195941Y490140D01*
X195140Y490941D01*
X194160Y491507D01*
X193066Y491800D01*
D02*
G37*
G36*
X115494Y453753D02*
X114506D01*
X113551Y453497D01*
X112696Y453003D01*
X111997Y452304D01*
X111503Y451448D01*
X111247Y450494D01*
Y449506D01*
X111503Y448552D01*
X111997Y447696D01*
X112696Y446997D01*
X113551Y446503D01*
X114506Y446247D01*
X115494D01*
X116448Y446503D01*
X117304Y446997D01*
X118003Y447696D01*
X118497Y448552D01*
X118753Y449506D01*
Y450494D01*
X118497Y451448D01*
X118003Y452304D01*
X117304Y453003D01*
X116448Y453497D01*
X115494Y453753D01*
D02*
G37*
G36*
X130416Y450662D02*
X129584D01*
X128779Y450447D01*
X128058Y450030D01*
X127470Y449442D01*
X127053Y448721D01*
X126838Y447916D01*
Y447084D01*
X127053Y446279D01*
X127470Y445558D01*
X128058Y444970D01*
X128779Y444553D01*
X129584Y444338D01*
X130416D01*
X131221Y444553D01*
X131942Y444970D01*
X132530Y445558D01*
X132947Y446279D01*
X133162Y447084D01*
Y447916D01*
X132947Y448721D01*
X132530Y449442D01*
X131942Y450030D01*
X131221Y450447D01*
X130416Y450662D01*
D02*
G37*
G36*
X155494Y451253D02*
X154506D01*
X153551Y450997D01*
X152696Y450503D01*
X151997Y449804D01*
X151503Y448948D01*
X151247Y447994D01*
Y447006D01*
X151503Y446052D01*
X151997Y445196D01*
X152696Y444497D01*
X153551Y444003D01*
X154506Y443747D01*
X155494D01*
X156448Y444003D01*
X157304Y444497D01*
X158003Y445196D01*
X158497Y446052D01*
X158753Y447006D01*
Y447994D01*
X158497Y448948D01*
X158003Y449804D01*
X157304Y450503D01*
X156448Y450997D01*
X155494Y451253D01*
D02*
G37*
G36*
X118953Y443953D02*
X115500D01*
Y440500D01*
X118953D01*
Y443953D01*
D02*
G37*
G36*
X114500D02*
X111047D01*
Y440500D01*
X114500D01*
Y443953D01*
D02*
G37*
G36*
X252520Y447450D02*
X251480D01*
X250476Y447180D01*
X249575Y446661D01*
X248839Y445925D01*
X248320Y445024D01*
X248050Y444020D01*
Y442980D01*
X248320Y441975D01*
X248839Y441075D01*
X249575Y440340D01*
X250476Y439820D01*
X251480Y439550D01*
X252520D01*
X253524Y439820D01*
X254425Y440340D01*
X255160Y441075D01*
X255680Y441975D01*
X255950Y442980D01*
Y444020D01*
X255680Y445024D01*
X255160Y445925D01*
X254425Y446661D01*
X253524Y447180D01*
X252520Y447450D01*
D02*
G37*
G36*
X155520Y441453D02*
X155500D01*
Y438000D01*
X158953D01*
Y438020D01*
X158683Y439026D01*
X158163Y439927D01*
X157427Y440663D01*
X156526Y441183D01*
X155520Y441453D01*
D02*
G37*
G36*
X154500D02*
X154480D01*
X153474Y441183D01*
X152573Y440663D01*
X151837Y439927D01*
X151317Y439026D01*
X151047Y438020D01*
Y438000D01*
X154500D01*
Y441453D01*
D02*
G37*
G36*
X118953Y439500D02*
X115500D01*
Y436047D01*
X118953D01*
Y439500D01*
D02*
G37*
G36*
X114500D02*
X111047D01*
Y436047D01*
X114500D01*
Y439500D01*
D02*
G37*
G36*
X158953Y437000D02*
X155500D01*
Y433547D01*
X155520D01*
X156526Y433817D01*
X157427Y434337D01*
X158163Y435073D01*
X158683Y435974D01*
X158953Y436980D01*
Y437000D01*
D02*
G37*
G36*
X154500D02*
X151047D01*
Y436980D01*
X151317Y435974D01*
X151837Y435073D01*
X152573Y434337D01*
X153474Y433817D01*
X154480Y433547D01*
X154500D01*
Y437000D01*
D02*
G37*
G36*
X252520Y437450D02*
X251480D01*
X250476Y437180D01*
X249575Y436660D01*
X248839Y435925D01*
X248320Y435024D01*
X248050Y434020D01*
Y432980D01*
X248320Y431976D01*
X248839Y431075D01*
X249575Y430339D01*
X250476Y429820D01*
X251480Y429550D01*
X252520D01*
X253524Y429820D01*
X254425Y430339D01*
X255160Y431075D01*
X255680Y431976D01*
X255950Y432980D01*
Y434020D01*
X255680Y435024D01*
X255160Y435925D01*
X254425Y436660D01*
X253524Y437180D01*
X252520Y437450D01*
D02*
G37*
G36*
X225434Y431800D02*
X224566D01*
X223726Y431575D01*
X222974Y431141D01*
X222359Y430526D01*
X221925Y429774D01*
X221700Y428934D01*
Y428065D01*
X221925Y427226D01*
X222359Y426474D01*
X222974Y425859D01*
X223726Y425425D01*
X224566Y425200D01*
X225434D01*
X226274Y425425D01*
X227026Y425859D01*
X227641Y426474D01*
X228075Y427226D01*
X228300Y428065D01*
Y428934D01*
X228075Y429774D01*
X227641Y430526D01*
X227026Y431141D01*
X226274Y431575D01*
X225434Y431800D01*
D02*
G37*
G36*
X255950Y427450D02*
X248050D01*
Y419550D01*
X255950D01*
Y427450D01*
D02*
G37*
G36*
X130500Y420847D02*
Y418000D01*
X133347D01*
X133133Y418798D01*
X132690Y419564D01*
X132064Y420190D01*
X131298Y420633D01*
X130500Y420847D01*
D02*
G37*
G36*
X129500D02*
X128702Y420633D01*
X127936Y420190D01*
X127310Y419564D01*
X126867Y418798D01*
X126653Y418000D01*
X129500D01*
Y420847D01*
D02*
G37*
G36*
X133347Y417000D02*
X130500D01*
Y414153D01*
X131298Y414367D01*
X132064Y414810D01*
X132690Y415436D01*
X133133Y416202D01*
X133347Y417000D01*
D02*
G37*
G36*
X129500D02*
X126653D01*
X126867Y416202D01*
X127310Y415436D01*
X127936Y414810D01*
X128702Y414367D01*
X129500Y414153D01*
Y417000D01*
D02*
G37*
G36*
X539753Y493253D02*
X532247D01*
Y487622D01*
X445951Y401326D01*
X429000D01*
X428493Y401225D01*
X428063Y400937D01*
X427716Y400591D01*
X426934Y400800D01*
X426065D01*
X425226Y400575D01*
X425026Y400459D01*
X424025Y401037D01*
Y403464D01*
X425026Y404041D01*
X425226Y403925D01*
X426065Y403700D01*
X426934D01*
X427774Y403925D01*
X428099Y404112D01*
X428149Y404063D01*
X428579Y403775D01*
X429086Y403675D01*
X445000D01*
X445507Y403775D01*
X445937Y404063D01*
X526570Y484696D01*
X526858Y485126D01*
X526959Y485633D01*
Y485872D01*
X527449Y486003D01*
X528304Y486497D01*
X529003Y487196D01*
X529497Y488052D01*
X529753Y489006D01*
Y489994D01*
X529497Y490948D01*
X529003Y491804D01*
X528304Y492503D01*
X527449Y492997D01*
X526494Y493253D01*
X525506D01*
X524551Y492997D01*
X523696Y492503D01*
X522997Y491804D01*
X522503Y490948D01*
X522247Y489994D01*
Y489006D01*
X522503Y488052D01*
X522997Y487196D01*
X523696Y486497D01*
X523804Y485678D01*
X444451Y406325D01*
X429984D01*
X429800Y406566D01*
Y407435D01*
X429575Y408274D01*
X429141Y409026D01*
X428526Y409641D01*
X427774Y410075D01*
X427550Y410135D01*
X427251Y411250D01*
X463243Y447242D01*
X475068D01*
X475575Y447343D01*
X476005Y447630D01*
X514441Y486067D01*
X514551Y486003D01*
X515506Y485747D01*
X516494D01*
X517449Y486003D01*
X518304Y486497D01*
X519003Y487196D01*
X519497Y488052D01*
X519753Y489006D01*
Y489994D01*
X519497Y490948D01*
X519003Y491804D01*
X518304Y492503D01*
X517449Y492997D01*
X516494Y493253D01*
X515506D01*
X514551Y492997D01*
X513696Y492503D01*
X512997Y491804D01*
X512503Y490948D01*
X512247Y489994D01*
Y489006D01*
X512503Y488052D01*
X512567Y487941D01*
X474519Y449893D01*
X472850D01*
X472788Y450053D01*
X472683Y450893D01*
X472937Y451063D01*
X506570Y484696D01*
X506858Y485126D01*
X506958Y485633D01*
Y485872D01*
X507448Y486003D01*
X508304Y486497D01*
X509003Y487196D01*
X509497Y488052D01*
X509753Y489006D01*
Y489994D01*
X509497Y490948D01*
X509003Y491804D01*
X508304Y492503D01*
X507448Y492997D01*
X506494Y493253D01*
X505506D01*
X504552Y492997D01*
X503696Y492503D01*
X502997Y491804D01*
X502503Y490948D01*
X502247Y489994D01*
Y489006D01*
X502503Y488052D01*
X502997Y487196D01*
X503696Y486497D01*
X503804Y485678D01*
X471451Y453326D01*
X461000D01*
X460493Y453225D01*
X460063Y452937D01*
X419325Y412200D01*
X418326Y412571D01*
Y414451D01*
X459549Y455675D01*
X463500D01*
X464007Y455775D01*
X464437Y456063D01*
X494441Y486067D01*
X494552Y486003D01*
X495506Y485747D01*
X496494D01*
X497448Y486003D01*
X498304Y486497D01*
X499003Y487196D01*
X499497Y488052D01*
X499753Y489006D01*
Y489994D01*
X499497Y490948D01*
X499003Y491804D01*
X498304Y492503D01*
X497448Y492997D01*
X496494Y493253D01*
X495506D01*
X494552Y492997D01*
X493696Y492503D01*
X492997Y491804D01*
X492503Y490948D01*
X492247Y489994D01*
Y489006D01*
X492503Y488052D01*
X492567Y487941D01*
X462951Y458325D01*
X459000D01*
X458493Y458225D01*
X458063Y457937D01*
X417910Y417784D01*
X416830Y418118D01*
X416777Y418402D01*
X484441Y486067D01*
X484551Y486003D01*
X485506Y485747D01*
X486494D01*
X487449Y486003D01*
X488304Y486497D01*
X489003Y487196D01*
X489497Y488052D01*
X489753Y489006D01*
Y489994D01*
X489497Y490948D01*
X489003Y491804D01*
X488304Y492503D01*
X487449Y492997D01*
X486494Y493253D01*
X485506D01*
X484551Y492997D01*
X483696Y492503D01*
X482997Y491804D01*
X482503Y490948D01*
X482247Y489994D01*
Y489006D01*
X482503Y488052D01*
X482567Y487941D01*
X414063Y419437D01*
X413775Y419007D01*
X413674Y418500D01*
Y311000D01*
X413775Y310493D01*
X414063Y310063D01*
X428909Y295216D01*
X428700Y294434D01*
Y293566D01*
X428925Y292726D01*
X429359Y291974D01*
X429974Y291359D01*
X430726Y290925D01*
X431566Y290700D01*
X432435D01*
X433274Y290925D01*
X434026Y291359D01*
X434641Y291974D01*
X434675Y292032D01*
X435674Y291764D01*
Y290549D01*
X433216Y288091D01*
X432435Y288300D01*
X431566D01*
X430726Y288075D01*
X429974Y287641D01*
X429359Y287026D01*
X428925Y286274D01*
X428700Y285435D01*
Y284565D01*
X428925Y283726D01*
X429359Y282974D01*
X429974Y282359D01*
X430726Y281925D01*
X431566Y281700D01*
X432435D01*
X433274Y281925D01*
X434026Y282359D01*
X434641Y282974D01*
X435075Y283726D01*
X435300Y284565D01*
Y285435D01*
X435091Y286216D01*
X437937Y289063D01*
X438225Y289493D01*
X438326Y290000D01*
Y297000D01*
X438225Y297507D01*
X437937Y297937D01*
X418326Y317549D01*
Y370428D01*
X419325Y370800D01*
X431674Y358451D01*
Y354045D01*
X430974Y353641D01*
X430359Y353026D01*
X429925Y352274D01*
X429700Y351434D01*
Y350566D01*
X429925Y349726D01*
X430359Y348974D01*
X430974Y348359D01*
X431726Y347925D01*
X432565Y347700D01*
X433434D01*
X434274Y347925D01*
X435026Y348359D01*
X435641Y348974D01*
X436075Y349726D01*
X436300Y350566D01*
Y351434D01*
X436075Y352274D01*
X435641Y353026D01*
X435026Y353641D01*
X434326Y354045D01*
Y359000D01*
X434225Y359507D01*
X433937Y359937D01*
X421413Y372462D01*
X421510Y373354D01*
X422413Y373712D01*
X437675Y358451D01*
Y346549D01*
X434216Y343091D01*
X433434Y343300D01*
X432565D01*
X431726Y343075D01*
X430974Y342641D01*
X430359Y342026D01*
X429925Y341274D01*
X429700Y340435D01*
Y339565D01*
X429925Y338726D01*
X430359Y337974D01*
X430974Y337359D01*
X431726Y336925D01*
X432565Y336700D01*
X433434D01*
X434274Y336925D01*
X435026Y337359D01*
X435641Y337974D01*
X436075Y338726D01*
X436300Y339565D01*
Y340435D01*
X436091Y341216D01*
X439937Y345063D01*
X440225Y345493D01*
X440325Y346000D01*
Y359000D01*
X440225Y359507D01*
X439937Y359937D01*
X424025Y375849D01*
Y393964D01*
X425026Y394541D01*
X425226Y394425D01*
X426065Y394200D01*
X426934D01*
X427774Y394425D01*
X428526Y394859D01*
X429141Y395474D01*
X429575Y396226D01*
X429800Y397065D01*
Y397934D01*
X430368Y398675D01*
X446500D01*
X447007Y398775D01*
X447437Y399063D01*
X534122Y485747D01*
X539753D01*
Y493253D01*
D02*
G37*
G36*
X575000Y420816D02*
X476000D01*
X475688Y420754D01*
X475423Y420577D01*
X475246Y420312D01*
X475184Y420000D01*
Y405000D01*
X475246Y404688D01*
X475372Y404500D01*
X475246Y404312D01*
X475184Y404000D01*
Y388000D01*
X475246Y387688D01*
X475423Y387423D01*
X475688Y387246D01*
X476000Y387184D01*
X507886D01*
X507959Y387167D01*
X508330Y386168D01*
X508321Y386095D01*
X507573Y385663D01*
X506837Y384927D01*
X506317Y384026D01*
X506047Y383020D01*
Y383000D01*
X510000D01*
X513953D01*
Y383020D01*
X513683Y384026D01*
X513163Y384927D01*
X512427Y385663D01*
X511679Y386095D01*
X511670Y386168D01*
X512041Y387167D01*
X512114Y387184D01*
X575000D01*
X575312Y387246D01*
X575577Y387423D01*
X575754Y387688D01*
X575816Y388000D01*
Y404000D01*
X575754Y404312D01*
X575628Y404500D01*
X575754Y404688D01*
X575816Y405000D01*
Y420000D01*
X575754Y420312D01*
X575577Y420577D01*
X575312Y420754D01*
X575000Y420816D01*
D02*
G37*
G36*
X470500Y383347D02*
Y380500D01*
X473347D01*
X473133Y381298D01*
X472690Y382064D01*
X472064Y382690D01*
X471298Y383133D01*
X470500Y383347D01*
D02*
G37*
G36*
X469500D02*
X468702Y383133D01*
X467936Y382690D01*
X467310Y382064D01*
X466867Y381298D01*
X466653Y380500D01*
X469500D01*
Y383347D01*
D02*
G37*
G36*
X513953Y382000D02*
X510500D01*
Y378547D01*
X510520D01*
X511526Y378817D01*
X512427Y379337D01*
X513163Y380073D01*
X513683Y380974D01*
X513953Y381980D01*
Y382000D01*
D02*
G37*
G36*
X509500D02*
X506047D01*
Y381980D01*
X506317Y380974D01*
X506837Y380073D01*
X507573Y379337D01*
X508474Y378817D01*
X509480Y378547D01*
X509500D01*
Y382000D01*
D02*
G37*
G36*
X440416Y383162D02*
X439584D01*
X438779Y382947D01*
X438058Y382530D01*
X437470Y381942D01*
X437053Y381221D01*
X436838Y380416D01*
Y379584D01*
X437053Y378779D01*
X437470Y378058D01*
X438058Y377470D01*
X438779Y377053D01*
X439584Y376838D01*
X440416D01*
X441221Y377053D01*
X441942Y377470D01*
X442530Y378058D01*
X442947Y378779D01*
X443162Y379584D01*
Y380416D01*
X442947Y381221D01*
X442530Y381942D01*
X441942Y382530D01*
X441221Y382947D01*
X440416Y383162D01*
D02*
G37*
G36*
X473347Y379500D02*
X470500D01*
Y376653D01*
X471298Y376867D01*
X472064Y377310D01*
X472690Y377936D01*
X473133Y378702D01*
X473347Y379500D01*
D02*
G37*
G36*
X469500D02*
X466653D01*
X466867Y378702D01*
X467310Y377936D01*
X467936Y377310D01*
X468702Y376867D01*
X469500Y376653D01*
Y379500D01*
D02*
G37*
G36*
X287968Y383556D02*
X287032D01*
X286127Y383314D01*
X285317Y382845D01*
X284655Y382183D01*
X284186Y381372D01*
X283944Y380468D01*
Y379532D01*
X284186Y378627D01*
X284655Y377817D01*
X285317Y377155D01*
X286127Y376686D01*
X287032Y376444D01*
X287968D01*
X288873Y376686D01*
X289683Y377155D01*
X290345Y377817D01*
X290814Y378627D01*
X291056Y379532D01*
Y380468D01*
X290814Y381372D01*
X290345Y382183D01*
X289683Y382845D01*
X288873Y383314D01*
X287968Y383556D01*
D02*
G37*
G36*
X150520Y374953D02*
X150500D01*
Y371500D01*
X153953D01*
Y371520D01*
X153683Y372526D01*
X153163Y373427D01*
X152427Y374163D01*
X151526Y374683D01*
X150520Y374953D01*
D02*
G37*
G36*
X149500D02*
X149480D01*
X148474Y374683D01*
X147573Y374163D01*
X146837Y373427D01*
X146317Y372526D01*
X146047Y371520D01*
Y371500D01*
X149500D01*
Y374953D01*
D02*
G37*
G36*
X255468Y378556D02*
X254532D01*
X253627Y378314D01*
X252817Y377845D01*
X252155Y377183D01*
X251686Y376373D01*
X251444Y375468D01*
Y374532D01*
X251686Y373627D01*
X252155Y372817D01*
X252817Y372155D01*
X253627Y371686D01*
X254532Y371444D01*
X255468D01*
X256372Y371686D01*
X257183Y372155D01*
X257845Y372817D01*
X258314Y373627D01*
X258556Y374532D01*
Y375468D01*
X258314Y376373D01*
X257845Y377183D01*
X257183Y377845D01*
X256372Y378314D01*
X255468Y378556D01*
D02*
G37*
G36*
X140494Y374753D02*
X139506D01*
X138551Y374497D01*
X137696Y374003D01*
X136997Y373304D01*
X136503Y372448D01*
X136247Y371494D01*
Y370506D01*
X136503Y369551D01*
X136997Y368696D01*
X137696Y367997D01*
X138551Y367503D01*
X139506Y367247D01*
X140494D01*
X141448Y367503D01*
X142304Y367997D01*
X143003Y368696D01*
X143497Y369551D01*
X143753Y370506D01*
Y371494D01*
X143497Y372448D01*
X143003Y373304D01*
X142304Y374003D01*
X141448Y374497D01*
X140494Y374753D01*
D02*
G37*
G36*
X153953Y370500D02*
X150500D01*
Y367047D01*
X150520D01*
X151526Y367317D01*
X152427Y367837D01*
X153163Y368573D01*
X153683Y369474D01*
X153953Y370480D01*
Y370500D01*
D02*
G37*
G36*
X149500D02*
X146047D01*
Y370480D01*
X146317Y369474D01*
X146837Y368573D01*
X147573Y367837D01*
X148474Y367317D01*
X149480Y367047D01*
X149500D01*
Y370500D01*
D02*
G37*
G36*
X300566Y371800D02*
X299434D01*
X298340Y371507D01*
X297360Y370941D01*
X296559Y370140D01*
X295993Y369160D01*
X295700Y368066D01*
Y366934D01*
X295993Y365840D01*
X296559Y364860D01*
X297360Y364059D01*
X298340Y363493D01*
X299434Y363200D01*
X300566D01*
X301660Y363493D01*
X302640Y364059D01*
X303441Y364860D01*
X304007Y365840D01*
X304300Y366934D01*
Y368066D01*
X304007Y369160D01*
X303441Y370140D01*
X302640Y370941D01*
X301660Y371507D01*
X300566Y371800D01*
D02*
G37*
G36*
Y361800D02*
X299434D01*
X298340Y361507D01*
X297360Y360941D01*
X296559Y360140D01*
X295993Y359160D01*
X295700Y358066D01*
Y356934D01*
X295993Y355840D01*
X296166Y355541D01*
X274063Y333437D01*
X273775Y333007D01*
X273675Y332500D01*
Y304045D01*
X272974Y303641D01*
X272359Y303026D01*
X271925Y302274D01*
X271700Y301434D01*
Y300566D01*
X271925Y299726D01*
X272359Y298974D01*
X272974Y298359D01*
X273726Y297925D01*
X274566Y297700D01*
X275434D01*
X276274Y297925D01*
X277026Y298359D01*
X277641Y298974D01*
X278075Y299726D01*
X278300Y300566D01*
Y301434D01*
X278075Y302274D01*
X277641Y303026D01*
X277026Y303641D01*
X276325Y304045D01*
Y331951D01*
X298041Y353666D01*
X298340Y353493D01*
X299434Y353200D01*
X300566D01*
X301660Y353493D01*
X302640Y354059D01*
X303441Y354860D01*
X304007Y355840D01*
X304300Y356934D01*
Y358066D01*
X304007Y359160D01*
X303441Y360140D01*
X302640Y360941D01*
X301660Y361507D01*
X300566Y361800D01*
D02*
G37*
G36*
X160000Y351347D02*
Y348500D01*
X162847D01*
X162633Y349298D01*
X162190Y350064D01*
X161564Y350690D01*
X160798Y351133D01*
X160000Y351347D01*
D02*
G37*
G36*
X159000D02*
X158202Y351133D01*
X157436Y350690D01*
X156810Y350064D01*
X156367Y349298D01*
X156153Y348500D01*
X159000D01*
Y351347D01*
D02*
G37*
G36*
X129916Y351162D02*
X129084D01*
X128279Y350947D01*
X127558Y350530D01*
X126970Y349942D01*
X126553Y349221D01*
X126338Y348416D01*
Y347584D01*
X126553Y346779D01*
X126970Y346058D01*
X127558Y345470D01*
X128279Y345053D01*
X129084Y344838D01*
X129916D01*
X130721Y345053D01*
X131442Y345470D01*
X132030Y346058D01*
X132447Y346779D01*
X132662Y347584D01*
Y348416D01*
X132447Y349221D01*
X132030Y349942D01*
X131442Y350530D01*
X130721Y350947D01*
X129916Y351162D01*
D02*
G37*
G36*
X162847Y347500D02*
X160000D01*
Y344653D01*
X160798Y344867D01*
X161564Y345310D01*
X162190Y345936D01*
X162633Y346702D01*
X162847Y347500D01*
D02*
G37*
G36*
X159000D02*
X156153D01*
X156367Y346702D01*
X156810Y345936D01*
X157436Y345310D01*
X158202Y344867D01*
X159000Y344653D01*
Y347500D01*
D02*
G37*
G36*
X576000Y361816D02*
X473000D01*
X472688Y361754D01*
X472423Y361577D01*
X472246Y361312D01*
X472184Y361000D01*
Y347000D01*
X472246Y346688D01*
X472372Y346500D01*
X472246Y346312D01*
X472184Y346000D01*
Y332000D01*
X472246Y331688D01*
X472423Y331423D01*
X472688Y331246D01*
X473000Y331184D01*
X505955D01*
X506060Y331205D01*
X506167Y331212D01*
X506215Y331236D01*
X506267Y331246D01*
X506356Y331306D01*
X506452Y331353D01*
X506550Y331427D01*
X507083Y331537D01*
X507628Y331565D01*
X507696Y331497D01*
X508552Y331003D01*
X509506Y330747D01*
X510494D01*
X511448Y331003D01*
X512304Y331497D01*
X512372Y331565D01*
X512917Y331537D01*
X513450Y331427D01*
X513548Y331353D01*
X513644Y331306D01*
X513732Y331246D01*
X513785Y331236D01*
X513834Y331212D01*
X513940Y331205D01*
X514045Y331184D01*
X576000D01*
X576312Y331246D01*
X576577Y331423D01*
X576754Y331688D01*
X576816Y332000D01*
Y346000D01*
X576754Y346312D01*
X576628Y346500D01*
X576754Y346688D01*
X576816Y347000D01*
Y361000D01*
X576754Y361312D01*
X576577Y361577D01*
X576312Y361754D01*
X576000Y361816D01*
D02*
G37*
G36*
X255468Y348556D02*
X254532D01*
X253627Y348314D01*
X252817Y347845D01*
X252155Y347183D01*
X251686Y346373D01*
X251444Y345468D01*
Y344532D01*
X251686Y343628D01*
X252155Y342817D01*
X252817Y342155D01*
X253627Y341686D01*
X254532Y341444D01*
X255468D01*
X256372Y341686D01*
X256415Y341711D01*
X258675Y339451D01*
Y329506D01*
X257751Y329124D01*
X242937Y343937D01*
X242507Y344225D01*
X242000Y344325D01*
X240045D01*
X239641Y345026D01*
X239026Y345641D01*
X238274Y346075D01*
X237435Y346300D01*
X236565D01*
X235726Y346075D01*
X234974Y345641D01*
X234359Y345026D01*
X233925Y344274D01*
X233700Y343435D01*
Y342565D01*
X233925Y341726D01*
X234359Y340974D01*
X234974Y340359D01*
X235726Y339925D01*
X236565Y339700D01*
X237435D01*
X238274Y339925D01*
X239026Y340359D01*
X239641Y340974D01*
X240045Y341674D01*
X241451D01*
X256675Y326451D01*
Y294235D01*
X255675Y293968D01*
X255641Y294026D01*
X255026Y294641D01*
X254274Y295075D01*
X253434Y295300D01*
X252602D01*
X248965Y298937D01*
X248535Y299225D01*
X248027Y299325D01*
X241549D01*
X238437Y302437D01*
X238007Y302725D01*
X237500Y302825D01*
X230049D01*
X214300Y318575D01*
Y318934D01*
X214075Y319774D01*
X213641Y320526D01*
X213026Y321141D01*
X212274Y321575D01*
X211435Y321800D01*
X210565D01*
X209726Y321575D01*
X208974Y321141D01*
X208359Y320526D01*
X207925Y319774D01*
X207700Y318934D01*
Y318066D01*
X207925Y317226D01*
X208359Y316474D01*
X208974Y315859D01*
X209726Y315425D01*
X210565Y315200D01*
X211435D01*
X212274Y315425D01*
X213026Y315859D01*
X213146Y315979D01*
X228563Y300563D01*
X228993Y300275D01*
X229500Y300174D01*
X236951D01*
X240063Y297063D01*
X240493Y296775D01*
X241000Y296674D01*
X247479D01*
X250274Y293879D01*
X249925Y293274D01*
X249700Y292435D01*
Y291565D01*
X249925Y290726D01*
X250359Y289974D01*
X250974Y289359D01*
X251190Y289235D01*
X251048Y288161D01*
X250726Y288075D01*
X249974Y287641D01*
X249359Y287026D01*
X248925Y286274D01*
X248700Y285435D01*
Y284565D01*
X248925Y283726D01*
X249359Y282974D01*
X249508Y282825D01*
X249093Y281825D01*
X242545D01*
X242141Y282526D01*
X241526Y283141D01*
X240774Y283575D01*
X239934Y283800D01*
X239066D01*
X238226Y283575D01*
X237474Y283141D01*
X236859Y282526D01*
X236425Y281774D01*
X236200Y280935D01*
Y280065D01*
X236425Y279226D01*
X236859Y278474D01*
X237474Y277859D01*
X238226Y277425D01*
X239066Y277200D01*
X239934D01*
X240774Y277425D01*
X241526Y277859D01*
X242141Y278474D01*
X242181Y278469D01*
X242548Y277422D01*
X236951Y271826D01*
X217000D01*
X216493Y271725D01*
X216063Y271437D01*
X198415Y253789D01*
X198372Y253814D01*
X197468Y254056D01*
X196532D01*
X195627Y253814D01*
X194817Y253345D01*
X194155Y252683D01*
X193686Y251872D01*
X193444Y250968D01*
Y250032D01*
X193686Y249128D01*
X194155Y248317D01*
X194817Y247655D01*
X195627Y247186D01*
X196532Y246944D01*
X197468D01*
X198372Y247186D01*
X199183Y247655D01*
X199845Y248317D01*
X200314Y249128D01*
X200556Y250032D01*
Y250968D01*
X200314Y251872D01*
X200289Y251915D01*
X217549Y269175D01*
X237500D01*
X238007Y269275D01*
X238437Y269563D01*
X245549Y276675D01*
X259000D01*
X259507Y276775D01*
X259937Y277063D01*
X268937Y286063D01*
X269225Y286493D01*
X269325Y287000D01*
Y306414D01*
X269225Y306921D01*
X268937Y307351D01*
X268887Y307401D01*
X269075Y307726D01*
X269300Y308565D01*
Y309435D01*
X269075Y310274D01*
X268641Y311026D01*
X268026Y311641D01*
X267274Y312075D01*
X266435Y312300D01*
X265565D01*
X264726Y312075D01*
X263974Y311641D01*
X263359Y311026D01*
X262925Y310274D01*
X262700Y309435D01*
Y308565D01*
X262925Y307726D01*
X263359Y306974D01*
X263974Y306359D01*
X264726Y305925D01*
X265565Y305700D01*
X266434D01*
X266674Y305516D01*
Y287549D01*
X264043Y284917D01*
X263225Y285493D01*
X263326Y286000D01*
Y304000D01*
X263225Y304507D01*
X262937Y304937D01*
X261326Y306549D01*
Y340000D01*
X261225Y340507D01*
X260937Y340937D01*
X258289Y343585D01*
X258314Y343628D01*
X258556Y344532D01*
Y345468D01*
X258314Y346373D01*
X257845Y347183D01*
X257183Y347845D01*
X256372Y348314D01*
X255468Y348556D01*
D02*
G37*
G36*
X315468Y336056D02*
X314532D01*
X313628Y335814D01*
X312817Y335345D01*
X312155Y334683D01*
X311686Y333873D01*
X311444Y332968D01*
Y332032D01*
X311686Y331128D01*
X312155Y330317D01*
X312817Y329655D01*
X313628Y329186D01*
X314532Y328944D01*
X315468D01*
X316372Y329186D01*
X317183Y329655D01*
X317845Y330317D01*
X318314Y331128D01*
X318556Y332032D01*
Y332968D01*
X318314Y333873D01*
X317845Y334683D01*
X317183Y335345D01*
X316372Y335814D01*
X315468Y336056D01*
D02*
G37*
G36*
X510520Y328453D02*
X510500D01*
Y325000D01*
X513953D01*
Y325020D01*
X513683Y326026D01*
X513163Y326927D01*
X512427Y327663D01*
X511526Y328183D01*
X510520Y328453D01*
D02*
G37*
G36*
X509500D02*
X509480D01*
X508474Y328183D01*
X507573Y327663D01*
X506837Y326927D01*
X506317Y326026D01*
X506047Y325020D01*
Y325000D01*
X509500D01*
Y328453D01*
D02*
G37*
G36*
X473000Y325847D02*
Y323000D01*
X475847D01*
X475633Y323798D01*
X475190Y324564D01*
X474564Y325190D01*
X473798Y325633D01*
X473000Y325847D01*
D02*
G37*
G36*
X472000D02*
X471202Y325633D01*
X470436Y325190D01*
X469810Y324564D01*
X469367Y323798D01*
X469153Y323000D01*
X472000D01*
Y325847D01*
D02*
G37*
G36*
X513953Y324000D02*
X510500D01*
Y320547D01*
X510520D01*
X511526Y320817D01*
X512427Y321337D01*
X513163Y322073D01*
X513683Y322974D01*
X513953Y323980D01*
Y324000D01*
D02*
G37*
G36*
X509500D02*
X506047D01*
Y323980D01*
X506317Y322974D01*
X506837Y322073D01*
X507573Y321337D01*
X508474Y320817D01*
X509480Y320547D01*
X509500D01*
Y324000D01*
D02*
G37*
G36*
X442916Y325662D02*
X442084D01*
X441279Y325447D01*
X440558Y325030D01*
X439970Y324442D01*
X439553Y323721D01*
X439338Y322916D01*
Y322084D01*
X439553Y321279D01*
X439970Y320558D01*
X440558Y319970D01*
X441279Y319553D01*
X442084Y319338D01*
X442916D01*
X443721Y319553D01*
X444442Y319970D01*
X445030Y320558D01*
X445447Y321279D01*
X445662Y322084D01*
Y322916D01*
X445447Y323721D01*
X445030Y324442D01*
X444442Y325030D01*
X443721Y325447D01*
X442916Y325662D01*
D02*
G37*
G36*
X475847Y322000D02*
X473000D01*
Y319153D01*
X473798Y319367D01*
X474564Y319810D01*
X475190Y320436D01*
X475633Y321202D01*
X475847Y322000D01*
D02*
G37*
G36*
X472000D02*
X469153D01*
X469367Y321202D01*
X469810Y320436D01*
X470436Y319810D01*
X471202Y319367D01*
X472000Y319153D01*
Y322000D01*
D02*
G37*
G36*
X298066Y324300D02*
X296934D01*
X295840Y324007D01*
X294860Y323441D01*
X294059Y322640D01*
X293493Y321660D01*
X293200Y320566D01*
Y319434D01*
X293493Y318340D01*
X294059Y317360D01*
X294860Y316559D01*
X295840Y315993D01*
X296934Y315700D01*
X298066D01*
X299160Y315993D01*
X300140Y316559D01*
X300941Y317360D01*
X301507Y318340D01*
X301800Y319434D01*
Y320566D01*
X301507Y321660D01*
X300941Y322640D01*
X300140Y323441D01*
X299160Y324007D01*
X298066Y324300D01*
D02*
G37*
G36*
X229500Y315490D02*
Y312500D01*
X232489D01*
X232261Y313351D01*
X231801Y314149D01*
X231149Y314801D01*
X230351Y315262D01*
X229500Y315490D01*
D02*
G37*
G36*
X228500D02*
X227649Y315262D01*
X226851Y314801D01*
X226199Y314149D01*
X225739Y313351D01*
X225511Y312500D01*
X228500D01*
Y315490D01*
D02*
G37*
G36*
X232489Y311500D02*
X229500D01*
Y308510D01*
X230351Y308738D01*
X231149Y309199D01*
X231801Y309851D01*
X232261Y310649D01*
X232489Y311500D01*
D02*
G37*
G36*
X228500D02*
X225511D01*
X225739Y310649D01*
X226199Y309851D01*
X226851Y309199D01*
X227649Y308738D01*
X228500Y308510D01*
Y311500D01*
D02*
G37*
G36*
X298066Y314300D02*
X296934D01*
X295840Y314007D01*
X294860Y313441D01*
X294059Y312640D01*
X293493Y311660D01*
X293200Y310566D01*
Y309434D01*
X293493Y308340D01*
X293666Y308041D01*
X279661Y294035D01*
X278641Y294026D01*
X278026Y294641D01*
X277274Y295075D01*
X276434Y295300D01*
X275566D01*
X274726Y295075D01*
X273974Y294641D01*
X273359Y294026D01*
X272925Y293274D01*
X272700Y292435D01*
Y291565D01*
X272925Y290726D01*
X273359Y289974D01*
X273974Y289359D01*
X274726Y288925D01*
X275566Y288700D01*
X276434D01*
X277274Y288925D01*
X278026Y289359D01*
X278641Y289974D01*
X279075Y290726D01*
X279195Y291175D01*
X280000D01*
X280507Y291275D01*
X280937Y291563D01*
X295541Y306166D01*
X295840Y305993D01*
X296934Y305700D01*
X298066D01*
X299160Y305993D01*
X300140Y306559D01*
X300941Y307360D01*
X301507Y308340D01*
X301800Y309434D01*
Y310566D01*
X301507Y311660D01*
X300941Y312640D01*
X300140Y313441D01*
X299160Y314007D01*
X298066Y314300D01*
D02*
G37*
G36*
X295468Y288556D02*
X294532D01*
X293628Y288314D01*
X292817Y287845D01*
X292155Y287183D01*
X291686Y286372D01*
X291444Y285468D01*
Y284532D01*
X291686Y283628D01*
X291711Y283585D01*
X238649Y230524D01*
X238362Y230094D01*
X238261Y229587D01*
Y211312D01*
X233275D01*
Y198688D01*
X245898D01*
Y211312D01*
X240912D01*
Y229038D01*
X293585Y281711D01*
X293628Y281686D01*
X294532Y281444D01*
X295468D01*
X296373Y281686D01*
X297183Y282155D01*
X297845Y282817D01*
X298314Y283628D01*
X298556Y284532D01*
Y285468D01*
X298314Y286372D01*
X297845Y287183D01*
X297183Y287845D01*
X296373Y288314D01*
X295468Y288556D01*
D02*
G37*
G36*
X576000Y307816D02*
X473000D01*
X472688Y307754D01*
X472423Y307577D01*
X472246Y307312D01*
X472184Y307000D01*
Y293000D01*
X472246Y292688D01*
X472372Y292500D01*
X472246Y292312D01*
X472184Y292000D01*
Y278000D01*
X472246Y277688D01*
X472423Y277423D01*
X472688Y277246D01*
X473000Y277184D01*
X506386D01*
X506535Y277214D01*
X506685Y277241D01*
X506691Y277245D01*
X506698Y277246D01*
X506825Y277331D01*
X506952Y277413D01*
X506976Y277433D01*
X507286Y277676D01*
X508231Y277688D01*
X508552Y277503D01*
X509506Y277247D01*
X510494D01*
X511448Y277503D01*
X511769Y277688D01*
X512714Y277676D01*
X513024Y277433D01*
X513048Y277413D01*
X513175Y277331D01*
X513302Y277246D01*
X513309Y277245D01*
X513315Y277241D01*
X513465Y277214D01*
X513614Y277184D01*
X576000D01*
X576312Y277246D01*
X576577Y277423D01*
X576754Y277688D01*
X576816Y278000D01*
Y292000D01*
X576754Y292312D01*
X576628Y292500D01*
X576754Y292688D01*
X576816Y293000D01*
Y307000D01*
X576754Y307312D01*
X576577Y307577D01*
X576312Y307754D01*
X576000Y307816D01*
D02*
G37*
G36*
X184994Y284253D02*
X184006D01*
X183052Y283997D01*
X182196Y283503D01*
X181497Y282804D01*
X181003Y281948D01*
X180747Y280994D01*
Y280006D01*
X181003Y279051D01*
X181497Y278196D01*
X182196Y277497D01*
X183052Y277003D01*
X184006Y276747D01*
X184994D01*
X185949Y277003D01*
X186804Y277497D01*
X187503Y278196D01*
X187997Y279051D01*
X188253Y280006D01*
Y280994D01*
X187997Y281948D01*
X187503Y282804D01*
X186804Y283503D01*
X185949Y283997D01*
X184994Y284253D01*
D02*
G37*
G36*
X510520Y274953D02*
X510500D01*
Y271500D01*
X513953D01*
Y271520D01*
X513683Y272526D01*
X513163Y273427D01*
X512427Y274163D01*
X511526Y274683D01*
X510520Y274953D01*
D02*
G37*
G36*
X509500D02*
X509480D01*
X508474Y274683D01*
X507573Y274163D01*
X506837Y273427D01*
X506317Y272526D01*
X506047Y271520D01*
Y271500D01*
X509500D01*
Y274953D01*
D02*
G37*
G36*
X185020Y274453D02*
X185000D01*
Y271000D01*
X188453D01*
Y271020D01*
X188183Y272026D01*
X187663Y272927D01*
X186927Y273663D01*
X186026Y274183D01*
X185020Y274453D01*
D02*
G37*
G36*
X184000D02*
X183980D01*
X182974Y274183D01*
X182073Y273663D01*
X181337Y272927D01*
X180817Y272026D01*
X180547Y271020D01*
Y271000D01*
X184000D01*
Y274453D01*
D02*
G37*
G36*
X298066Y276800D02*
X296934D01*
X295840Y276507D01*
X294860Y275941D01*
X294059Y275140D01*
X293493Y274160D01*
X293200Y273066D01*
Y271934D01*
X293493Y270840D01*
X294059Y269860D01*
X294860Y269059D01*
X295840Y268493D01*
X296934Y268200D01*
X298066D01*
X299160Y268493D01*
X300140Y269059D01*
X300941Y269860D01*
X301507Y270840D01*
X301800Y271934D01*
Y273066D01*
X301507Y274160D01*
X300941Y275140D01*
X300140Y275941D01*
X299160Y276507D01*
X298066Y276800D01*
D02*
G37*
G36*
X473500Y270347D02*
Y267500D01*
X476347D01*
X476133Y268298D01*
X475690Y269064D01*
X475064Y269690D01*
X474298Y270133D01*
X473500Y270347D01*
D02*
G37*
G36*
X472500D02*
X471702Y270133D01*
X470936Y269690D01*
X470310Y269064D01*
X469867Y268298D01*
X469653Y267500D01*
X472500D01*
Y270347D01*
D02*
G37*
G36*
X513953Y270500D02*
X510500D01*
Y267047D01*
X510520D01*
X511526Y267317D01*
X512427Y267837D01*
X513163Y268573D01*
X513683Y269474D01*
X513953Y270480D01*
Y270500D01*
D02*
G37*
G36*
X509500D02*
X506047D01*
Y270480D01*
X506317Y269474D01*
X506837Y268573D01*
X507573Y267837D01*
X508474Y267317D01*
X509480Y267047D01*
X509500D01*
Y270500D01*
D02*
G37*
G36*
X188453Y270000D02*
X185000D01*
Y266547D01*
X185020D01*
X186026Y266817D01*
X186927Y267337D01*
X187663Y268073D01*
X188183Y268974D01*
X188453Y269980D01*
Y270000D01*
D02*
G37*
G36*
X184000D02*
X180547D01*
Y269980D01*
X180817Y268974D01*
X181337Y268073D01*
X182073Y267337D01*
X182974Y266817D01*
X183980Y266547D01*
X184000D01*
Y270000D01*
D02*
G37*
G36*
X443416Y270162D02*
X442584D01*
X441779Y269947D01*
X441058Y269530D01*
X440470Y268942D01*
X440053Y268221D01*
X439838Y267416D01*
Y266584D01*
X440053Y265779D01*
X440470Y265058D01*
X441058Y264470D01*
X441779Y264053D01*
X442584Y263838D01*
X443416D01*
X444221Y264053D01*
X444942Y264470D01*
X445530Y265058D01*
X445947Y265779D01*
X446162Y266584D01*
Y267416D01*
X445947Y268221D01*
X445530Y268942D01*
X444942Y269530D01*
X444221Y269947D01*
X443416Y270162D01*
D02*
G37*
G36*
X476347Y266500D02*
X473500D01*
Y263653D01*
X474298Y263867D01*
X475064Y264310D01*
X475690Y264936D01*
X476133Y265702D01*
X476347Y266500D01*
D02*
G37*
G36*
X472500D02*
X469653D01*
X469867Y265702D01*
X470310Y264936D01*
X470936Y264310D01*
X471702Y263867D01*
X472500Y263653D01*
Y266500D01*
D02*
G37*
G36*
X298092Y267000D02*
X298000D01*
Y263000D01*
X302000D01*
Y263092D01*
X301693Y264237D01*
X301101Y265263D01*
X300263Y266101D01*
X299237Y266693D01*
X298092Y267000D01*
D02*
G37*
G36*
X297000D02*
X296908D01*
X295763Y266693D01*
X294737Y266101D01*
X293899Y265263D01*
X293307Y264237D01*
X293000Y263092D01*
Y263000D01*
X297000D01*
Y267000D01*
D02*
G37*
G36*
X302000Y262000D02*
X298000D01*
Y258000D01*
X298092D01*
X299237Y258307D01*
X300263Y258899D01*
X301101Y259737D01*
X301693Y260763D01*
X302000Y261908D01*
Y262000D01*
D02*
G37*
G36*
X297000D02*
X293000D01*
Y261908D01*
X293307Y260763D01*
X293899Y259737D01*
X294737Y258899D01*
X295763Y258307D01*
X296908Y258000D01*
X297000D01*
Y262000D01*
D02*
G37*
G36*
X158000Y254254D02*
Y251000D01*
X161254D01*
X161000Y251950D01*
X160505Y252806D01*
X159806Y253505D01*
X158950Y254000D01*
X158000Y254254D01*
D02*
G37*
G36*
X157000D02*
X156050Y254000D01*
X155194Y253505D01*
X154495Y252806D01*
X154000Y251950D01*
X153746Y251000D01*
X157000D01*
Y254254D01*
D02*
G37*
G36*
X227468Y254056D02*
X226532D01*
X225627Y253814D01*
X224817Y253345D01*
X224155Y252683D01*
X223686Y251872D01*
X223444Y250968D01*
Y250032D01*
X223686Y249128D01*
X224155Y248317D01*
X224817Y247655D01*
X225627Y247186D01*
X226532Y246944D01*
X227468D01*
X228373Y247186D01*
X229183Y247655D01*
X229845Y248317D01*
X230314Y249128D01*
X230556Y250032D01*
Y250968D01*
X230314Y251872D01*
X229845Y252683D01*
X229183Y253345D01*
X228373Y253814D01*
X227468Y254056D01*
D02*
G37*
G36*
X187968D02*
X187032D01*
X186127Y253814D01*
X185317Y253345D01*
X184655Y252683D01*
X184186Y251872D01*
X183944Y250968D01*
Y250032D01*
X184186Y249128D01*
X184655Y248317D01*
X185317Y247655D01*
X186127Y247186D01*
X187032Y246944D01*
X187968D01*
X188873Y247186D01*
X189683Y247655D01*
X190345Y248317D01*
X190814Y249128D01*
X191056Y250032D01*
Y250968D01*
X190814Y251872D01*
X190345Y252683D01*
X189683Y253345D01*
X188873Y253814D01*
X187968Y254056D01*
D02*
G37*
G36*
X161254Y250000D02*
X158000D01*
Y246746D01*
X158950Y247000D01*
X159806Y247495D01*
X160505Y248194D01*
X161000Y249050D01*
X161254Y250000D01*
D02*
G37*
G36*
X157000D02*
X153746D01*
X154000Y249050D01*
X154495Y248194D01*
X155194Y247495D01*
X156050Y247000D01*
X157000Y246746D01*
Y250000D01*
D02*
G37*
G36*
X576663Y252389D02*
X473663D01*
X473351Y252326D01*
X473086Y252150D01*
X472909Y251885D01*
X472847Y251573D01*
Y237573D01*
X472909Y237261D01*
X473035Y237073D01*
X472909Y236885D01*
X472847Y236573D01*
Y222573D01*
X472909Y222261D01*
X473086Y221996D01*
X473351Y221819D01*
X473663Y221757D01*
X504706D01*
X505018Y221819D01*
X505282Y221996D01*
X505459Y222261D01*
X505461Y222265D01*
X506408Y222586D01*
X506552Y222503D01*
X507506Y222247D01*
X508494D01*
X509448Y222503D01*
X509592Y222586D01*
X510539Y222265D01*
X510541Y222261D01*
X510718Y221996D01*
X510982Y221819D01*
X511294Y221757D01*
X576663D01*
X576975Y221819D01*
X577240Y221996D01*
X577417Y222261D01*
X577479Y222573D01*
Y236573D01*
X577417Y236885D01*
X577291Y237073D01*
X577417Y237261D01*
X577479Y237573D01*
Y251573D01*
X577417Y251885D01*
X577240Y252150D01*
X576975Y252326D01*
X576663Y252389D01*
D02*
G37*
G36*
X508520Y219953D02*
X508500D01*
Y216500D01*
X511953D01*
Y216520D01*
X511683Y217526D01*
X511163Y218427D01*
X510427Y219163D01*
X509526Y219683D01*
X508520Y219953D01*
D02*
G37*
G36*
X507500D02*
X507480D01*
X506474Y219683D01*
X505573Y219163D01*
X504837Y218427D01*
X504317Y217526D01*
X504047Y216520D01*
Y216500D01*
X507500D01*
Y219953D01*
D02*
G37*
G36*
X511953Y215500D02*
X508500D01*
Y212047D01*
X508520D01*
X509526Y212317D01*
X510427Y212837D01*
X511163Y213573D01*
X511683Y214474D01*
X511953Y215480D01*
Y215500D01*
D02*
G37*
G36*
X507500D02*
X504047D01*
Y215480D01*
X504317Y214474D01*
X504837Y213573D01*
X505573Y212837D01*
X506474Y212317D01*
X507480Y212047D01*
X507500D01*
Y215500D01*
D02*
G37*
G36*
X475500Y213347D02*
Y210500D01*
X478347D01*
X478133Y211298D01*
X477690Y212064D01*
X477064Y212690D01*
X476298Y213133D01*
X475500Y213347D01*
D02*
G37*
G36*
X474500D02*
X473702Y213133D01*
X472936Y212690D01*
X472310Y212064D01*
X471867Y211298D01*
X471653Y210500D01*
X474500D01*
Y213347D01*
D02*
G37*
G36*
X445416Y213162D02*
X444584D01*
X443779Y212947D01*
X443058Y212530D01*
X442470Y211942D01*
X442053Y211221D01*
X441838Y210416D01*
Y209584D01*
X442053Y208779D01*
X442470Y208058D01*
X443058Y207470D01*
X443779Y207053D01*
X444584Y206838D01*
X445416D01*
X446221Y207053D01*
X446942Y207470D01*
X447530Y208058D01*
X447947Y208779D01*
X448162Y209584D01*
Y210416D01*
X447947Y211221D01*
X447530Y211942D01*
X446942Y212530D01*
X446221Y212947D01*
X445416Y213162D01*
D02*
G37*
G36*
X478347Y209500D02*
X475500D01*
Y206653D01*
X476298Y206867D01*
X477064Y207310D01*
X477690Y207936D01*
X478133Y208702D01*
X478347Y209500D01*
D02*
G37*
G36*
X474500D02*
X471653D01*
X471867Y208702D01*
X472310Y207936D01*
X472936Y207310D01*
X473702Y206867D01*
X474500Y206653D01*
Y209500D01*
D02*
G37*
G36*
X115494Y208753D02*
X114506D01*
X113551Y208497D01*
X112696Y208003D01*
X111997Y207304D01*
X111503Y206449D01*
X111247Y205494D01*
Y204506D01*
X111503Y203552D01*
X111997Y202696D01*
X112696Y201997D01*
X113551Y201503D01*
X114506Y201247D01*
X115494D01*
X116448Y201503D01*
X117304Y201997D01*
X118003Y202696D01*
X118497Y203552D01*
X118753Y204506D01*
Y205494D01*
X118497Y206449D01*
X118003Y207304D01*
X117304Y208003D01*
X116448Y208497D01*
X115494Y208753D01*
D02*
G37*
G36*
X166035Y211312D02*
X164792D01*
X163572Y211069D01*
X162424Y210593D01*
X161390Y209903D01*
X160511Y209023D01*
X159820Y207990D01*
X159344Y206841D01*
X159102Y205622D01*
Y204378D01*
X159344Y203159D01*
X159820Y202010D01*
X160511Y200976D01*
X161390Y200097D01*
X162424Y199407D01*
X163572Y198931D01*
X164792Y198688D01*
X166035D01*
X167254Y198931D01*
X168403Y199407D01*
X169437Y200097D01*
X170316Y200976D01*
X171007Y202010D01*
X171483Y203159D01*
X171725Y204378D01*
Y205622D01*
X171483Y206841D01*
X171007Y207990D01*
X170316Y209023D01*
X169437Y209903D01*
X168403Y210593D01*
X167254Y211069D01*
X166035Y211312D01*
D02*
G37*
G36*
X245898Y183812D02*
X233275D01*
Y171188D01*
X245898D01*
Y183812D01*
D02*
G37*
G36*
X118753Y198753D02*
X111247D01*
Y191247D01*
X118753D01*
Y192176D01*
X146744D01*
X157671Y181248D01*
X157289Y180324D01*
X156000D01*
X155269Y180228D01*
X154588Y179946D01*
X154003Y179497D01*
X144003Y169497D01*
X143554Y168912D01*
X143272Y168231D01*
X143176Y167500D01*
Y132000D01*
X143272Y131269D01*
X143554Y130588D01*
X144003Y130003D01*
X153503Y120503D01*
X154088Y120054D01*
X154769Y119772D01*
X155500Y119676D01*
X159102D01*
Y116188D01*
X171725D01*
Y128812D01*
X159102D01*
Y125324D01*
X156670D01*
X148824Y133170D01*
Y166330D01*
X157170Y174676D01*
X159751D01*
X159820Y174510D01*
X160511Y173477D01*
X161390Y172597D01*
X162424Y171906D01*
X163572Y171431D01*
X164792Y171188D01*
X166035D01*
X167254Y171431D01*
X168403Y171906D01*
X169437Y172597D01*
X170316Y173477D01*
X171007Y174510D01*
X171483Y175659D01*
X171725Y176878D01*
Y178122D01*
X171483Y179341D01*
X171007Y180490D01*
X170316Y181524D01*
X169437Y182403D01*
X168403Y183094D01*
X167254Y183569D01*
X166035Y183812D01*
X164792D01*
X163572Y183569D01*
X163407Y183501D01*
X149910Y196997D01*
X149326Y197446D01*
X148644Y197728D01*
X147913Y197824D01*
X118753D01*
Y198753D01*
D02*
G37*
G36*
X310416Y175662D02*
X309584D01*
X308779Y175447D01*
X308058Y175030D01*
X307470Y174442D01*
X307053Y173721D01*
X306838Y172916D01*
Y172084D01*
X307053Y171279D01*
X307470Y170558D01*
X308058Y169970D01*
X308779Y169553D01*
X309584Y169338D01*
X310416D01*
X311221Y169553D01*
X311942Y169970D01*
X312530Y170558D01*
X312947Y171279D01*
X313162Y172084D01*
Y172916D01*
X312947Y173721D01*
X312530Y174442D01*
X311942Y175030D01*
X311221Y175447D01*
X310416Y175662D01*
D02*
G37*
G36*
X282994Y171253D02*
X282006D01*
X281051Y170997D01*
X280196Y170503D01*
X279497Y169804D01*
X279003Y168948D01*
X278747Y167994D01*
Y167006D01*
X279003Y166051D01*
X279497Y165196D01*
X280196Y164497D01*
X281051Y164003D01*
X282006Y163747D01*
X282994D01*
X283948Y164003D01*
X284804Y164497D01*
X285503Y165196D01*
X285997Y166051D01*
X286253Y167006D01*
Y167994D01*
X285997Y168948D01*
X285503Y169804D01*
X284804Y170503D01*
X283948Y170997D01*
X282994Y171253D01*
D02*
G37*
G36*
X283020Y161453D02*
X283000D01*
Y158000D01*
X286453D01*
Y158020D01*
X286183Y159026D01*
X285663Y159927D01*
X284927Y160663D01*
X284026Y161183D01*
X283020Y161453D01*
D02*
G37*
G36*
X282000D02*
X281980D01*
X280974Y161183D01*
X280073Y160663D01*
X279337Y159927D01*
X278817Y159026D01*
X278547Y158020D01*
Y158000D01*
X282000D01*
Y161453D01*
D02*
G37*
G36*
X379921Y166893D02*
X370079D01*
X368585Y166696D01*
X367193Y166120D01*
X365998Y165202D01*
X365081Y164007D01*
X364505Y162616D01*
X364308Y161122D01*
X364505Y159628D01*
X365081Y158237D01*
X365998Y157042D01*
X367193Y156124D01*
X368585Y155548D01*
X370079Y155351D01*
X379921D01*
X381415Y155548D01*
X382807Y156124D01*
X384002Y157042D01*
X384919Y158237D01*
X385495Y159628D01*
X385692Y161122D01*
X385495Y162616D01*
X384919Y164007D01*
X384002Y165202D01*
X382807Y166120D01*
X381415Y166696D01*
X379921Y166893D01*
D02*
G37*
G36*
X286453Y157000D02*
X283000D01*
Y153547D01*
X283020D01*
X284026Y153817D01*
X284927Y154337D01*
X285663Y155073D01*
X286183Y155974D01*
X286453Y156980D01*
Y157000D01*
D02*
G37*
G36*
X282000D02*
X278547D01*
Y156980D01*
X278817Y155974D01*
X279337Y155073D01*
X280073Y154337D01*
X280974Y153817D01*
X281980Y153547D01*
X282000D01*
Y157000D01*
D02*
G37*
G36*
X345416Y158162D02*
X344584D01*
X343779Y157947D01*
X343058Y157530D01*
X342470Y156942D01*
X342053Y156221D01*
X341838Y155416D01*
Y154584D01*
X342053Y153779D01*
X342470Y153058D01*
X343058Y152470D01*
X343779Y152053D01*
X344584Y151838D01*
X345416D01*
X346221Y152053D01*
X346942Y152470D01*
X347530Y153058D01*
X347947Y153779D01*
X348162Y154584D01*
Y155416D01*
X347947Y156221D01*
X347530Y156942D01*
X346942Y157530D01*
X346221Y157947D01*
X345416Y158162D01*
D02*
G37*
G36*
X240228Y156512D02*
X240087D01*
Y150500D01*
X246098D01*
Y150641D01*
X245848Y151899D01*
X245357Y153085D01*
X244645Y154151D01*
X243738Y155058D01*
X242671Y155771D01*
X241486Y156262D01*
X240228Y156512D01*
D02*
G37*
G36*
X239087D02*
X238945D01*
X237687Y156262D01*
X236502Y155771D01*
X235436Y155058D01*
X234529Y154151D01*
X233816Y153085D01*
X233325Y151899D01*
X233075Y150641D01*
Y150500D01*
X239087D01*
Y156512D01*
D02*
G37*
G36*
X171725Y156312D02*
X159102D01*
Y143688D01*
X171725D01*
Y156312D01*
D02*
G37*
G36*
X246098Y149500D02*
X240087D01*
Y143488D01*
X240228D01*
X241486Y143738D01*
X242671Y144229D01*
X243738Y144942D01*
X244645Y145849D01*
X245357Y146915D01*
X245848Y148101D01*
X246098Y149359D01*
Y149500D01*
D02*
G37*
G36*
X239087D02*
X233075D01*
Y149359D01*
X233325Y148101D01*
X233816Y146915D01*
X234529Y145849D01*
X235436Y144942D01*
X236502Y144229D01*
X237687Y143738D01*
X238945Y143488D01*
X239087D01*
Y149500D01*
D02*
G37*
G36*
X310500Y145847D02*
Y143000D01*
X313347D01*
X313133Y143798D01*
X312690Y144564D01*
X312064Y145190D01*
X311298Y145633D01*
X310500Y145847D01*
D02*
G37*
G36*
X309500D02*
X308702Y145633D01*
X307936Y145190D01*
X307310Y144564D01*
X306867Y143798D01*
X306653Y143000D01*
X309500D01*
Y145847D01*
D02*
G37*
G36*
X393504Y159014D02*
X392139Y158835D01*
X390867Y158308D01*
X389774Y157470D01*
X388936Y156377D01*
X388409Y155105D01*
X388230Y153740D01*
Y144882D01*
X388409Y143517D01*
X388936Y142245D01*
X389774Y141152D01*
X390867Y140314D01*
X392139Y139787D01*
X393504Y139608D01*
X394869Y139787D01*
X396141Y140314D01*
X397233Y141152D01*
X398072Y142245D01*
X398599Y143517D01*
X398778Y144882D01*
Y153740D01*
X398599Y155105D01*
X398072Y156377D01*
X397233Y157470D01*
X396141Y158308D01*
X394869Y158835D01*
X393504Y159014D01*
D02*
G37*
G36*
X313347Y142000D02*
X310500D01*
Y139153D01*
X311298Y139367D01*
X312064Y139810D01*
X312690Y140436D01*
X313133Y141202D01*
X313347Y142000D01*
D02*
G37*
G36*
X309500D02*
X306653D01*
X306867Y141202D01*
X307310Y140436D01*
X307936Y139810D01*
X308702Y139367D01*
X309500Y139153D01*
Y142000D01*
D02*
G37*
G36*
X379429Y142976D02*
X375500D01*
Y138000D01*
X384839D01*
X384718Y138917D01*
X384172Y140238D01*
X383301Y141372D01*
X382167Y142242D01*
X380846Y142789D01*
X379429Y142976D01*
D02*
G37*
G36*
X374500D02*
X370571D01*
X369154Y142789D01*
X367833Y142242D01*
X366699Y141372D01*
X365828Y140238D01*
X365282Y138917D01*
X365161Y138000D01*
X374500D01*
Y142976D01*
D02*
G37*
G36*
X417994Y141253D02*
X417006D01*
X416051Y140997D01*
X415196Y140503D01*
X414497Y139804D01*
X414003Y138949D01*
X413747Y137994D01*
Y137006D01*
X414003Y136051D01*
X414497Y135196D01*
X415196Y134497D01*
X416051Y134003D01*
X417006Y133747D01*
X417994D01*
X418949Y134003D01*
X419804Y134497D01*
X420503Y135196D01*
X420997Y136051D01*
X421253Y137006D01*
Y137994D01*
X420997Y138949D01*
X420503Y139804D01*
X419804Y140503D01*
X418949Y140997D01*
X417994Y141253D01*
D02*
G37*
G36*
X384839Y137000D02*
X375500D01*
Y132024D01*
X379429D01*
X380846Y132211D01*
X382167Y132758D01*
X383301Y133628D01*
X384172Y134762D01*
X384718Y136083D01*
X384839Y137000D01*
D02*
G37*
G36*
X374500D02*
X365161D01*
X365282Y136083D01*
X365828Y134762D01*
X366699Y133628D01*
X367833Y132758D01*
X369154Y132211D01*
X370571Y132024D01*
X374500D01*
Y137000D01*
D02*
G37*
G36*
X418020Y131453D02*
X418000D01*
Y128000D01*
X421453D01*
Y128020D01*
X421183Y129026D01*
X420663Y129927D01*
X419927Y130663D01*
X419026Y131183D01*
X418020Y131453D01*
D02*
G37*
G36*
X417000D02*
X416980D01*
X415974Y131183D01*
X415073Y130663D01*
X414337Y129927D01*
X413817Y129026D01*
X413547Y128020D01*
Y128000D01*
X417000D01*
Y131453D01*
D02*
G37*
G36*
X345500Y128347D02*
Y125500D01*
X348347D01*
X348133Y126298D01*
X347690Y127064D01*
X347064Y127690D01*
X346298Y128133D01*
X345500Y128347D01*
D02*
G37*
G36*
X344500D02*
X343702Y128133D01*
X342936Y127690D01*
X342310Y127064D01*
X341867Y126298D01*
X341653Y125500D01*
X344500D01*
Y128347D01*
D02*
G37*
G36*
X421453Y127000D02*
X418000D01*
Y123547D01*
X418020D01*
X419026Y123817D01*
X419927Y124337D01*
X420663Y125073D01*
X421183Y125974D01*
X421453Y126980D01*
Y127000D01*
D02*
G37*
G36*
X417000D02*
X413547D01*
Y126980D01*
X413817Y125974D01*
X414337Y125073D01*
X415073Y124337D01*
X415974Y123817D01*
X416980Y123547D01*
X417000D01*
Y127000D01*
D02*
G37*
G36*
X240228Y129012D02*
X240087D01*
Y123000D01*
X246098D01*
Y123141D01*
X245848Y124399D01*
X245357Y125584D01*
X244645Y126651D01*
X243738Y127558D01*
X242671Y128271D01*
X241486Y128762D01*
X240228Y129012D01*
D02*
G37*
G36*
X239087D02*
X238945D01*
X237687Y128762D01*
X236502Y128271D01*
X235436Y127558D01*
X234529Y126651D01*
X233816Y125584D01*
X233325Y124399D01*
X233075Y123141D01*
Y123000D01*
X239087D01*
Y129012D01*
D02*
G37*
G36*
X348347Y124500D02*
X345500D01*
Y121653D01*
X346298Y121867D01*
X347064Y122310D01*
X347690Y122936D01*
X348133Y123702D01*
X348347Y124500D01*
D02*
G37*
G36*
X344500D02*
X341653D01*
X341867Y123702D01*
X342310Y122936D01*
X342936Y122310D01*
X343702Y121867D01*
X344500Y121653D01*
Y124500D01*
D02*
G37*
G36*
X246098Y122000D02*
X240087D01*
Y115988D01*
X240228D01*
X241486Y116238D01*
X242671Y116729D01*
X243738Y117442D01*
X244645Y118349D01*
X245357Y119415D01*
X245848Y120601D01*
X246098Y121859D01*
Y122000D01*
D02*
G37*
G36*
X239087D02*
X233075D01*
Y121859D01*
X233325Y120601D01*
X233816Y119415D01*
X234529Y118349D01*
X235436Y117442D01*
X236502Y116729D01*
X237687Y116238D01*
X238945Y115988D01*
X239087D01*
Y122000D01*
D02*
G37*
G36*
X565891Y124050D02*
X564109D01*
X562360Y123702D01*
X560713Y123020D01*
X559231Y122030D01*
X557970Y120769D01*
X556980Y119287D01*
X556298Y117640D01*
X555950Y115891D01*
Y114109D01*
X556298Y112360D01*
X556980Y110713D01*
X557970Y109231D01*
X559231Y107970D01*
X560713Y106980D01*
X562360Y106298D01*
X564109Y105950D01*
X565891D01*
X567640Y106298D01*
X569287Y106980D01*
X570769Y107970D01*
X572030Y109231D01*
X573020Y110713D01*
X573702Y112360D01*
X574050Y114109D01*
Y115891D01*
X573702Y117640D01*
X573020Y119287D01*
X572030Y120769D01*
X570769Y122030D01*
X569287Y123020D01*
X567640Y123702D01*
X565891Y124050D01*
D02*
G37*
G36*
X115891D02*
X114109D01*
X112360Y123702D01*
X110713Y123020D01*
X109231Y122030D01*
X107970Y120769D01*
X106980Y119287D01*
X106298Y117640D01*
X105950Y115891D01*
Y114109D01*
X106298Y112360D01*
X106980Y110713D01*
X107970Y109231D01*
X109231Y107970D01*
X110713Y106980D01*
X112360Y106298D01*
X114109Y105950D01*
X115891D01*
X117640Y106298D01*
X119287Y106980D01*
X120769Y107970D01*
X122030Y109231D01*
X123020Y110713D01*
X123702Y112360D01*
X124050Y114109D01*
Y115891D01*
X123702Y117640D01*
X123020Y119287D01*
X122030Y120769D01*
X120769Y122030D01*
X119287Y123020D01*
X117640Y123702D01*
X115891Y124050D01*
D02*
G37*
%LPD*%
G36*
X435028Y297098D02*
X435019Y297063D01*
X434447Y296820D01*
X433891Y296719D01*
X433274Y297075D01*
X432435Y297300D01*
X431566D01*
X430784Y297091D01*
X416326Y311549D01*
Y314493D01*
X417249Y314876D01*
X435028Y297098D01*
D02*
G37*
G36*
X575000Y405000D02*
X572949D01*
X572745Y405327D01*
X572590Y406000D01*
X573163Y406573D01*
X573683Y407474D01*
X573953Y408480D01*
Y408500D01*
X570000D01*
X566047D01*
Y408480D01*
X566317Y407474D01*
X566837Y406573D01*
X567410Y406000D01*
X567255Y405327D01*
X567051Y405000D01*
X476000D01*
Y420000D01*
X575000D01*
Y405000D01*
D02*
G37*
G36*
Y388000D02*
X511569D01*
X511437Y389000D01*
X511448Y389003D01*
X512304Y389497D01*
X513003Y390196D01*
X513497Y391052D01*
X513753Y392006D01*
Y392994D01*
X513497Y393949D01*
X513003Y394804D01*
X512304Y395503D01*
X511448Y395997D01*
X510494Y396253D01*
X509506D01*
X508552Y395997D01*
X507696Y395503D01*
X506997Y394804D01*
X506503Y393949D01*
X506247Y392994D01*
Y392006D01*
X506503Y391052D01*
X506997Y390196D01*
X507696Y389497D01*
X508552Y389003D01*
X508563Y389000D01*
X508431Y388000D01*
X476000D01*
Y404000D01*
X478928D01*
X479196Y403000D01*
X478851Y402801D01*
X478199Y402149D01*
X477739Y401351D01*
X477510Y400500D01*
X484489D01*
X484262Y401351D01*
X483801Y402149D01*
X483149Y402801D01*
X482804Y403000D01*
X483072Y404000D01*
X575000D01*
Y388000D01*
D02*
G37*
%LPC*%
G36*
X481500Y413489D02*
Y410500D01*
X484489D01*
X484262Y411351D01*
X483801Y412149D01*
X483149Y412801D01*
X482351Y413262D01*
X481500Y413489D01*
D02*
G37*
G36*
X480500D02*
X479649Y413262D01*
X478851Y412801D01*
X478199Y412149D01*
X477739Y411351D01*
X477510Y410500D01*
X480500D01*
Y413489D01*
D02*
G37*
G36*
X570520Y412953D02*
X570500D01*
Y409500D01*
X573953D01*
Y409520D01*
X573683Y410526D01*
X573163Y411427D01*
X572427Y412163D01*
X571526Y412683D01*
X570520Y412953D01*
D02*
G37*
G36*
X569500D02*
X569480D01*
X568474Y412683D01*
X567573Y412163D01*
X566837Y411427D01*
X566317Y410526D01*
X566047Y409520D01*
Y409500D01*
X569500D01*
Y412953D01*
D02*
G37*
G36*
X484489Y409500D02*
X481500D01*
Y406510D01*
X482351Y406739D01*
X483149Y407199D01*
X483801Y407851D01*
X484262Y408649D01*
X484489Y409500D01*
D02*
G37*
G36*
X480500D02*
X477510D01*
X477739Y408649D01*
X478199Y407851D01*
X478851Y407199D01*
X479649Y406739D01*
X480500Y406510D01*
Y409500D01*
D02*
G37*
G36*
X573953Y402953D02*
X570500D01*
Y399500D01*
X573953D01*
Y402953D01*
D02*
G37*
G36*
X569500D02*
X566047D01*
Y399500D01*
X569500D01*
Y402953D01*
D02*
G37*
G36*
X484489Y399500D02*
X481500D01*
Y396511D01*
X482351Y396739D01*
X483149Y397199D01*
X483801Y397851D01*
X484262Y398649D01*
X484489Y399500D01*
D02*
G37*
G36*
X480500D02*
X477510D01*
X477739Y398649D01*
X478199Y397851D01*
X478851Y397199D01*
X479649Y396739D01*
X480500Y396511D01*
Y399500D01*
D02*
G37*
G36*
X573953Y398500D02*
X570500D01*
Y395047D01*
X573953D01*
Y398500D01*
D02*
G37*
G36*
X569500D02*
X566047D01*
Y395047D01*
X569500D01*
Y398500D01*
D02*
G37*
%LPD*%
G36*
X576000Y347000D02*
X473000D01*
Y361000D01*
X576000D01*
Y347000D01*
D02*
G37*
G36*
Y332000D02*
X514045D01*
X513467Y333000D01*
X513497Y333051D01*
X513753Y334006D01*
Y334994D01*
X513497Y335948D01*
X513003Y336804D01*
X512304Y337503D01*
X511448Y337997D01*
X510494Y338253D01*
X509506D01*
X508552Y337997D01*
X507696Y337503D01*
X506997Y336804D01*
X506503Y335948D01*
X506247Y334994D01*
Y334006D01*
X506503Y333051D01*
X506533Y333000D01*
X505955Y332000D01*
X473000D01*
Y346000D01*
X477636D01*
X477938Y345544D01*
X478113Y345000D01*
X477739Y344351D01*
X477510Y343500D01*
X484489D01*
X484262Y344351D01*
X483887Y345000D01*
X484062Y345544D01*
X484364Y346000D01*
X564067D01*
X565047Y345953D01*
X565047Y345000D01*
Y342500D01*
X569000D01*
X572953D01*
Y345000D01*
X572953Y345953D01*
X573933Y346000D01*
X576000D01*
Y332000D01*
D02*
G37*
%LPC*%
G36*
X569520Y355953D02*
X569500D01*
Y352500D01*
X572953D01*
Y352520D01*
X572683Y353526D01*
X572163Y354427D01*
X571427Y355163D01*
X570526Y355683D01*
X569520Y355953D01*
D02*
G37*
G36*
X481500Y355489D02*
Y352500D01*
X484489D01*
X484262Y353351D01*
X483801Y354149D01*
X483149Y354801D01*
X482351Y355261D01*
X481500Y355489D01*
D02*
G37*
G36*
X480500D02*
X479649Y355261D01*
X478851Y354801D01*
X478199Y354149D01*
X477739Y353351D01*
X477510Y352500D01*
X480500D01*
Y355489D01*
D02*
G37*
G36*
X568500Y355953D02*
X568480D01*
X567474Y355683D01*
X566573Y355163D01*
X565837Y354427D01*
X565317Y353526D01*
X565047Y352520D01*
Y352500D01*
X568500D01*
Y355953D01*
D02*
G37*
G36*
X484489Y351500D02*
X481500D01*
Y348511D01*
X482351Y348739D01*
X483149Y349199D01*
X483801Y349851D01*
X484262Y350649D01*
X484489Y351500D01*
D02*
G37*
G36*
X480500D02*
X477510D01*
X477739Y350649D01*
X478199Y349851D01*
X478851Y349199D01*
X479649Y348739D01*
X480500Y348511D01*
Y351500D01*
D02*
G37*
G36*
X572953D02*
X569500D01*
Y348047D01*
X569520D01*
X570526Y348317D01*
X571427Y348837D01*
X572163Y349573D01*
X572683Y350474D01*
X572953Y351480D01*
Y351500D01*
D02*
G37*
G36*
X568500D02*
X565047D01*
Y351480D01*
X565317Y350474D01*
X565837Y349573D01*
X566573Y348837D01*
X567474Y348317D01*
X568480Y348047D01*
X568500D01*
Y351500D01*
D02*
G37*
G36*
X484489Y342500D02*
X481500D01*
Y339510D01*
X482351Y339738D01*
X483149Y340199D01*
X483801Y340851D01*
X484262Y341649D01*
X484489Y342500D01*
D02*
G37*
G36*
X480500D02*
X477510D01*
X477739Y341649D01*
X478199Y340851D01*
X478851Y340199D01*
X479649Y339738D01*
X480500Y339510D01*
Y342500D01*
D02*
G37*
G36*
X572953Y341500D02*
X569500D01*
Y338047D01*
X572953D01*
Y341500D01*
D02*
G37*
G36*
X568500D02*
X565047D01*
Y338047D01*
X568500D01*
Y341500D01*
D02*
G37*
%LPD*%
G36*
X260675Y302995D02*
Y286549D01*
X255951Y281825D01*
X254907D01*
X254492Y282825D01*
X254641Y282974D01*
X255075Y283726D01*
X255300Y284565D01*
Y285435D01*
X255091Y286216D01*
X258937Y290063D01*
X259225Y290493D01*
X259326Y291000D01*
Y302758D01*
X260326Y303257D01*
X260675Y302995D01*
D02*
G37*
G36*
X576000Y293000D02*
X473000D01*
Y307000D01*
X576000D01*
Y293000D01*
D02*
G37*
G36*
Y278000D02*
X513614D01*
X513179Y279000D01*
X513497Y279552D01*
X513753Y280506D01*
Y281494D01*
X513497Y282449D01*
X513003Y283304D01*
X512304Y284003D01*
X511448Y284497D01*
X510494Y284753D01*
X509506D01*
X508552Y284497D01*
X507696Y284003D01*
X506997Y283304D01*
X506503Y282449D01*
X506247Y281494D01*
Y280506D01*
X506503Y279552D01*
X506821Y279000D01*
X506386Y278000D01*
X473000D01*
Y292000D01*
X476636D01*
X476938Y291544D01*
X477113Y291000D01*
X476739Y290351D01*
X476510Y289500D01*
X483490D01*
X483261Y290351D01*
X482887Y291000D01*
X483062Y291544D01*
X483364Y292000D01*
X566047D01*
Y289500D01*
X570000D01*
X573953D01*
Y292000D01*
X576000D01*
Y278000D01*
D02*
G37*
%LPC*%
G36*
X570520Y302953D02*
X570500D01*
Y299500D01*
X573953D01*
Y299520D01*
X573683Y300526D01*
X573163Y301427D01*
X572427Y302163D01*
X571526Y302683D01*
X570520Y302953D01*
D02*
G37*
G36*
X569500D02*
X569480D01*
X568474Y302683D01*
X567573Y302163D01*
X566837Y301427D01*
X566317Y300526D01*
X566047Y299520D01*
Y299500D01*
X569500D01*
Y302953D01*
D02*
G37*
G36*
X480500Y301489D02*
Y298500D01*
X483490D01*
X483261Y299351D01*
X482801Y300149D01*
X482149Y300801D01*
X481351Y301261D01*
X480500Y301489D01*
D02*
G37*
G36*
X479500D02*
X478649Y301261D01*
X477851Y300801D01*
X477199Y300149D01*
X476739Y299351D01*
X476510Y298500D01*
X479500D01*
Y301489D01*
D02*
G37*
G36*
X573953Y298500D02*
X570500D01*
Y295047D01*
X570520D01*
X571526Y295317D01*
X572427Y295837D01*
X573163Y296573D01*
X573683Y297474D01*
X573953Y298480D01*
Y298500D01*
D02*
G37*
G36*
X569500D02*
X566047D01*
Y298480D01*
X566317Y297474D01*
X566837Y296573D01*
X567573Y295837D01*
X568474Y295317D01*
X569480Y295047D01*
X569500D01*
Y298500D01*
D02*
G37*
G36*
X483490Y297500D02*
X480500D01*
Y294511D01*
X481351Y294739D01*
X482149Y295199D01*
X482801Y295851D01*
X483261Y296649D01*
X483490Y297500D01*
D02*
G37*
G36*
X479500D02*
X476510D01*
X476739Y296649D01*
X477199Y295851D01*
X477851Y295199D01*
X478649Y294739D01*
X479500Y294511D01*
Y297500D01*
D02*
G37*
G36*
X483490Y288500D02*
X480500D01*
Y285510D01*
X481351Y285738D01*
X482149Y286199D01*
X482801Y286851D01*
X483261Y287649D01*
X483490Y288500D01*
D02*
G37*
G36*
X479500D02*
X476510D01*
X476739Y287649D01*
X477199Y286851D01*
X477851Y286199D01*
X478649Y285738D01*
X479500Y285510D01*
Y288500D01*
D02*
G37*
G36*
X573953D02*
X570500D01*
Y285047D01*
X573953D01*
Y288500D01*
D02*
G37*
G36*
X569500D02*
X566047D01*
Y285047D01*
X569500D01*
Y288500D01*
D02*
G37*
%LPD*%
G36*
X576663Y237573D02*
X572238D01*
X571970Y238573D01*
X572427Y238837D01*
X573163Y239573D01*
X573683Y240474D01*
X573953Y241480D01*
Y241500D01*
X570000D01*
X566047D01*
Y241480D01*
X566317Y240474D01*
X566837Y239573D01*
X567573Y238837D01*
X568030Y238573D01*
X567762Y237573D01*
X482865D01*
X482733Y238573D01*
X483351Y238738D01*
X484149Y239199D01*
X484801Y239851D01*
X485261Y240649D01*
X485490Y241500D01*
X478511D01*
X478738Y240649D01*
X479199Y239851D01*
X479851Y239199D01*
X480649Y238738D01*
X481267Y238573D01*
X481135Y237573D01*
X473663D01*
Y251573D01*
X576663D01*
Y237573D01*
D02*
G37*
G36*
Y222573D02*
X511294D01*
X510880Y223573D01*
X511003Y223696D01*
X511497Y224552D01*
X511753Y225506D01*
Y226494D01*
X511497Y227449D01*
X511003Y228304D01*
X510304Y229003D01*
X509448Y229497D01*
X508494Y229753D01*
X507506D01*
X506552Y229497D01*
X505696Y229003D01*
X504997Y228304D01*
X504503Y227449D01*
X504247Y226494D01*
Y225506D01*
X504503Y224552D01*
X504997Y223696D01*
X505120Y223573D01*
X504706Y222573D01*
X473663D01*
Y236573D01*
X479279D01*
X479318Y236520D01*
X479623Y235573D01*
X479199Y235149D01*
X478738Y234351D01*
X478511Y233500D01*
X485490D01*
X485261Y234351D01*
X484801Y235149D01*
X484377Y235573D01*
X484682Y236520D01*
X484721Y236573D01*
X565304D01*
X566047Y235953D01*
X566047Y235573D01*
Y232500D01*
X570000D01*
X573953D01*
Y235573D01*
X573953Y235953D01*
X574696Y236573D01*
X576663D01*
Y222573D01*
D02*
G37*
%LPC*%
G36*
X570520Y245953D02*
X570500D01*
Y242500D01*
X573953D01*
Y242520D01*
X573683Y243526D01*
X573163Y244427D01*
X572427Y245163D01*
X571526Y245683D01*
X570520Y245953D01*
D02*
G37*
G36*
X482500Y245490D02*
Y242500D01*
X485490D01*
X485261Y243351D01*
X484801Y244149D01*
X484149Y244801D01*
X483351Y245262D01*
X482500Y245490D01*
D02*
G37*
G36*
X481500D02*
X480649Y245262D01*
X479851Y244801D01*
X479199Y244149D01*
X478738Y243351D01*
X478511Y242500D01*
X481500D01*
Y245490D01*
D02*
G37*
G36*
X569500Y245953D02*
X569480D01*
X568474Y245683D01*
X567573Y245163D01*
X566837Y244427D01*
X566317Y243526D01*
X566047Y242520D01*
Y242500D01*
X569500D01*
Y245953D01*
D02*
G37*
G36*
X485490Y232500D02*
X482500D01*
Y229510D01*
X483351Y229738D01*
X484149Y230199D01*
X484801Y230851D01*
X485261Y231649D01*
X485490Y232500D01*
D02*
G37*
G36*
X481500D02*
X478511D01*
X478738Y231649D01*
X479199Y230851D01*
X479851Y230199D01*
X480649Y229738D01*
X481500Y229510D01*
Y232500D01*
D02*
G37*
G36*
X573953Y231500D02*
X570500D01*
Y228047D01*
X573953D01*
Y231500D01*
D02*
G37*
G36*
X569500D02*
X566047D01*
Y228047D01*
X569500D01*
Y231500D01*
D02*
G37*
G36*
X333953Y493953D02*
X330500D01*
Y490500D01*
X333953D01*
Y493953D01*
D02*
G37*
G36*
X329500D02*
X326047D01*
Y490500D01*
X329500D01*
Y493953D01*
D02*
G37*
G36*
X333953Y489500D02*
X330500D01*
Y486047D01*
X333953D01*
Y489500D01*
D02*
G37*
G36*
X329500D02*
X326047D01*
Y486047D01*
X329500D01*
Y489500D01*
D02*
G37*
G36*
X317968Y383556D02*
X317032D01*
X316127Y383314D01*
X315317Y382845D01*
X314655Y382183D01*
X314186Y381372D01*
X313944Y380468D01*
Y379532D01*
X314186Y378627D01*
X314655Y377817D01*
X315317Y377155D01*
X316127Y376686D01*
X317032Y376444D01*
X317968D01*
X318872Y376686D01*
X319683Y377155D01*
X320345Y377817D01*
X320814Y378627D01*
X321056Y379532D01*
Y380468D01*
X320814Y381372D01*
X320345Y382183D01*
X319683Y382845D01*
X318872Y383314D01*
X317968Y383556D01*
D02*
G37*
G36*
X363020Y221453D02*
X363000D01*
Y218000D01*
X366453D01*
Y218020D01*
X366183Y219026D01*
X365663Y219927D01*
X364927Y220663D01*
X364026Y221183D01*
X363020Y221453D01*
D02*
G37*
G36*
X362000D02*
X361980D01*
X360974Y221183D01*
X360073Y220663D01*
X359337Y219927D01*
X358817Y219026D01*
X358547Y218020D01*
Y218000D01*
X362000D01*
Y221453D01*
D02*
G37*
G36*
X372994Y221253D02*
X372006D01*
X371052Y220997D01*
X370196Y220503D01*
X369497Y219804D01*
X369003Y218949D01*
X368747Y217994D01*
Y217006D01*
X369003Y216052D01*
X369497Y215196D01*
X370196Y214497D01*
X371052Y214003D01*
X372006Y213747D01*
X372994D01*
X373949Y214003D01*
X374804Y214497D01*
X375503Y215196D01*
X375997Y216052D01*
X376253Y217006D01*
Y217994D01*
X375997Y218949D01*
X375503Y219804D01*
X374804Y220503D01*
X373949Y220997D01*
X372994Y221253D01*
D02*
G37*
G36*
X356253D02*
X348747D01*
Y213747D01*
X356253D01*
Y221253D01*
D02*
G37*
G36*
X366453Y217000D02*
X363000D01*
Y213547D01*
X363020D01*
X364026Y213817D01*
X364927Y214337D01*
X365663Y215073D01*
X366183Y215974D01*
X366453Y216980D01*
Y217000D01*
D02*
G37*
G36*
X362000D02*
X358547D01*
Y216980D01*
X358817Y215974D01*
X359337Y215073D01*
X360073Y214337D01*
X360974Y213817D01*
X361980Y213547D01*
X362000D01*
Y217000D01*
D02*
G37*
%LPD*%
D15*
X408000Y426000D02*
X466000Y484000D01*
X408000Y276000D02*
Y426000D01*
X384500Y403000D02*
X398000Y416500D01*
Y473000D02*
X415000Y490000D01*
X398000Y416500D02*
Y473000D01*
X411000Y279000D02*
Y424500D01*
X466000Y484000D02*
Y489500D01*
X411000Y424500D02*
X476000Y489500D01*
X415000Y418500D02*
X486000Y489500D01*
X415000Y311000D02*
Y418500D01*
X417000Y317000D02*
Y415000D01*
X459000Y457000D01*
X408000Y276000D02*
X435000Y249000D01*
X417000Y317000D02*
X437000Y297000D01*
X411000Y279000D02*
X441000Y249000D01*
X415000Y311000D02*
X432000Y294000D01*
X239500Y280500D02*
X256500D01*
X262000Y286000D01*
Y304000D01*
X237000Y343000D02*
X242000D01*
X258000Y327000D01*
Y291000D02*
Y327000D01*
X252000Y285000D02*
X258000Y291000D01*
X255000Y345000D02*
X260000Y340000D01*
Y306000D02*
X262000Y304000D01*
X260000Y306000D02*
Y340000D01*
X275000Y301000D02*
Y332500D01*
X300000Y357500D01*
X276000Y292000D02*
X276500Y292500D01*
X280000D01*
X297500Y310000D01*
X266000Y308414D02*
Y309000D01*
X268000Y287000D02*
Y306414D01*
X266000Y308414D02*
X268000Y306414D01*
X259000Y278000D02*
X268000Y287000D01*
X248027Y298000D02*
X253000Y293027D01*
X241000Y298000D02*
X248027D01*
X253000Y292000D02*
Y293027D01*
X245000Y278000D02*
X259000D01*
X237500Y270500D02*
X245000Y278000D01*
X435000Y238000D02*
Y249000D01*
X441000Y236000D02*
Y249000D01*
X435000Y230000D02*
X441000Y236000D01*
X432000Y285000D02*
X437000Y290000D01*
Y297000D01*
X459000Y457000D02*
X463500D01*
X496000Y489500D01*
X420000Y372000D02*
X433000Y359000D01*
X420000Y372000D02*
Y411000D01*
X461000Y452000D01*
X426500Y407000D02*
X427086D01*
X426500Y397500D02*
X429000Y400000D01*
X422700Y375300D02*
Y408574D01*
X462694Y448568D01*
X422700Y375300D02*
X439000Y359000D01*
X429000Y400000D02*
X446500D01*
X472000Y452000D02*
X505633Y485633D01*
Y489133D02*
X506000Y489500D01*
X461000Y452000D02*
X472000D01*
X505633Y485633D02*
Y489133D01*
X427086Y407000D02*
X429086Y405000D01*
X445000D01*
X433000Y351000D02*
Y359000D01*
X462694Y448568D02*
X475068D01*
X439000Y346000D02*
Y359000D01*
X433000Y340000D02*
X439000Y346000D01*
X475068Y448568D02*
X516000Y489500D01*
X525633Y489133D02*
X526000Y489500D01*
X525633Y485633D02*
Y489133D01*
X445000Y405000D02*
X525633Y485633D01*
X446500Y400000D02*
X536000Y489500D01*
X239587Y205000D02*
Y229587D01*
X295000Y285000D01*
X197000Y250500D02*
X217000Y270500D01*
X237500D01*
X285000Y332500D02*
X297000Y344500D01*
X331000D01*
X237500Y301500D02*
X241000Y298000D01*
X229500Y301500D02*
X237500D01*
X212500Y318500D02*
X229500Y301500D01*
X397000Y499500D02*
X425500D01*
X435000Y490000D01*
X373883Y476383D02*
X397000Y499500D01*
X373883Y433383D02*
Y476383D01*
X351000Y410500D02*
X373883Y433383D01*
X387500Y429500D02*
Y482000D01*
X401500Y496000D01*
X419000D01*
X363000Y405000D02*
X387500Y429500D01*
X354000Y399000D02*
X366500D01*
X353500Y398500D02*
X354000Y399000D01*
X366500D02*
X394500Y427000D01*
Y479500D02*
X405000Y490000D01*
X394500Y427000D02*
Y479500D01*
X419000Y496000D02*
X425000Y490000D01*
X192500Y487500D02*
X237000D01*
X264000Y460500D01*
X250436Y425064D02*
X252000Y423500D01*
D48*
X403000Y436500D02*
X456000Y489500D01*
X403000Y399000D02*
Y436500D01*
D49*
X146000Y132000D02*
Y167500D01*
Y132000D02*
X155500Y122500D01*
X146000Y167500D02*
X156000Y177500D01*
X155500Y122500D02*
X165413D01*
X156000Y177500D02*
X165413D01*
X147913Y195000D02*
X165413Y177500D01*
X115000Y195000D02*
X147913D01*
D50*
X187500Y250500D02*
D03*
X157500D02*
D03*
X255000Y345000D02*
D03*
Y375000D02*
D03*
X227000Y250500D02*
D03*
X197000D02*
D03*
X317500Y380000D02*
D03*
X287500D02*
D03*
X315000Y332500D02*
D03*
X285000D02*
D03*
X325000Y285000D02*
D03*
X295000D02*
D03*
X264000Y490500D02*
D03*
Y460500D02*
D03*
D51*
X252000Y443500D02*
D03*
Y433500D02*
D03*
D52*
Y423500D02*
D03*
D53*
X570000Y232000D02*
D03*
Y289000D02*
D03*
X569000Y342000D02*
D03*
X570000Y399000D02*
D03*
X115000Y195000D02*
D03*
Y440000D02*
D03*
D54*
X570000Y242000D02*
D03*
Y299000D02*
D03*
X569000Y352000D02*
D03*
X375000Y490000D02*
D03*
X570000Y409000D02*
D03*
X516000Y489500D02*
D03*
X506000D02*
D03*
X496000D02*
D03*
X486000D02*
D03*
X476000D02*
D03*
X466000D02*
D03*
X456000D02*
D03*
X526000D02*
D03*
X340000Y490000D02*
D03*
X362500Y217500D02*
D03*
X372500D02*
D03*
X115000Y205000D02*
D03*
X405000Y490000D02*
D03*
X415000D02*
D03*
X425000D02*
D03*
X115000Y450000D02*
D03*
X302500Y490000D02*
D03*
X508000Y226000D02*
D03*
Y216000D02*
D03*
X510000Y281000D02*
D03*
Y271000D02*
D03*
Y334500D02*
D03*
Y324500D02*
D03*
X417500Y137500D02*
D03*
Y127500D02*
D03*
X140000Y371000D02*
D03*
X150000D02*
D03*
X282500Y167500D02*
D03*
Y157500D02*
D03*
X184500Y280500D02*
D03*
Y270500D02*
D03*
X510000Y392500D02*
D03*
Y382500D02*
D03*
X155000Y447500D02*
D03*
Y437500D02*
D03*
D55*
X365000Y490000D02*
D03*
X536000Y489500D02*
D03*
X330000Y490000D02*
D03*
X352500Y217500D02*
D03*
X435000Y490000D02*
D03*
X292500D02*
D03*
D56*
X375000Y161122D02*
D03*
D57*
Y137500D02*
D03*
D58*
X393504Y149311D02*
D03*
D59*
X565000Y115000D02*
D03*
X115000D02*
D03*
X565000Y485000D02*
D03*
X115000D02*
D03*
D60*
X300000Y367500D02*
D03*
Y357500D02*
D03*
X192500Y487500D02*
D03*
Y477500D02*
D03*
X297500Y320000D02*
D03*
Y310000D02*
D03*
Y272500D02*
D03*
Y262500D02*
D03*
D61*
X165413Y122500D02*
D03*
Y150000D02*
D03*
X239587Y177500D02*
D03*
Y205000D02*
D03*
D62*
Y122500D02*
D03*
Y150000D02*
D03*
X165413Y177500D02*
D03*
Y205000D02*
D03*
D63*
X159500Y348000D02*
D03*
X129500D02*
D03*
X445000Y210000D02*
D03*
X475000D02*
D03*
X443000Y267000D02*
D03*
X473000D02*
D03*
X442500Y322500D02*
D03*
X472500D02*
D03*
X345000Y125000D02*
D03*
Y155000D02*
D03*
X310000Y142500D02*
D03*
Y172500D02*
D03*
X440000Y380000D02*
D03*
X470000D02*
D03*
X130000Y447500D02*
D03*
Y417500D02*
D03*
D64*
X229000Y312000D02*
D03*
X403000Y399000D02*
D03*
X237000Y343000D02*
D03*
X275000Y301000D02*
D03*
X276000Y292000D02*
D03*
X266000Y309000D02*
D03*
X252000Y285000D02*
D03*
X253000Y292000D02*
D03*
X482000Y233000D02*
D03*
Y242000D02*
D03*
X480000Y289000D02*
D03*
Y298000D02*
D03*
X481000Y343000D02*
D03*
Y352000D02*
D03*
Y410000D02*
D03*
Y400000D02*
D03*
X435000Y230000D02*
D03*
Y238000D02*
D03*
X426500Y407000D02*
D03*
Y397500D02*
D03*
X432000Y285000D02*
D03*
Y294000D02*
D03*
X433000Y351000D02*
D03*
Y340000D02*
D03*
X239500Y280500D02*
D03*
X351000Y410500D02*
D03*
X363000Y405000D02*
D03*
X353500Y398500D02*
D03*
X384500Y403000D02*
D03*
X225000Y428500D02*
D03*
X211000Y318500D02*
D03*
M02*
