M48
;Layer_Color=9474304
;FILE_FORMAT=2:5
INCH,LZ
;TYPE=PLATED
T01F00S00C0.02756
T02F00S00C0.02800
T03F00S00C0.03346
T04F00S00C0.03543
T05F00S00C0.03937
T07F00S00C0.05000
T08F00S00C0.06693
T09F00S00C0.12500
%
T01
X031Y01425
X0345Y0155
Y0125
X0475Y021
X0473Y0267
X0443
X0445Y021
X031Y01725
X01295Y0348
X013Y04175
Y04475
X01595Y0348
X04425Y03225
X044Y038
X047
X04725Y03225
T02
X0482Y0233
Y0242
X048Y0289
Y0298
X0432Y0294
Y0285
X0435Y0238
Y023
X0276Y0292
X0275Y0301
X0266Y0309
X0253Y0292
X0252Y0285
X02395Y02805
X0229Y0312
X0211Y03185
X0237Y0343
X0225Y04285
X0351Y04105
X03535Y03985
X0363Y0405
X03845Y0403
X0403Y0399
X04265Y03975
Y0407
X0433Y0351
Y034
X0481Y0343
Y0352
Y04
Y041
T03
X0325Y0285
X0295
X0227Y02505
X0197
X01875
X01575
X0255Y0345
Y0375
X02875Y038
X0285Y03325
X0264Y04605
X03175Y038
X0315Y03325
X0264Y04905
T04
X04175Y01275
Y01375
X0508Y0216
Y0226
X051Y0271
Y0281
X057Y0289
Y0299
Y0242
Y0232
X03725Y02175
X03625
X03525
X02825Y01675
Y01575
X01845Y02705
Y02805
X0115Y0205
Y0195
X014Y0371
X015
X0155Y04375
Y04475
X0115Y045
Y044
X051Y03925
Y03825
Y03345
Y03245
X0569Y0342
Y0352
X057Y0399
Y0409
X0536Y04895
X0526
X0516
X0506
X0496
X0486
X0476
X0466
X0456
X0435Y049
X0425
X0415
X0405
X0375
X0365
X034
X033
X03025
X02925
T05
X0252Y04235
Y04335
Y04435
T07
X02975Y02625
Y02725
Y031
Y032
X03Y03575
Y03675
X01925Y04775
Y04875
T08
X0165413Y01225
Y015
X0239587
Y01225
Y01775
Y0205
X0165413
Y01775
T09
X0115Y0115
X0565
Y0485
X0115
M30
