G04*
G04 #@! TF.GenerationSoftware,Altium Limited,Altium Designer,26.2.0 (7)*
G04*
G04 Layer_Color=8421504*
%FSLAX25Y25*%
%MOIN*%
G70*
G04*
G04 #@! TF.SameCoordinates,CECF952D-64F9-48ED-BA59-EEDE46F112F8*
G04*
G04*
G04 #@! TF.FilePolarity,Positive*
G04*
G01*
G75*
%ADD17R,0.07756X0.02097*%
%ADD18R,0.05100X0.01000*%
%ADD19R,0.01000X0.02800*%
G04:AMPARAMS|DCode=20|XSize=47.64mil|YSize=22.84mil|CornerRadius=2.85mil|HoleSize=0mil|Usage=FLASHONLY|Rotation=90.000|XOffset=0mil|YOffset=0mil|HoleType=Round|Shape=RoundedRectangle|*
%AMROUNDEDRECTD20*
21,1,0.04764,0.01713,0,0,90.0*
21,1,0.04193,0.02284,0,0,90.0*
1,1,0.00571,0.00856,0.02097*
1,1,0.00571,0.00856,-0.02097*
1,1,0.00571,-0.00856,-0.02097*
1,1,0.00571,-0.00856,0.02097*
%
%ADD20ROUNDEDRECTD20*%
%ADD21R,0.05866X0.13465*%
%ADD22R,0.20079X0.07480*%
%ADD23R,0.05512X0.04331*%
%ADD24R,0.04331X0.05512*%
%ADD25R,0.04331X0.10236*%
G36*
X464306Y234606D02*
X455694D01*
Y229094D01*
X464306D01*
Y234606D01*
D02*
G37*
G36*
Y240906D02*
X455694D01*
Y235394D01*
X464306D01*
Y240906D01*
D02*
G37*
G36*
X461806Y289606D02*
X453194D01*
Y284094D01*
X461806D01*
Y289606D01*
D02*
G37*
G36*
Y295906D02*
X453194D01*
Y290394D01*
X461806D01*
Y295906D01*
D02*
G37*
G36*
Y344606D02*
X453194D01*
Y339094D01*
X461806D01*
Y344606D01*
D02*
G37*
G36*
Y350906D02*
X453194D01*
Y345394D01*
X461806D01*
Y350906D01*
D02*
G37*
G36*
Y402106D02*
X453194D01*
Y396594D01*
X461806D01*
Y402106D01*
D02*
G37*
G36*
Y408406D02*
X453194D01*
Y402894D01*
X461806D01*
Y408406D01*
D02*
G37*
D17*
X469700Y242500D02*
D03*
Y237500D02*
D03*
Y232500D02*
D03*
Y227500D02*
D03*
X450300D02*
D03*
Y232500D02*
D03*
Y237500D02*
D03*
Y242500D02*
D03*
X467200Y297500D02*
D03*
Y292500D02*
D03*
Y287500D02*
D03*
Y282500D02*
D03*
X447800D02*
D03*
Y287500D02*
D03*
Y292500D02*
D03*
Y297500D02*
D03*
X467200Y352500D02*
D03*
Y347500D02*
D03*
Y342500D02*
D03*
Y337500D02*
D03*
X447800D02*
D03*
Y342500D02*
D03*
Y347500D02*
D03*
Y352500D02*
D03*
X467200Y410000D02*
D03*
Y405000D02*
D03*
Y400000D02*
D03*
Y395000D02*
D03*
X447800D02*
D03*
Y400000D02*
D03*
Y405000D02*
D03*
Y410000D02*
D03*
D18*
X234972Y299969D02*
D03*
Y298000D02*
D03*
Y296031D02*
D03*
X244028D02*
D03*
Y298000D02*
D03*
Y299969D02*
D03*
D19*
X235562Y292291D02*
D03*
X237531D02*
D03*
X239500D02*
D03*
X241469D02*
D03*
X243438D02*
D03*
Y303709D02*
D03*
X241469D02*
D03*
X239500D02*
D03*
X237531D02*
D03*
X235562D02*
D03*
D20*
X221260Y437559D02*
D03*
X225000D02*
D03*
X228740D02*
D03*
X221260Y447441D02*
D03*
X225000D02*
D03*
X228740D02*
D03*
D21*
X205528Y348000D02*
D03*
X228472D02*
D03*
D22*
X192000Y302232D02*
D03*
Y318768D02*
D03*
D23*
X221000Y297953D02*
D03*
Y292047D02*
D03*
X487500Y225905D02*
D03*
Y220000D02*
D03*
X487000Y280906D02*
D03*
Y275000D02*
D03*
X487500Y335000D02*
D03*
Y329095D02*
D03*
X235500Y326905D02*
D03*
Y321000D02*
D03*
X487500Y392953D02*
D03*
Y387047D02*
D03*
X202500Y445453D02*
D03*
Y439547D02*
D03*
D24*
X254500Y273000D02*
D03*
X260405D02*
D03*
X227000Y278500D02*
D03*
X221094D02*
D03*
D25*
X142815Y205000D02*
D03*
X132185D02*
D03*
M02*
