G04*
G04 #@! TF.GenerationSoftware,Altium Limited,Altium Designer,26.2.0 (7)*
G04*
G04 Layer_Color=16711935*
%FSLAX25Y25*%
%MOIN*%
G70*
G04*
G04 #@! TF.SameCoordinates,CECF952D-64F9-48ED-BA59-EEDE46F112F8*
G04*
G04*
G04 #@! TF.FilePolarity,Positive*
G04*
G01*
G75*
%ADD10C,0.00787*%
%ADD13C,0.00500*%
%ADD66C,0.00000*%
%ADD67C,0.00100*%
%ADD68C,0.00394*%
%ADD69C,0.00300*%
D10*
X221654Y432657D02*
G03*
X221654Y432657I-394J0D01*
G01*
X192394Y325854D02*
G03*
X192394Y325854I-394J0D01*
G01*
D13*
X219291Y439350D02*
Y445650D01*
Y439350D02*
X230709D01*
Y445650D01*
X219291D02*
X230709D01*
X204008Y341307D02*
X229992D01*
X204008Y354693D02*
X229992D01*
Y341307D02*
Y354693D01*
X204008Y341307D02*
Y354693D01*
X180189Y298689D02*
Y322311D01*
X203811Y298689D02*
Y322311D01*
X180189Y298689D02*
X203811D01*
X180189Y322311D02*
X203811D01*
X392700Y107185D02*
Y163922D01*
X357283Y107185D02*
X392700D01*
X357283D02*
Y163922D01*
X392700D01*
D66*
X458800Y244850D02*
G03*
X461200Y244850I1200J0D01*
G01*
X456300Y299850D02*
G03*
X458700Y299850I1200J0D01*
G01*
X456300Y354850D02*
G03*
X458700Y354850I1200J0D01*
G01*
X456300Y412350D02*
G03*
X458700Y412350I1200J0D01*
G01*
D67*
X452150Y225150D02*
Y244850D01*
X467850D01*
Y225150D02*
Y244850D01*
X452150Y225150D02*
X467850D01*
Y243450D02*
X472200D01*
Y241550D02*
Y243450D01*
X467850Y241550D02*
X472200D01*
X467850D02*
Y243450D01*
Y238450D02*
X472200D01*
Y236550D02*
Y238450D01*
X467850Y236550D02*
X472200D01*
X467850D02*
Y238450D01*
Y233450D02*
X472200D01*
Y231550D02*
Y233450D01*
X467850Y231550D02*
X472200D01*
X467850D02*
Y233450D01*
Y228450D02*
X472200D01*
Y226550D02*
Y228450D01*
X467850Y226550D02*
X472200D01*
X467850D02*
Y228450D01*
X447800Y226550D02*
X452150D01*
X447800D02*
Y228450D01*
X452150D01*
Y226550D02*
Y228450D01*
X447800Y231550D02*
X452150D01*
X447800D02*
Y233450D01*
X452150D01*
Y231550D02*
Y233450D01*
X447800Y236550D02*
X452150D01*
X447800D02*
Y238450D01*
X452150D01*
Y236550D02*
Y238450D01*
X447800Y241550D02*
X452150D01*
X447800D02*
Y243450D01*
X452150D01*
Y241550D02*
Y243450D01*
X449650Y280150D02*
Y299850D01*
X465350D01*
Y280150D02*
Y299850D01*
X449650Y280150D02*
X465350D01*
Y298450D02*
X469700D01*
Y296550D02*
Y298450D01*
X465350Y296550D02*
X469700D01*
X465350D02*
Y298450D01*
Y293450D02*
X469700D01*
Y291550D02*
Y293450D01*
X465350Y291550D02*
X469700D01*
X465350D02*
Y293450D01*
Y288450D02*
X469700D01*
Y286550D02*
Y288450D01*
X465350Y286550D02*
X469700D01*
X465350D02*
Y288450D01*
Y283450D02*
X469700D01*
Y281550D02*
Y283450D01*
X465350Y281550D02*
X469700D01*
X465350D02*
Y283450D01*
X445300Y281550D02*
X449650D01*
X445300D02*
Y283450D01*
X449650D01*
Y281550D02*
Y283450D01*
X445300Y286550D02*
X449650D01*
X445300D02*
Y288450D01*
X449650D01*
Y286550D02*
Y288450D01*
X445300Y291550D02*
X449650D01*
X445300D02*
Y293450D01*
X449650D01*
Y291550D02*
Y293450D01*
X445300Y296550D02*
X449650D01*
X445300D02*
Y298450D01*
X449650D01*
Y296550D02*
Y298450D01*
Y335150D02*
Y354850D01*
X465350D01*
Y335150D02*
Y354850D01*
X449650Y335150D02*
X465350D01*
Y353450D02*
X469700D01*
Y351550D02*
Y353450D01*
X465350Y351550D02*
X469700D01*
X465350D02*
Y353450D01*
Y348450D02*
X469700D01*
Y346550D02*
Y348450D01*
X465350Y346550D02*
X469700D01*
X465350D02*
Y348450D01*
Y343450D02*
X469700D01*
Y341550D02*
Y343450D01*
X465350Y341550D02*
X469700D01*
X465350D02*
Y343450D01*
Y338450D02*
X469700D01*
Y336550D02*
Y338450D01*
X465350Y336550D02*
X469700D01*
X465350D02*
Y338450D01*
X445300Y336550D02*
X449650D01*
X445300D02*
Y338450D01*
X449650D01*
Y336550D02*
Y338450D01*
X445300Y341550D02*
X449650D01*
X445300D02*
Y343450D01*
X449650D01*
Y341550D02*
Y343450D01*
X445300Y346550D02*
X449650D01*
X445300D02*
Y348450D01*
X449650D01*
Y346550D02*
Y348450D01*
X445300Y351550D02*
X449650D01*
X445300D02*
Y353450D01*
X449650D01*
Y351550D02*
Y353450D01*
X233400Y299100D02*
X238400Y304100D01*
X233400Y291900D02*
X245600D01*
Y304100D01*
X233400D02*
X245600D01*
X233400Y291900D02*
Y304100D01*
X449650Y392650D02*
Y412350D01*
X465350D01*
Y392650D02*
Y412350D01*
X449650Y392650D02*
X465350D01*
Y410950D02*
X469700D01*
Y409050D02*
Y410950D01*
X465350Y409050D02*
X469700D01*
X465350D02*
Y410950D01*
Y405950D02*
X469700D01*
Y404050D02*
Y405950D01*
X465350Y404050D02*
X469700D01*
X465350D02*
Y405950D01*
Y400950D02*
X469700D01*
Y399050D02*
Y400950D01*
X465350Y399050D02*
X469700D01*
X465350D02*
Y400950D01*
Y395950D02*
X469700D01*
Y394050D02*
Y395950D01*
X465350Y394050D02*
X469700D01*
X465350D02*
Y395950D01*
X445300Y394050D02*
X449650D01*
X445300D02*
Y395950D01*
X449650D01*
Y394050D02*
Y395950D01*
X445300Y399050D02*
X449650D01*
X445300D02*
Y400950D01*
X449650D01*
Y399050D02*
Y400950D01*
X445300Y404050D02*
X449650D01*
X445300D02*
Y405950D01*
X449650D01*
Y404050D02*
Y405950D01*
X445300Y409050D02*
X449650D01*
X445300D02*
Y410950D01*
X449650D01*
Y409050D02*
Y410950D01*
D68*
X240779Y412437D02*
Y454563D01*
X259283Y412437D02*
Y454563D01*
X240779Y412437D02*
X259283D01*
X240779Y454563D02*
X259283D01*
X245898Y412437D02*
Y454563D01*
X223854Y290669D02*
Y299331D01*
X218146Y290669D02*
Y299331D01*
X223854D01*
X218146Y290669D02*
X223854D01*
X490354Y218622D02*
Y227284D01*
X484646Y218622D02*
Y227284D01*
X490354D01*
X484646Y218622D02*
X490354D01*
X489854Y273622D02*
Y282283D01*
X484146Y273622D02*
Y282283D01*
X489854D01*
X484146Y273622D02*
X489854D01*
X490354Y327716D02*
Y336378D01*
X484646Y327716D02*
Y336378D01*
X490354D01*
X484646Y327716D02*
X490354D01*
X253122Y275854D02*
X261784D01*
X253122Y270146D02*
X261784D01*
X253122D02*
Y275854D01*
X261784Y270146D02*
Y275854D01*
X219717Y275646D02*
X228378D01*
X219717Y281354D02*
X228378D01*
Y275646D02*
Y281354D01*
X219717Y275646D02*
Y281354D01*
X130807Y199685D02*
X144193D01*
X130807Y210315D02*
X144193D01*
Y199685D02*
Y210315D01*
X130807Y199685D02*
Y210315D01*
X238354Y319622D02*
Y328284D01*
X232646Y319622D02*
Y328284D01*
X238354D01*
X232646Y319622D02*
X238354D01*
X490354Y385669D02*
Y394331D01*
X484646Y385669D02*
Y394331D01*
X490354D01*
X484646Y385669D02*
X490354D01*
X205354Y438169D02*
Y446831D01*
X199646Y438169D02*
Y446831D01*
X205354D01*
X199646Y438169D02*
X205354D01*
D69*
X452400Y243715D02*
X455732Y240383D01*
X452400D02*
X455732Y243715D01*
X452400Y242049D02*
X455732D01*
X454066Y240383D02*
Y243715D01*
X449900Y298715D02*
X453232Y295383D01*
X449900D02*
X453232Y298715D01*
X449900Y297049D02*
X453232D01*
X451566Y295383D02*
Y298715D01*
X449900Y353715D02*
X453232Y350383D01*
X449900D02*
X453232Y353715D01*
X449900Y352049D02*
X453232D01*
X451566Y350383D02*
Y353715D01*
X238772Y301634D02*
X242105Y298302D01*
X238772D02*
X242105Y301634D01*
X238772Y299968D02*
X242105D01*
X240439Y298302D02*
Y301634D01*
X449900Y411215D02*
X453232Y407883D01*
X449900D02*
X453232Y411215D01*
X449900Y409549D02*
X453232D01*
X451566Y407883D02*
Y411215D01*
M02*
