G04*
G04 #@! TF.GenerationSoftware,Altium Limited,Altium Designer,26.2.0 (7)*
G04*
G04 Layer_Color=32768*
%FSLAX25Y25*%
%MOIN*%
G70*
G04*
G04 #@! TF.SameCoordinates,CECF952D-64F9-48ED-BA59-EEDE46F112F8*
G04*
G04*
G04 #@! TF.FilePolarity,Positive*
G04*
G01*
G75*
%ADD14C,0.00600*%
%ADD68C,0.00394*%
%ADD70C,0.00197*%
G36*
X466350Y412048D02*
X472078D01*
Y392952D01*
X466350D01*
Y391650D01*
X448650D01*
Y392952D01*
X442922D01*
Y412048D01*
X448650D01*
Y413350D01*
X466350D01*
Y412048D01*
D02*
G37*
G36*
Y354548D02*
X472078D01*
Y335452D01*
X466350D01*
Y334150D01*
X448650D01*
Y335452D01*
X442922D01*
Y354548D01*
X448650D01*
Y355850D01*
X466350D01*
Y354548D01*
D02*
G37*
G36*
X244938Y305100D02*
X246600D01*
Y301469D01*
X247578Y301969D01*
Y294531D01*
X246600D01*
Y290900D01*
X244938D01*
Y288741D01*
X234062D01*
Y290900D01*
X232400D01*
Y294531D01*
X231422D01*
Y301469D01*
X232400D01*
Y305100D01*
X234062D01*
Y307259D01*
X244938D01*
Y305100D01*
D02*
G37*
G36*
X466350Y299548D02*
X472078D01*
Y280452D01*
X466350D01*
Y279150D01*
X448650D01*
Y280452D01*
X442922D01*
Y299548D01*
X448650D01*
Y300850D01*
X466350D01*
Y299548D01*
D02*
G37*
G36*
X468850Y244548D02*
X474578D01*
Y225452D01*
X468850D01*
Y224150D01*
X451150D01*
Y225452D01*
X445422D01*
Y244548D01*
X451150D01*
Y245850D01*
X468850D01*
Y244548D01*
D02*
G37*
D14*
X445422Y225452D02*
X451150D01*
Y224150D02*
Y225452D01*
Y224150D02*
X468850D01*
Y225452D01*
X474578D01*
Y244548D01*
X468850D02*
X474578D01*
X468850D02*
Y245850D01*
X451150D02*
X468850D01*
X451150Y244548D02*
Y245850D01*
X445422Y244548D02*
X451150D01*
X445422Y225452D02*
Y244548D01*
X442922Y280452D02*
X448650D01*
Y279150D02*
Y280452D01*
Y279150D02*
X466350D01*
Y280452D01*
X472078D01*
Y299548D01*
X466350D02*
X472078D01*
X466350D02*
Y300850D01*
X448650D02*
X466350D01*
X448650Y299548D02*
Y300850D01*
X442922Y299548D02*
X448650D01*
X442922Y280452D02*
Y299548D01*
Y335452D02*
X448650D01*
Y334150D02*
Y335452D01*
Y334150D02*
X466350D01*
Y335452D01*
X472078D01*
Y354548D01*
X466350D02*
X472078D01*
X466350D02*
Y355850D01*
X448650D02*
X466350D01*
X448650Y354548D02*
Y355850D01*
X442922Y354548D02*
X448650D01*
X442922Y335452D02*
Y354548D01*
X232400Y290900D02*
Y294531D01*
X231422D02*
X232400D01*
X231422D02*
Y301469D01*
X232400D01*
Y305100D01*
X234062D01*
Y307259D01*
X244938D01*
Y305100D02*
Y307259D01*
Y305100D02*
X246600D01*
Y301469D02*
Y305100D01*
Y301469D02*
X247578D01*
Y294531D02*
Y301469D01*
X246600Y294531D02*
X247578D01*
X246600Y290900D02*
Y294531D01*
X244938Y290900D02*
X246600D01*
X244938Y288741D02*
Y290900D01*
X234062Y288741D02*
X244938D01*
X234062D02*
Y290900D01*
X232400D02*
X234062D01*
X442922Y392952D02*
X448650D01*
Y391650D02*
Y392952D01*
Y391650D02*
X466350D01*
Y392952D01*
X472078D01*
Y412048D01*
X466350D02*
X472078D01*
X466350D02*
Y413350D01*
X448650D02*
X466350D01*
X448650Y412048D02*
Y413350D01*
X442922Y412048D02*
X448650D01*
X442922Y392952D02*
Y412048D01*
D68*
X250031Y433500D02*
X253969D01*
X252000Y431531D02*
Y435468D01*
X219032Y295000D02*
X222969D01*
X221000Y293032D02*
Y296969D01*
X224150Y289488D02*
Y300512D01*
X217850Y289488D02*
Y300512D01*
X224150D01*
X217850Y289488D02*
X224150D01*
X485532Y222953D02*
X489468D01*
X487500Y220984D02*
Y224921D01*
X490650Y217441D02*
Y228465D01*
X484350Y217441D02*
Y228465D01*
X490650D01*
X484350Y217441D02*
X490650D01*
X485032Y277953D02*
X488969D01*
X487000Y275984D02*
Y279921D01*
X490150Y272441D02*
Y283465D01*
X483850Y272441D02*
Y283465D01*
X490150D01*
X483850Y272441D02*
X490150D01*
X485532Y332047D02*
X489468D01*
X487500Y330079D02*
Y334016D01*
X490650Y326535D02*
Y337559D01*
X484350Y326535D02*
Y337559D01*
X490650D01*
X484350Y326535D02*
X490650D01*
X257453Y271031D02*
Y274969D01*
X255484Y273000D02*
X259421D01*
X251941Y276150D02*
X262965D01*
X251941Y269850D02*
X262965D01*
X251941D02*
Y276150D01*
X262965Y269850D02*
Y276150D01*
X224047Y276532D02*
Y280469D01*
X222079Y278500D02*
X226016D01*
X218535Y275350D02*
X229559D01*
X218535Y281650D02*
X229559D01*
Y275350D02*
Y281650D01*
X218535Y275350D02*
Y281650D01*
X137500Y203031D02*
Y206968D01*
X135531Y205000D02*
X139469D01*
X129626Y199488D02*
X145374D01*
X129626Y210512D02*
X145374D01*
Y199488D02*
Y210512D01*
X129626Y199488D02*
Y210512D01*
X233531Y323953D02*
X237469D01*
X235500Y321984D02*
Y325921D01*
X238650Y318441D02*
Y329465D01*
X232350Y318441D02*
Y329465D01*
X238650D01*
X232350Y318441D02*
X238650D01*
X485532Y390000D02*
X489468D01*
X487500Y388032D02*
Y391968D01*
X490650Y384488D02*
Y395512D01*
X484350Y384488D02*
Y395512D01*
X490650D01*
X484350Y384488D02*
X490650D01*
X200532Y442500D02*
X204468D01*
X202500Y440531D02*
Y444468D01*
X205650Y436988D02*
Y448012D01*
X199350Y436988D02*
Y448012D01*
X205650D01*
X199350Y436988D02*
X205650D01*
D70*
X218307Y438366D02*
Y446634D01*
X219134Y450807D02*
X230866D01*
X218307Y446634D02*
X219134D01*
Y450807D01*
X231693Y438366D02*
Y446634D01*
X219134Y434193D02*
X230866D01*
Y438366D02*
X231693D01*
X230866Y434193D02*
Y438366D01*
X218307D02*
X219134D01*
Y434193D02*
Y438366D01*
X230866Y446634D02*
X231693D01*
X230866D02*
Y450807D01*
X201614Y340291D02*
X232386D01*
X201614Y355709D02*
X232386D01*
X201614Y340291D02*
Y355709D01*
X232386Y340291D02*
Y355709D01*
X204795Y297508D02*
Y323492D01*
X179205Y297508D02*
X204795D01*
X179205D02*
Y323492D01*
X204795D01*
X393701Y159350D02*
Y165059D01*
Y159350D02*
X399016D01*
Y139272D02*
Y159350D01*
X393701Y139272D02*
X399016D01*
X393701Y106004D02*
Y139272D01*
X356299Y106004D02*
X393701D01*
X356299D02*
Y165059D01*
X365748D01*
X383858D02*
X393701D01*
X383858D02*
Y167224D01*
X365748D02*
X383858D01*
X365748Y165059D02*
Y167224D01*
M02*
