G04*
G04 #@! TF.GenerationSoftware,Altium Limited,Altium Designer,26.2.0 (7)*
G04*
G04 Layer_Color=255*
%FSLAX25Y25*%
%MOIN*%
G70*
G04*
G04 #@! TF.SameCoordinates,CECF952D-64F9-48ED-BA59-EEDE46F112F8*
G04*
G04*
G04 #@! TF.FilePolarity,Positive*
G04*
G01*
G75*
%ADD50C,0.05512*%
%ADD51C,0.06299*%
%ADD52R,0.06299X0.06299*%
%ADD53R,0.05906X0.05906*%
%ADD54C,0.05906*%
%ADD55R,0.05906X0.05906*%
%ADD56O,0.19685X0.09843*%
%ADD57O,0.17717X0.08858*%
%ADD58O,0.08858X0.17717*%
%ADD59C,0.16500*%
%ADD60C,0.07000*%
%ADD61R,0.11024X0.11024*%
%ADD62C,0.11024*%
%ADD63C,0.04724*%
D50*
X187500Y250500D02*
D03*
X157500D02*
D03*
X255000Y345000D02*
D03*
Y375000D02*
D03*
X227000Y250500D02*
D03*
X197000D02*
D03*
X317500Y380000D02*
D03*
X287500D02*
D03*
X315000Y332500D02*
D03*
X285000D02*
D03*
X325000Y285000D02*
D03*
X295000D02*
D03*
X264000Y490500D02*
D03*
Y460500D02*
D03*
D51*
X252000Y443500D02*
D03*
Y433500D02*
D03*
D52*
Y423500D02*
D03*
D53*
X570000Y232000D02*
D03*
Y289000D02*
D03*
X569000Y342000D02*
D03*
X570000Y399000D02*
D03*
X115000Y195000D02*
D03*
Y440000D02*
D03*
D54*
X570000Y242000D02*
D03*
Y299000D02*
D03*
X569000Y352000D02*
D03*
X375000Y490000D02*
D03*
X570000Y409000D02*
D03*
X516000Y489500D02*
D03*
X506000D02*
D03*
X496000D02*
D03*
X486000D02*
D03*
X476000D02*
D03*
X466000D02*
D03*
X456000D02*
D03*
X526000D02*
D03*
X340000Y490000D02*
D03*
X362500Y217500D02*
D03*
X372500D02*
D03*
X115000Y205000D02*
D03*
X405000Y490000D02*
D03*
X415000D02*
D03*
X425000D02*
D03*
X115000Y450000D02*
D03*
X302500Y490000D02*
D03*
X508000Y226000D02*
D03*
Y216000D02*
D03*
X510000Y281000D02*
D03*
Y271000D02*
D03*
Y334500D02*
D03*
Y324500D02*
D03*
X417500Y137500D02*
D03*
Y127500D02*
D03*
X140000Y371000D02*
D03*
X150000D02*
D03*
X282500Y167500D02*
D03*
Y157500D02*
D03*
X184500Y280500D02*
D03*
Y270500D02*
D03*
X510000Y392500D02*
D03*
Y382500D02*
D03*
X155000Y447500D02*
D03*
Y437500D02*
D03*
D55*
X365000Y490000D02*
D03*
X536000Y489500D02*
D03*
X330000Y490000D02*
D03*
X352500Y217500D02*
D03*
X435000Y490000D02*
D03*
X292500D02*
D03*
D56*
X375000Y161122D02*
D03*
D57*
Y137500D02*
D03*
D58*
X393504Y149311D02*
D03*
D59*
X565000Y115000D02*
D03*
X115000D02*
D03*
X565000Y485000D02*
D03*
X115000D02*
D03*
D60*
X300000Y367500D02*
D03*
Y357500D02*
D03*
X192500Y487500D02*
D03*
Y477500D02*
D03*
X297500Y320000D02*
D03*
Y310000D02*
D03*
Y272500D02*
D03*
Y262500D02*
D03*
D61*
X165413Y122500D02*
D03*
Y150000D02*
D03*
X239587Y177500D02*
D03*
Y205000D02*
D03*
D62*
Y122500D02*
D03*
Y150000D02*
D03*
X165413Y177500D02*
D03*
Y205000D02*
D03*
D63*
X159500Y348000D02*
D03*
X129500D02*
D03*
X445000Y210000D02*
D03*
X475000D02*
D03*
X443000Y267000D02*
D03*
X473000D02*
D03*
X442500Y322500D02*
D03*
X472500D02*
D03*
X345000Y125000D02*
D03*
Y155000D02*
D03*
X310000Y142500D02*
D03*
Y172500D02*
D03*
X440000Y380000D02*
D03*
X470000D02*
D03*
X130000Y447500D02*
D03*
Y417500D02*
D03*
M02*
