G04*
G04 #@! TF.GenerationSoftware,Altium Limited,Altium Designer,26.2.0 (7)*
G04*
G04 Layer_Color=16711935*
%FSLAX25Y25*%
%MOIN*%
G70*
G04*
G04 #@! TF.SameCoordinates,792443EE-4A4A-475B-936D-B76CB5C204F7*
G04*
G04*
G04 #@! TF.FilePolarity,Positive*
G04*
G01*
G75*
%ADD10C,0.00787*%
%ADD11C,0.00500*%
%ADD51C,0.00100*%
%ADD52C,0.00394*%
D10*
X223406Y207303D02*
G03*
X223406Y207303I-394J0D01*
G01*
X306894Y325716D02*
G03*
X306894Y325716I-394J0D01*
G01*
X334394Y296284D02*
G03*
X334394Y296284I-394J0D01*
G01*
X360394Y348716D02*
G03*
X360394Y348716I-394J0D01*
G01*
D11*
X310982Y301632D02*
G03*
X311173Y317256I-4482J7868D01*
G01*
X329518Y320368D02*
G03*
X329327Y304744I4482J-7868D01*
G01*
X364482Y324632D02*
G03*
X364673Y340256I-4482J7868D01*
G01*
X219862Y203957D02*
Y213799D01*
X211988Y203957D02*
X219862D01*
X211988D02*
Y213799D01*
X219862D01*
X301382Y301035D02*
Y317965D01*
X339118Y304035D02*
Y320965D01*
X354882Y324035D02*
Y340965D01*
D51*
X349278Y202004D02*
Y218704D01*
X365978D01*
Y202004D02*
Y218704D01*
X349278Y202004D02*
X365978D01*
X349278Y213704D02*
X354278Y218704D01*
D52*
X338169Y224646D02*
X346831D01*
X338169Y230354D02*
X346831D01*
Y224646D02*
Y230354D01*
X338169Y224646D02*
Y230354D01*
X218216Y183646D02*
X226878D01*
X218216Y189354D02*
X226878D01*
Y183646D02*
Y189354D01*
X218216Y183646D02*
Y189354D01*
X312854Y189669D02*
Y198331D01*
X307146Y189669D02*
Y198331D01*
X312854D01*
X307146Y189669D02*
X312854D01*
X381854Y180717D02*
Y189378D01*
X376146Y180717D02*
Y189378D01*
X381854D01*
X376146Y180717D02*
X381854D01*
X337146Y179717D02*
Y188378D01*
X342854Y179717D02*
Y188378D01*
X337146Y179717D02*
X342854D01*
X337146Y188378D02*
X342854D01*
X326854Y189669D02*
Y198331D01*
X321146Y189669D02*
Y198331D01*
X326854D01*
X321146Y189669D02*
X326854D01*
M02*
