G04*
G04 #@! TF.GenerationSoftware,Altium Limited,Altium Designer,26.2.0 (7)*
G04*
G04 Layer_Physical_Order=1*
G04 Layer_Color=255*
%FSLAX25Y25*%
%MOIN*%
G70*
G04*
G04 #@! TF.SameCoordinates,792443EE-4A4A-475B-936D-B76CB5C204F7*
G04*
G04*
G04 #@! TF.FilePolarity,Positive*
G04*
G01*
G75*
%ADD13C,0.01000*%
%ADD15R,0.05512X0.04331*%
%ADD16R,0.04331X0.05512*%
G04:AMPARAMS|DCode=17|XSize=23.62mil|YSize=7.87mil|CornerRadius=1.97mil|HoleSize=0mil|Usage=FLASHONLY|Rotation=90.000|XOffset=0mil|YOffset=0mil|HoleType=Round|Shape=RoundedRectangle|*
%AMROUNDEDRECTD17*
21,1,0.02362,0.00394,0,0,90.0*
21,1,0.01968,0.00787,0,0,90.0*
1,1,0.00394,0.00197,0.00984*
1,1,0.00394,0.00197,-0.00984*
1,1,0.00394,-0.00197,-0.00984*
1,1,0.00394,-0.00197,0.00984*
%
%ADD17ROUNDEDRECTD17*%
%ADD18C,0.01181*%
G04:AMPARAMS|DCode=19|XSize=41.34mil|YSize=15.75mil|CornerRadius=3.94mil|HoleSize=0mil|Usage=FLASHONLY|Rotation=180.000|XOffset=0mil|YOffset=0mil|HoleType=Round|Shape=RoundedRectangle|*
%AMROUNDEDRECTD19*
21,1,0.04134,0.00787,0,0,180.0*
21,1,0.03347,0.01575,0,0,180.0*
1,1,0.00787,-0.01673,0.00394*
1,1,0.00787,0.01673,0.00394*
1,1,0.00787,0.01673,-0.00394*
1,1,0.00787,-0.01673,-0.00394*
%
%ADD19ROUNDEDRECTD19*%
%ADD20O,0.04724X0.03150*%
%ADD34R,0.00500X0.00500*%
%ADD35R,0.00500X0.00500*%
%ADD36C,0.02000*%
%ADD37C,0.04000*%
%ADD38R,0.07250X0.13400*%
%ADD39C,0.10000*%
%ADD40C,0.10650*%
%ADD41C,0.05906*%
%ADD42R,0.05906X0.05906*%
%ADD43C,0.04724*%
%ADD44C,0.07000*%
%ADD45C,0.05110*%
%ADD46C,0.05512*%
%ADD47R,0.05906X0.05906*%
%ADD48C,0.16500*%
%ADD49C,0.05000*%
G36*
X467687Y101313D02*
X101313D01*
Y503687D01*
X467687D01*
Y101313D01*
D02*
G37*
%LPC*%
G36*
X356000Y502322D02*
X356000Y502322D01*
X298500D01*
X298500Y502322D01*
X297803Y502184D01*
X297211Y501789D01*
X297211Y501789D01*
X284745Y489322D01*
X282585D01*
X282520Y489434D01*
X281934Y490020D01*
X281216Y490435D01*
X280415Y490650D01*
X279585D01*
X279461Y490616D01*
X276289Y493789D01*
X275697Y494184D01*
X275000Y494322D01*
X275000Y494322D01*
X251240D01*
Y496240D01*
X243760D01*
Y488760D01*
X251240D01*
Y490678D01*
X274245D01*
X276884Y488039D01*
X276850Y487915D01*
Y487085D01*
X277065Y486284D01*
X277480Y485566D01*
X278066Y484980D01*
X278784Y484565D01*
X279585Y484350D01*
X280415D01*
X281216Y484565D01*
X281934Y484980D01*
X282520Y485566D01*
X282585Y485678D01*
X285500D01*
X285500Y485678D01*
X286197Y485816D01*
X286789Y486211D01*
X299255Y498678D01*
X355245D01*
X370678Y483245D01*
Y474085D01*
X370566Y474020D01*
X369980Y473434D01*
X369565Y472716D01*
X369350Y471915D01*
Y471085D01*
X369565Y470284D01*
X369980Y469566D01*
X370566Y468980D01*
X371284Y468565D01*
X372085Y468350D01*
X372915D01*
X373716Y468565D01*
X374434Y468980D01*
X375020Y469566D01*
X375085Y469678D01*
X387000D01*
X387000Y469678D01*
X387697Y469816D01*
X388289Y470211D01*
X388337Y470260D01*
X393240D01*
Y471268D01*
X394240Y471683D01*
X403178Y462745D01*
Y434255D01*
X394745Y425822D01*
X392767D01*
X392493Y426297D01*
X391796Y426993D01*
X390944Y427485D01*
X389992Y427740D01*
X389008D01*
X388056Y427485D01*
X387204Y426993D01*
X386507Y426297D01*
X386015Y425444D01*
X385760Y424492D01*
Y423508D01*
X386015Y422556D01*
X386507Y421703D01*
X387204Y421007D01*
X388056Y420515D01*
X389008Y420260D01*
X389992D01*
X390944Y420515D01*
X391796Y421007D01*
X392493Y421703D01*
X392767Y422178D01*
X395500D01*
X395500Y422178D01*
X396197Y422316D01*
X396789Y422711D01*
X406289Y432211D01*
X406289Y432211D01*
X406684Y432803D01*
X406822Y433500D01*
X406822Y433500D01*
Y463500D01*
X406684Y464197D01*
X406289Y464789D01*
X406289Y464789D01*
X395789Y475289D01*
X395197Y475684D01*
X394500Y475822D01*
X394500Y475822D01*
X393240D01*
Y477740D01*
X385760D01*
Y473322D01*
X375085D01*
X375020Y473434D01*
X374434Y474020D01*
X374322Y474085D01*
Y484000D01*
X374184Y484697D01*
X373789Y485289D01*
X373789Y485289D01*
X357289Y501789D01*
X356697Y502184D01*
X356000Y502322D01*
D02*
G37*
G36*
X318020Y496453D02*
X318000D01*
Y493000D01*
X321453D01*
Y493020D01*
X321183Y494026D01*
X320663Y494927D01*
X319927Y495663D01*
X319026Y496183D01*
X318020Y496453D01*
D02*
G37*
G36*
X238020D02*
X238000D01*
Y493000D01*
X241453D01*
Y493020D01*
X241183Y494026D01*
X240663Y494927D01*
X239927Y495663D01*
X239026Y496183D01*
X238020Y496453D01*
D02*
G37*
G36*
X317000D02*
X316980D01*
X315974Y496183D01*
X315073Y495663D01*
X314337Y494927D01*
X313817Y494026D01*
X313547Y493020D01*
Y493000D01*
X317000D01*
Y496453D01*
D02*
G37*
G36*
X237000D02*
X236980D01*
X235974Y496183D01*
X235073Y495663D01*
X234337Y494927D01*
X233817Y494026D01*
X233547Y493020D01*
Y493000D01*
X237000D01*
Y496453D01*
D02*
G37*
G36*
X217992Y496240D02*
X217008D01*
X216056Y495985D01*
X215203Y495493D01*
X214507Y494797D01*
X214015Y493944D01*
X213760Y492992D01*
Y492008D01*
X214015Y491056D01*
X214507Y490204D01*
X215203Y489507D01*
X216056Y489015D01*
X217008Y488760D01*
X217992D01*
X218944Y489015D01*
X219796Y489507D01*
X220493Y490204D01*
X220985Y491056D01*
X221240Y492008D01*
Y492992D01*
X220985Y493944D01*
X220493Y494797D01*
X219796Y495493D01*
X218944Y495985D01*
X217992Y496240D01*
D02*
G37*
G36*
X187992D02*
X187008D01*
X186056Y495985D01*
X185204Y495493D01*
X184507Y494797D01*
X184015Y493944D01*
X183760Y492992D01*
Y492008D01*
X184015Y491056D01*
X184507Y490204D01*
X185204Y489507D01*
X186056Y489015D01*
X187008Y488760D01*
X187992D01*
X188944Y489015D01*
X189796Y489507D01*
X190493Y490204D01*
X190985Y491056D01*
X191240Y492008D01*
Y492992D01*
X190985Y493944D01*
X190493Y494797D01*
X189796Y495493D01*
X188944Y495985D01*
X187992Y496240D01*
D02*
G37*
G36*
X177992D02*
X177008D01*
X176056Y495985D01*
X175204Y495493D01*
X174507Y494797D01*
X174015Y493944D01*
X173760Y492992D01*
Y492008D01*
X174015Y491056D01*
X174507Y490204D01*
X175204Y489507D01*
X176056Y489015D01*
X177008Y488760D01*
X177992D01*
X178944Y489015D01*
X179797Y489507D01*
X180493Y490204D01*
X180985Y491056D01*
X181240Y492008D01*
Y492992D01*
X180985Y493944D01*
X180493Y494797D01*
X179797Y495493D01*
X178944Y495985D01*
X177992Y496240D01*
D02*
G37*
G36*
X321453Y492000D02*
X318000D01*
Y488547D01*
X318020D01*
X319026Y488817D01*
X319927Y489337D01*
X320663Y490073D01*
X321183Y490974D01*
X321453Y491980D01*
Y492000D01*
D02*
G37*
G36*
X317000D02*
X313547D01*
Y491980D01*
X313817Y490974D01*
X314337Y490073D01*
X315073Y489337D01*
X315974Y488817D01*
X316980Y488547D01*
X317000D01*
Y492000D01*
D02*
G37*
G36*
X241453D02*
X238000D01*
Y488547D01*
X238020D01*
X239026Y488817D01*
X239927Y489337D01*
X240663Y490073D01*
X241183Y490974D01*
X241453Y491980D01*
Y492000D01*
D02*
G37*
G36*
X237000D02*
X233547D01*
Y491980D01*
X233817Y490974D01*
X234337Y490073D01*
X235073Y489337D01*
X235974Y488817D01*
X236980Y488547D01*
X237000D01*
Y492000D01*
D02*
G37*
G36*
X458390Y501537D02*
X456610D01*
X454864Y501190D01*
X453219Y500509D01*
X451739Y499520D01*
X450480Y498261D01*
X449491Y496781D01*
X448810Y495136D01*
X448463Y493390D01*
Y491610D01*
X448810Y489864D01*
X449491Y488219D01*
X450480Y486739D01*
X451739Y485480D01*
X453219Y484491D01*
X454864Y483810D01*
X456610Y483463D01*
X458390D01*
X460136Y483810D01*
X461781Y484491D01*
X463261Y485480D01*
X464520Y486739D01*
X465509Y488219D01*
X466190Y489864D01*
X466537Y491610D01*
Y493390D01*
X466190Y495136D01*
X465509Y496781D01*
X464520Y498261D01*
X463261Y499520D01*
X461781Y500509D01*
X460136Y501190D01*
X458390Y501537D01*
D02*
G37*
G36*
X113390Y499037D02*
X111610D01*
X109864Y498690D01*
X108219Y498009D01*
X106739Y497020D01*
X105480Y495761D01*
X104491Y494281D01*
X103810Y492636D01*
X103463Y490890D01*
Y489110D01*
X103810Y487364D01*
X104491Y485719D01*
X105480Y484239D01*
X106739Y482980D01*
X108219Y481991D01*
X109864Y481310D01*
X111610Y480963D01*
X113390D01*
X115136Y481310D01*
X116781Y481991D01*
X118261Y482980D01*
X119520Y484239D01*
X120509Y485719D01*
X121190Y487364D01*
X121537Y489110D01*
Y490890D01*
X121190Y492636D01*
X120509Y494281D01*
X119520Y495761D01*
X118261Y497020D01*
X116781Y498009D01*
X115136Y498690D01*
X113390Y499037D01*
D02*
G37*
G36*
X308000Y480847D02*
Y478000D01*
X310847D01*
X310633Y478798D01*
X310190Y479564D01*
X309564Y480190D01*
X308798Y480633D01*
X308000Y480847D01*
D02*
G37*
G36*
X307000D02*
X306202Y480633D01*
X305436Y480190D01*
X304810Y479564D01*
X304367Y478798D01*
X304153Y478000D01*
X307000D01*
Y480847D01*
D02*
G37*
G36*
X310847Y477000D02*
X308000D01*
Y474153D01*
X308798Y474367D01*
X309564Y474810D01*
X310190Y475436D01*
X310633Y476202D01*
X310847Y477000D01*
D02*
G37*
G36*
X307000D02*
X304153D01*
X304367Y476202D01*
X304810Y475436D01*
X305436Y474810D01*
X306202Y474367D01*
X307000Y474153D01*
Y477000D01*
D02*
G37*
G36*
X157433Y466787D02*
X156567D01*
X155731Y466563D01*
X154982Y466131D01*
X154912Y466061D01*
X112178D01*
X111444Y466485D01*
X110492Y466740D01*
X109508D01*
X108556Y466485D01*
X107703Y465993D01*
X107007Y465297D01*
X106515Y464444D01*
X106260Y463492D01*
Y462508D01*
X106515Y461556D01*
X107007Y460704D01*
X107703Y460007D01*
X108556Y459515D01*
X109508Y459260D01*
X110492D01*
X111444Y459515D01*
X112296Y460007D01*
X112728Y460439D01*
X155728D01*
X155731Y460437D01*
X156567Y460213D01*
X157433D01*
X158269Y460437D01*
X159019Y460869D01*
X159631Y461482D01*
X160063Y462231D01*
X160287Y463067D01*
Y463933D01*
X160063Y464769D01*
X159631Y465519D01*
X159019Y466131D01*
X158269Y466563D01*
X157433Y466787D01*
D02*
G37*
G36*
X459992Y467740D02*
X459008D01*
X458056Y467485D01*
X457203Y466993D01*
X456507Y466296D01*
X456015Y465444D01*
X455760Y464492D01*
Y463508D01*
X456015Y462556D01*
X456507Y461703D01*
X457203Y461007D01*
X458056Y460515D01*
X459008Y460260D01*
X459992D01*
X460944Y460515D01*
X461797Y461007D01*
X462493Y461703D01*
X462985Y462556D01*
X463240Y463508D01*
Y464492D01*
X462985Y465444D01*
X462493Y466296D01*
X461797Y466993D01*
X460944Y467485D01*
X459992Y467740D01*
D02*
G37*
G36*
X389992D02*
X389008D01*
X388056Y467485D01*
X387204Y466993D01*
X386507Y466296D01*
X386015Y465444D01*
X385760Y464492D01*
Y463508D01*
X386015Y462556D01*
X386507Y461703D01*
X387204Y461007D01*
X388056Y460515D01*
X389008Y460260D01*
X389992D01*
X390944Y460515D01*
X391796Y461007D01*
X392493Y461703D01*
X392985Y462556D01*
X393240Y463508D01*
Y464492D01*
X392985Y465444D01*
X392493Y466296D01*
X391796Y466993D01*
X390944Y467485D01*
X389992Y467740D01*
D02*
G37*
G36*
X280500Y460847D02*
Y458000D01*
X283347D01*
X283133Y458798D01*
X282690Y459564D01*
X282064Y460190D01*
X281298Y460633D01*
X280500Y460847D01*
D02*
G37*
G36*
X279500D02*
X278702Y460633D01*
X277936Y460190D01*
X277310Y459564D01*
X276867Y458798D01*
X276653Y458000D01*
X279500D01*
Y460847D01*
D02*
G37*
G36*
X318020Y458953D02*
X318000D01*
Y455500D01*
X321453D01*
Y455520D01*
X321183Y456526D01*
X320663Y457427D01*
X319927Y458163D01*
X319026Y458683D01*
X318020Y458953D01*
D02*
G37*
G36*
X317000D02*
X316980D01*
X315974Y458683D01*
X315073Y458163D01*
X314337Y457427D01*
X313817Y456526D01*
X313547Y455520D01*
Y455500D01*
X317000D01*
Y458953D01*
D02*
G37*
G36*
X390020Y457953D02*
X390000D01*
Y454500D01*
X393453D01*
Y454520D01*
X393183Y455526D01*
X392663Y456427D01*
X391927Y457163D01*
X391026Y457683D01*
X390020Y457953D01*
D02*
G37*
G36*
X389000D02*
X388980D01*
X387974Y457683D01*
X387073Y457163D01*
X386337Y456427D01*
X385817Y455526D01*
X385547Y454520D01*
Y454500D01*
X389000D01*
Y457953D01*
D02*
G37*
G36*
X122992Y456740D02*
X122008D01*
X121056Y456485D01*
X120203Y455993D01*
X119507Y455297D01*
X119015Y454444D01*
X118980Y454313D01*
X113520D01*
X113485Y454444D01*
X112993Y455297D01*
X112296Y455993D01*
X111444Y456485D01*
X110492Y456740D01*
X109508D01*
X108556Y456485D01*
X107703Y455993D01*
X107007Y455297D01*
X106515Y454444D01*
X106260Y453492D01*
Y452508D01*
X106515Y451556D01*
X107007Y450703D01*
X107703Y450007D01*
X108556Y449515D01*
X109508Y449260D01*
X110492D01*
X111444Y449515D01*
X112296Y450007D01*
X112993Y450703D01*
X113485Y451556D01*
X113520Y451687D01*
X118980D01*
X119015Y451556D01*
X119507Y450703D01*
X120203Y450007D01*
X121056Y449515D01*
X122008Y449260D01*
X122992D01*
X123944Y449515D01*
X124796Y450007D01*
X125493Y450703D01*
X125985Y451556D01*
X126240Y452508D01*
Y453492D01*
X125985Y454444D01*
X125493Y455297D01*
X124796Y455993D01*
X123944Y456485D01*
X122992Y456740D01*
D02*
G37*
G36*
X283347Y457000D02*
X280500D01*
Y454153D01*
X281298Y454367D01*
X282064Y454810D01*
X282690Y455436D01*
X283133Y456202D01*
X283347Y457000D01*
D02*
G37*
G36*
X279500D02*
X276653D01*
X276867Y456202D01*
X277310Y455436D01*
X277936Y454810D01*
X278702Y454367D01*
X279500Y454153D01*
Y457000D01*
D02*
G37*
G36*
X321453Y454500D02*
X318000D01*
Y451047D01*
X318020D01*
X319026Y451317D01*
X319927Y451837D01*
X320663Y452573D01*
X321183Y453474D01*
X321453Y454480D01*
Y454500D01*
D02*
G37*
G36*
X317000D02*
X313547D01*
Y454480D01*
X313817Y453474D01*
X314337Y452573D01*
X315073Y451837D01*
X315974Y451317D01*
X316980Y451047D01*
X317000D01*
Y454500D01*
D02*
G37*
G36*
X459992Y457740D02*
X459008D01*
X458056Y457485D01*
X457203Y456993D01*
X456507Y456296D01*
X456015Y455444D01*
X455760Y454492D01*
Y453508D01*
X456015Y452556D01*
X456507Y451704D01*
X457203Y451007D01*
X458056Y450515D01*
X459008Y450260D01*
X459992D01*
X460944Y450515D01*
X461797Y451007D01*
X462493Y451704D01*
X462985Y452556D01*
X463240Y453508D01*
Y454492D01*
X462985Y455444D01*
X462493Y456296D01*
X461797Y456993D01*
X460944Y457485D01*
X459992Y457740D01*
D02*
G37*
G36*
X393453Y453500D02*
X390000D01*
Y450047D01*
X390020D01*
X391026Y450317D01*
X391927Y450837D01*
X392663Y451573D01*
X393183Y452474D01*
X393453Y453480D01*
Y453500D01*
D02*
G37*
G36*
X389000D02*
X385547D01*
Y453480D01*
X385817Y452474D01*
X386337Y451573D01*
X387073Y450837D01*
X387974Y450317D01*
X388980Y450047D01*
X389000D01*
Y453500D01*
D02*
G37*
G36*
X122992Y446740D02*
X122008D01*
X121056Y446485D01*
X120203Y445993D01*
X119507Y445296D01*
X119015Y444444D01*
X118980Y444313D01*
X113520D01*
X113485Y444444D01*
X112993Y445296D01*
X112296Y445993D01*
X111444Y446485D01*
X110492Y446740D01*
X109508D01*
X108556Y446485D01*
X107703Y445993D01*
X107007Y445296D01*
X106515Y444444D01*
X106260Y443492D01*
Y442508D01*
X106515Y441556D01*
X107007Y440703D01*
X107703Y440007D01*
X108556Y439515D01*
X109508Y439260D01*
X110492D01*
X111444Y439515D01*
X112296Y440007D01*
X112993Y440703D01*
X113485Y441556D01*
X113520Y441687D01*
X118980D01*
X119015Y441556D01*
X119507Y440703D01*
X120203Y440007D01*
X121056Y439515D01*
X122008Y439260D01*
X122992D01*
X123944Y439515D01*
X124796Y440007D01*
X125493Y440703D01*
X125985Y441556D01*
X126240Y442508D01*
Y443492D01*
X125985Y444444D01*
X125493Y445296D01*
X124796Y445993D01*
X123944Y446485D01*
X122992Y446740D01*
D02*
G37*
G36*
X373000Y444847D02*
Y442000D01*
X375847D01*
X375633Y442798D01*
X375190Y443564D01*
X374564Y444190D01*
X373798Y444633D01*
X373000Y444847D01*
D02*
G37*
G36*
X372000D02*
X371202Y444633D01*
X370436Y444190D01*
X369810Y443564D01*
X369367Y442798D01*
X369153Y442000D01*
X372000D01*
Y444847D01*
D02*
G37*
G36*
X459992Y447740D02*
X459008D01*
X458056Y447485D01*
X457203Y446993D01*
X456507Y446297D01*
X456015Y445444D01*
X455760Y444492D01*
Y443508D01*
X456015Y442556D01*
X456507Y441704D01*
X457203Y441007D01*
X458056Y440515D01*
X459008Y440260D01*
X459992D01*
X460944Y440515D01*
X461797Y441007D01*
X462493Y441704D01*
X462985Y442556D01*
X463240Y443508D01*
Y444492D01*
X462985Y445444D01*
X462493Y446297D01*
X461797Y446993D01*
X460944Y447485D01*
X459992Y447740D01*
D02*
G37*
G36*
X389992D02*
X389008D01*
X388056Y447485D01*
X387204Y446993D01*
X386507Y446297D01*
X386015Y445444D01*
X385760Y444492D01*
Y443508D01*
X386015Y442556D01*
X386507Y441704D01*
X387204Y441007D01*
X388056Y440515D01*
X389008Y440260D01*
X389992D01*
X390944Y440515D01*
X391796Y441007D01*
X392493Y441704D01*
X392985Y442556D01*
X393240Y443508D01*
Y444492D01*
X392985Y445444D01*
X392493Y446297D01*
X391796Y446993D01*
X390944Y447485D01*
X389992Y447740D01*
D02*
G37*
G36*
X375847Y441000D02*
X373000D01*
Y438153D01*
X373798Y438367D01*
X374564Y438810D01*
X375190Y439436D01*
X375633Y440202D01*
X375847Y441000D01*
D02*
G37*
G36*
X372000D02*
X369153D01*
X369367Y440202D01*
X369810Y439436D01*
X370436Y438810D01*
X371202Y438367D01*
X372000Y438153D01*
Y441000D01*
D02*
G37*
G36*
X122992Y436740D02*
X122008D01*
X121056Y436485D01*
X120203Y435993D01*
X119507Y435296D01*
X119015Y434444D01*
X118980Y434313D01*
X113520D01*
X113485Y434444D01*
X112993Y435296D01*
X112296Y435993D01*
X111444Y436485D01*
X110492Y436740D01*
X109508D01*
X108556Y436485D01*
X107703Y435993D01*
X107007Y435296D01*
X106515Y434444D01*
X106260Y433492D01*
Y432508D01*
X106515Y431556D01*
X107007Y430703D01*
X107703Y430007D01*
X108556Y429515D01*
X109508Y429260D01*
X110492D01*
X111444Y429515D01*
X112296Y430007D01*
X112993Y430703D01*
X113485Y431556D01*
X113520Y431687D01*
X118980D01*
X119015Y431556D01*
X119507Y430703D01*
X120203Y430007D01*
X121056Y429515D01*
X122008Y429260D01*
X122992D01*
X123944Y429515D01*
X124796Y430007D01*
X125493Y430703D01*
X125985Y431556D01*
X126240Y432508D01*
Y433492D01*
X125985Y434444D01*
X125493Y435296D01*
X124796Y435993D01*
X123944Y436485D01*
X122992Y436740D01*
D02*
G37*
G36*
X459992Y437740D02*
X459008D01*
X458056Y437485D01*
X457203Y436993D01*
X456507Y436297D01*
X456015Y435444D01*
X455760Y434492D01*
Y433508D01*
X456015Y432556D01*
X456507Y431704D01*
X457203Y431007D01*
X458056Y430515D01*
X459008Y430260D01*
X459992D01*
X460944Y430515D01*
X461797Y431007D01*
X462493Y431704D01*
X462985Y432556D01*
X463240Y433508D01*
Y434492D01*
X462985Y435444D01*
X462493Y436297D01*
X461797Y436993D01*
X460944Y437485D01*
X459992Y437740D01*
D02*
G37*
G36*
X389992D02*
X389008D01*
X388056Y437485D01*
X387204Y436993D01*
X386507Y436297D01*
X386015Y435444D01*
X385760Y434492D01*
Y433508D01*
X386015Y432556D01*
X386507Y431704D01*
X387204Y431007D01*
X388056Y430515D01*
X389008Y430260D01*
X389992D01*
X390944Y430515D01*
X391796Y431007D01*
X392493Y431704D01*
X392985Y432556D01*
X393240Y433508D01*
Y434492D01*
X392985Y435444D01*
X392493Y436297D01*
X391796Y436993D01*
X390944Y437485D01*
X389992Y437740D01*
D02*
G37*
G36*
X122992Y426740D02*
X122008D01*
X121056Y426485D01*
X120203Y425993D01*
X119507Y425296D01*
X119015Y424444D01*
X118980Y424313D01*
X113520D01*
X113485Y424444D01*
X112993Y425296D01*
X112296Y425993D01*
X111444Y426485D01*
X110492Y426740D01*
X109508D01*
X108556Y426485D01*
X107703Y425993D01*
X107007Y425296D01*
X106515Y424444D01*
X106260Y423492D01*
Y422508D01*
X106515Y421556D01*
X107007Y420704D01*
X107703Y420007D01*
X108556Y419515D01*
X109508Y419260D01*
X110492D01*
X111444Y419515D01*
X112296Y420007D01*
X112993Y420704D01*
X113485Y421556D01*
X113520Y421687D01*
X118980D01*
X119015Y421556D01*
X119507Y420704D01*
X120203Y420007D01*
X121056Y419515D01*
X122008Y419260D01*
X122992D01*
X123944Y419515D01*
X124796Y420007D01*
X125493Y420704D01*
X125985Y421556D01*
X126240Y422508D01*
Y423492D01*
X125985Y424444D01*
X125493Y425296D01*
X124796Y425993D01*
X123944Y426485D01*
X122992Y426740D01*
D02*
G37*
G36*
X172967Y416043D02*
X172034D01*
X171132Y415802D01*
X170324Y415335D01*
X170300Y415311D01*
X163699D01*
X163676Y415335D01*
X162868Y415802D01*
X161967Y416043D01*
X161033D01*
X160132Y415802D01*
X159324Y415335D01*
X158665Y414676D01*
X158198Y413868D01*
X157957Y412966D01*
Y412034D01*
X158198Y411132D01*
X158665Y410324D01*
X159324Y409665D01*
X160132Y409198D01*
X161033Y408957D01*
X161967D01*
X162868Y409198D01*
X163676Y409665D01*
X163699Y409689D01*
X170300D01*
X170324Y409665D01*
X171132Y409198D01*
X172034Y408957D01*
X172967D01*
X173868Y409198D01*
X174158Y409366D01*
X184501Y399023D01*
X184565Y398784D01*
X184980Y398066D01*
X185566Y397480D01*
X186284Y397065D01*
X187085Y396850D01*
X187915D01*
X188716Y397065D01*
X188930Y397188D01*
X202000D01*
X202000Y397188D01*
X202728Y397284D01*
X203406Y397565D01*
X203988Y398012D01*
X204236Y398260D01*
X207740D01*
Y405740D01*
X200260D01*
Y402811D01*
X188930D01*
X188716Y402935D01*
X188477Y402999D01*
X177277Y414199D01*
X176695Y414645D01*
X176017Y414926D01*
X175289Y415022D01*
X175289Y415022D01*
X174989D01*
X174676Y415335D01*
X173868Y415802D01*
X172967Y416043D01*
D02*
G37*
G36*
X122992Y416740D02*
X122008D01*
X121056Y416485D01*
X120203Y415993D01*
X119507Y415297D01*
X119015Y414444D01*
X118980Y414313D01*
X113520D01*
X113485Y414444D01*
X112993Y415297D01*
X112296Y415993D01*
X111444Y416485D01*
X110492Y416740D01*
X109508D01*
X108556Y416485D01*
X107703Y415993D01*
X107007Y415297D01*
X106515Y414444D01*
X106260Y413492D01*
Y412508D01*
X106515Y411556D01*
X107007Y410704D01*
X107703Y410007D01*
X108556Y409515D01*
X109508Y409260D01*
X110492D01*
X111444Y409515D01*
X112296Y410007D01*
X112993Y410704D01*
X113485Y411556D01*
X113520Y411687D01*
X118980D01*
X119015Y411556D01*
X119507Y410704D01*
X120203Y410007D01*
X121056Y409515D01*
X122008Y409260D01*
X122992D01*
X123944Y409515D01*
X124796Y410007D01*
X125493Y410704D01*
X125985Y411556D01*
X126240Y412508D01*
Y413492D01*
X125985Y414444D01*
X125493Y415297D01*
X124796Y415993D01*
X123944Y416485D01*
X122992Y416740D01*
D02*
G37*
G36*
Y406740D02*
X122008D01*
X121056Y406485D01*
X120203Y405993D01*
X119507Y405297D01*
X119015Y404444D01*
X118980Y404313D01*
X113520D01*
X113485Y404444D01*
X112993Y405297D01*
X112296Y405993D01*
X111444Y406485D01*
X110492Y406740D01*
X109508D01*
X108556Y406485D01*
X107703Y405993D01*
X107007Y405297D01*
X106515Y404444D01*
X106260Y403492D01*
Y402508D01*
X106515Y401556D01*
X107007Y400703D01*
X107703Y400007D01*
X108556Y399515D01*
X109508Y399260D01*
X110492D01*
X111444Y399515D01*
X112296Y400007D01*
X112993Y400703D01*
X113485Y401556D01*
X113520Y401687D01*
X118980D01*
X119015Y401556D01*
X119507Y400703D01*
X120203Y400007D01*
X121056Y399515D01*
X122008Y399260D01*
X122992D01*
X123944Y399515D01*
X124796Y400007D01*
X125493Y400703D01*
X125985Y401556D01*
X126240Y402508D01*
Y403492D01*
X125985Y404444D01*
X125493Y405297D01*
X124796Y405993D01*
X123944Y406485D01*
X122992Y406740D01*
D02*
G37*
G36*
Y396740D02*
X122008D01*
X121056Y396485D01*
X120203Y395993D01*
X119507Y395297D01*
X119015Y394444D01*
X118980Y394313D01*
X113520D01*
X113485Y394444D01*
X112993Y395297D01*
X112296Y395993D01*
X111444Y396485D01*
X110492Y396740D01*
X109508D01*
X108556Y396485D01*
X107703Y395993D01*
X107007Y395297D01*
X106515Y394444D01*
X106260Y393492D01*
Y392508D01*
X106515Y391556D01*
X107007Y390704D01*
X107703Y390007D01*
X108556Y389515D01*
X109508Y389260D01*
X110492D01*
X111444Y389515D01*
X112296Y390007D01*
X112993Y390704D01*
X113485Y391556D01*
X113520Y391687D01*
X118980D01*
X119015Y391556D01*
X119507Y390704D01*
X120203Y390007D01*
X121056Y389515D01*
X122008Y389260D01*
X122992D01*
X123944Y389515D01*
X124796Y390007D01*
X125493Y390704D01*
X125985Y391556D01*
X126240Y392508D01*
Y393492D01*
X125985Y394444D01*
X125493Y395297D01*
X124796Y395993D01*
X123944Y396485D01*
X122992Y396740D01*
D02*
G37*
G36*
X331240Y496240D02*
X323760D01*
Y488760D01*
X327264D01*
X334550Y481474D01*
Y478659D01*
X334350Y477915D01*
Y477085D01*
X334565Y476284D01*
X334688Y476070D01*
Y466164D01*
X327264Y458740D01*
X327008D01*
X326056Y458485D01*
X325203Y457993D01*
X324507Y457297D01*
X324015Y456444D01*
X323760Y455492D01*
Y454508D01*
X324015Y453556D01*
X324507Y452704D01*
X324689Y452522D01*
Y403664D01*
X317264Y396240D01*
X317008D01*
X316056Y395985D01*
X315203Y395493D01*
X314507Y394796D01*
X314015Y393944D01*
X313760Y392992D01*
Y392008D01*
X314015Y391056D01*
X314507Y390203D01*
X315203Y389507D01*
X316056Y389015D01*
X317008Y388760D01*
X317992D01*
X318944Y389015D01*
X319796Y389507D01*
X319978Y389688D01*
X338406D01*
X338789Y388765D01*
X334512Y384488D01*
X334065Y383906D01*
X333784Y383228D01*
X333688Y382500D01*
X333688Y382500D01*
Y370569D01*
X333688Y370569D01*
X333784Y369841D01*
X334065Y369163D01*
X334512Y368581D01*
X337292Y365801D01*
X337292Y365801D01*
X337874Y365354D01*
X338552Y365074D01*
X339280Y364978D01*
X339280Y364978D01*
X340011D01*
X340324Y364665D01*
X341132Y364198D01*
X342034Y363957D01*
X342067D01*
X357189Y348835D01*
Y344316D01*
X356885Y343790D01*
X356658Y342940D01*
Y342060D01*
X356885Y341210D01*
X357325Y340448D01*
X357948Y339825D01*
X358710Y339385D01*
X359560Y339158D01*
X360440D01*
X361290Y339385D01*
X362052Y339825D01*
X362675Y340448D01*
X363115Y341210D01*
X363342Y342060D01*
Y342940D01*
X363115Y343790D01*
X362811Y344316D01*
Y350000D01*
X362811Y350000D01*
X362716Y350728D01*
X362435Y351406D01*
X361988Y351988D01*
X361988Y351988D01*
X346043Y367933D01*
Y367967D01*
X345802Y368868D01*
X345335Y369676D01*
X344676Y370335D01*
X343868Y370802D01*
X342967Y371043D01*
X342034D01*
X341132Y370802D01*
X340784Y370601D01*
X340444D01*
X339312Y371734D01*
Y381335D01*
X347593Y389617D01*
X347704Y389507D01*
X348556Y389015D01*
X349508Y388760D01*
X350492D01*
X351444Y389015D01*
X352296Y389507D01*
X352993Y390203D01*
X353485Y391056D01*
X353740Y392008D01*
Y392992D01*
X353485Y393944D01*
X352993Y394796D01*
X352296Y395493D01*
X351444Y395985D01*
X350492Y396240D01*
X349508D01*
X348556Y395985D01*
X347704Y395493D01*
X347522Y395311D01*
X346500D01*
X346500Y395311D01*
X346500Y395311D01*
X325594D01*
X325211Y396235D01*
X329488Y400512D01*
X329488Y400512D01*
X329935Y401094D01*
X330216Y401772D01*
X330311Y402500D01*
X330311Y402500D01*
Y452522D01*
X330493Y452704D01*
X330985Y453556D01*
X331240Y454508D01*
Y454764D01*
X339488Y463012D01*
X339488Y463012D01*
X339935Y463594D01*
X340216Y464272D01*
X340312Y465000D01*
X340312Y465000D01*
Y476070D01*
X340435Y476284D01*
X340650Y477085D01*
Y477915D01*
X340435Y478716D01*
X340173Y479170D01*
Y482639D01*
X340173Y482639D01*
X340077Y483366D01*
X339796Y484044D01*
X339349Y484627D01*
X339349Y484627D01*
X331240Y492736D01*
Y496240D01*
D02*
G37*
G36*
X204492Y395740D02*
X203508D01*
X202556Y395485D01*
X201704Y394993D01*
X201007Y394297D01*
X200515Y393444D01*
X200260Y392492D01*
Y391508D01*
X200515Y390556D01*
X200583Y390439D01*
X187072Y376928D01*
X186787Y376502D01*
X186687Y376000D01*
Y373043D01*
X186284Y372935D01*
X185566Y372520D01*
X184980Y371934D01*
X184565Y371216D01*
X184350Y370415D01*
Y369585D01*
X184565Y368784D01*
X184980Y368066D01*
X185566Y367480D01*
X186284Y367065D01*
X187085Y366850D01*
X187915D01*
X188716Y367065D01*
X189434Y367480D01*
X190020Y368066D01*
X190435Y368784D01*
X190650Y369585D01*
Y370415D01*
X190435Y371216D01*
X190020Y371934D01*
X189434Y372520D01*
X189313Y372590D01*
Y375456D01*
X202439Y388583D01*
X202556Y388515D01*
X203508Y388260D01*
X204492D01*
X205444Y388515D01*
X206296Y389007D01*
X206993Y389703D01*
X207485Y390556D01*
X207740Y391508D01*
Y392492D01*
X207485Y393444D01*
X206993Y394297D01*
X206296Y394993D01*
X205444Y395485D01*
X204492Y395740D01*
D02*
G37*
G36*
X126240Y386740D02*
X118760D01*
Y384313D01*
X113740D01*
Y386740D01*
X106260D01*
Y379260D01*
X113740D01*
Y381687D01*
X118760D01*
Y379260D01*
X126240D01*
Y386740D01*
D02*
G37*
G36*
X350520Y386453D02*
X350500D01*
Y383000D01*
X353953D01*
Y383020D01*
X353683Y384026D01*
X353163Y384927D01*
X352427Y385663D01*
X351526Y386183D01*
X350520Y386453D01*
D02*
G37*
G36*
X318020D02*
X318000D01*
Y383000D01*
X321453D01*
Y383020D01*
X321183Y384026D01*
X320663Y384927D01*
X319927Y385663D01*
X319026Y386183D01*
X318020Y386453D01*
D02*
G37*
G36*
X317000D02*
X316980D01*
X315974Y386183D01*
X315073Y385663D01*
X314337Y384927D01*
X313817Y384026D01*
X313547Y383020D01*
Y383000D01*
X317000D01*
Y386453D01*
D02*
G37*
G36*
X349500D02*
X349480D01*
X348474Y386183D01*
X347573Y385663D01*
X346837Y384927D01*
X346317Y384026D01*
X346047Y383020D01*
Y383000D01*
X349500D01*
Y386453D01*
D02*
G37*
G36*
X207992Y496240D02*
X207008D01*
X206056Y495985D01*
X205204Y495493D01*
X204507Y494797D01*
X204015Y493944D01*
X203760Y492992D01*
Y492008D01*
X204015Y491056D01*
X204507Y490204D01*
X205204Y489507D01*
X206056Y489015D01*
X206187Y488980D01*
Y484044D01*
X151072Y428928D01*
X150787Y428502D01*
X150687Y428000D01*
Y403000D01*
X150787Y402498D01*
X151072Y402072D01*
X169227Y383917D01*
X169198Y383868D01*
X168957Y382966D01*
Y382033D01*
X169198Y381132D01*
X169227Y381083D01*
X146956Y358813D01*
X113520D01*
X113485Y358944D01*
X112993Y359797D01*
X112296Y360493D01*
X111444Y360985D01*
X110492Y361240D01*
X109508D01*
X108556Y360985D01*
X107703Y360493D01*
X107007Y359797D01*
X106515Y358944D01*
X106260Y357992D01*
Y357008D01*
X106515Y356056D01*
X107007Y355204D01*
X107703Y354507D01*
X108556Y354015D01*
X109508Y353760D01*
X110492D01*
X111444Y354015D01*
X112296Y354507D01*
X112993Y355204D01*
X113485Y356056D01*
X113520Y356187D01*
X147500D01*
X148002Y356287D01*
X148428Y356572D01*
X171083Y379227D01*
X171132Y379198D01*
X172034Y378957D01*
X172967D01*
X173868Y379198D01*
X174676Y379665D01*
X175335Y380324D01*
X175802Y381132D01*
X176043Y382033D01*
Y382966D01*
X175802Y383868D01*
X175335Y384676D01*
X174676Y385335D01*
X173868Y385802D01*
X172967Y386043D01*
X172034D01*
X171132Y385802D01*
X171083Y385773D01*
X153313Y403544D01*
Y427456D01*
X208428Y482572D01*
X208713Y482998D01*
X208813Y483500D01*
Y488980D01*
X208944Y489015D01*
X209797Y489507D01*
X210493Y490204D01*
X210985Y491056D01*
X211240Y492008D01*
Y492992D01*
X210985Y493944D01*
X210493Y494797D01*
X209797Y495493D01*
X208944Y495985D01*
X207992Y496240D01*
D02*
G37*
G36*
X197992D02*
X197008D01*
X196056Y495985D01*
X195203Y495493D01*
X194507Y494797D01*
X194015Y493944D01*
X193760Y492992D01*
Y492008D01*
X194015Y491056D01*
X194507Y490204D01*
X195203Y489507D01*
X196056Y489015D01*
X196187Y488980D01*
Y485044D01*
X145072Y433928D01*
X144787Y433502D01*
X144687Y433000D01*
Y398000D01*
X144787Y397498D01*
X145072Y397072D01*
X158227Y383917D01*
X158198Y383868D01*
X157957Y382966D01*
Y382033D01*
X158198Y381132D01*
X158227Y381083D01*
X153494Y376350D01*
X117538D01*
X117035Y376250D01*
X116610Y375966D01*
X111561Y370917D01*
X111444Y370985D01*
X110492Y371240D01*
X109508D01*
X108556Y370985D01*
X107703Y370493D01*
X107007Y369796D01*
X106515Y368944D01*
X106260Y367992D01*
Y367008D01*
X106515Y366056D01*
X107007Y365203D01*
X107703Y364507D01*
X108556Y364015D01*
X109508Y363760D01*
X110492D01*
X111444Y364015D01*
X112296Y364507D01*
X112993Y365203D01*
X113485Y366056D01*
X113740Y367008D01*
Y367992D01*
X113485Y368944D01*
X113417Y369061D01*
X118081Y373725D01*
X154038D01*
X154540Y373825D01*
X154966Y374110D01*
X160083Y379227D01*
X160132Y379198D01*
X161033Y378957D01*
X161967D01*
X162868Y379198D01*
X163676Y379665D01*
X164335Y380324D01*
X164802Y381132D01*
X165043Y382033D01*
Y382966D01*
X164802Y383868D01*
X164335Y384676D01*
X163676Y385335D01*
X162868Y385802D01*
X161967Y386043D01*
X161033D01*
X160132Y385802D01*
X160083Y385773D01*
X147313Y398544D01*
Y432456D01*
X198428Y483572D01*
X198713Y483998D01*
X198813Y484500D01*
Y488980D01*
X198944Y489015D01*
X199796Y489507D01*
X200493Y490204D01*
X200985Y491056D01*
X201240Y492008D01*
Y492992D01*
X200985Y493944D01*
X200493Y494797D01*
X199796Y495493D01*
X198944Y495985D01*
X197992Y496240D01*
D02*
G37*
G36*
X353953Y382000D02*
X350500D01*
Y378547D01*
X350520D01*
X351526Y378817D01*
X352427Y379337D01*
X353163Y380073D01*
X353683Y380974D01*
X353953Y381980D01*
Y382000D01*
D02*
G37*
G36*
X349500D02*
X346047D01*
Y381980D01*
X346317Y380974D01*
X346837Y380073D01*
X347573Y379337D01*
X348474Y378817D01*
X349480Y378547D01*
X349500D01*
Y382000D01*
D02*
G37*
G36*
X321453D02*
X318000D01*
Y378547D01*
X318020D01*
X319026Y378817D01*
X319927Y379337D01*
X320663Y380073D01*
X321183Y380974D01*
X321453Y381980D01*
Y382000D01*
D02*
G37*
G36*
X317000D02*
X313547D01*
Y381980D01*
X313817Y380974D01*
X314337Y380073D01*
X315073Y379337D01*
X315974Y378817D01*
X316980Y378547D01*
X317000D01*
Y382000D01*
D02*
G37*
G36*
X204492Y385740D02*
X203508D01*
X202556Y385485D01*
X201704Y384993D01*
X201007Y384296D01*
X200515Y383444D01*
X200260Y382492D01*
Y381508D01*
X200515Y380556D01*
X201007Y379703D01*
X201704Y379007D01*
X202556Y378515D01*
X203508Y378260D01*
X204492D01*
X205444Y378515D01*
X206296Y379007D01*
X206993Y379703D01*
X207485Y380556D01*
X207740Y381508D01*
Y382492D01*
X207485Y383444D01*
X206993Y384296D01*
X206296Y384993D01*
X205444Y385485D01*
X204492Y385740D01*
D02*
G37*
G36*
X325492Y370216D02*
X324508D01*
X323556Y369962D01*
X322704Y369469D01*
X322522Y369288D01*
X310223D01*
Y370214D01*
X302743D01*
Y362734D01*
X310223D01*
Y363665D01*
X322522D01*
X322704Y363484D01*
X323556Y362991D01*
X324508Y362736D01*
X325492D01*
X326444Y362991D01*
X327296Y363484D01*
X327993Y364180D01*
X328485Y365033D01*
X328740Y365984D01*
Y366969D01*
X328485Y367920D01*
X327993Y368773D01*
X327296Y369469D01*
X326444Y369962D01*
X325492Y370216D01*
D02*
G37*
G36*
X227992Y496240D02*
X227008D01*
X226056Y495985D01*
X225203Y495493D01*
X224507Y494797D01*
X224015Y493944D01*
X223760Y492992D01*
Y492008D01*
X224015Y491056D01*
X224507Y490204D01*
X225203Y489507D01*
X226056Y489015D01*
X226187Y488980D01*
Y384044D01*
X210956Y368813D01*
X207516D01*
X207183Y369380D01*
X207056Y369813D01*
X207485Y370556D01*
X207740Y371508D01*
Y372492D01*
X207485Y373444D01*
X206993Y374296D01*
X206296Y374993D01*
X205444Y375485D01*
X204492Y375740D01*
X203508D01*
X202556Y375485D01*
X201704Y374993D01*
X201007Y374296D01*
X200515Y373444D01*
X200260Y372492D01*
Y371508D01*
X200515Y370556D01*
X200944Y369813D01*
X200817Y369380D01*
X200484Y368813D01*
X197500D01*
X196998Y368713D01*
X196572Y368428D01*
X166956Y338813D01*
X113740D01*
Y341240D01*
X106260D01*
Y333760D01*
X113740D01*
Y336187D01*
X167500D01*
X168002Y336287D01*
X168428Y336572D01*
X198044Y366187D01*
X201772D01*
X202040Y365187D01*
X201704Y364993D01*
X201007Y364297D01*
X200515Y363444D01*
X200260Y362492D01*
Y361508D01*
X200515Y360556D01*
X201007Y359703D01*
X201704Y359007D01*
X202556Y358515D01*
X203508Y358260D01*
X204492D01*
X205444Y358515D01*
X206296Y359007D01*
X206993Y359703D01*
X207485Y360556D01*
X207740Y361508D01*
Y362492D01*
X207485Y363444D01*
X206993Y364297D01*
X206296Y364993D01*
X205960Y365187D01*
X206227Y366187D01*
X211500D01*
X212002Y366287D01*
X212428Y366572D01*
X228428Y382572D01*
X228713Y382998D01*
X228813Y383500D01*
Y488980D01*
X228944Y489015D01*
X229797Y489507D01*
X230493Y490204D01*
X230985Y491056D01*
X231240Y492008D01*
Y492992D01*
X230985Y493944D01*
X230493Y494797D01*
X229797Y495493D01*
X228944Y495985D01*
X227992Y496240D01*
D02*
G37*
G36*
X204492Y355740D02*
X203508D01*
X202556Y355485D01*
X201704Y354993D01*
X201007Y354296D01*
X200515Y353444D01*
X200260Y352492D01*
Y351508D01*
X200515Y350556D01*
X201007Y349704D01*
X201704Y349007D01*
X202556Y348515D01*
X203508Y348260D01*
X204492D01*
X205444Y348515D01*
X206296Y349007D01*
X206993Y349704D01*
X207485Y350556D01*
X207740Y351508D01*
Y352492D01*
X207485Y353444D01*
X206993Y354296D01*
X206296Y354993D01*
X205444Y355485D01*
X204492Y355740D01*
D02*
G37*
G36*
X388020Y348953D02*
X388000D01*
Y345500D01*
X391453D01*
Y345520D01*
X391183Y346526D01*
X390663Y347427D01*
X389927Y348163D01*
X389026Y348683D01*
X388020Y348953D01*
D02*
G37*
G36*
X387000D02*
X386980D01*
X385974Y348683D01*
X385073Y348163D01*
X384337Y347427D01*
X383817Y346526D01*
X383547Y345520D01*
Y345500D01*
X387000D01*
Y348953D01*
D02*
G37*
G36*
X110492Y351240D02*
X109508D01*
X108556Y350985D01*
X107703Y350493D01*
X107007Y349797D01*
X106515Y348944D01*
X106260Y347992D01*
Y347008D01*
X106515Y346056D01*
X107007Y345203D01*
X107703Y344507D01*
X108556Y344015D01*
X109508Y343760D01*
X110492D01*
X111444Y344015D01*
X112296Y344507D01*
X112993Y345203D01*
X113485Y346056D01*
X113740Y347008D01*
Y347992D01*
X113485Y348944D01*
X112993Y349797D01*
X112296Y350493D01*
X111444Y350985D01*
X110492Y351240D01*
D02*
G37*
G36*
X391453Y344500D02*
X388000D01*
Y341047D01*
X388020D01*
X389026Y341317D01*
X389927Y341837D01*
X390663Y342573D01*
X391183Y343474D01*
X391453Y344480D01*
Y344500D01*
D02*
G37*
G36*
X387000D02*
X383547D01*
Y344480D01*
X383817Y343474D01*
X384337Y342573D01*
X385073Y341837D01*
X385974Y341317D01*
X386980Y341047D01*
X387000D01*
Y344500D01*
D02*
G37*
G36*
X204520Y335953D02*
X204500D01*
Y332500D01*
X207953D01*
Y332520D01*
X207683Y333526D01*
X207163Y334427D01*
X206427Y335163D01*
X205526Y335683D01*
X204520Y335953D01*
D02*
G37*
G36*
X204492Y345740D02*
X203508D01*
X202556Y345485D01*
X201704Y344993D01*
X201007Y344297D01*
X200515Y343444D01*
X200260Y342492D01*
Y342236D01*
X185335Y327311D01*
X136982D01*
X136384Y327559D01*
X135657Y327655D01*
X135657Y327655D01*
X132343D01*
X132343Y327655D01*
X131615Y327559D01*
X130937Y327278D01*
X130355Y326831D01*
X130355Y326831D01*
X110512Y306988D01*
X110065Y306406D01*
X109784Y305728D01*
X109688Y305000D01*
X109689Y305000D01*
Y231240D01*
X108760D01*
Y223760D01*
X116240D01*
Y224689D01*
X122304D01*
X122304Y224689D01*
X123032Y224784D01*
X123710Y225065D01*
X124292Y225512D01*
X128209Y229429D01*
X128716Y229565D01*
X128930Y229689D01*
X143197D01*
Y221000D01*
X143258Y220693D01*
X143432Y220432D01*
X143693Y220258D01*
X144000Y220197D01*
X149551D01*
X149640Y220215D01*
X149732Y220218D01*
X149793Y220245D01*
X149858Y220258D01*
X149934Y220309D01*
X150017Y220347D01*
X150063Y220395D01*
X150118Y220432D01*
X150169Y220508D01*
X150232Y220575D01*
X150436Y220902D01*
X150722Y221184D01*
X151614Y221365D01*
X152008Y221260D01*
X152992D01*
X153386Y221365D01*
X154278Y221184D01*
X154564Y220902D01*
X154768Y220575D01*
X154831Y220508D01*
X154882Y220432D01*
X154937Y220395D01*
X154983Y220347D01*
X155066Y220309D01*
X155142Y220258D01*
X155207Y220245D01*
X155268Y220218D01*
X155360Y220215D01*
X155449Y220197D01*
X181000D01*
X181307Y220258D01*
X181568Y220432D01*
X181742Y220693D01*
X181803Y221000D01*
Y248197D01*
X194272D01*
X194686Y247197D01*
X194665Y247176D01*
X194198Y246368D01*
X193957Y245466D01*
Y244533D01*
X194198Y243632D01*
X194665Y242824D01*
X195324Y242165D01*
X196132Y241698D01*
X196187Y241683D01*
Y233762D01*
X191682Y229257D01*
X191136Y229236D01*
X190515Y229364D01*
X190335Y229676D01*
X189676Y230335D01*
X188868Y230802D01*
X187967Y231043D01*
X187033D01*
X186132Y230802D01*
X185324Y230335D01*
X184665Y229676D01*
X184198Y228868D01*
X183957Y227966D01*
Y227033D01*
X184198Y226132D01*
X184665Y225324D01*
X185324Y224665D01*
X186132Y224198D01*
X187033Y223957D01*
X187967D01*
X188868Y224198D01*
X189676Y224665D01*
X190187Y225176D01*
X190794Y225049D01*
X191187Y224814D01*
Y202500D01*
X191197Y202451D01*
Y200529D01*
X190197Y200114D01*
X189806Y200505D01*
X188950Y201000D01*
X188000Y201254D01*
Y197500D01*
Y193746D01*
X188485Y193876D01*
X189003Y192979D01*
X159200Y163176D01*
X154479D01*
X153944Y163485D01*
X152992Y163740D01*
X152008D01*
X151056Y163485D01*
X150204Y162993D01*
X150022Y162811D01*
X131430D01*
X131216Y162935D01*
X130415Y163150D01*
X129585D01*
X128784Y162935D01*
X128570Y162811D01*
X116240D01*
Y163740D01*
X108760D01*
Y156260D01*
X116240D01*
Y157189D01*
X128570D01*
X128784Y157065D01*
X129585Y156850D01*
X130415D01*
X131216Y157065D01*
X131430Y157189D01*
X150022D01*
X150204Y157007D01*
X151056Y156515D01*
X152008Y156260D01*
X152992D01*
X153944Y156515D01*
X154797Y157007D01*
X155342Y157553D01*
X160364D01*
X160365Y157553D01*
X161092Y157649D01*
X161770Y157930D01*
X162353Y158377D01*
X191410Y187434D01*
X191432Y187432D01*
X191693Y187258D01*
X192000Y187197D01*
X210000D01*
X210307Y187258D01*
X210568Y187432D01*
X211456Y186962D01*
X211481Y186942D01*
X211514Y185870D01*
X193917Y168273D01*
X193868Y168302D01*
X192966Y168543D01*
X192034D01*
X191132Y168302D01*
X190324Y167835D01*
X189665Y167176D01*
X189198Y166368D01*
X188957Y165466D01*
Y164533D01*
X189198Y163632D01*
X189665Y162824D01*
X190324Y162165D01*
X191132Y161698D01*
X192034Y161457D01*
X192966D01*
X193868Y161698D01*
X194676Y162165D01*
X195335Y162824D01*
X195802Y163632D01*
X196043Y164533D01*
Y165466D01*
X195802Y166368D01*
X195773Y166417D01*
X212704Y183348D01*
X213628Y182965D01*
Y182559D01*
X213728Y182057D01*
X214013Y181631D01*
X219227Y176417D01*
X219198Y176368D01*
X218957Y175467D01*
Y174533D01*
X219198Y173632D01*
X219665Y172824D01*
X220324Y172165D01*
X221132Y171698D01*
X222034Y171457D01*
X222967D01*
X223868Y171698D01*
X224676Y172165D01*
X225335Y172824D01*
X225802Y173632D01*
X226043Y174533D01*
Y175467D01*
X225802Y176368D01*
X225335Y177176D01*
X224676Y177835D01*
X223868Y178302D01*
X222967Y178543D01*
X222034D01*
X221132Y178302D01*
X221083Y178273D01*
X217400Y181957D01*
X217814Y182957D01*
X222335D01*
Y182744D01*
X225000D01*
Y186500D01*
Y190256D01*
X222335D01*
Y190043D01*
X220813D01*
Y190638D01*
X220713Y191140D01*
X220428Y191566D01*
X218222Y193772D01*
Y201769D01*
X218378Y201897D01*
Y204350D01*
X219378D01*
Y202206D01*
X219542Y202239D01*
X219938Y202503D01*
X220202Y202899D01*
X221197Y202775D01*
Y194000D01*
X221258Y193693D01*
X221432Y193432D01*
X221693Y193258D01*
X222000Y193197D01*
X239272D01*
X239686Y192197D01*
X239665Y192176D01*
X239198Y191368D01*
X238957Y190466D01*
Y189533D01*
X239198Y188632D01*
X239665Y187824D01*
X240324Y187165D01*
X241132Y186698D01*
X242034Y186457D01*
X242967D01*
X243868Y186698D01*
X244676Y187165D01*
X245335Y187824D01*
X245802Y188632D01*
X245817Y188687D01*
X249183D01*
X249198Y188632D01*
X249665Y187824D01*
X250324Y187165D01*
X251132Y186698D01*
X252033Y186457D01*
X252966D01*
X253868Y186698D01*
X254676Y187165D01*
X255335Y187824D01*
X255802Y188632D01*
X256043Y189533D01*
Y190466D01*
X255802Y191368D01*
X255335Y192176D01*
X255314Y192197D01*
X255728Y193197D01*
X276496D01*
X276803Y193258D01*
X277063Y193432D01*
X277238Y193693D01*
X278473Y194063D01*
X278556Y194015D01*
X279508Y193760D01*
X280492D01*
X281444Y194015D01*
X281527Y194063D01*
X282763Y193693D01*
X282937Y193432D01*
X283197Y193258D01*
X283504Y193197D01*
X306244D01*
Y191547D01*
X310000D01*
X313756D01*
Y193197D01*
X320244D01*
Y191547D01*
X324000D01*
X327756D01*
Y193197D01*
X333000D01*
X333307Y193258D01*
X333568Y193432D01*
X333742Y193693D01*
X333803Y194000D01*
Y202687D01*
X342268D01*
X342770Y202787D01*
X343196Y203072D01*
X346467Y206343D01*
X346470Y206344D01*
X347513Y206440D01*
X347774Y206266D01*
X348081Y206205D01*
X348750D01*
Y206031D01*
X350000D01*
Y206024D01*
X351394D01*
X351427Y206205D01*
X351734Y206266D01*
X351995Y206440D01*
X351995Y206440D01*
X352093Y206539D01*
X352267Y206799D01*
X352328Y207106D01*
Y207894D01*
X353292Y208173D01*
X354183D01*
X354921Y207602D01*
X355053Y207408D01*
Y202260D01*
X355017Y202259D01*
X354956Y202231D01*
X354890Y202218D01*
X354814Y202168D01*
X354731Y202130D01*
X354685Y202081D01*
X354629Y202044D01*
X354579Y201969D01*
X354516Y201902D01*
X354492Y201839D01*
X354455Y201784D01*
X354437Y201694D01*
X354405Y201609D01*
X354294Y200952D01*
X354281Y200886D01*
Y200807D01*
X354266D01*
X354259Y200774D01*
X354258Y200772D01*
X354243Y200695D01*
X354213Y200622D01*
Y200543D01*
X354197Y200465D01*
Y195303D01*
X349000D01*
X348693Y195242D01*
X348432Y195068D01*
X348258Y194807D01*
X348197Y194500D01*
Y185303D01*
X344656D01*
X344554Y185282D01*
X344543Y185282D01*
X344413Y185308D01*
X343543Y186069D01*
Y188539D01*
X343568Y188665D01*
Y192749D01*
X344269Y192937D01*
X345019Y193369D01*
X345631Y193982D01*
X346063Y194731D01*
X346287Y195567D01*
Y196433D01*
X346063Y197269D01*
X345631Y198019D01*
X345019Y198631D01*
X344269Y199063D01*
X343433Y199287D01*
X342567D01*
X341731Y199063D01*
X340982Y198631D01*
X340369Y198019D01*
X339937Y197269D01*
X339713Y196433D01*
Y195567D01*
X339937Y194731D01*
X340369Y193982D01*
X340943Y193408D01*
Y189953D01*
X336457D01*
Y184842D01*
X335900Y184386D01*
X335497Y184187D01*
X335383Y184231D01*
X335348Y184230D01*
X335314Y184240D01*
X335192Y184227D01*
X335070Y184224D01*
X335037Y184210D01*
X335002Y184206D01*
X334895Y184147D01*
X334783Y184097D01*
X334539Y183926D01*
X334491Y183876D01*
X334432Y183837D01*
X334383Y183763D01*
X334323Y183700D01*
X334297Y183634D01*
X334258Y183576D01*
X334241Y183490D01*
X334209Y183408D01*
X334211Y183338D01*
X334197Y183269D01*
Y164500D01*
X334258Y164193D01*
X334432Y163932D01*
X334693Y163758D01*
X335000Y163697D01*
X357500D01*
X357807Y163758D01*
X357901Y163821D01*
X357996Y163758D01*
X358303Y163697D01*
X382500D01*
X382807Y163758D01*
X383068Y163932D01*
X383242Y164193D01*
X383303Y164500D01*
Y178929D01*
X383242Y179236D01*
X383068Y179497D01*
X382807Y179671D01*
X382543Y179723D01*
Y184047D01*
X382543Y185047D01*
X382543D01*
Y185047D01*
X382543D01*
Y190953D01*
X380313D01*
Y192918D01*
X380213Y193420D01*
X379928Y193846D01*
X379690Y194084D01*
X380063Y194731D01*
X380287Y195567D01*
Y196433D01*
X380063Y197269D01*
X379631Y198019D01*
X379018Y198631D01*
X378269Y199063D01*
X377433Y199287D01*
X376567D01*
X375731Y199063D01*
X374981Y198631D01*
X374369Y198019D01*
X373937Y197269D01*
X373713Y196433D01*
Y195567D01*
X373937Y194731D01*
X374369Y193982D01*
X374981Y193369D01*
X375731Y192937D01*
X376567Y192713D01*
X377349D01*
X377687Y192374D01*
Y190953D01*
X375457D01*
X375457Y185477D01*
X375244Y185303D01*
X374931Y185303D01*
X367303D01*
Y194500D01*
X367242Y194807D01*
X367068Y195068D01*
X366807Y195242D01*
X366500Y195303D01*
X361303D01*
Y200177D01*
X361287Y200255D01*
Y200334D01*
X361257Y200407D01*
X361242Y200484D01*
X361198Y200550D01*
X361168Y200623D01*
X361112Y200679D01*
X361068Y200745D01*
X361008Y200785D01*
X360993Y200807D01*
X360974D01*
Y200886D01*
X360961Y200952D01*
X360851Y201609D01*
X360819Y201694D01*
X360801Y201784D01*
X360763Y201839D01*
X360740Y201902D01*
X360677Y201969D01*
X360627Y202044D01*
X360571Y202081D01*
X360525Y202130D01*
X360442Y202168D01*
X360366Y202218D01*
X360300Y202231D01*
X360239Y202259D01*
X360202Y202260D01*
Y207408D01*
X360374Y207660D01*
X360538Y207813D01*
X361073Y208173D01*
X361073Y208173D01*
X362698D01*
X362928Y207894D01*
Y207106D01*
X362989Y206799D01*
X362989Y206799D01*
X363163Y206539D01*
X363163Y206539D01*
X363261Y206440D01*
X363522Y206266D01*
X363522Y206266D01*
X363829Y206205D01*
X364006D01*
Y206031D01*
X365256D01*
X366506D01*
Y206205D01*
X367175D01*
X367482Y206266D01*
X367743Y206440D01*
X367917Y206701D01*
X367978Y207008D01*
Y207697D01*
X421889D01*
X421941Y207708D01*
X421993Y207704D01*
X422093Y207738D01*
X422196Y207758D01*
X422240Y207788D01*
X422290Y207805D01*
X422369Y207874D01*
X422456Y207932D01*
X422486Y207976D01*
X422526Y208011D01*
X422572Y208105D01*
X422630Y208193D01*
X422641Y208245D01*
X422664Y208292D01*
X422704Y208440D01*
X423508Y209260D01*
X423882Y209260D01*
X424492Y209260D01*
X425236Y208666D01*
X425336Y208292D01*
X425359Y208245D01*
X425370Y208193D01*
X425428Y208105D01*
X425474Y208011D01*
X425514Y207976D01*
X425544Y207932D01*
X425631Y207874D01*
X425710Y207805D01*
X425760Y207788D01*
X425804Y207758D01*
X425907Y207738D01*
X426007Y207704D01*
X426059Y207708D01*
X426111Y207697D01*
X442034D01*
X442417Y206773D01*
X384456Y148813D01*
X255544D01*
X245773Y158583D01*
X245802Y158632D01*
X246043Y159534D01*
Y160467D01*
X245802Y161368D01*
X245335Y162176D01*
X244676Y162835D01*
X243868Y163302D01*
X242967Y163543D01*
X242034D01*
X241132Y163302D01*
X240324Y162835D01*
X239665Y162176D01*
X239198Y161368D01*
X238957Y160467D01*
Y159534D01*
X239198Y158632D01*
X239665Y157824D01*
X240324Y157165D01*
X241132Y156698D01*
X242034Y156457D01*
X242967D01*
X243868Y156698D01*
X243917Y156727D01*
X254072Y146572D01*
X254498Y146287D01*
X255000Y146187D01*
X385000D01*
X385502Y146287D01*
X385928Y146572D01*
X447053Y207697D01*
X452995D01*
X453047Y207708D01*
X453099Y207704D01*
X453199Y207738D01*
X453302Y207758D01*
X454133Y207623D01*
X454170Y207614D01*
X454379Y207505D01*
X454461Y207449D01*
X455073Y206837D01*
X455974Y206317D01*
X456980Y206047D01*
X457000D01*
Y210000D01*
X458000D01*
Y206047D01*
X458020D01*
X459026Y206317D01*
X459927Y206837D01*
X460539Y207449D01*
X460622Y207505D01*
X460830Y207614D01*
X460867Y207623D01*
X461698Y207758D01*
X461801Y207738D01*
X461901Y207704D01*
X461953Y207708D01*
X462005Y207697D01*
X463000D01*
X463307Y207758D01*
X463568Y207932D01*
X463742Y208193D01*
X463803Y208500D01*
Y234500D01*
X463742Y234807D01*
X463568Y235068D01*
X463307Y235242D01*
X463000Y235303D01*
X444054D01*
X433428Y245928D01*
X433002Y246213D01*
X432500Y246313D01*
X427317D01*
X427302Y246368D01*
X426835Y247176D01*
X426176Y247835D01*
X425368Y248302D01*
X424467Y248543D01*
X423533D01*
X422632Y248302D01*
X421824Y247835D01*
X421165Y247176D01*
X420698Y246368D01*
X420457Y245466D01*
Y244533D01*
X420698Y243632D01*
X421165Y242824D01*
X421824Y242165D01*
X422632Y241698D01*
X423533Y241457D01*
X424467D01*
X425368Y241698D01*
X426176Y242165D01*
X426835Y242824D01*
X427302Y243632D01*
X427317Y243687D01*
X431956D01*
X439417Y236227D01*
X439034Y235303D01*
X370500D01*
X370193Y235242D01*
X369932Y235068D01*
X369758Y234807D01*
X369697Y234500D01*
Y229349D01*
X369557Y229201D01*
X368697Y228816D01*
X368269Y229063D01*
X367433Y229287D01*
X366567D01*
X365731Y229063D01*
X364982Y228631D01*
X364862Y228511D01*
X363862Y228925D01*
Y234506D01*
X373044Y243687D01*
X375588D01*
X375855Y242687D01*
X375566Y242520D01*
X374980Y241934D01*
X374565Y241216D01*
X374350Y240415D01*
Y239585D01*
X374565Y238784D01*
X374980Y238066D01*
X375566Y237480D01*
X376284Y237065D01*
X377085Y236850D01*
X377915D01*
X378716Y237065D01*
X379434Y237480D01*
X380020Y238066D01*
X380435Y238784D01*
X380650Y239585D01*
Y240415D01*
X380435Y241216D01*
X380020Y241934D01*
X379434Y242520D01*
X379145Y242687D01*
X379413Y243687D01*
X390683D01*
X390698Y243632D01*
X391165Y242824D01*
X391824Y242165D01*
X392632Y241698D01*
X393533Y241457D01*
X394466D01*
X395368Y241698D01*
X396176Y242165D01*
X396835Y242824D01*
X397302Y243632D01*
X397543Y244533D01*
Y245466D01*
X397302Y246368D01*
X396835Y247176D01*
X396176Y247835D01*
X395368Y248302D01*
X395313Y248317D01*
Y250683D01*
X395368Y250698D01*
X396176Y251165D01*
X396835Y251824D01*
X397302Y252632D01*
X397543Y253534D01*
Y254467D01*
X397302Y255368D01*
X396835Y256176D01*
X396176Y256835D01*
X395368Y257302D01*
X394466Y257543D01*
X393533D01*
X392632Y257302D01*
X391824Y256835D01*
X391165Y256176D01*
X390698Y255368D01*
X390457Y254467D01*
Y253534D01*
X390698Y252632D01*
X391165Y251824D01*
X391824Y251165D01*
X392632Y250698D01*
X392687Y250683D01*
Y248317D01*
X392632Y248302D01*
X391824Y247835D01*
X391165Y247176D01*
X390698Y246368D01*
X390683Y246313D01*
X372500D01*
X371998Y246213D01*
X371572Y245928D01*
X362817Y237174D01*
X361893Y237556D01*
Y244502D01*
X362176Y244665D01*
X362835Y245324D01*
X363302Y246132D01*
X363543Y247034D01*
Y247967D01*
X363302Y248868D01*
X362835Y249676D01*
X362176Y250335D01*
X361368Y250802D01*
X360467Y251043D01*
X359534D01*
X358632Y250802D01*
X357824Y250335D01*
X357165Y249676D01*
X356698Y248868D01*
X356457Y247967D01*
Y247034D01*
X356698Y246132D01*
X357165Y245324D01*
X357824Y244665D01*
X358632Y244198D01*
X359268Y244028D01*
Y220238D01*
X359248Y220209D01*
X359187Y219902D01*
X359203D01*
Y216211D01*
X359190Y216198D01*
X359248Y215903D01*
X359422Y215643D01*
X359422Y215643D01*
X359570Y215495D01*
X359831Y215321D01*
X360138Y215260D01*
X361024D01*
X361331Y215321D01*
X361565Y215478D01*
X361799Y215321D01*
X362106Y215260D01*
X362112D01*
X362928Y215103D01*
Y214070D01*
X362799Y213913D01*
X361073D01*
X360766Y213852D01*
X360766Y213852D01*
X360505Y213678D01*
X360505Y213678D01*
X360407Y213580D01*
X360233Y213319D01*
X360233Y213319D01*
X360172Y213012D01*
Y212874D01*
X359954Y212592D01*
X359890Y212536D01*
X359258Y212145D01*
X359213Y212141D01*
X358366D01*
X358366Y212141D01*
X358059Y212080D01*
X357799Y211906D01*
X357628Y211776D01*
X357457Y211906D01*
X357197Y212080D01*
X356890Y212141D01*
X356043D01*
X355998Y212145D01*
X355237Y212676D01*
X355084Y212874D01*
Y213012D01*
X355023Y213319D01*
X354849Y213580D01*
X354751Y213678D01*
X354490Y213852D01*
X354183Y213913D01*
X353302D01*
X352328Y214070D01*
Y215103D01*
X352844Y215202D01*
X353150Y215260D01*
X353457Y215321D01*
X353691Y215478D01*
X353925Y215321D01*
X354232Y215260D01*
X355118D01*
X355425Y215321D01*
X355686Y215495D01*
X355686Y215495D01*
X355833Y215643D01*
X356008Y215903D01*
X356066Y216198D01*
X356053Y216211D01*
Y219902D01*
X356069D01*
X356008Y220209D01*
X355833Y220469D01*
X355573Y220643D01*
X355266Y220704D01*
X354085D01*
X353927Y220810D01*
X353919Y220847D01*
X353635Y221272D01*
X348735Y226172D01*
X348406Y226392D01*
Y231043D01*
X342713D01*
Y231256D01*
X340047D01*
Y227500D01*
Y223744D01*
X342713D01*
Y223957D01*
X346991D01*
X347118Y223932D01*
X347263D01*
X350962Y220232D01*
X350825Y219902D01*
X351329D01*
Y216063D01*
X348081D01*
Y216078D01*
X347774Y216017D01*
X347597Y215899D01*
X344800D01*
X344287Y216567D01*
Y217433D01*
X344063Y218269D01*
X343631Y219019D01*
X343019Y219631D01*
X342269Y220063D01*
X341433Y220287D01*
X340567D01*
X339731Y220063D01*
X338982Y219631D01*
X338369Y219019D01*
X337937Y218269D01*
X337713Y217433D01*
Y216567D01*
X337937Y215731D01*
X338369Y214982D01*
X338428Y214923D01*
X338014Y213923D01*
X333803D01*
Y215000D01*
X333742Y215307D01*
X333568Y215568D01*
X333307Y215742D01*
X333000Y215803D01*
X295000D01*
X294693Y215742D01*
X294432Y215568D01*
X294258Y215307D01*
X294197Y215000D01*
Y209803D01*
X275965D01*
X275803Y210000D01*
Y258000D01*
X275742Y258307D01*
X275568Y258568D01*
X275307Y258742D01*
X275000Y258803D01*
X230925D01*
X230860Y258790D01*
X230794Y258792D01*
X230708Y258760D01*
X230618Y258742D01*
X230563Y258705D01*
X230501Y258682D01*
X230434Y258619D01*
X230358Y258568D01*
X230350Y258556D01*
X229910Y258086D01*
X229057Y258206D01*
X228979Y258237D01*
X228868Y258302D01*
X227966Y258543D01*
X227033D01*
X226132Y258302D01*
X226021Y258237D01*
X225943Y258206D01*
X225090Y258086D01*
X224650Y258556D01*
X224642Y258568D01*
X224566Y258619D01*
X224499Y258682D01*
X224437Y258705D01*
X224382Y258742D01*
X224292Y258760D01*
X224206Y258792D01*
X224140Y258790D01*
X224075Y258803D01*
X200925D01*
X200860Y258790D01*
X200794Y258792D01*
X200708Y258760D01*
X200618Y258742D01*
X200563Y258705D01*
X200501Y258682D01*
X200434Y258619D01*
X200358Y258568D01*
X199907Y258108D01*
X199058Y258437D01*
X198950Y258500D01*
X198000Y258754D01*
Y255000D01*
X197000D01*
Y258754D01*
X196050Y258500D01*
X195942Y258437D01*
X195093Y258108D01*
X194642Y258568D01*
X194566Y258619D01*
X194499Y258682D01*
X194437Y258705D01*
X194382Y258742D01*
X194292Y258760D01*
X194206Y258792D01*
X194140Y258790D01*
X194075Y258803D01*
X144000D01*
X143693Y258742D01*
X143432Y258568D01*
X143258Y258307D01*
X143197Y258000D01*
Y235312D01*
X128930D01*
X128716Y235435D01*
X127915Y235650D01*
X127085D01*
X126284Y235435D01*
X125566Y235020D01*
X124980Y234434D01*
X124594Y233766D01*
X121139Y230311D01*
X116240D01*
Y231240D01*
X115311D01*
Y303835D01*
X133508Y322032D01*
X134675D01*
X135272Y321784D01*
X136000Y321689D01*
X136000Y321689D01*
X186500D01*
X186500Y321689D01*
X187228Y321784D01*
X187906Y322065D01*
X188488Y322512D01*
X199201Y333225D01*
X200097Y332707D01*
X200047Y332520D01*
Y332500D01*
X203500D01*
Y335953D01*
X203480D01*
X203293Y335903D01*
X202775Y336799D01*
X204236Y338260D01*
X204492D01*
X205444Y338515D01*
X206296Y339007D01*
X206993Y339703D01*
X207485Y340556D01*
X207740Y341508D01*
Y342492D01*
X207485Y343444D01*
X206993Y344297D01*
X206296Y344993D01*
X205444Y345485D01*
X204492Y345740D01*
D02*
G37*
G36*
X328740Y342264D02*
X321260D01*
Y334784D01*
X328740D01*
Y335712D01*
X339441D01*
X339665Y335324D01*
X340324Y334665D01*
X341132Y334198D01*
X342034Y333957D01*
X342476D01*
X345921Y330512D01*
X345921Y330512D01*
X346503Y330065D01*
X347181Y329784D01*
X347909Y329689D01*
X347909Y329689D01*
X358185D01*
X358710Y329385D01*
X359560Y329157D01*
X360440D01*
X361290Y329385D01*
X362052Y329825D01*
X362675Y330448D01*
X363115Y331210D01*
X363342Y332060D01*
Y332940D01*
X363115Y333790D01*
X362675Y334552D01*
X362052Y335175D01*
X361290Y335615D01*
X360440Y335842D01*
X359560D01*
X358710Y335615D01*
X358185Y335312D01*
X349074D01*
X345906Y338479D01*
X345802Y338868D01*
X345335Y339676D01*
X344676Y340335D01*
X343868Y340802D01*
X342967Y341043D01*
X342268D01*
X341795Y341239D01*
X341067Y341335D01*
X341067Y341335D01*
X328740D01*
Y342264D01*
D02*
G37*
G36*
X207953Y331500D02*
X204500D01*
Y328047D01*
X204520D01*
X205526Y328317D01*
X206427Y328837D01*
X207163Y329573D01*
X207683Y330474D01*
X207953Y331480D01*
Y331500D01*
D02*
G37*
G36*
X203500D02*
X200047D01*
Y331480D01*
X200317Y330474D01*
X200837Y329573D01*
X201573Y328837D01*
X202474Y328317D01*
X203480Y328047D01*
X203500D01*
Y331500D01*
D02*
G37*
G36*
X360440Y325842D02*
X359560D01*
X358710Y325615D01*
X357948Y325175D01*
X357325Y324552D01*
X356885Y323790D01*
X356658Y322940D01*
Y322060D01*
X356885Y321210D01*
X357325Y320448D01*
X357948Y319825D01*
X358710Y319385D01*
X359560Y319158D01*
X360440D01*
X361290Y319385D01*
X361816Y319689D01*
X371335D01*
X374957Y316067D01*
Y316034D01*
X375198Y315132D01*
X375665Y314324D01*
X376324Y313665D01*
X377132Y313198D01*
X378033Y312957D01*
X378966D01*
X379868Y313198D01*
X380676Y313665D01*
X381335Y314324D01*
X381802Y315132D01*
X382043Y316034D01*
Y316967D01*
X381802Y317868D01*
X381335Y318676D01*
X380676Y319335D01*
X379868Y319802D01*
X378966Y320043D01*
X378933D01*
X374488Y324488D01*
X373906Y324935D01*
X373228Y325216D01*
X372500Y325311D01*
X372500Y325311D01*
X361816D01*
X361290Y325615D01*
X360440Y325842D01*
D02*
G37*
G36*
X171500Y311312D02*
X171500Y311312D01*
X147400D01*
X147400Y311312D01*
X146672Y311216D01*
X145994Y310935D01*
X145412Y310488D01*
X135690Y300766D01*
X134862Y300987D01*
X133338D01*
X131866Y300593D01*
X130546Y299831D01*
X129469Y298753D01*
X128707Y297434D01*
X128313Y295962D01*
Y294438D01*
X128661Y293139D01*
X128311Y292747D01*
X127838Y292485D01*
X127342Y292817D01*
X126250Y293269D01*
X125091Y293500D01*
X125000D01*
Y288000D01*
X130500D01*
Y288091D01*
X130269Y289250D01*
X130093Y289676D01*
X130887Y290372D01*
X131866Y289807D01*
X133338Y289413D01*
X134862D01*
X136334Y289807D01*
X137654Y290569D01*
X138731Y291647D01*
X139493Y292966D01*
X139887Y294438D01*
Y295962D01*
X139666Y296790D01*
X148565Y305689D01*
X170335D01*
X181457Y294567D01*
Y294533D01*
X181698Y293632D01*
X182165Y292824D01*
X182824Y292165D01*
X183632Y291698D01*
X184534Y291457D01*
X185467D01*
X186368Y291698D01*
X187176Y292165D01*
X187835Y292824D01*
X188302Y293632D01*
X188543Y294533D01*
Y295466D01*
X188302Y296368D01*
X187835Y297176D01*
X187176Y297835D01*
X186368Y298302D01*
X185467Y298543D01*
X185433D01*
X173488Y310488D01*
X172906Y310935D01*
X172228Y311216D01*
X171500Y311312D01*
D02*
G37*
G36*
X401240Y348740D02*
X393760D01*
Y341260D01*
X401240D01*
Y342189D01*
X418835D01*
X446260Y314764D01*
Y314508D01*
X446515Y313556D01*
X447007Y312703D01*
X447704Y312007D01*
X448556Y311515D01*
X449508Y311260D01*
X450492D01*
X451444Y311515D01*
X452296Y312007D01*
X452993Y312703D01*
X453485Y313556D01*
X453740Y314508D01*
Y315492D01*
X453485Y316444D01*
X452993Y317297D01*
X452296Y317993D01*
X451444Y318485D01*
X450492Y318740D01*
X450236D01*
X421988Y346988D01*
X421406Y347435D01*
X420728Y347716D01*
X420000Y347812D01*
X420000Y347812D01*
X401240D01*
Y348740D01*
D02*
G37*
G36*
X408966Y320043D02*
X408034D01*
X407132Y319802D01*
X406324Y319335D01*
X405665Y318676D01*
X405198Y317868D01*
X404957Y316967D01*
Y316034D01*
X405198Y315132D01*
X405665Y314324D01*
X405688Y314300D01*
Y308699D01*
X405665Y308676D01*
X405198Y307868D01*
X404957Y306966D01*
Y306933D01*
X383835Y285811D01*
X312000D01*
X312000Y285811D01*
X311272Y285716D01*
X310594Y285435D01*
X310012Y284988D01*
X310012Y284988D01*
X299335Y274311D01*
X272165D01*
X256043Y290433D01*
Y290466D01*
X255802Y291368D01*
X255335Y292176D01*
X254676Y292835D01*
X253868Y293302D01*
X252966Y293543D01*
X252033D01*
X251132Y293302D01*
X250324Y292835D01*
X249665Y292176D01*
X249198Y291368D01*
X248957Y290466D01*
Y289533D01*
X249198Y288632D01*
X249665Y287824D01*
X250324Y287165D01*
X251132Y286698D01*
X252033Y286457D01*
X252067D01*
X254159Y284365D01*
X253868Y283371D01*
X253786Y283324D01*
X252966Y283543D01*
X252033D01*
X251132Y283302D01*
X250842Y283134D01*
X243740Y290236D01*
Y290492D01*
X243682Y290708D01*
X243716Y290788D01*
X243811Y291516D01*
Y297335D01*
X248135Y301659D01*
X249129Y301368D01*
X249176Y301286D01*
X248957Y300466D01*
Y299534D01*
X249198Y298632D01*
X249665Y297824D01*
X250324Y297165D01*
X251132Y296698D01*
X252033Y296457D01*
X252966D01*
X253868Y296698D01*
X254676Y297165D01*
X255335Y297824D01*
X255802Y298632D01*
X256043Y299534D01*
Y300466D01*
X255802Y301368D01*
X255335Y302176D01*
X255311Y302200D01*
Y307801D01*
X255335Y307824D01*
X255802Y308632D01*
X256043Y309534D01*
Y310467D01*
X255802Y311368D01*
X255335Y312176D01*
X254676Y312835D01*
X253868Y313302D01*
X252966Y313543D01*
X252033D01*
X251132Y313302D01*
X250324Y312835D01*
X249665Y312176D01*
X249198Y311368D01*
X248957Y310467D01*
Y310433D01*
X239012Y300488D01*
X238565Y299906D01*
X238284Y299228D01*
X238189Y298500D01*
X238189Y298500D01*
Y293273D01*
X237703Y292993D01*
X237007Y292297D01*
X236515Y291444D01*
X236260Y290492D01*
Y289508D01*
X236515Y288556D01*
X237007Y287703D01*
X237703Y287007D01*
X238556Y286515D01*
X239508Y286260D01*
X239764D01*
X247723Y278301D01*
X247723Y278301D01*
X248305Y277854D01*
X248983Y277574D01*
X249711Y277478D01*
X249711Y277478D01*
X250011D01*
X250324Y277165D01*
X251132Y276698D01*
X252033Y276457D01*
X252966D01*
X253868Y276698D01*
X254676Y277165D01*
X255335Y277824D01*
X255802Y278632D01*
X256043Y279534D01*
Y280467D01*
X255824Y281286D01*
X255871Y281368D01*
X256865Y281659D01*
X269012Y269512D01*
X269012Y269512D01*
X269594Y269065D01*
X270272Y268784D01*
X271000Y268689D01*
X271000Y268689D01*
X300500D01*
X300500Y268689D01*
X301228Y268784D01*
X301906Y269065D01*
X302488Y269512D01*
X313164Y280188D01*
X385000D01*
X385000Y280188D01*
X385728Y280284D01*
X386406Y280565D01*
X386988Y281012D01*
X408933Y302957D01*
X408966D01*
X409868Y303198D01*
X410676Y303665D01*
X411335Y304324D01*
X411802Y305132D01*
X412043Y306033D01*
Y306966D01*
X411802Y307868D01*
X411335Y308676D01*
X411311Y308699D01*
Y313688D01*
X426479D01*
X426515Y313556D01*
X427007Y312703D01*
X427704Y312007D01*
X428556Y311515D01*
X429508Y311260D01*
X430492D01*
X431444Y311515D01*
X432297Y312007D01*
X432993Y312703D01*
X433485Y313556D01*
X433740Y314508D01*
Y315492D01*
X433485Y316444D01*
X432993Y317297D01*
X432297Y317993D01*
X431444Y318485D01*
X430492Y318740D01*
X429644D01*
X429390Y318935D01*
X428712Y319216D01*
X427984Y319311D01*
X427984Y319311D01*
X410700D01*
X410676Y319335D01*
X409868Y319802D01*
X408966Y320043D01*
D02*
G37*
G36*
X334500Y306047D02*
Y303000D01*
X337547D01*
X337313Y303872D01*
X336845Y304683D01*
X336183Y305345D01*
X335372Y305813D01*
X334500Y306047D01*
D02*
G37*
G36*
X333500D02*
X332628Y305813D01*
X331817Y305345D01*
X331155Y304683D01*
X330687Y303872D01*
X330453Y303000D01*
X333500D01*
Y306047D01*
D02*
G37*
G36*
X306975Y342262D02*
X305990D01*
X305039Y342007D01*
X304186Y341514D01*
X303490Y340818D01*
X302997Y339965D01*
X302743Y339014D01*
Y338029D01*
X302997Y337078D01*
X303490Y336225D01*
X303689Y336026D01*
Y321316D01*
X303385Y320790D01*
X303228Y320204D01*
X295835Y312811D01*
X284700D01*
X284676Y312835D01*
X283868Y313302D01*
X282966Y313543D01*
X282033D01*
X281132Y313302D01*
X280324Y312835D01*
X279665Y312176D01*
X279198Y311368D01*
X278957Y310467D01*
Y309534D01*
X279198Y308632D01*
X279665Y307824D01*
X280324Y307165D01*
X281132Y306698D01*
X282033Y306457D01*
X282966D01*
X283868Y306698D01*
X284676Y307165D01*
X284700Y307189D01*
X297000D01*
X297000Y307189D01*
X297728Y307284D01*
X298406Y307565D01*
X298988Y308012D01*
X302865Y311889D01*
X303665Y311275D01*
X303385Y310790D01*
X303228Y310204D01*
X295835Y302812D01*
X284700D01*
X284676Y302835D01*
X283868Y303302D01*
X282966Y303543D01*
X282033D01*
X281132Y303302D01*
X280324Y302835D01*
X279665Y302176D01*
X279198Y301368D01*
X278957Y300466D01*
Y299534D01*
X279198Y298632D01*
X279665Y297824D01*
X279689Y297800D01*
Y292199D01*
X279665Y292176D01*
X279198Y291368D01*
X278957Y290466D01*
Y289533D01*
X279198Y288632D01*
X279665Y287824D01*
X280324Y287165D01*
X281132Y286698D01*
X282033Y286457D01*
X282966D01*
X283868Y286698D01*
X284676Y287165D01*
X285335Y287824D01*
X285802Y288632D01*
X286043Y289533D01*
Y290466D01*
X285802Y291368D01*
X285335Y292176D01*
X285312Y292199D01*
Y297188D01*
X297000D01*
X297000Y297188D01*
X297728Y297284D01*
X298406Y297565D01*
X298988Y298012D01*
X302071Y301095D01*
X302218Y301060D01*
X302924Y300000D01*
X306000D01*
Y303076D01*
X304941Y303782D01*
X304905Y303929D01*
X307204Y306228D01*
X307790Y306385D01*
X308552Y306825D01*
X309175Y307448D01*
X309615Y308210D01*
X309842Y309060D01*
Y309940D01*
X309615Y310790D01*
X309335Y311275D01*
X310135Y311889D01*
X311512Y310512D01*
X311512Y310512D01*
X312094Y310065D01*
X312772Y309784D01*
X313500Y309688D01*
X332185D01*
X332710Y309385D01*
X333560Y309157D01*
X334440D01*
X335290Y309385D01*
X336052Y309825D01*
X336675Y310448D01*
X337115Y311210D01*
X337343Y312060D01*
Y312940D01*
X337115Y313790D01*
X336675Y314552D01*
X336355Y314872D01*
X336991Y315597D01*
X337094Y315565D01*
X337183Y315528D01*
X337772Y315284D01*
X338500Y315189D01*
X338500Y315189D01*
X350334D01*
X361010Y304512D01*
X361010Y304512D01*
X361593Y304065D01*
X362271Y303784D01*
X362998Y303689D01*
X362998Y303689D01*
X376301D01*
X376324Y303665D01*
X377132Y303198D01*
X378033Y302957D01*
X378966D01*
X379868Y303198D01*
X380676Y303665D01*
X381335Y304324D01*
X381802Y305132D01*
X382043Y306033D01*
Y306966D01*
X381802Y307868D01*
X381335Y308676D01*
X380676Y309335D01*
X379868Y309802D01*
X378966Y310043D01*
X378033D01*
X377132Y309802D01*
X376324Y309335D01*
X376301Y309312D01*
X364163D01*
X353486Y319988D01*
X352904Y320435D01*
X352226Y320716D01*
X351498Y320812D01*
X351498Y320812D01*
X339665D01*
X337272Y323204D01*
X337115Y323790D01*
X336675Y324552D01*
X336052Y325175D01*
X335290Y325615D01*
X334440Y325842D01*
X333560D01*
X332710Y325615D01*
X331948Y325175D01*
X331325Y324552D01*
X330885Y323790D01*
X330658Y322940D01*
Y322060D01*
X330885Y321210D01*
X331325Y320448D01*
X331948Y319825D01*
X332710Y319385D01*
X333296Y319228D01*
X336252Y316271D01*
X336389Y316135D01*
X335775Y315335D01*
X335576Y315450D01*
X335290Y315615D01*
X334440Y315843D01*
X333560D01*
X332710Y315615D01*
X332185Y315312D01*
X314665D01*
X309772Y320204D01*
X309615Y320790D01*
X309312Y321316D01*
Y336061D01*
X309475Y336225D01*
X309968Y337078D01*
X310223Y338029D01*
Y339014D01*
X309968Y339965D01*
X309475Y340818D01*
X308779Y341514D01*
X307926Y342007D01*
X306975Y342262D01*
D02*
G37*
G36*
X307000Y303047D02*
Y300000D01*
X310047D01*
X309813Y300872D01*
X309345Y301683D01*
X308683Y302345D01*
X307872Y302813D01*
X307000Y303047D01*
D02*
G37*
G36*
X337547Y302000D02*
X334500D01*
Y298953D01*
X335372Y299187D01*
X336183Y299655D01*
X336845Y300317D01*
X337313Y301128D01*
X337547Y302000D01*
D02*
G37*
G36*
X333500D02*
X330453D01*
X330687Y301128D01*
X331155Y300317D01*
X331817Y299655D01*
X332628Y299187D01*
X333500Y298953D01*
Y302000D01*
D02*
G37*
G36*
X310047Y299000D02*
X307000D01*
Y295953D01*
X307872Y296187D01*
X308683Y296655D01*
X309345Y297317D01*
X309813Y298128D01*
X310047Y299000D01*
D02*
G37*
G36*
X306000D02*
X302953D01*
X303187Y298128D01*
X303655Y297317D01*
X304317Y296655D01*
X305128Y296187D01*
X306000Y295953D01*
Y299000D01*
D02*
G37*
G36*
X156662Y300987D02*
X155138D01*
X153666Y300593D01*
X152347Y299831D01*
X151269Y298753D01*
X150507Y297434D01*
X150113Y295962D01*
Y294438D01*
X150306Y293718D01*
X150098Y293418D01*
X149473Y292963D01*
X148262Y293287D01*
X146738D01*
X145266Y292893D01*
X143947Y292131D01*
X142869Y291054D01*
X142107Y289734D01*
X141713Y288262D01*
Y286738D01*
X142107Y285266D01*
X142869Y283946D01*
X143947Y282869D01*
X145266Y282107D01*
X146738Y281713D01*
X148262D01*
X149734Y282107D01*
X151054Y282869D01*
X152131Y283946D01*
X152893Y285266D01*
X153287Y286738D01*
Y288262D01*
X153094Y288982D01*
X153302Y289282D01*
X153927Y289737D01*
X155138Y289413D01*
X156662D01*
X158134Y289807D01*
X159453Y290569D01*
X160531Y291647D01*
X161293Y292966D01*
X161687Y294438D01*
Y295962D01*
X161293Y297434D01*
X160531Y298753D01*
X159453Y299831D01*
X158134Y300593D01*
X156662Y300987D01*
D02*
G37*
G36*
X124000Y293500D02*
X123909D01*
X122750Y293269D01*
X121658Y292817D01*
X120675Y292161D01*
X119840Y291325D01*
X119183Y290342D01*
X118731Y289250D01*
X118500Y288091D01*
Y288000D01*
X124000D01*
Y293500D01*
D02*
G37*
G36*
X215466Y298543D02*
X214533D01*
X213632Y298302D01*
X212824Y297835D01*
X212165Y297176D01*
X211698Y296368D01*
X211457Y295466D01*
Y294533D01*
X211698Y293632D01*
X212165Y292824D01*
X212189Y292800D01*
Y284700D01*
X212165Y284676D01*
X211698Y283868D01*
X211457Y282966D01*
Y282033D01*
X211698Y281132D01*
X212165Y280324D01*
X212824Y279665D01*
X213632Y279198D01*
X214533Y278957D01*
X215466D01*
X216368Y279198D01*
X217176Y279665D01*
X217835Y280324D01*
X218302Y281132D01*
X218543Y282033D01*
Y282966D01*
X218302Y283868D01*
X217835Y284676D01*
X217811Y284700D01*
Y292189D01*
X223320D01*
X226355Y289154D01*
X226515Y288556D01*
X227007Y287703D01*
X227703Y287007D01*
X228556Y286515D01*
X229508Y286260D01*
X230492D01*
X231444Y286515D01*
X232296Y287007D01*
X232993Y287703D01*
X233485Y288556D01*
X233740Y289508D01*
Y290492D01*
X233485Y291444D01*
X232993Y292297D01*
X232296Y292993D01*
X231444Y293485D01*
X230492Y293740D01*
X229720D01*
X226472Y296988D01*
X225890Y297435D01*
X225212Y297716D01*
X224484Y297812D01*
X224484Y297812D01*
X217199D01*
X217176Y297835D01*
X216368Y298302D01*
X215466Y298543D01*
D02*
G37*
G36*
X185500Y286254D02*
Y283000D01*
X188754D01*
X188500Y283950D01*
X188005Y284806D01*
X187306Y285506D01*
X186450Y286000D01*
X185500Y286254D01*
D02*
G37*
G36*
X184500D02*
X183550Y286000D01*
X182694Y285506D01*
X181994Y284806D01*
X181500Y283950D01*
X181246Y283000D01*
X184500D01*
Y286254D01*
D02*
G37*
G36*
X130500Y287000D02*
X125000D01*
Y281500D01*
X125091D01*
X126250Y281731D01*
X127342Y282183D01*
X128325Y282839D01*
X129160Y283675D01*
X129817Y284658D01*
X130269Y285750D01*
X130500Y286909D01*
Y287000D01*
D02*
G37*
G36*
X124000D02*
X118500D01*
Y286909D01*
X118731Y285750D01*
X119183Y284658D01*
X119840Y283675D01*
X120675Y282839D01*
X121658Y282183D01*
X122750Y281731D01*
X123909Y281500D01*
X124000D01*
Y287000D01*
D02*
G37*
G36*
X171102Y293612D02*
X169898D01*
X168717Y293377D01*
X167605Y292917D01*
X166604Y292248D01*
X165752Y291396D01*
X165083Y290395D01*
X164622Y289283D01*
X164388Y288102D01*
Y286898D01*
X164622Y285717D01*
X165083Y284605D01*
X165752Y283604D01*
X166604Y282752D01*
X167605Y282083D01*
X168717Y281623D01*
X169898Y281388D01*
X171102D01*
X172283Y281623D01*
X173395Y282083D01*
X174396Y282752D01*
X175248Y283604D01*
X175917Y284605D01*
X176377Y285717D01*
X176612Y286898D01*
Y288102D01*
X176377Y289283D01*
X175917Y290395D01*
X175248Y291396D01*
X174396Y292248D01*
X173395Y292917D01*
X172283Y293377D01*
X171102Y293612D01*
D02*
G37*
G36*
X283000Y283754D02*
Y280500D01*
X286254D01*
X286000Y281450D01*
X285506Y282306D01*
X284806Y283005D01*
X283950Y283500D01*
X283000Y283754D01*
D02*
G37*
G36*
X282000D02*
X281050Y283500D01*
X280194Y283005D01*
X279495Y282306D01*
X279000Y281450D01*
X278746Y280500D01*
X282000D01*
Y283754D01*
D02*
G37*
G36*
X188754Y282000D02*
X185500D01*
Y278746D01*
X186450Y279000D01*
X187306Y279495D01*
X188005Y280194D01*
X188500Y281050D01*
X188754Y282000D01*
D02*
G37*
G36*
X184500D02*
X181246D01*
X181500Y281050D01*
X181994Y280194D01*
X182694Y279495D01*
X183550Y279000D01*
X184500Y278746D01*
Y282000D01*
D02*
G37*
G36*
X286254Y279500D02*
X283000D01*
Y276246D01*
X283950Y276500D01*
X284806Y276994D01*
X285506Y277694D01*
X286000Y278550D01*
X286254Y279500D01*
D02*
G37*
G36*
X282000D02*
X278746D01*
X279000Y278550D01*
X279495Y277694D01*
X280194Y276994D01*
X281050Y276500D01*
X282000Y276246D01*
Y279500D01*
D02*
G37*
G36*
X358000Y273347D02*
Y270500D01*
X360847D01*
X360633Y271298D01*
X360190Y272064D01*
X359564Y272690D01*
X358798Y273133D01*
X358000Y273347D01*
D02*
G37*
G36*
X378000D02*
Y270500D01*
X380847D01*
X380633Y271298D01*
X380190Y272064D01*
X379564Y272690D01*
X378798Y273133D01*
X378000Y273347D01*
D02*
G37*
G36*
X377000D02*
X376202Y273133D01*
X375436Y272690D01*
X374810Y272064D01*
X374367Y271298D01*
X374153Y270500D01*
X377000D01*
Y273347D01*
D02*
G37*
G36*
X357000D02*
X356202Y273133D01*
X355436Y272690D01*
X354810Y272064D01*
X354367Y271298D01*
X354153Y270500D01*
X357000D01*
Y273347D01*
D02*
G37*
G36*
X360847Y269500D02*
X358000D01*
Y266653D01*
X358798Y266867D01*
X359564Y267310D01*
X360190Y267936D01*
X360633Y268702D01*
X360847Y269500D01*
D02*
G37*
G36*
X380847D02*
X378000D01*
Y266653D01*
X378798Y266867D01*
X379564Y267310D01*
X380190Y267936D01*
X380633Y268702D01*
X380847Y269500D01*
D02*
G37*
G36*
X377000D02*
X374153D01*
X374367Y268702D01*
X374810Y267936D01*
X375436Y267310D01*
X376202Y266867D01*
X377000Y266653D01*
Y269500D01*
D02*
G37*
G36*
X357000D02*
X354153D01*
X354367Y268702D01*
X354810Y267936D01*
X355436Y267310D01*
X356202Y266867D01*
X357000Y266653D01*
Y269500D01*
D02*
G37*
G36*
X424500Y257754D02*
Y254500D01*
X427754D01*
X427500Y255450D01*
X427005Y256306D01*
X426306Y257006D01*
X425450Y257500D01*
X424500Y257754D01*
D02*
G37*
G36*
X423500D02*
X422550Y257500D01*
X421694Y257006D01*
X420995Y256306D01*
X420500Y255450D01*
X420246Y254500D01*
X423500D01*
Y257754D01*
D02*
G37*
G36*
X427754Y253500D02*
X424500D01*
Y250246D01*
X425450Y250500D01*
X426306Y250994D01*
X427005Y251694D01*
X427500Y252550D01*
X427754Y253500D01*
D02*
G37*
G36*
X423500D02*
X420246D01*
X420500Y252550D01*
X420995Y251694D01*
X421694Y250994D01*
X422550Y250500D01*
X423500Y250246D01*
Y253500D01*
D02*
G37*
G36*
X327915Y273150D02*
X327085D01*
X326284Y272935D01*
X325566Y272520D01*
X324980Y271934D01*
X324565Y271216D01*
X324350Y270415D01*
Y269585D01*
X324565Y268784D01*
X324980Y268066D01*
X325566Y267480D01*
X326284Y267065D01*
X327085Y266850D01*
X327915D01*
X328687Y266115D01*
Y250817D01*
X328632Y250802D01*
X327824Y250335D01*
X327165Y249676D01*
X326698Y248868D01*
X326457Y247967D01*
Y247034D01*
X326698Y246132D01*
X327165Y245324D01*
X327824Y244665D01*
X328632Y244198D01*
X329534Y243957D01*
X330467D01*
X331368Y244198D01*
X332176Y244665D01*
X332835Y245324D01*
X333302Y246132D01*
X333543Y247034D01*
Y247967D01*
X333302Y248868D01*
X332835Y249676D01*
X332176Y250335D01*
X331368Y250802D01*
X331313Y250817D01*
Y267038D01*
X331213Y267540D01*
X330928Y267966D01*
X330316Y268578D01*
X330435Y268784D01*
X330650Y269585D01*
Y270415D01*
X330435Y271216D01*
X330020Y271934D01*
X329434Y272520D01*
X328716Y272935D01*
X327915Y273150D01*
D02*
G37*
G36*
X339047Y231256D02*
X336382D01*
Y228000D01*
X339047D01*
Y231256D01*
D02*
G37*
G36*
Y227000D02*
X336382D01*
Y223744D01*
X339047D01*
Y227000D01*
D02*
G37*
G36*
X349951Y219232D02*
X349488D01*
Y218482D01*
X349951D01*
Y219232D01*
D02*
G37*
G36*
X113020Y221453D02*
X113000D01*
Y218000D01*
X116453D01*
Y218020D01*
X116183Y219026D01*
X115663Y219927D01*
X114927Y220663D01*
X114026Y221183D01*
X113020Y221453D01*
D02*
G37*
G36*
X112000D02*
X111980D01*
X110974Y221183D01*
X110073Y220663D01*
X109337Y219927D01*
X108817Y219026D01*
X108547Y218020D01*
Y218000D01*
X112000D01*
Y221453D01*
D02*
G37*
G36*
X358022Y219232D02*
X357234D01*
Y216732D01*
X358022D01*
Y219232D01*
D02*
G37*
G36*
X153020Y218953D02*
X153000D01*
Y215500D01*
X156453D01*
Y215520D01*
X156183Y216526D01*
X155663Y217427D01*
X154927Y218163D01*
X154026Y218683D01*
X153020Y218953D01*
D02*
G37*
G36*
X152000D02*
X151980D01*
X150974Y218683D01*
X150073Y218163D01*
X149337Y217427D01*
X148817Y216526D01*
X148547Y215520D01*
Y215500D01*
X152000D01*
Y218953D01*
D02*
G37*
G36*
X116453Y217000D02*
X113000D01*
Y213547D01*
X113020D01*
X114026Y213817D01*
X114927Y214337D01*
X115663Y215073D01*
X116183Y215974D01*
X116453Y216980D01*
Y217000D01*
D02*
G37*
G36*
X112000D02*
X108547D01*
Y216980D01*
X108817Y215974D01*
X109337Y215073D01*
X110073Y214337D01*
X110974Y213817D01*
X111980Y213547D01*
X112000D01*
Y217000D01*
D02*
G37*
G36*
X156453Y214500D02*
X153000D01*
Y211047D01*
X153020D01*
X154026Y211317D01*
X154927Y211837D01*
X155663Y212573D01*
X156183Y213474D01*
X156453Y214480D01*
Y214500D01*
D02*
G37*
G36*
X152000D02*
X148547D01*
Y214480D01*
X148817Y213474D01*
X149337Y212573D01*
X150073Y211837D01*
X150974Y211317D01*
X151980Y211047D01*
X152000D01*
Y214500D01*
D02*
G37*
G36*
X424520Y206953D02*
X424500D01*
Y203500D01*
X427953D01*
Y203520D01*
X427683Y204526D01*
X427163Y205427D01*
X426427Y206163D01*
X425526Y206683D01*
X424520Y206953D01*
D02*
G37*
G36*
X423500D02*
X423480D01*
X422474Y206683D01*
X421573Y206163D01*
X420837Y205427D01*
X420317Y204526D01*
X420047Y203520D01*
Y203500D01*
X423500D01*
Y206953D01*
D02*
G37*
G36*
X366506Y203465D02*
X365756D01*
Y203100D01*
X366506D01*
Y203465D01*
D02*
G37*
G36*
X349500D02*
X348750D01*
Y203100D01*
X349500D01*
Y203465D01*
D02*
G37*
G36*
X128000Y205847D02*
Y203000D01*
X130847D01*
X130633Y203798D01*
X130190Y204564D01*
X129564Y205190D01*
X128798Y205633D01*
X128000Y205847D01*
D02*
G37*
G36*
X127000D02*
X126202Y205633D01*
X125436Y205190D01*
X124810Y204564D01*
X124367Y203798D01*
X124153Y203000D01*
X127000D01*
Y205847D01*
D02*
G37*
G36*
X130847Y202000D02*
X128000D01*
Y199153D01*
X128798Y199367D01*
X129564Y199810D01*
X130190Y200436D01*
X130633Y201202D01*
X130847Y202000D01*
D02*
G37*
G36*
X127000D02*
X124153D01*
X124367Y201202D01*
X124810Y200436D01*
X125436Y199810D01*
X126202Y199367D01*
X127000Y199153D01*
Y202000D01*
D02*
G37*
G36*
X427953Y202500D02*
X424500D01*
Y199047D01*
X424520D01*
X425526Y199317D01*
X426427Y199837D01*
X427163Y200573D01*
X427683Y201474D01*
X427953Y202480D01*
Y202500D01*
D02*
G37*
G36*
X423500D02*
X420047D01*
Y202480D01*
X420317Y201474D01*
X420837Y200573D01*
X421573Y199837D01*
X422474Y199317D01*
X423480Y199047D01*
X423500D01*
Y202500D01*
D02*
G37*
G36*
X187000Y201254D02*
X186050Y201000D01*
X185194Y200505D01*
X184494Y199806D01*
X184000Y198950D01*
X183746Y198000D01*
X187000D01*
Y201254D01*
D02*
G37*
G36*
Y197000D02*
X183746D01*
X184000Y196050D01*
X184494Y195194D01*
X185194Y194494D01*
X186050Y194000D01*
X187000Y193746D01*
Y197000D01*
D02*
G37*
G36*
X280520Y191453D02*
X280500D01*
Y188000D01*
X283953D01*
Y188020D01*
X283683Y189026D01*
X283163Y189927D01*
X282427Y190663D01*
X281526Y191183D01*
X280520Y191453D01*
D02*
G37*
G36*
X279500D02*
X279480D01*
X278474Y191183D01*
X277573Y190663D01*
X276837Y189927D01*
X276317Y189026D01*
X276047Y188020D01*
Y188000D01*
X279500D01*
Y191453D01*
D02*
G37*
G36*
X327756Y190547D02*
X324500D01*
Y187882D01*
X327756D01*
Y190547D01*
D02*
G37*
G36*
X323500D02*
X320244D01*
Y187882D01*
X323500D01*
Y190547D01*
D02*
G37*
G36*
X313756D02*
X310500D01*
Y187882D01*
X313756D01*
Y190547D01*
D02*
G37*
G36*
X309500D02*
X306244D01*
Y187882D01*
X309500D01*
Y190547D01*
D02*
G37*
G36*
X228665Y190256D02*
X226000D01*
Y187000D01*
X228665D01*
Y190256D01*
D02*
G37*
G36*
X283953Y187000D02*
X280500D01*
Y183547D01*
X280520D01*
X281526Y183817D01*
X282427Y184337D01*
X283163Y185073D01*
X283683Y185974D01*
X283953Y186980D01*
Y187000D01*
D02*
G37*
G36*
X279500D02*
X276047D01*
Y186980D01*
X276317Y185974D01*
X276837Y185073D01*
X277573Y184337D01*
X278474Y183817D01*
X279480Y183547D01*
X279500D01*
Y187000D01*
D02*
G37*
G36*
X398500Y186347D02*
Y183500D01*
X401347D01*
X401133Y184298D01*
X400690Y185064D01*
X400064Y185690D01*
X399298Y186133D01*
X398500Y186347D01*
D02*
G37*
G36*
X397500D02*
X396702Y186133D01*
X395936Y185690D01*
X395310Y185064D01*
X394867Y184298D01*
X394653Y183500D01*
X397500D01*
Y186347D01*
D02*
G37*
G36*
X228665Y186000D02*
X226000D01*
Y182744D01*
X228665D01*
Y186000D01*
D02*
G37*
G36*
X401347Y182500D02*
X398500D01*
Y179653D01*
X399298Y179867D01*
X400064Y180310D01*
X400690Y180936D01*
X401133Y181702D01*
X401347Y182500D01*
D02*
G37*
G36*
X397500D02*
X394653D01*
X394867Y181702D01*
X395310Y180936D01*
X395936Y180310D01*
X396702Y179867D01*
X397500Y179653D01*
Y182500D01*
D02*
G37*
G36*
X193000Y178754D02*
Y175500D01*
X196254D01*
X196000Y176450D01*
X195505Y177306D01*
X194806Y178006D01*
X193950Y178500D01*
X193000Y178754D01*
D02*
G37*
G36*
X192000D02*
X191050Y178500D01*
X190194Y178006D01*
X189495Y177306D01*
X189000Y176450D01*
X188746Y175500D01*
X192000D01*
Y178754D01*
D02*
G37*
G36*
X196254Y174500D02*
X193000D01*
Y171246D01*
X193950Y171500D01*
X194806Y171994D01*
X195505Y172694D01*
X196000Y173550D01*
X196254Y174500D01*
D02*
G37*
G36*
X192000D02*
X188746D01*
X189000Y173550D01*
X189495Y172694D01*
X190194Y171994D01*
X191050Y171500D01*
X192000Y171246D01*
Y174500D01*
D02*
G37*
G36*
X253000Y163754D02*
Y160500D01*
X256254D01*
X256000Y161450D01*
X255505Y162306D01*
X254806Y163005D01*
X253950Y163500D01*
X253000Y163754D01*
D02*
G37*
G36*
X252000D02*
X251050Y163500D01*
X250194Y163005D01*
X249495Y162306D01*
X249000Y161450D01*
X248746Y160500D01*
X252000D01*
Y163754D01*
D02*
G37*
G36*
X256254Y159500D02*
X253000D01*
Y156246D01*
X253950Y156500D01*
X254806Y156994D01*
X255505Y157694D01*
X256000Y158550D01*
X256254Y159500D01*
D02*
G37*
G36*
X252000D02*
X248746D01*
X249000Y158550D01*
X249495Y157694D01*
X250194Y156994D01*
X251050Y156500D01*
X252000Y156246D01*
Y159500D01*
D02*
G37*
G36*
X153020Y153953D02*
X153000D01*
Y150500D01*
X156453D01*
Y150520D01*
X156183Y151526D01*
X155663Y152427D01*
X154927Y153163D01*
X154026Y153683D01*
X153020Y153953D01*
D02*
G37*
G36*
X113020D02*
X113000D01*
Y150500D01*
X116453D01*
Y150520D01*
X116183Y151526D01*
X115663Y152427D01*
X114927Y153163D01*
X114026Y153683D01*
X113020Y153953D01*
D02*
G37*
G36*
X112000D02*
X111980D01*
X110974Y153683D01*
X110073Y153163D01*
X109337Y152427D01*
X108817Y151526D01*
X108547Y150520D01*
Y150500D01*
X112000D01*
Y153953D01*
D02*
G37*
G36*
X152000D02*
X151980D01*
X150974Y153683D01*
X150073Y153163D01*
X149337Y152427D01*
X148817Y151526D01*
X148547Y150520D01*
Y150500D01*
X152000D01*
Y153953D01*
D02*
G37*
G36*
X156453Y149500D02*
X153000D01*
Y146047D01*
X153020D01*
X154026Y146317D01*
X154927Y146837D01*
X155663Y147573D01*
X156183Y148474D01*
X156453Y149480D01*
Y149500D01*
D02*
G37*
G36*
X152000D02*
X148547D01*
Y149480D01*
X148817Y148474D01*
X149337Y147573D01*
X150073Y146837D01*
X150974Y146317D01*
X151980Y146047D01*
X152000D01*
Y149500D01*
D02*
G37*
G36*
X116453D02*
X113000D01*
Y146047D01*
X113020D01*
X114026Y146317D01*
X114927Y146837D01*
X115663Y147573D01*
X116183Y148474D01*
X116453Y149480D01*
Y149500D01*
D02*
G37*
G36*
X112000D02*
X108547D01*
Y149480D01*
X108817Y148474D01*
X109337Y147573D01*
X110073Y146837D01*
X110974Y146317D01*
X111980Y146047D01*
X112000D01*
Y149500D01*
D02*
G37*
G36*
X130500Y133347D02*
Y130500D01*
X133347D01*
X133133Y131298D01*
X132690Y132064D01*
X132064Y132690D01*
X131298Y133133D01*
X130500Y133347D01*
D02*
G37*
G36*
X129500D02*
X128702Y133133D01*
X127936Y132690D01*
X127310Y132064D01*
X126867Y131298D01*
X126653Y130500D01*
X129500D01*
Y133347D01*
D02*
G37*
G36*
X133347Y129500D02*
X130500D01*
Y126653D01*
X131298Y126867D01*
X132064Y127310D01*
X132690Y127936D01*
X133133Y128702D01*
X133347Y129500D01*
D02*
G37*
G36*
X129500D02*
X126653D01*
X126867Y128702D01*
X127310Y127936D01*
X127936Y127310D01*
X128702Y126867D01*
X129500Y126653D01*
Y129500D01*
D02*
G37*
G36*
X222967Y168543D02*
X222034D01*
X221132Y168302D01*
X220324Y167835D01*
X219665Y167176D01*
X219198Y166368D01*
X218957Y165466D01*
Y164533D01*
X219198Y163632D01*
X219665Y162824D01*
X220324Y162165D01*
X221132Y161698D01*
X222034Y161457D01*
X222967D01*
X223868Y161698D01*
X223917Y161727D01*
X248687Y136956D01*
Y134087D01*
X248345Y133995D01*
X247368Y133431D01*
X246569Y132633D01*
X246005Y131655D01*
X245713Y130564D01*
Y129436D01*
X246005Y128345D01*
X246569Y127367D01*
X247368Y126569D01*
X248345Y126005D01*
X249436Y125713D01*
X250564D01*
X251655Y126005D01*
X252632Y126569D01*
X253431Y127367D01*
X253995Y128345D01*
X254287Y129436D01*
Y130564D01*
X253995Y131655D01*
X253431Y132633D01*
X252632Y133431D01*
X251655Y133995D01*
X251313Y134087D01*
Y137500D01*
X251213Y138002D01*
X250928Y138428D01*
X225773Y163583D01*
X225802Y163632D01*
X226043Y164533D01*
Y165466D01*
X225802Y166368D01*
X225335Y167176D01*
X224676Y167835D01*
X223868Y168302D01*
X222967Y168543D01*
D02*
G37*
G36*
X250592Y124500D02*
X250500D01*
Y120500D01*
X254500D01*
Y120592D01*
X254193Y121737D01*
X253601Y122763D01*
X252763Y123601D01*
X251737Y124193D01*
X250592Y124500D01*
D02*
G37*
G36*
X249500D02*
X249408D01*
X248263Y124193D01*
X247237Y123601D01*
X246399Y122763D01*
X245807Y121737D01*
X245500Y120592D01*
Y120500D01*
X249500D01*
Y124500D01*
D02*
G37*
G36*
X254500Y119500D02*
X250500D01*
Y115500D01*
X250592D01*
X251737Y115807D01*
X252763Y116399D01*
X253601Y117237D01*
X254193Y118263D01*
X254500Y119408D01*
Y119500D01*
D02*
G37*
G36*
X249500D02*
X245500D01*
Y119408D01*
X245807Y118263D01*
X246399Y117237D01*
X247237Y116399D01*
X248263Y115807D01*
X249408Y115500D01*
X249500D01*
Y119500D01*
D02*
G37*
G36*
X112890Y122037D02*
X111110D01*
X109364Y121690D01*
X107719Y121009D01*
X106239Y120020D01*
X104980Y118761D01*
X103991Y117281D01*
X103310Y115636D01*
X102963Y113890D01*
Y112110D01*
X103310Y110364D01*
X103991Y108719D01*
X104980Y107239D01*
X106239Y105980D01*
X107719Y104991D01*
X109364Y104310D01*
X111110Y103963D01*
X112890D01*
X114636Y104310D01*
X116281Y104991D01*
X117761Y105980D01*
X119020Y107239D01*
X120009Y108719D01*
X120690Y110364D01*
X121037Y112110D01*
Y113890D01*
X120690Y115636D01*
X120009Y117281D01*
X119020Y118761D01*
X117761Y120020D01*
X116281Y121009D01*
X114636Y121690D01*
X112890Y122037D01*
D02*
G37*
G36*
X457890Y121037D02*
X456110D01*
X454364Y120690D01*
X452719Y120009D01*
X451239Y119020D01*
X449980Y117761D01*
X448991Y116281D01*
X448310Y114636D01*
X447963Y112890D01*
Y111110D01*
X448310Y109364D01*
X448991Y107719D01*
X449980Y106239D01*
X451239Y104980D01*
X452719Y103991D01*
X454364Y103310D01*
X456110Y102963D01*
X457890D01*
X459636Y103310D01*
X461281Y103991D01*
X462761Y104980D01*
X464020Y106239D01*
X465009Y107719D01*
X465690Y109364D01*
X466037Y111110D01*
Y112890D01*
X465690Y114636D01*
X465009Y116281D01*
X464020Y117761D01*
X462761Y119020D01*
X461281Y120009D01*
X459636Y120690D01*
X457890Y121037D01*
D02*
G37*
%LPD*%
G36*
X275000Y210000D02*
X222000D01*
Y213000D01*
X244000D01*
Y249000D01*
X181000D01*
Y221000D01*
X155449D01*
X155245Y221327D01*
X155090Y222000D01*
X155663Y222573D01*
X156183Y223474D01*
X156453Y224480D01*
Y224500D01*
X152500D01*
X148547D01*
Y224480D01*
X148817Y223474D01*
X149337Y222573D01*
X149910Y222000D01*
X149755Y221327D01*
X149551Y221000D01*
X144000D01*
Y258000D01*
X194075D01*
X194355Y257608D01*
X194563Y257000D01*
X194198Y256368D01*
X193957Y255467D01*
Y254534D01*
X194198Y253632D01*
X194665Y252824D01*
X195324Y252165D01*
X196132Y251698D01*
X197034Y251457D01*
X197967D01*
X198868Y251698D01*
X199676Y252165D01*
X200335Y252824D01*
X200802Y253632D01*
X201043Y254534D01*
Y255467D01*
X200802Y256368D01*
X200437Y257000D01*
X200644Y257608D01*
X200925Y258000D01*
X224075D01*
X224356Y257608D01*
X224563Y257000D01*
X224198Y256368D01*
X223957Y255467D01*
Y254534D01*
X224198Y253632D01*
X224665Y252824D01*
X225324Y252165D01*
X226132Y251698D01*
X227033Y251457D01*
X227966D01*
X228868Y251698D01*
X229676Y252165D01*
X230335Y252824D01*
X230802Y253632D01*
X231043Y254534D01*
Y255467D01*
X230802Y256368D01*
X230437Y257000D01*
X230644Y257608D01*
X230925Y258000D01*
X275000D01*
Y210000D01*
D02*
G37*
G36*
X365305Y218032D02*
X367175D01*
Y216063D01*
X363927D01*
X363927Y219902D01*
X365305D01*
Y218032D01*
D02*
G37*
G36*
X363140Y216211D02*
X362992Y216063D01*
X362106D01*
X361959Y216211D01*
Y219902D01*
X363140D01*
Y216211D01*
D02*
G37*
G36*
X361171D02*
X361024Y216063D01*
X360138D01*
X359990Y216211D01*
Y219902D01*
X361171D01*
Y216211D01*
D02*
G37*
G36*
X355266D02*
X355118Y216063D01*
X354232D01*
X354085Y216211D01*
Y219902D01*
X355266D01*
Y216211D01*
D02*
G37*
G36*
X353297D02*
X353150Y216063D01*
X352264D01*
X352116Y216211D01*
Y219902D01*
X353297D01*
Y216211D01*
D02*
G37*
G36*
X463000Y208500D02*
X462005D01*
X461238Y209500D01*
X461240Y209508D01*
Y210492D01*
X460985Y211444D01*
X460493Y212297D01*
X459796Y212993D01*
X458944Y213485D01*
X457992Y213740D01*
X457008D01*
X456056Y213485D01*
X455203Y212993D01*
X454507Y212297D01*
X454015Y211444D01*
X453760Y210492D01*
Y209508D01*
X453762Y209500D01*
X452995Y208500D01*
X426111D01*
X425843Y209500D01*
X426427Y209837D01*
X427163Y210573D01*
X427683Y211474D01*
X427953Y212480D01*
Y212500D01*
X424000D01*
X420047D01*
Y212480D01*
X420317Y211474D01*
X420837Y210573D01*
X421573Y209837D01*
X422157Y209500D01*
X421889Y208500D01*
X367783D01*
X367743Y208560D01*
X367482Y208734D01*
X367175Y208795D01*
X366506D01*
Y208968D01*
X365256D01*
Y208976D01*
X361073D01*
X360974Y209075D01*
Y209862D01*
X361073Y209961D01*
X365256D01*
Y209968D01*
X366506D01*
Y210718D01*
X366506D01*
Y211368D01*
X366506D01*
Y212126D01*
X361073D01*
X360974Y212224D01*
Y213012D01*
X361073Y213110D01*
X367175D01*
Y213000D01*
X370500D01*
Y213274D01*
X373587D01*
X374089Y213374D01*
X374515Y213658D01*
X375780Y214924D01*
X376567Y214713D01*
X377433D01*
X378269Y214937D01*
X379018Y215369D01*
X379631Y215982D01*
X380063Y216731D01*
X380287Y217567D01*
Y218433D01*
X380063Y219269D01*
X379631Y220019D01*
X379018Y220631D01*
X378269Y221063D01*
X377433Y221287D01*
X376567D01*
X375731Y221063D01*
X374981Y220631D01*
X374369Y220019D01*
X373937Y219269D01*
X373713Y218433D01*
Y217567D01*
X373924Y216780D01*
X373043Y215899D01*
X370500D01*
Y234500D01*
X463000D01*
Y208500D01*
D02*
G37*
G36*
X367175Y213898D02*
X363903D01*
X363730Y214070D01*
Y215103D01*
X363903Y215276D01*
X367175D01*
Y213898D01*
D02*
G37*
G36*
X351526Y215103D02*
Y214070D01*
X351353Y213898D01*
X348081D01*
Y215276D01*
X351353D01*
X351526Y215103D01*
D02*
G37*
G36*
X354281Y213012D02*
Y212224D01*
X354183Y212126D01*
X348081D01*
Y213110D01*
X354183D01*
X354281Y213012D01*
D02*
G37*
G36*
Y209862D02*
Y209075D01*
X354183Y208976D01*
X348081D01*
Y209961D01*
X354183D01*
X354281Y209862D01*
D02*
G37*
G36*
X367175Y207008D02*
X363829D01*
X363730Y207106D01*
Y207894D01*
X363829Y207992D01*
X367175D01*
Y207008D01*
D02*
G37*
G36*
X351526Y207894D02*
Y207106D01*
X351427Y207008D01*
X348081D01*
Y207992D01*
X351427D01*
X351526Y207894D01*
D02*
G37*
G36*
X333000Y208000D02*
Y194000D01*
X327756D01*
Y196453D01*
X324000D01*
X320244D01*
Y194000D01*
X313756D01*
Y196453D01*
X310000D01*
X306244D01*
Y194000D01*
X283504D01*
X283090Y195000D01*
X283163Y195073D01*
X283683Y195974D01*
X283953Y196980D01*
Y197000D01*
X280000D01*
X276047D01*
Y196980D01*
X276317Y195974D01*
X276837Y195073D01*
X276910Y195000D01*
X276496Y194000D01*
X222000D01*
Y209000D01*
X295000D01*
Y215000D01*
X333000D01*
Y208000D01*
D02*
G37*
G36*
X209878Y211683D02*
X210243Y211000D01*
X210195Y210756D01*
X213268D01*
Y209756D01*
X210141D01*
X210000Y209000D01*
X210000D01*
Y188000D01*
X192000D01*
Y212000D01*
X209618D01*
X209878Y211683D01*
D02*
G37*
G36*
X357037Y211191D02*
Y201476D01*
X357416D01*
Y200807D01*
X357477Y200500D01*
X357500Y200465D01*
Y164500D01*
X335000D01*
Y183269D01*
X335244Y183440D01*
X336244Y182920D01*
Y181595D01*
X343756D01*
Y184260D01*
X344656Y184500D01*
X349000D01*
Y194500D01*
X355000D01*
Y200465D01*
X355023Y200500D01*
X355084Y200807D01*
X355197Y201476D01*
X355856D01*
Y211191D01*
X356004Y211339D01*
X356890D01*
X357037Y211191D01*
D02*
G37*
G36*
X359400D02*
Y201476D01*
X360059D01*
X360172Y200807D01*
X360233Y200500D01*
X360407Y200239D01*
X360500Y200177D01*
Y194500D01*
X366500D01*
Y184500D01*
X375244D01*
Y182595D01*
X379000D01*
Y182095D01*
X379500D01*
Y178929D01*
X382500D01*
Y164500D01*
X358303D01*
Y200465D01*
X358301Y200476D01*
X358304Y200586D01*
X358372Y200768D01*
X358395Y200807D01*
X358219D01*
Y211191D01*
X358366Y211339D01*
X359252D01*
X359400Y211191D01*
D02*
G37*
%LPC*%
G36*
X267967Y241043D02*
X267034D01*
X266132Y240802D01*
X265324Y240335D01*
X264665Y239676D01*
X264198Y238868D01*
X263957Y237966D01*
Y237034D01*
X264198Y236132D01*
X264665Y235324D01*
X265324Y234665D01*
X266132Y234198D01*
X267034Y233957D01*
X267967D01*
X268868Y234198D01*
X269676Y234665D01*
X270335Y235324D01*
X270802Y236132D01*
X271043Y237034D01*
Y237966D01*
X270802Y238868D01*
X270335Y239676D01*
X269676Y240335D01*
X268868Y240802D01*
X267967Y241043D01*
D02*
G37*
G36*
X268000Y231254D02*
Y228000D01*
X271254D01*
X271000Y228950D01*
X270505Y229806D01*
X269806Y230505D01*
X268950Y231000D01*
X268000Y231254D01*
D02*
G37*
G36*
X267000D02*
X266050Y231000D01*
X265194Y230505D01*
X264494Y229806D01*
X264000Y228950D01*
X263746Y228000D01*
X267000D01*
Y231254D01*
D02*
G37*
G36*
X153020Y228953D02*
X153000D01*
Y225500D01*
X156453D01*
Y225520D01*
X156183Y226526D01*
X155663Y227427D01*
X154927Y228163D01*
X154026Y228683D01*
X153020Y228953D01*
D02*
G37*
G36*
X152000D02*
X151980D01*
X150974Y228683D01*
X150073Y228163D01*
X149337Y227427D01*
X148817Y226526D01*
X148547Y225520D01*
Y225500D01*
X152000D01*
Y228953D01*
D02*
G37*
G36*
X271254Y227000D02*
X268000D01*
Y223746D01*
X268950Y224000D01*
X269806Y224495D01*
X270505Y225194D01*
X271000Y226050D01*
X271254Y227000D01*
D02*
G37*
G36*
X267000D02*
X263746D01*
X264000Y226050D01*
X264494Y225194D01*
X265194Y224495D01*
X266050Y224000D01*
X267000Y223746D01*
Y227000D01*
D02*
G37*
G36*
X461453Y223953D02*
X458000D01*
Y220500D01*
X461453D01*
Y223953D01*
D02*
G37*
G36*
X457000D02*
X453547D01*
Y220500D01*
X457000D01*
Y223953D01*
D02*
G37*
G36*
X461453Y219500D02*
X458000D01*
Y216047D01*
X461453D01*
Y219500D01*
D02*
G37*
G36*
X457000D02*
X453547D01*
Y216047D01*
X457000D01*
Y219500D01*
D02*
G37*
G36*
X424520Y216953D02*
X424500D01*
Y213500D01*
X427953D01*
Y213520D01*
X427683Y214526D01*
X427163Y215427D01*
X426427Y216163D01*
X425526Y216683D01*
X424520Y216953D01*
D02*
G37*
G36*
X398500Y216347D02*
Y213500D01*
X401347D01*
X401133Y214298D01*
X400690Y215064D01*
X400064Y215690D01*
X399298Y216133D01*
X398500Y216347D01*
D02*
G37*
G36*
X397500D02*
X396702Y216133D01*
X395936Y215690D01*
X395310Y215064D01*
X394867Y214298D01*
X394653Y213500D01*
X397500D01*
Y216347D01*
D02*
G37*
G36*
X423500Y216953D02*
X423480D01*
X422474Y216683D01*
X421573Y216163D01*
X420837Y215427D01*
X420317Y214526D01*
X420047Y213520D01*
Y213500D01*
X423500D01*
Y216953D01*
D02*
G37*
G36*
X401347Y212500D02*
X398500D01*
Y209653D01*
X399298Y209867D01*
X400064Y210310D01*
X400690Y210936D01*
X401133Y211702D01*
X401347Y212500D01*
D02*
G37*
G36*
X397500D02*
X394653D01*
X394867Y211702D01*
X395310Y210936D01*
X395936Y210310D01*
X396702Y209867D01*
X397500Y209653D01*
Y212500D01*
D02*
G37*
G36*
X325500Y213989D02*
Y211000D01*
X328489D01*
X328261Y211851D01*
X327801Y212649D01*
X327149Y213301D01*
X326351Y213761D01*
X325500Y213989D01*
D02*
G37*
G36*
X324500D02*
X323649Y213761D01*
X322851Y213301D01*
X322199Y212649D01*
X321739Y211851D01*
X321511Y211000D01*
X324500D01*
Y213989D01*
D02*
G37*
G36*
X328489Y210000D02*
X325500D01*
Y207011D01*
X326351Y207239D01*
X327149Y207699D01*
X327801Y208351D01*
X328175Y209000D01*
D01*
D01*
X328261Y209149D01*
X328489Y210000D01*
D02*
G37*
G36*
X324500D02*
X321511D01*
X321739Y209149D01*
X321825Y209000D01*
Y209000D01*
D01*
X322199Y208351D01*
X322851Y207699D01*
X323649Y207239D01*
X324500Y207011D01*
Y210000D01*
D02*
G37*
G36*
X280520Y201453D02*
X280500D01*
Y198000D01*
X283953D01*
Y198020D01*
X283683Y199026D01*
X283163Y199927D01*
X282427Y200663D01*
X281526Y201183D01*
X280520Y201453D01*
D02*
G37*
G36*
X279500D02*
X279480D01*
X278474Y201183D01*
X277573Y200663D01*
X276837Y199927D01*
X276317Y199026D01*
X276047Y198020D01*
Y198000D01*
X279500D01*
Y201453D01*
D02*
G37*
G36*
X327756Y200118D02*
X324500D01*
Y197453D01*
X327756D01*
Y200118D01*
D02*
G37*
G36*
X313756D02*
X310500D01*
Y197453D01*
X313756D01*
Y200118D01*
D02*
G37*
G36*
X323500D02*
X320244D01*
Y197453D01*
X323500D01*
Y200118D01*
D02*
G37*
G36*
X309500D02*
X306244D01*
Y197453D01*
X309500D01*
Y200118D01*
D02*
G37*
G36*
X198000Y201254D02*
Y198000D01*
X201254D01*
X201000Y198950D01*
X200505Y199806D01*
X199806Y200505D01*
X198950Y201000D01*
X198000Y201254D01*
D02*
G37*
G36*
X197000D02*
X196050Y201000D01*
X195194Y200505D01*
X194494Y199806D01*
X194000Y198950D01*
X193746Y198000D01*
X197000D01*
Y201254D01*
D02*
G37*
G36*
X201254Y197000D02*
X198000D01*
Y193746D01*
X198950Y194000D01*
X199806Y194494D01*
X200505Y195194D01*
X201000Y196050D01*
X201254Y197000D01*
D02*
G37*
G36*
X197000D02*
X193746D01*
X194000Y196050D01*
X194494Y195194D01*
X195194Y194494D01*
X196050Y194000D01*
X197000Y193746D01*
Y197000D01*
D02*
G37*
G36*
X343756Y180595D02*
X340500D01*
Y177929D01*
X343756D01*
Y180595D01*
D02*
G37*
G36*
X339500D02*
X336244D01*
Y177929D01*
X339500D01*
Y180595D01*
D02*
G37*
G36*
X352787Y175597D02*
X352500D01*
Y173500D01*
X355319D01*
X355296Y173672D01*
X355036Y174299D01*
X354624Y174836D01*
X354086Y175249D01*
X353460Y175508D01*
X352787Y175597D01*
D02*
G37*
G36*
X351500D02*
X351213D01*
X350540Y175508D01*
X349914Y175249D01*
X349376Y174836D01*
X348963Y174299D01*
X348704Y173672D01*
X348681Y173500D01*
X351500D01*
Y175597D01*
D02*
G37*
G36*
X355319Y172500D02*
X352500D01*
Y170403D01*
X352787D01*
X353460Y170492D01*
X354086Y170751D01*
X354624Y171164D01*
X355036Y171702D01*
X355296Y172328D01*
X355319Y172500D01*
D02*
G37*
G36*
X351500D02*
X348681D01*
X348704Y172328D01*
X348963Y171702D01*
X349376Y171164D01*
X349914Y170751D01*
X350540Y170492D01*
X351213Y170403D01*
X351500D01*
Y172500D01*
D02*
G37*
G36*
X378500Y181595D02*
X375244D01*
Y178929D01*
X378500D01*
Y181595D01*
D02*
G37*
G36*
X367787Y175597D02*
X367500D01*
Y173500D01*
X370319D01*
X370296Y173672D01*
X370037Y174299D01*
X369624Y174836D01*
X369086Y175249D01*
X368460Y175508D01*
X367787Y175597D01*
D02*
G37*
G36*
X366500D02*
X366213D01*
X365540Y175508D01*
X364914Y175249D01*
X364376Y174836D01*
X363964Y174299D01*
X363704Y173672D01*
X363681Y173500D01*
X366500D01*
Y175597D01*
D02*
G37*
G36*
X370319Y172500D02*
X367500D01*
Y170403D01*
X367787D01*
X368460Y170492D01*
X369086Y170751D01*
X369624Y171164D01*
X370037Y171702D01*
X370296Y172328D01*
X370319Y172500D01*
D02*
G37*
G36*
X366500D02*
X363681D01*
X363704Y172328D01*
X363964Y171702D01*
X364376Y171164D01*
X364914Y170751D01*
X365540Y170492D01*
X366213Y170403D01*
X366500D01*
Y172500D01*
D02*
G37*
%LPD*%
D13*
X156750Y463250D02*
X157000Y463500D01*
X110000Y463000D02*
X110250Y463250D01*
X110000Y383000D02*
X122500D01*
X110000Y453000D02*
X122500D01*
X110000Y443000D02*
X122500D01*
X192500Y202500D02*
X197500Y197500D01*
X192500Y202500D02*
Y228218D01*
X197500Y233218D01*
Y245000D01*
X367000Y225308D02*
Y226000D01*
X364518Y222825D02*
X367000Y225308D01*
X364518Y217982D02*
Y222825D01*
X362549Y217982D02*
Y235049D01*
X211500Y367500D02*
X227500Y383500D01*
Y492500D01*
X385000Y147500D02*
X457500Y220000D01*
X255000Y147500D02*
X385000D01*
X242500Y160000D02*
X255000Y147500D01*
X327500Y269538D02*
Y270000D01*
Y269538D02*
X330000Y267038D01*
Y247500D02*
Y267038D01*
X372500Y245000D02*
X394000D01*
X362549Y235049D02*
X372500Y245000D01*
X424000D02*
X432500D01*
X457500Y220000D01*
X345453Y226909D02*
Y227500D01*
Y226909D02*
X347118Y225244D01*
X347807D01*
X352707Y220344D01*
Y217982D02*
Y220344D01*
X360000Y247500D02*
X360581Y246919D01*
Y217982D02*
Y246919D01*
X394000Y245000D02*
Y254000D01*
X379000Y188000D02*
Y192918D01*
X377000Y194918D02*
X379000Y192918D01*
X377000Y194918D02*
Y196000D01*
X379000Y188000D02*
X379000Y188000D01*
X340591Y181095D02*
X342256Y179429D01*
Y179147D02*
X347992Y173411D01*
X342256Y179147D02*
Y179429D01*
X347992Y173411D02*
X351589D01*
X340000Y181095D02*
X340591D01*
X377744Y179791D02*
Y180382D01*
X379377Y182015D01*
X367000Y173000D02*
X370953D01*
X377744Y179791D01*
X379377Y182015D02*
X379968D01*
X373587Y214587D02*
X377000Y218000D01*
X365256Y214587D02*
X373587D01*
X351589Y173411D02*
X352000Y173000D01*
X340000Y187000D02*
X340591D01*
X342256Y188665D01*
Y195256D01*
X343000Y196000D01*
X341000Y217000D02*
X343413Y214587D01*
X347736Y209469D02*
X350000D01*
X342268Y204000D02*
X347736Y209469D01*
X329599Y204000D02*
X342268D01*
X343413Y214587D02*
X350000D01*
X331000Y212610D02*
X349022D01*
X224500Y207500D02*
X225000Y207000D01*
X218583Y207500D02*
X224500D01*
X214350D02*
X217500D01*
X228000Y217000D02*
X229000Y218000D01*
X222000Y211500D02*
X222500Y212000D01*
X221106Y211500D02*
X222000D01*
X220150Y210543D02*
X221106Y211500D01*
X222500Y212000D02*
X225000D01*
X218870Y210543D02*
X220150D01*
X221898Y217000D02*
X228000D01*
X218878Y213980D02*
X221898Y217000D01*
X218878Y213405D02*
Y213980D01*
X218583Y210256D02*
X218870Y210543D01*
X219500Y188000D02*
Y190638D01*
X216910Y193228D02*
X219500Y190638D01*
X216910Y193228D02*
Y204350D01*
X213268Y207500D02*
X214350D01*
X197500Y227500D02*
X198363Y226637D01*
X200316D01*
X212972Y213980D01*
Y213405D02*
Y213980D01*
Y185472D02*
Y204350D01*
X192500Y165000D02*
X212972Y185472D01*
X214941Y182559D02*
X222500Y175000D01*
X214941Y182559D02*
Y204350D01*
X242500Y190000D02*
X252500D01*
X229692Y227500D02*
X237500D01*
X217016Y214823D02*
X229692Y227500D01*
X217016Y213512D02*
Y214823D01*
X216910Y213405D02*
X217016Y213512D01*
X214941Y232441D02*
X227500Y245000D01*
X214941Y213405D02*
Y232441D01*
X222500Y165000D02*
X250000Y137500D01*
Y130000D02*
Y137500D01*
X110000Y337500D02*
X167500D01*
X197500Y367500D01*
X211500D01*
X188000Y370500D02*
Y376000D01*
X204000Y392000D01*
X187500Y370000D02*
X188000Y370500D01*
X207500Y483500D02*
Y492500D01*
X152000Y428000D02*
X207500Y483500D01*
X152000Y403000D02*
Y428000D01*
Y403000D02*
X172500Y382500D01*
X146000Y398000D02*
X161500Y382500D01*
X146000Y398000D02*
Y433000D01*
X197500Y484500D01*
X147500Y357500D02*
X172500Y382500D01*
X197500Y484500D02*
Y492500D01*
X110000Y357500D02*
X147500D01*
X154038Y375038D02*
X161500Y382500D01*
X117538Y375038D02*
X154038D01*
X110000Y367500D02*
X117538Y375038D01*
X110000Y403000D02*
X122500D01*
X110000Y393000D02*
X122500D01*
X110000Y413000D02*
X122500D01*
X110000Y423000D02*
X122500D01*
X110000Y433000D02*
X122500D01*
D15*
X324000Y191047D02*
D03*
X310000D02*
D03*
Y196953D02*
D03*
X379000Y188000D02*
D03*
Y182095D02*
D03*
X340000Y181095D02*
D03*
Y187000D02*
D03*
X324000Y196953D02*
D03*
D16*
X225500Y186500D02*
D03*
X339547Y227500D02*
D03*
X345453D02*
D03*
X219595Y186500D02*
D03*
D17*
X218878Y204350D02*
D03*
Y213405D02*
D03*
X216910D02*
D03*
X214941D02*
D03*
X212972D02*
D03*
Y204350D02*
D03*
X214941D02*
D03*
X216910D02*
D03*
D18*
X214350Y210256D02*
D03*
X217500D02*
D03*
X214350Y207500D02*
D03*
X217500D02*
D03*
D19*
X218583D02*
D03*
Y210256D02*
D03*
X213268D02*
D03*
Y207500D02*
D03*
D20*
X367000Y173000D02*
D03*
X352000D02*
D03*
D34*
X350000Y204350D02*
D03*
Y205532D02*
D03*
X365256Y204350D02*
D03*
Y205532D02*
D03*
Y214587D02*
D03*
Y212618D02*
D03*
Y209469D02*
D03*
Y207500D02*
D03*
X350000D02*
D03*
Y209469D02*
D03*
Y212618D02*
D03*
Y214587D02*
D03*
D35*
X358612Y217982D02*
D03*
X356644D02*
D03*
X350738D02*
D03*
X352707D02*
D03*
X354675D02*
D03*
X360581D02*
D03*
X362549D02*
D03*
X364518D02*
D03*
X358809Y202726D02*
D03*
X356447D02*
D03*
D36*
X247500Y492500D02*
X275000D01*
X280000Y487500D01*
X285500D01*
X298500Y500500D01*
X356000D01*
X372500Y484000D01*
Y471500D02*
Y484000D01*
X389500Y474000D02*
X394500D01*
X405000Y433500D02*
Y463500D01*
X395500Y424000D02*
X405000Y433500D01*
X394500Y474000D02*
X405000Y463500D01*
X389500Y424000D02*
X395500D01*
X387000Y471500D02*
X389500Y474000D01*
X372500Y471500D02*
X387000D01*
D37*
X172500Y412500D02*
X172789Y412211D01*
X161500Y412500D02*
X172500D01*
X110250Y463250D02*
X156750D01*
X202000Y400000D02*
X204000Y402000D01*
X187696Y400000D02*
X202000D01*
X175289Y412211D02*
X187361Y400139D01*
X172789Y412211D02*
X175289D01*
X306500Y319500D02*
Y338524D01*
X342500Y367500D02*
X360000Y350000D01*
X342211Y367789D02*
X342500Y367500D01*
X359487Y322500D02*
X372500D01*
X378500Y316500D01*
X313500Y312500D02*
X334000D01*
X306500Y319500D02*
X313500Y312500D01*
X334000Y322500D02*
X338500Y318000D01*
X351498D01*
X362998Y306500D01*
X297000Y310000D02*
X306500Y319500D01*
X282500Y310000D02*
X297000D01*
Y300000D02*
X306500Y309500D01*
X282500Y300000D02*
X297000D01*
X186500Y324500D02*
X204000Y342000D01*
X136000Y324500D02*
X186500D01*
X135657Y324843D02*
X136000Y324500D01*
X132343Y324843D02*
X135657D01*
X112500Y305000D02*
X132343Y324843D01*
X112500Y227500D02*
Y305000D01*
X215000Y282500D02*
Y295000D01*
X408500Y306500D02*
Y316500D01*
X397500Y345000D02*
X420000D01*
X450000Y315000D01*
X429484D02*
X430000D01*
X427984Y316500D02*
X429484Y315000D01*
X408500Y316500D02*
X427984D01*
X336500Y382500D02*
X346500Y392500D01*
X350000D01*
X336500Y370569D02*
Y382500D01*
X317500Y392500D02*
X346500D01*
X336500Y370569D02*
X339280Y367789D01*
X342211D01*
X327500Y455000D02*
X337500Y465000D01*
Y477500D01*
X337361Y477639D02*
X337500Y477500D01*
X337361Y477639D02*
Y482639D01*
X327500Y492500D02*
X337361Y482639D01*
X327500Y402500D02*
Y455000D01*
X317500Y392500D02*
X327500Y402500D01*
X307000Y366476D02*
X325000D01*
X342091Y337500D02*
X342500D01*
X341067Y338524D02*
X342091Y337500D01*
X325000Y338524D02*
X341067D01*
X360000Y342500D02*
Y350000D01*
X347909Y332500D02*
X360000D01*
X342909Y337500D02*
X347909Y332500D01*
X342500Y337500D02*
X342909D01*
X252500Y290000D02*
X271000Y271500D01*
X300500D01*
X312000Y283000D01*
X385000D01*
X408500Y306500D01*
X362998D02*
X378500D01*
X282500Y290000D02*
Y300000D01*
X240000Y290000D02*
Y290516D01*
X241000Y291516D01*
Y298500D02*
X252500Y310000D01*
X241000Y291516D02*
Y298500D01*
X252500Y300000D02*
Y310000D01*
X252211Y280289D02*
X252500Y280000D01*
X249711Y280289D02*
X252211D01*
X240000Y290000D02*
X249711Y280289D01*
X229484Y290000D02*
X230000D01*
X224484Y295000D02*
X229484Y290000D01*
X215000Y295000D02*
X224484D01*
X171500Y308500D02*
X185000Y295000D01*
X147400Y308500D02*
X171500D01*
X134100Y295200D02*
X147400Y308500D01*
X145000Y232500D02*
X152500Y225000D01*
X127500Y232500D02*
X145000D01*
X127304D02*
X127500D01*
X122304Y227500D02*
X127304Y232500D01*
X112500Y227500D02*
X122304D01*
X152500Y160000D02*
X152865Y160365D01*
X160365D01*
X197500Y197500D01*
X130000Y160000D02*
X152500D01*
X112500D02*
X130000D01*
D38*
X352200Y173000D02*
D03*
X366800D02*
D03*
D39*
X124500Y287500D02*
D03*
X147500D02*
D03*
X134100Y295200D02*
D03*
X155900D02*
D03*
D40*
X170500Y287500D02*
D03*
D41*
X459500Y464000D02*
D03*
Y454000D02*
D03*
Y444000D02*
D03*
Y434000D02*
D03*
X389500Y464000D02*
D03*
Y454000D02*
D03*
Y444000D02*
D03*
Y434000D02*
D03*
Y424000D02*
D03*
X204000Y382000D02*
D03*
X187500Y492500D02*
D03*
X317500Y382500D02*
D03*
X350000D02*
D03*
X317500Y455000D02*
D03*
X280000Y187500D02*
D03*
X424000Y203000D02*
D03*
X152500Y215000D02*
D03*
Y150000D02*
D03*
X204000Y332000D02*
D03*
X387500Y345000D02*
D03*
X237500Y492500D02*
D03*
X112500Y217500D02*
D03*
Y150000D02*
D03*
X457500Y210000D02*
D03*
X317500Y492500D02*
D03*
X110000Y463000D02*
D03*
X177500Y492500D02*
D03*
X204000Y372000D02*
D03*
X110000Y367500D02*
D03*
Y357500D02*
D03*
Y347500D02*
D03*
X122500Y393000D02*
D03*
Y403000D02*
D03*
Y413000D02*
D03*
Y423000D02*
D03*
Y433000D02*
D03*
Y443000D02*
D03*
Y453000D02*
D03*
X227500Y492500D02*
D03*
X217500D02*
D03*
X207500D02*
D03*
X197500D02*
D03*
X110000Y403000D02*
D03*
Y413000D02*
D03*
Y423000D02*
D03*
Y433000D02*
D03*
Y443000D02*
D03*
Y453000D02*
D03*
Y393000D02*
D03*
X204000Y392000D02*
D03*
Y362000D02*
D03*
Y352000D02*
D03*
Y342000D02*
D03*
X306483Y338521D02*
D03*
X325000Y366476D02*
D03*
X152500Y160000D02*
D03*
Y225000D02*
D03*
X424000Y213000D02*
D03*
X280000Y197500D02*
D03*
X327500Y455000D02*
D03*
X230000Y290000D02*
D03*
X240000D02*
D03*
X430000Y315000D02*
D03*
X450000D02*
D03*
X350000Y392500D02*
D03*
X317500D02*
D03*
D42*
X389500Y474000D02*
D03*
X204000Y402000D02*
D03*
X457500Y220000D02*
D03*
X110000Y337500D02*
D03*
X122500Y383000D02*
D03*
X112500Y160000D02*
D03*
Y227500D02*
D03*
X110000Y383000D02*
D03*
X306483Y366474D02*
D03*
X325000Y338524D02*
D03*
D43*
X372500Y441500D02*
D03*
X280000Y457500D02*
D03*
X307500Y477500D02*
D03*
X377500Y270000D02*
D03*
X357500D02*
D03*
X127500Y202500D02*
D03*
X130000Y130000D02*
D03*
X398000Y183000D02*
D03*
X280000Y487500D02*
D03*
X372500Y471500D02*
D03*
X187500Y400000D02*
D03*
X398000Y213000D02*
D03*
X130000Y160000D02*
D03*
X127500Y232500D02*
D03*
X327500Y270000D02*
D03*
X377500Y240000D02*
D03*
X187500Y370000D02*
D03*
X337500Y477500D02*
D03*
D44*
X250000Y120000D02*
D03*
Y130000D02*
D03*
D45*
X334000Y302500D02*
D03*
X306500Y299500D02*
D03*
Y319500D02*
D03*
Y309500D02*
D03*
X334000Y322500D02*
D03*
Y312500D02*
D03*
X360000Y322500D02*
D03*
Y342500D02*
D03*
Y332500D02*
D03*
D46*
X185000Y282500D02*
D03*
X282500Y280000D02*
D03*
X187500Y197500D02*
D03*
X197500Y255000D02*
D03*
X424000Y254000D02*
D03*
X267500Y237500D02*
D03*
X192500Y175000D02*
D03*
X252500Y160000D02*
D03*
X172500Y412500D02*
D03*
X161500D02*
D03*
X252500Y190000D02*
D03*
X222500Y175000D02*
D03*
X242500Y160000D02*
D03*
Y190000D02*
D03*
X237500Y237500D02*
D03*
X360000Y247500D02*
D03*
X330000D02*
D03*
X394000Y254000D02*
D03*
X192500Y165000D02*
D03*
X222500D02*
D03*
X267500Y227500D02*
D03*
X237500D02*
D03*
X227500Y255000D02*
D03*
X187500Y227500D02*
D03*
X424000Y245000D02*
D03*
X394000D02*
D03*
X197500D02*
D03*
X227500D02*
D03*
X197500Y197500D02*
D03*
Y227500D02*
D03*
X161500Y382500D02*
D03*
X172500D02*
D03*
X252500Y280000D02*
D03*
X282500Y290000D02*
D03*
X252500D02*
D03*
Y300000D02*
D03*
X282500D02*
D03*
X215000Y282500D02*
D03*
Y295000D02*
D03*
X185000D02*
D03*
X252500Y310000D02*
D03*
X282500D02*
D03*
X378500Y306500D02*
D03*
X408500D02*
D03*
X378500Y316500D02*
D03*
X408500D02*
D03*
X342500Y337500D02*
D03*
Y367500D02*
D03*
D47*
X247500Y492500D02*
D03*
X327500D02*
D03*
X397500Y345000D02*
D03*
D48*
X457000Y112000D02*
D03*
X112000Y113000D02*
D03*
X457500Y492500D02*
D03*
X112500Y490000D02*
D03*
D49*
X157000Y463500D02*
D03*
X325000Y210500D02*
D03*
X367000Y226000D02*
D03*
X377000Y196000D02*
D03*
Y218000D02*
D03*
X343000Y196000D02*
D03*
X341000Y217000D02*
D03*
X229000Y218000D02*
D03*
M02*
