G04*
G04 #@! TF.GenerationSoftware,Altium Limited,Altium Designer,26.2.0 (7)*
G04*
G04 Layer_Color=255*
%FSLAX25Y25*%
%MOIN*%
G70*
G04*
G04 #@! TF.SameCoordinates,792443EE-4A4A-475B-936D-B76CB5C204F7*
G04*
G04*
G04 #@! TF.FilePolarity,Positive*
G04*
G01*
G75*
%ADD15R,0.05512X0.04331*%
%ADD16R,0.04331X0.05512*%
G04:AMPARAMS|DCode=17|XSize=23.62mil|YSize=7.87mil|CornerRadius=1.97mil|HoleSize=0mil|Usage=FLASHONLY|Rotation=90.000|XOffset=0mil|YOffset=0mil|HoleType=Round|Shape=RoundedRectangle|*
%AMROUNDEDRECTD17*
21,1,0.02362,0.00394,0,0,90.0*
21,1,0.01968,0.00787,0,0,90.0*
1,1,0.00394,0.00197,0.00984*
1,1,0.00394,0.00197,-0.00984*
1,1,0.00394,-0.00197,-0.00984*
1,1,0.00394,-0.00197,0.00984*
%
%ADD17ROUNDEDRECTD17*%
%ADD18C,0.01181*%
G04:AMPARAMS|DCode=19|XSize=41.34mil|YSize=15.75mil|CornerRadius=3.94mil|HoleSize=0mil|Usage=FLASHONLY|Rotation=180.000|XOffset=0mil|YOffset=0mil|HoleType=Round|Shape=RoundedRectangle|*
%AMROUNDEDRECTD19*
21,1,0.04134,0.00787,0,0,180.0*
21,1,0.03347,0.01575,0,0,180.0*
1,1,0.00787,-0.01673,0.00394*
1,1,0.00787,0.01673,0.00394*
1,1,0.00787,0.01673,-0.00394*
1,1,0.00787,-0.01673,-0.00394*
%
%ADD19ROUNDEDRECTD19*%
%ADD20O,0.04724X0.03150*%
%ADD34R,0.00500X0.00500*%
%ADD35R,0.00500X0.00500*%
%ADD39C,0.10000*%
%ADD40C,0.10650*%
%ADD41C,0.05906*%
%ADD42R,0.05906X0.05906*%
%ADD43C,0.04724*%
%ADD44C,0.07000*%
%ADD45C,0.05110*%
%ADD46C,0.05512*%
%ADD47R,0.05906X0.05906*%
%ADD48C,0.16500*%
D15*
X324000Y191047D02*
D03*
X310000D02*
D03*
Y196953D02*
D03*
X379000Y188000D02*
D03*
Y182095D02*
D03*
X340000Y181095D02*
D03*
Y187000D02*
D03*
X324000Y196953D02*
D03*
D16*
X225500Y186500D02*
D03*
X339547Y227500D02*
D03*
X345453D02*
D03*
X219595Y186500D02*
D03*
D17*
X218878Y204350D02*
D03*
Y213405D02*
D03*
X216910D02*
D03*
X214941D02*
D03*
X212972D02*
D03*
Y204350D02*
D03*
X214941D02*
D03*
X216910D02*
D03*
D18*
X214350Y210256D02*
D03*
X217500D02*
D03*
X214350Y207500D02*
D03*
X217500D02*
D03*
D19*
X218583D02*
D03*
Y210256D02*
D03*
X213268D02*
D03*
Y207500D02*
D03*
D20*
X367000Y173000D02*
D03*
X352000D02*
D03*
D34*
X350000Y204350D02*
D03*
Y205532D02*
D03*
X365256Y204350D02*
D03*
Y205532D02*
D03*
Y214587D02*
D03*
Y212618D02*
D03*
Y209469D02*
D03*
Y207500D02*
D03*
X350000D02*
D03*
Y209469D02*
D03*
Y212618D02*
D03*
Y214587D02*
D03*
D35*
X358612Y217982D02*
D03*
X356644D02*
D03*
X350738D02*
D03*
X352707D02*
D03*
X354675D02*
D03*
X360581D02*
D03*
X362549D02*
D03*
X364518D02*
D03*
X358809Y202726D02*
D03*
X356447D02*
D03*
D39*
X124500Y287500D02*
D03*
X147500D02*
D03*
X134100Y295200D02*
D03*
X155900D02*
D03*
D40*
X170500Y287500D02*
D03*
D41*
X459500Y464000D02*
D03*
Y454000D02*
D03*
Y444000D02*
D03*
Y434000D02*
D03*
X389500Y464000D02*
D03*
Y454000D02*
D03*
Y444000D02*
D03*
Y434000D02*
D03*
Y424000D02*
D03*
X204000Y382000D02*
D03*
X187500Y492500D02*
D03*
X317500Y382500D02*
D03*
X350000D02*
D03*
X317500Y455000D02*
D03*
X280000Y187500D02*
D03*
X424000Y203000D02*
D03*
X152500Y215000D02*
D03*
Y150000D02*
D03*
X204000Y332000D02*
D03*
X387500Y345000D02*
D03*
X237500Y492500D02*
D03*
X112500Y217500D02*
D03*
Y150000D02*
D03*
X457500Y210000D02*
D03*
X317500Y492500D02*
D03*
X110000Y463000D02*
D03*
X177500Y492500D02*
D03*
X204000Y372000D02*
D03*
X110000Y367500D02*
D03*
Y357500D02*
D03*
Y347500D02*
D03*
X122500Y393000D02*
D03*
Y403000D02*
D03*
Y413000D02*
D03*
Y423000D02*
D03*
Y433000D02*
D03*
Y443000D02*
D03*
Y453000D02*
D03*
X227500Y492500D02*
D03*
X217500D02*
D03*
X207500D02*
D03*
X197500D02*
D03*
X110000Y403000D02*
D03*
Y413000D02*
D03*
Y423000D02*
D03*
Y433000D02*
D03*
Y443000D02*
D03*
Y453000D02*
D03*
Y393000D02*
D03*
X204000Y392000D02*
D03*
Y362000D02*
D03*
Y352000D02*
D03*
Y342000D02*
D03*
X306483Y338521D02*
D03*
X325000Y366476D02*
D03*
X152500Y160000D02*
D03*
Y225000D02*
D03*
X424000Y213000D02*
D03*
X280000Y197500D02*
D03*
X327500Y455000D02*
D03*
X230000Y290000D02*
D03*
X240000D02*
D03*
X430000Y315000D02*
D03*
X450000D02*
D03*
X350000Y392500D02*
D03*
X317500D02*
D03*
D42*
X389500Y474000D02*
D03*
X204000Y402000D02*
D03*
X457500Y220000D02*
D03*
X110000Y337500D02*
D03*
X122500Y383000D02*
D03*
X112500Y160000D02*
D03*
Y227500D02*
D03*
X110000Y383000D02*
D03*
X306483Y366474D02*
D03*
X325000Y338524D02*
D03*
D43*
X372500Y441500D02*
D03*
X280000Y457500D02*
D03*
X307500Y477500D02*
D03*
X377500Y270000D02*
D03*
X357500D02*
D03*
X127500Y202500D02*
D03*
X130000Y130000D02*
D03*
X398000Y183000D02*
D03*
X280000Y487500D02*
D03*
X372500Y471500D02*
D03*
X187500Y400000D02*
D03*
X398000Y213000D02*
D03*
X130000Y160000D02*
D03*
X127500Y232500D02*
D03*
X327500Y270000D02*
D03*
X377500Y240000D02*
D03*
X187500Y370000D02*
D03*
X337500Y477500D02*
D03*
D44*
X250000Y120000D02*
D03*
Y130000D02*
D03*
D45*
X334000Y302500D02*
D03*
X306500Y299500D02*
D03*
Y319500D02*
D03*
Y309500D02*
D03*
X334000Y322500D02*
D03*
Y312500D02*
D03*
X360000Y322500D02*
D03*
Y342500D02*
D03*
Y332500D02*
D03*
D46*
X185000Y282500D02*
D03*
X282500Y280000D02*
D03*
X187500Y197500D02*
D03*
X197500Y255000D02*
D03*
X424000Y254000D02*
D03*
X267500Y237500D02*
D03*
X192500Y175000D02*
D03*
X252500Y160000D02*
D03*
X172500Y412500D02*
D03*
X161500D02*
D03*
X252500Y190000D02*
D03*
X222500Y175000D02*
D03*
X242500Y160000D02*
D03*
Y190000D02*
D03*
X237500Y237500D02*
D03*
X360000Y247500D02*
D03*
X330000D02*
D03*
X394000Y254000D02*
D03*
X192500Y165000D02*
D03*
X222500D02*
D03*
X267500Y227500D02*
D03*
X237500D02*
D03*
X227500Y255000D02*
D03*
X187500Y227500D02*
D03*
X424000Y245000D02*
D03*
X394000D02*
D03*
X197500D02*
D03*
X227500D02*
D03*
X197500Y197500D02*
D03*
Y227500D02*
D03*
X161500Y382500D02*
D03*
X172500D02*
D03*
X252500Y280000D02*
D03*
X282500Y290000D02*
D03*
X252500D02*
D03*
Y300000D02*
D03*
X282500D02*
D03*
X215000Y282500D02*
D03*
Y295000D02*
D03*
X185000D02*
D03*
X252500Y310000D02*
D03*
X282500D02*
D03*
X378500Y306500D02*
D03*
X408500D02*
D03*
X378500Y316500D02*
D03*
X408500D02*
D03*
X342500Y337500D02*
D03*
Y367500D02*
D03*
D47*
X247500Y492500D02*
D03*
X327500D02*
D03*
X397500Y345000D02*
D03*
D48*
X457000Y112000D02*
D03*
X112000Y113000D02*
D03*
X457500Y492500D02*
D03*
X112500Y490000D02*
D03*
M02*
