G04*
G04 #@! TF.GenerationSoftware,Altium Limited,Altium Designer,26.2.0 (7)*
G04*
G04 Layer_Color=65535*
%FSLAX25Y25*%
%MOIN*%
G70*
G04*
G04 #@! TF.SameCoordinates,792443EE-4A4A-475B-936D-B76CB5C204F7*
G04*
G04*
G04 #@! TF.FilePolarity,Positive*
G04*
G01*
G75*
%ADD10C,0.00787*%
%ADD11C,0.00500*%
%ADD12C,0.00984*%
%ADD13C,0.01000*%
%ADD14R,0.07480X0.03150*%
D10*
X223406Y207303D02*
G03*
X223406Y207303I-394J0D01*
G01*
X306894Y325716D02*
G03*
X306894Y325716I-394J0D01*
G01*
X334394Y296284D02*
G03*
X334394Y296284I-394J0D01*
G01*
X360394Y348716D02*
G03*
X360394Y348716I-394J0D01*
G01*
X464500Y419000D02*
Y479000D01*
X384500D02*
X464500D01*
X384500Y419000D02*
X464500D01*
X384500D02*
Y479000D01*
X365000Y434000D02*
X380000D01*
X365000D02*
Y479000D01*
X380000D01*
Y434000D02*
Y479000D01*
X249500Y165000D02*
X252500D01*
X249500D02*
Y185000D01*
X255500D01*
Y165000D02*
Y185000D01*
X252500Y165000D02*
X255500D01*
X197500Y175000D02*
Y178000D01*
X217500D01*
Y172000D02*
Y178000D01*
X197500Y172000D02*
X217500D01*
X197500D02*
Y175000D01*
X242500Y185000D02*
X245500D01*
Y165000D02*
Y185000D01*
X239500Y165000D02*
X245500D01*
X239500D02*
Y185000D01*
X242500D01*
X262500Y234500D02*
Y237500D01*
X242500Y234500D02*
X262500D01*
X242500D02*
Y240500D01*
X262500D01*
Y237500D02*
Y240500D01*
X335000Y247500D02*
Y250500D01*
X355000D01*
Y244500D02*
Y250500D01*
X335000Y244500D02*
X355000D01*
X335000D02*
Y247500D01*
X419000Y251000D02*
Y254000D01*
X399000Y251000D02*
X419000D01*
X399000D02*
Y257000D01*
X419000D01*
Y254000D02*
Y257000D01*
X217500Y162000D02*
Y165000D01*
X197500Y162000D02*
X217500D01*
X197500D02*
Y168000D01*
X217500D01*
Y165000D02*
Y168000D01*
X242500Y227500D02*
Y230500D01*
X262500D01*
Y224500D02*
Y230500D01*
X242500Y224500D02*
X262500D01*
X242500D02*
Y227500D01*
X202500Y255000D02*
Y258000D01*
X222500D01*
Y252000D02*
Y258000D01*
X202500Y252000D02*
X222500D01*
X202500D02*
Y255000D01*
X184500Y202500D02*
X187500D01*
X184500D02*
Y222500D01*
X190500D01*
Y202500D02*
Y222500D01*
X187500Y202500D02*
X190500D01*
X399000Y245000D02*
Y248000D01*
X419000D01*
Y242000D02*
Y248000D01*
X399000Y242000D02*
X419000D01*
X399000D02*
Y245000D01*
X222500Y242000D02*
Y245000D01*
X202500Y242000D02*
X222500D01*
X202500D02*
Y248000D01*
X222500D01*
Y245000D02*
Y248000D01*
X197500Y222500D02*
X200500D01*
Y202500D02*
Y222500D01*
X194500Y202500D02*
X200500D01*
X194500D02*
Y222500D01*
X197500D01*
X158500Y387500D02*
X161500D01*
X158500D02*
Y407500D01*
X164500D01*
Y387500D02*
Y407500D01*
X161500Y387500D02*
X164500D01*
X169500D02*
X172500D01*
X169500D02*
Y407500D01*
X175500D01*
Y387500D02*
Y407500D01*
X172500Y387500D02*
X175500D01*
X257500Y280000D02*
Y283000D01*
X277500D01*
Y277000D02*
Y283000D01*
X257500Y277000D02*
X277500D01*
X257500D02*
Y280000D01*
Y290000D02*
Y293000D01*
X277500D01*
Y287000D02*
Y293000D01*
X257500Y287000D02*
X277500D01*
X257500D02*
Y290000D01*
X277500Y297000D02*
Y300000D01*
X257500Y297000D02*
X277500D01*
X257500D02*
Y303000D01*
X277500D01*
Y300000D02*
Y303000D01*
X210000Y279500D02*
Y282500D01*
X190000Y279500D02*
X210000D01*
X190000D02*
Y285500D01*
X210000D01*
Y282500D02*
Y285500D01*
X190000Y295000D02*
Y298000D01*
X210000D01*
Y292000D02*
Y298000D01*
X190000Y292000D02*
X210000D01*
X190000D02*
Y295000D01*
X277500Y307000D02*
Y310000D01*
X257500Y307000D02*
X277500D01*
X257500D02*
Y313000D01*
X277500D01*
Y310000D02*
Y313000D01*
X403500Y303500D02*
Y306500D01*
X383500Y303500D02*
X403500D01*
X383500D02*
Y309500D01*
X403500D01*
Y306500D02*
Y309500D01*
Y313500D02*
Y316500D01*
X383500Y313500D02*
X403500D01*
X383500D02*
Y319500D01*
X403500D01*
Y316500D02*
Y319500D01*
X342500Y362500D02*
X345500D01*
Y342500D02*
Y362500D01*
X339500Y342500D02*
X345500D01*
X339500D02*
Y362500D01*
X342500D01*
X312500Y487500D02*
Y497500D01*
X332500D01*
Y487500D02*
Y497500D01*
X312500Y487500D02*
X332500D01*
X452500Y205000D02*
X462500D01*
X452500D02*
Y225000D01*
X462500D01*
Y205000D02*
Y225000D01*
X105000Y332500D02*
X115000D01*
X105000D02*
Y372500D01*
X115000Y332500D02*
Y372500D01*
X105000D02*
X115000D01*
X117500Y458000D02*
X127500D01*
Y378000D02*
Y458000D01*
X117500Y378000D02*
X127500D01*
X117500D02*
Y458000D01*
X107500Y145000D02*
X117500D01*
X107500D02*
Y165000D01*
X117500D01*
Y145000D02*
Y165000D01*
X107500Y212500D02*
X117500D01*
X107500D02*
Y232500D01*
X117500D01*
Y212500D02*
Y232500D01*
X172500Y487500D02*
Y497500D01*
X252500D01*
Y487500D02*
Y497500D01*
X172500Y487500D02*
X252500D01*
X105000Y468000D02*
X115000D01*
Y378000D02*
Y468000D01*
X105000Y378000D02*
X115000D01*
X105000D02*
Y468000D01*
X381988Y350512D02*
X403012D01*
X381988Y339488D02*
X403012D01*
X381988D02*
Y350512D01*
X403012Y339488D02*
Y350512D01*
X289000Y327000D02*
Y407000D01*
X199000Y327000D02*
X289000D01*
X199000D02*
Y407000D01*
X289000D01*
X302743Y344821D02*
X310223D01*
X302743D02*
Y360175D01*
X310223Y344821D02*
Y360175D01*
X321260Y360177D02*
X328740D01*
Y344823D02*
Y360177D01*
X321260Y344823D02*
Y360177D01*
X390500Y220500D02*
X405500D01*
Y175500D02*
Y220500D01*
X390500Y175500D02*
X405500D01*
X390500D02*
Y220500D01*
X122500Y167500D02*
X137500D01*
Y122500D02*
Y167500D01*
X122500Y122500D02*
X137500D01*
X122500D02*
Y167500D01*
X120000Y240000D02*
X135000D01*
Y195000D02*
Y240000D01*
X120000Y195000D02*
X135000D01*
X120000D02*
Y240000D01*
X320000Y262500D02*
Y277500D01*
X365000D01*
Y262500D02*
Y277500D01*
X320000Y262500D02*
X365000D01*
X370000Y232500D02*
X385000D01*
X370000D02*
Y277500D01*
X385000D01*
Y232500D02*
Y277500D01*
X180000Y362500D02*
X195000D01*
X180000D02*
Y407500D01*
X195000D01*
Y362500D02*
Y407500D01*
X345000Y470000D02*
Y485000D01*
X300000Y470000D02*
X345000D01*
X300000D02*
Y485000D01*
X345000D01*
X272500Y495000D02*
X287500D01*
Y450000D02*
Y495000D01*
X272500Y450000D02*
X287500D01*
X272500D02*
Y495000D01*
D11*
X315555Y309500D02*
G03*
X311173Y317256I-9055J0D01*
G01*
X310973Y301623D02*
G03*
X315555Y309498I-4475J7874D01*
G01*
X324945Y312500D02*
G03*
X329327Y304744I9055J0D01*
G01*
X329527Y320377D02*
G03*
X324945Y312502I4475J-7874D01*
G01*
X369055Y332500D02*
G03*
X364673Y340256I-9055J0D01*
G01*
X364473Y324623D02*
G03*
X369055Y332498I-4475J7874D01*
G01*
X280500Y115500D02*
G03*
X280500Y134500I0J9500D01*
G01*
X301382Y301035D02*
Y317965D01*
X339118Y304035D02*
Y320965D01*
X354882Y324035D02*
Y340965D01*
X235000Y113000D02*
X270500D01*
Y137000D01*
X235000D02*
X270500D01*
Y115500D02*
X280500D01*
X270500Y134500D02*
X280500D01*
X235000Y113000D02*
Y117500D01*
X245000D01*
Y132500D01*
X235000D02*
X245000D01*
X235000D02*
Y137000D01*
D12*
X397992Y336929D02*
G03*
X397992Y336929I-492J0D01*
G01*
X165000Y155000D02*
G03*
X165000Y155000I-12500J0D01*
G01*
Y220000D02*
G03*
X165000Y220000I-12500J0D01*
G01*
X436500Y208000D02*
G03*
X436500Y208000I-12500J0D01*
G01*
X292500Y192500D02*
G03*
X292500Y192500I-12500J0D01*
G01*
X335000Y455000D02*
G03*
X335000Y455000I-12500J0D01*
G01*
X245000Y290000D02*
G03*
X245000Y290000I-10000J0D01*
G01*
X460000Y315000D02*
G03*
X460000Y315000I-20000J0D01*
G01*
X362500Y387500D02*
G03*
X362500Y387500I-12500J0D01*
G01*
X327500D02*
G03*
X327500Y387500I-10000J0D01*
G01*
D13*
X105000Y280000D02*
X120000D01*
X105000D02*
Y304000D01*
X120000D01*
Y271000D02*
X175000D01*
X120000Y304000D02*
X175000D01*
Y294000D02*
Y304000D01*
Y271000D02*
Y280500D01*
X120000Y271000D02*
Y280000D01*
Y296000D02*
Y304000D01*
X405375Y144000D02*
X465000D01*
X302500D02*
X362125D01*
X344500Y163000D02*
Y183000D01*
X374500Y163000D02*
Y183000D01*
X344500D02*
X374500D01*
X344500Y163000D02*
X374500D01*
X165000Y167500D02*
Y172500D01*
X162500Y170000D02*
X167500D01*
X165000Y232500D02*
Y237500D01*
X162500Y235000D02*
X167500D01*
X436500Y220500D02*
Y225500D01*
X434000Y223000D02*
X439000D01*
X292500Y205000D02*
Y210000D01*
X290000Y207500D02*
X295000D01*
X335000Y442500D02*
X340000D01*
X337500Y440000D02*
Y445000D01*
X220000Y300000D02*
X225000D01*
X222500Y297500D02*
Y302500D01*
X417500Y332500D02*
X422500D01*
X420000Y330000D02*
Y335000D01*
X362500Y400000D02*
Y405000D01*
X360000Y402500D02*
X365000D01*
X327500Y397500D02*
Y402500D01*
X325000Y400000D02*
X330000D01*
X295000Y419000D02*
Y502500D01*
X359500D01*
Y419000D02*
Y502500D01*
X295000Y419000D02*
X359500D01*
X292500Y483750D02*
Y502500D01*
Y419500D02*
Y446250D01*
X165000Y419500D02*
X292500D01*
X165000D02*
Y502500D01*
X292500D01*
Y446250D02*
Y483750D01*
X291500Y320000D02*
Y412500D01*
X247500Y320000D02*
X291500D01*
X170000Y105000D02*
X300000D01*
X102500Y320000D02*
X247500D01*
X291500Y412500D02*
X465000D01*
Y290000D02*
Y412500D01*
X300000Y290000D02*
X465000D01*
X300000Y265000D02*
Y290000D01*
X102500Y265000D02*
X300000D01*
X102500D02*
Y320000D01*
X302500Y144000D02*
Y287500D01*
X362125Y144000D02*
X405375D01*
X465000D02*
Y287500D01*
X302500D02*
X465000D01*
X170000Y262500D02*
X300000D01*
Y105000D02*
Y262500D01*
X170000Y105000D02*
Y262500D01*
X415502Y486999D02*
Y482001D01*
X416501Y481001D01*
X418501D01*
X419500Y482001D01*
Y486999D01*
X421500Y485999D02*
X422499Y486999D01*
X424499D01*
X425498Y485999D01*
Y485000D01*
X424499Y484000D01*
X423499D01*
X424499D01*
X425498Y483000D01*
Y482001D01*
X424499Y481001D01*
X422499D01*
X421500Y482001D01*
X368501Y429499D02*
X367502Y430499D01*
X365502D01*
X364503Y429499D01*
Y425501D01*
X365502Y424501D01*
X367502D01*
X368501Y425501D01*
X374499Y424501D02*
X370501D01*
X374499Y428500D01*
Y429499D01*
X373500Y430499D01*
X371500D01*
X370501Y429499D01*
X379498Y424501D02*
Y430499D01*
X376499Y427500D01*
X380497D01*
X367000Y500998D02*
Y495000D01*
X369999D01*
X370999Y496000D01*
Y496999D01*
X369999Y497999D01*
X367000D01*
X369999D01*
X370999Y498999D01*
Y499998D01*
X369999Y500998D01*
X367000D01*
X372998Y495000D02*
Y500998D01*
X376997Y495000D01*
Y500998D01*
X381995D02*
X379996D01*
X378996Y499998D01*
Y496000D01*
X379996Y495000D01*
X381995D01*
X382995Y496000D01*
Y499998D01*
X381995Y500998D01*
X384994Y499998D02*
X385994Y500998D01*
X387993D01*
X388993Y499998D01*
Y496000D01*
X387993Y495000D01*
X385994D01*
X384994Y496000D01*
Y499998D01*
X394991Y500998D02*
X390992D01*
Y497999D01*
X392992Y498999D01*
X393991D01*
X394991Y497999D01*
Y496000D01*
X393991Y495000D01*
X391992D01*
X390992Y496000D01*
X400989Y500998D02*
X396990D01*
Y497999D01*
X398990Y498999D01*
X399989D01*
X400989Y497999D01*
Y496000D01*
X399989Y495000D01*
X397990D01*
X396990Y496000D01*
X408986Y500998D02*
X410986D01*
X409986D01*
Y495000D01*
X408986D01*
X410986D01*
X413985D02*
Y500998D01*
X415984Y498999D01*
X417983Y500998D01*
Y495000D01*
X419983Y500998D02*
Y496000D01*
X420983Y495000D01*
X422982D01*
X423982Y496000D01*
Y500998D01*
X204000Y415998D02*
X205999D01*
X205000D01*
Y410000D01*
X204000D01*
X205999D01*
X208998D02*
Y415998D01*
X212997Y410000D01*
Y415998D01*
X214996Y410000D02*
Y413999D01*
X216996Y415998D01*
X218995Y413999D01*
Y410000D01*
Y412999D01*
X214996D01*
X224993Y410000D02*
X220994D01*
X224993Y413999D01*
Y414998D01*
X223993Y415998D01*
X221994D01*
X220994Y414998D01*
X230991Y415998D02*
X228992Y414998D01*
X226993Y412999D01*
Y411000D01*
X227992Y410000D01*
X229992D01*
X230991Y411000D01*
Y411999D01*
X229992Y412999D01*
X226993D01*
X232991Y414998D02*
X233990Y415998D01*
X235990D01*
X236989Y414998D01*
Y411000D01*
X235990Y410000D01*
X233990D01*
X232991Y411000D01*
Y414998D01*
X439499Y177498D02*
X438499Y178498D01*
X436500D01*
X435500Y177498D01*
Y176499D01*
X436500Y175499D01*
X438499D01*
X439499Y174499D01*
Y173500D01*
X438499Y172500D01*
X436500D01*
X435500Y173500D01*
X442498Y172500D02*
X444497D01*
X445497Y173500D01*
Y175499D01*
X444497Y176499D01*
X442498D01*
X441498Y175499D01*
Y173500D01*
X442498Y172500D01*
X451495Y177498D02*
X450495Y178498D01*
X448496D01*
X447496Y177498D01*
Y173500D01*
X448496Y172500D01*
X450495D01*
X451495Y173500D01*
X306999Y111497D02*
X303000D01*
Y108498D01*
X304999Y109498D01*
X305999D01*
X306999Y108498D01*
Y106499D01*
X305999Y105499D01*
X304000D01*
X303000Y106499D01*
X308998Y111497D02*
Y107499D01*
X310997Y105499D01*
X312997Y107499D01*
Y111497D01*
X320994D02*
Y105499D01*
X323993D01*
X324993Y106499D01*
Y107499D01*
X323993Y108498D01*
X320994D01*
X323993D01*
X324993Y109498D01*
Y110498D01*
X323993Y111497D01*
X320994D01*
X326992Y109498D02*
Y106499D01*
X327992Y105499D01*
X330991D01*
Y109498D01*
X336989D02*
X333990D01*
X332990Y108498D01*
Y106499D01*
X333990Y105499D01*
X336989D01*
X338988D02*
Y111497D01*
Y107499D02*
X341987Y109498D01*
X338988Y107499D02*
X341987Y105499D01*
X344986Y108498D02*
X348985D01*
X350985Y111497D02*
Y105499D01*
X353983D01*
X354983Y106499D01*
Y107499D01*
X353983Y108498D01*
X350985D01*
X353983D01*
X354983Y109498D01*
Y110498D01*
X353983Y111497D01*
X350985D01*
X357982Y105499D02*
X359982D01*
X360981Y106499D01*
Y108498D01*
X359982Y109498D01*
X357982D01*
X356982Y108498D01*
Y106499D01*
X357982Y105499D01*
X363980D02*
X365980D01*
X366979Y106499D01*
Y108498D01*
X365980Y109498D01*
X363980D01*
X362981Y108498D01*
Y106499D01*
X363980Y105499D01*
X368979D02*
X371978D01*
X372977Y106499D01*
X371978Y107499D01*
X369978D01*
X368979Y108498D01*
X369978Y109498D01*
X372977D01*
X375976Y110498D02*
Y109498D01*
X374977D01*
X376976D01*
X375976D01*
Y106499D01*
X376976Y105499D01*
X380975Y104500D02*
X381974Y105499D01*
Y106499D01*
X380975D01*
Y105499D01*
X381974D01*
X380975Y104500D01*
X379975Y103500D01*
X391971Y111497D02*
X393971D01*
X392971D01*
Y105499D01*
X391971D01*
X393971D01*
X396970D02*
Y111497D01*
X398969Y109498D01*
X400968Y111497D01*
Y105499D01*
X402968Y111497D02*
Y106499D01*
X403967Y105499D01*
X405967D01*
X406966Y106499D01*
Y111497D01*
X129409Y385801D02*
X131408D01*
X130408D01*
Y379803D01*
X129409D01*
X131408D01*
X134407D02*
Y385801D01*
X138406Y379803D01*
Y385801D01*
X140405Y379803D02*
X142404D01*
X141405D01*
Y385801D01*
X140405Y384801D01*
X129409Y396301D02*
X131408D01*
X130408D01*
Y390303D01*
X129409D01*
X131408D01*
X134407D02*
Y396301D01*
X138406Y390303D01*
Y396301D01*
X144404Y390303D02*
X140405D01*
X144404Y394302D01*
Y395301D01*
X143404Y396301D01*
X141405D01*
X140405Y395301D01*
X129409Y405801D02*
X131408D01*
X130408D01*
Y399803D01*
X129409D01*
X131408D01*
X134407D02*
Y405801D01*
X138406Y399803D01*
Y405801D01*
X140405Y404801D02*
X141405Y405801D01*
X143404D01*
X144404Y404801D01*
Y403801D01*
X143404Y402802D01*
X142404D01*
X143404D01*
X144404Y401802D01*
Y400803D01*
X143404Y399803D01*
X141405D01*
X140405Y400803D01*
X129409Y415301D02*
X131408D01*
X130408D01*
Y409303D01*
X129409D01*
X131408D01*
X134407D02*
Y415301D01*
X138406Y409303D01*
Y415301D01*
X143404Y409303D02*
Y415301D01*
X140405Y412302D01*
X144404D01*
X129409Y425801D02*
X131408D01*
X130408D01*
Y419803D01*
X129409D01*
X131408D01*
X134407D02*
Y425801D01*
X138406Y419803D01*
Y425801D01*
X144404D02*
X140405D01*
Y422802D01*
X142404Y423802D01*
X143404D01*
X144404Y422802D01*
Y420802D01*
X143404Y419803D01*
X141405D01*
X140405Y420802D01*
X129409Y436301D02*
X131408D01*
X130408D01*
Y430303D01*
X129409D01*
X131408D01*
X134407D02*
Y436301D01*
X138406Y430303D01*
Y436301D01*
X144404D02*
X142404Y435301D01*
X140405Y433302D01*
Y431302D01*
X141405Y430303D01*
X143404D01*
X144404Y431302D01*
Y432302D01*
X143404Y433302D01*
X140405D01*
X129500Y445998D02*
X131499D01*
X130500D01*
Y440000D01*
X129500D01*
X131499D01*
X134498D02*
Y445998D01*
X138497Y440000D01*
Y445998D01*
X140496D02*
X144495D01*
Y444998D01*
X140496Y441000D01*
Y440000D01*
X129500Y455998D02*
X131499D01*
X130500D01*
Y450000D01*
X129500D01*
X131499D01*
X134498D02*
Y455998D01*
X138497Y450000D01*
Y455998D01*
X140496Y454998D02*
X141496Y455998D01*
X143496D01*
X144495Y454998D01*
Y453999D01*
X143496Y452999D01*
X144495Y451999D01*
Y451000D01*
X143496Y450000D01*
X141496D01*
X140496Y451000D01*
Y451999D01*
X141496Y452999D01*
X140496Y453999D01*
Y454998D01*
X141496Y452999D02*
X143496D01*
X150500Y457000D02*
X156498D01*
X154499Y455001D01*
X156498Y453001D01*
X150500D01*
Y450002D02*
Y448003D01*
X151500Y447003D01*
X153499D01*
X154499Y448003D01*
Y450002D01*
X153499Y451002D01*
X151500D01*
X150500Y450002D01*
X155498Y444004D02*
X154499D01*
Y445004D01*
Y443005D01*
Y444004D01*
X151500D01*
X150500Y443005D01*
Y439006D02*
Y437007D01*
X151500Y436007D01*
X153499D01*
X154499Y437007D01*
Y439006D01*
X153499Y440005D01*
X151500D01*
X150500Y439006D01*
X154499Y434007D02*
X150500D01*
X152499D01*
X153499Y433008D01*
X154499Y432008D01*
Y431008D01*
X155498Y418013D02*
X156498Y419012D01*
Y421012D01*
X155498Y422011D01*
X151500D01*
X150500Y421012D01*
Y419012D01*
X151500Y418013D01*
X150500Y415014D02*
Y413014D01*
X151500Y412014D01*
X153499D01*
X154499Y413014D01*
Y415014D01*
X153499Y416013D01*
X151500D01*
X150500Y415014D01*
Y410015D02*
X154499D01*
Y407016D01*
X153499Y406016D01*
X150500D01*
X155498Y403018D02*
X154499D01*
Y404017D01*
Y402018D01*
Y403018D01*
X151500D01*
X150500Y402018D01*
X154499Y399019D02*
X150500D01*
X152499D01*
X153499Y398019D01*
X154499Y397019D01*
Y396020D01*
X150500Y392021D02*
Y390022D01*
X151500Y389022D01*
X153499D01*
X154499Y390022D01*
Y392021D01*
X153499Y393021D01*
X151500D01*
X150500Y392021D01*
Y387023D02*
Y385023D01*
Y386023D01*
X156498D01*
Y387023D01*
X206502Y454999D02*
X205502Y453999D01*
Y452000D01*
X206502Y451000D01*
X210500D01*
X211500Y452000D01*
Y453999D01*
X210500Y454999D01*
X205502Y456998D02*
X211500D01*
X208501D01*
Y460997D01*
X205502D01*
X211500D01*
X206502Y466995D02*
X205502Y465995D01*
Y463996D01*
X206502Y462996D01*
X210500D01*
X211500Y463996D01*
Y465995D01*
X210500Y466995D01*
X208501D01*
Y464995D01*
X205502Y471993D02*
Y469994D01*
X206502Y468994D01*
X210500D01*
X211500Y469994D01*
Y471993D01*
X210500Y472993D01*
X206502D01*
X205502Y471993D01*
Y474992D02*
X211500D01*
X209501D01*
X205502Y478991D01*
X208501Y475992D01*
X211500Y478991D01*
Y480990D02*
X207501D01*
Y483989D01*
X208501Y484989D01*
X211500D01*
X201500Y463500D02*
X197501D01*
X195502Y465499D01*
X197501Y467499D01*
X201500D01*
X198501D01*
Y463500D01*
X196502Y473497D02*
X195502Y472497D01*
Y470498D01*
X196502Y469498D01*
X200500D01*
X201500Y470498D01*
Y472497D01*
X200500Y473497D01*
X195502Y478495D02*
Y476496D01*
X196502Y475496D01*
X200500D01*
X201500Y476496D01*
Y478495D01*
X200500Y479495D01*
X196502D01*
X195502Y478495D01*
Y481494D02*
X201500D01*
X199501D01*
X195502Y485493D01*
X198501Y482494D01*
X201500Y485493D01*
X173500Y439498D02*
X177499D01*
X175499D01*
Y433500D01*
X180498D02*
X182497D01*
X183497Y434500D01*
Y436499D01*
X182497Y437499D01*
X180498D01*
X179498Y436499D01*
Y434500D01*
X180498Y433500D01*
X195493Y438498D02*
X194493Y439498D01*
X192494D01*
X191494Y438498D01*
Y437499D01*
X192494Y436499D01*
X194493D01*
X195493Y435499D01*
Y434500D01*
X194493Y433500D01*
X192494D01*
X191494Y434500D01*
X198492Y433500D02*
X200491D01*
X201491Y434500D01*
Y436499D01*
X200491Y437499D01*
X198492D01*
X197492Y436499D01*
Y434500D01*
X198492Y433500D01*
X207489Y438498D02*
X206489Y439498D01*
X204490D01*
X203490Y438498D01*
Y434500D01*
X204490Y433500D01*
X206489D01*
X207489Y434500D01*
X176502Y472499D02*
X175502Y471499D01*
Y469500D01*
X176502Y468500D01*
X177501D01*
X178501Y469500D01*
Y471499D01*
X179501Y472499D01*
X180500D01*
X181500Y471499D01*
Y469500D01*
X180500Y468500D01*
X175502Y474498D02*
X181500D01*
Y477497D01*
X180500Y478497D01*
X176502D01*
X175502Y477497D01*
Y474498D01*
X181500Y480496D02*
X177501D01*
X175502Y482495D01*
X177501Y484495D01*
X181500D01*
X178501D01*
Y480496D01*
X186502Y472499D02*
X185502Y471499D01*
Y469500D01*
X186502Y468500D01*
X187501D01*
X188501Y469500D01*
Y471499D01*
X189501Y472499D01*
X190500D01*
X191500Y471499D01*
Y469500D01*
X190500Y468500D01*
X186502Y478497D02*
X185502Y477497D01*
Y475498D01*
X186502Y474498D01*
X190500D01*
X191500Y475498D01*
Y477497D01*
X190500Y478497D01*
X185502Y480496D02*
X191500D01*
Y484495D01*
X216502Y454999D02*
X215502Y453999D01*
Y452000D01*
X216502Y451000D01*
X220500D01*
X221500Y452000D01*
Y453999D01*
X220500Y454999D01*
X215502Y456998D02*
X221500D01*
X218501D01*
Y460997D01*
X215502D01*
X221500D01*
X216502Y466995D02*
X215502Y465995D01*
Y463996D01*
X216502Y462996D01*
X220500D01*
X221500Y463996D01*
Y465995D01*
X220500Y466995D01*
X218501D01*
Y464995D01*
X215502Y472993D02*
Y468994D01*
X221500D01*
Y472993D01*
X218501Y468994D02*
Y470994D01*
X221500Y474992D02*
X215502D01*
X221500Y478991D01*
X215502D01*
X221500Y480990D02*
X217501D01*
Y483989D01*
X218501Y484989D01*
X221500D01*
X224502Y443500D02*
X230500D01*
Y447499D01*
X224502Y452497D02*
Y450498D01*
X225502Y449498D01*
X229501D01*
X230500Y450498D01*
Y452497D01*
X229501Y453497D01*
X225502D01*
X224502Y452497D01*
X230500Y455496D02*
X226502D01*
X224502Y457495D01*
X226502Y459495D01*
X230500D01*
X227501D01*
Y455496D01*
X224502Y461494D02*
X230500D01*
Y464493D01*
X229501Y465493D01*
X225502D01*
X224502Y464493D01*
Y461494D01*
X231500Y467492D02*
Y471491D01*
X224502Y476489D02*
Y474490D01*
X225502Y473490D01*
X229501D01*
X230500Y474490D01*
Y476489D01*
X229501Y477489D01*
X225502D01*
X224502Y476489D01*
X230500Y479488D02*
X224502D01*
X230500Y483487D01*
X224502D01*
X236502Y472499D02*
X235502Y471499D01*
Y469500D01*
X236502Y468500D01*
X240500D01*
X241500Y469500D01*
Y471499D01*
X240500Y472499D01*
X238501D01*
Y470499D01*
X241500Y474498D02*
X235502D01*
X241500Y478497D01*
X235502D01*
Y480496D02*
X241500D01*
Y483495D01*
X240500Y484495D01*
X236502D01*
X235502Y483495D01*
Y480496D01*
X246502Y468500D02*
X245502Y469500D01*
Y471499D01*
X246502Y472499D01*
X247501D01*
X248501Y471499D01*
Y470499D01*
Y471499D01*
X249501Y472499D01*
X250500D01*
X251500Y471499D01*
Y469500D01*
X250500Y468500D01*
X245502Y474498D02*
X249501D01*
X251500Y476497D01*
X249501Y478497D01*
X245502D01*
X246502Y480496D02*
X245502Y481496D01*
Y483495D01*
X246502Y484495D01*
X247501D01*
X248501Y483495D01*
Y482495D01*
Y483495D01*
X249501Y484495D01*
X250500D01*
X251500Y483495D01*
Y481496D01*
X250500Y480496D01*
X118500Y342998D02*
Y337000D01*
X122499D01*
X127497Y342998D02*
X125498D01*
X124498Y341998D01*
Y337999D01*
X125498Y337000D01*
X127497D01*
X128497Y337999D01*
Y341998D01*
X127497Y342998D01*
X130496Y337000D02*
Y340998D01*
X132495Y342998D01*
X134495Y340998D01*
Y337000D01*
Y339999D01*
X130496D01*
X136494Y342998D02*
Y337000D01*
X139493D01*
X140493Y337999D01*
Y341998D01*
X139493Y342998D01*
X136494D01*
X142492Y336000D02*
X146491D01*
X151489Y342998D02*
X149490D01*
X148490Y341998D01*
Y337999D01*
X149490Y337000D01*
X151489D01*
X152489Y337999D01*
Y341998D01*
X151489Y342998D01*
X154488Y337000D02*
Y342998D01*
X158487Y337000D01*
Y342998D01*
X122499Y350998D02*
X121499Y351998D01*
X119500D01*
X118500Y350998D01*
Y347000D01*
X119500Y346000D01*
X121499D01*
X122499Y347000D01*
X124498Y351998D02*
Y346000D01*
Y348999D01*
X128497D01*
Y351998D01*
Y346000D01*
X134495Y350998D02*
X133495Y351998D01*
X131496D01*
X130496Y350998D01*
Y347000D01*
X131496Y346000D01*
X133495D01*
X134495Y347000D01*
Y348999D01*
X132495D01*
X140493Y351998D02*
X136494D01*
Y346000D01*
X140493D01*
X136494Y348999D02*
X138494D01*
X142492Y346000D02*
Y351998D01*
X146491Y346000D01*
Y351998D01*
X148490Y346000D02*
Y349999D01*
X151489D01*
X152489Y348999D01*
Y346000D01*
X122499Y360998D02*
X121499Y361998D01*
X119500D01*
X118500Y360998D01*
Y357000D01*
X119500Y356000D01*
X121499D01*
X122499Y357000D01*
X124498Y361998D02*
Y356000D01*
Y358999D01*
X128497D01*
Y361998D01*
Y356000D01*
X134495Y360998D02*
X133495Y361998D01*
X131496D01*
X130496Y360998D01*
Y357000D01*
X131496Y356000D01*
X133495D01*
X134495Y357000D01*
Y358999D01*
X132495D01*
X139493Y361998D02*
X137494D01*
X136494Y360998D01*
Y357000D01*
X137494Y356000D01*
X139493D01*
X140493Y357000D01*
Y360998D01*
X139493Y361998D01*
X142492D02*
Y356000D01*
Y357999D01*
X146491Y361998D01*
X143492Y358999D01*
X146491Y356000D01*
X148490D02*
Y359999D01*
X151489D01*
X152489Y358999D01*
Y356000D01*
X118500Y366000D02*
Y369999D01*
X120499Y371998D01*
X122499Y369999D01*
Y366000D01*
Y368999D01*
X118500D01*
X128497Y370998D02*
X127497Y371998D01*
X125498D01*
X124498Y370998D01*
Y367000D01*
X125498Y366000D01*
X127497D01*
X128497Y367000D01*
X133495Y371998D02*
X131496D01*
X130496Y370998D01*
Y367000D01*
X131496Y366000D01*
X133495D01*
X134495Y367000D01*
Y370998D01*
X133495Y371998D01*
X136494D02*
Y366000D01*
Y367999D01*
X140493Y371998D01*
X137494Y368999D01*
X140493Y366000D01*
X142492D02*
Y369999D01*
X145491D01*
X146491Y368999D01*
Y366000D01*
X384000Y377499D02*
Y381498D01*
X385999Y383497D01*
X387999Y381498D01*
Y377499D01*
Y380498D01*
X384000D01*
X389998Y383497D02*
Y377499D01*
X392997D01*
X393997Y378499D01*
Y379499D01*
X392997Y380498D01*
X389998D01*
X392997D01*
X393997Y381498D01*
Y382498D01*
X392997Y383497D01*
X389998D01*
X401994Y377499D02*
Y381498D01*
X403994Y383497D01*
X405993Y381498D01*
Y377499D01*
Y380498D01*
X401994D01*
X407992Y377499D02*
Y381498D01*
X408992D01*
X409992Y380498D01*
Y377499D01*
Y380498D01*
X410991Y381498D01*
X411991Y380498D01*
Y377499D01*
X413990Y375500D02*
Y381498D01*
X416989D01*
X417989Y380498D01*
Y378499D01*
X416989Y377499D01*
X413990D01*
X419988D02*
X421988D01*
X420988D01*
Y383497D01*
X419988D01*
X424987Y377499D02*
X426986D01*
X425986D01*
Y381498D01*
X424987D01*
X430985Y377499D02*
Y382498D01*
Y380498D01*
X429985D01*
X431985D01*
X430985D01*
Y382498D01*
X431985Y383497D01*
X434983Y377499D02*
X436983D01*
X435983D01*
Y381498D01*
X434983D01*
X442981Y377499D02*
X440982D01*
X439982Y378499D01*
Y380498D01*
X440982Y381498D01*
X442981D01*
X443981Y380498D01*
Y379499D01*
X439982D01*
X445980Y381498D02*
Y377499D01*
Y379499D01*
X446980Y380498D01*
X447979Y381498D01*
X448979D01*
X426500Y185999D02*
X430499D01*
X428499Y187998D02*
Y184000D01*
X436497Y188998D02*
X432498D01*
Y185999D01*
X434497Y186999D01*
X435497D01*
X436497Y185999D01*
Y184000D01*
X435497Y183000D01*
X433498D01*
X432498Y184000D01*
X438496Y188998D02*
Y184999D01*
X440495Y183000D01*
X442495Y184999D01*
Y188998D01*
X451492Y187998D02*
Y186999D01*
X450492D01*
X452492D01*
X451492D01*
Y184000D01*
X452492Y183000D01*
X456490D02*
X458490D01*
X459489Y184000D01*
Y185999D01*
X458490Y186999D01*
X456490D01*
X455491Y185999D01*
Y184000D01*
X456490Y183000D01*
X300000Y432498D02*
Y428499D01*
X301999Y426500D01*
X303999Y428499D01*
Y432498D01*
X305998D02*
Y426500D01*
X309997D01*
X314995Y432498D02*
X312996D01*
X311996Y431498D01*
Y427500D01*
X312996Y426500D01*
X314995D01*
X315995Y427500D01*
Y431498D01*
X314995Y432498D01*
X317994Y426500D02*
Y430499D01*
X319993Y432498D01*
X321993Y430499D01*
Y426500D01*
Y429499D01*
X317994D01*
X323992Y432498D02*
Y426500D01*
X326991D01*
X327991Y427500D01*
Y431498D01*
X326991Y432498D01*
X323992D01*
X131000Y311000D02*
Y314999D01*
X132999Y316998D01*
X134999Y314999D01*
Y311000D01*
Y313999D01*
X131000D01*
X136998Y316998D02*
Y312000D01*
X137998Y311000D01*
X139997D01*
X140997Y312000D01*
Y316998D01*
X142996D02*
Y311000D01*
X145995D01*
X146995Y312000D01*
Y315998D01*
X145995Y316998D01*
X142996D01*
X148994D02*
X150994D01*
X149994D01*
Y311000D01*
X148994D01*
X150994D01*
X156992Y316998D02*
X154992D01*
X153993Y315998D01*
Y312000D01*
X154992Y311000D01*
X156992D01*
X157991Y312000D01*
Y315998D01*
X156992Y316998D01*
X431000Y274498D02*
Y268500D01*
X433999D01*
X434999Y269500D01*
Y270499D01*
X433999Y271499D01*
X431000D01*
X433999D01*
X434999Y272499D01*
Y273498D01*
X433999Y274498D01*
X431000D01*
X439997D02*
X437998D01*
X436998Y273498D01*
Y269500D01*
X437998Y268500D01*
X439997D01*
X440997Y269500D01*
Y273498D01*
X439997Y274498D01*
X445995D02*
X443996D01*
X442996Y273498D01*
Y269500D01*
X443996Y268500D01*
X445995D01*
X446995Y269500D01*
Y273498D01*
X445995Y274498D01*
X452993Y273498D02*
X451993Y274498D01*
X449994D01*
X448994Y273498D01*
Y272499D01*
X449994Y271499D01*
X451993D01*
X452993Y270499D01*
Y269500D01*
X451993Y268500D01*
X449994D01*
X448994Y269500D01*
X454992Y274498D02*
X458991D01*
X456992D01*
Y268500D01*
X431000Y284498D02*
Y278500D01*
X433999D01*
X434999Y279500D01*
Y280499D01*
X433999Y281499D01*
X431000D01*
X433999D01*
X434999Y282499D01*
Y283498D01*
X433999Y284498D01*
X431000D01*
X436998D02*
Y279500D01*
X437998Y278500D01*
X439997D01*
X440997Y279500D01*
Y284498D01*
X446995Y283498D02*
X445995Y284498D01*
X443996D01*
X442996Y283498D01*
Y279500D01*
X443996Y278500D01*
X445995D01*
X446995Y279500D01*
X448994Y284498D02*
Y278500D01*
Y280499D01*
X452993Y284498D01*
X449994Y281499D01*
X452993Y278500D01*
X454992Y281499D02*
X458991D01*
X241000Y251000D02*
Y256998D01*
X243999D01*
X244999Y255998D01*
Y253999D01*
X243999Y252999D01*
X241000D01*
X249997Y256998D02*
X247998D01*
X246998Y255998D01*
Y252000D01*
X247998Y251000D01*
X249997D01*
X250997Y252000D01*
Y255998D01*
X249997Y256998D01*
X252996D02*
Y251000D01*
X254995Y252999D01*
X256995Y251000D01*
Y256998D01*
X262993D02*
X258994D01*
Y251000D01*
X262993D01*
X258994Y253999D02*
X260994D01*
X264992Y251000D02*
Y256998D01*
X267991D01*
X268991Y255998D01*
Y253999D01*
X267991Y252999D01*
X264992D01*
X266992D02*
X268991Y251000D01*
X276988D02*
Y256998D01*
X278988Y254999D01*
X280987Y256998D01*
Y251000D01*
X282986Y256998D02*
Y252000D01*
X283986Y251000D01*
X285985D01*
X286985Y252000D01*
Y256998D01*
X288984D02*
X292983Y251000D01*
Y256998D02*
X288984Y251000D01*
X106000Y259498D02*
Y255499D01*
X107999Y253500D01*
X109999Y255499D01*
Y259498D01*
X111998D02*
Y253500D01*
X114997D01*
X115997Y254500D01*
Y255499D01*
X114997Y256499D01*
X111998D01*
X114997D01*
X115997Y257499D01*
Y258498D01*
X114997Y259498D01*
X111998D01*
X117996Y253500D02*
Y257499D01*
X119995Y259498D01*
X121995Y257499D01*
Y253500D01*
Y256499D01*
X117996D01*
X123994Y259498D02*
X127993D01*
X125994D01*
Y253500D01*
X129992Y259498D02*
X133991D01*
X131992D01*
Y253500D01*
X106000Y189498D02*
Y185499D01*
X107999Y183500D01*
X109999Y185499D01*
Y189498D01*
X115997Y188498D02*
X114997Y189498D01*
X112998D01*
X111998Y188498D01*
Y184500D01*
X112998Y183500D01*
X114997D01*
X115997Y184500D01*
X117996Y189498D02*
Y183500D01*
Y186499D01*
X121995D01*
Y189498D01*
Y183500D01*
X127993Y188498D02*
X126993Y189498D01*
X124994D01*
X123994Y188498D01*
Y184500D01*
X124994Y183500D01*
X126993D01*
X127993Y184500D01*
Y186499D01*
X125994D01*
X183500Y121000D02*
Y126998D01*
X185499Y124999D01*
X187499Y126998D01*
Y121000D01*
X189498Y126998D02*
Y122000D01*
X190498Y121000D01*
X192497D01*
X193497Y122000D01*
Y126998D01*
X195496D02*
X199495Y121000D01*
Y126998D02*
X195496Y121000D01*
X211491Y125998D02*
X210491Y126998D01*
X208492D01*
X207492Y125998D01*
Y124999D01*
X208492Y123999D01*
X210491D01*
X211491Y122999D01*
Y122000D01*
X210491Y121000D01*
X208492D01*
X207492Y122000D01*
X213490Y126998D02*
X217489D01*
X215490D01*
Y121000D01*
X303000Y120497D02*
Y116499D01*
X304999Y114499D01*
X306999Y116499D01*
Y120497D01*
X308998D02*
Y114499D01*
X311997D01*
X312997Y115499D01*
Y116499D01*
X311997Y117498D01*
X308998D01*
X311997D01*
X312997Y118498D01*
Y119498D01*
X311997Y120497D01*
X308998D01*
X314996Y114499D02*
Y118498D01*
X316996Y120497D01*
X318995Y118498D01*
Y114499D01*
Y117498D01*
X314996D01*
X320994Y120497D02*
X324993D01*
X322993D01*
Y114499D01*
X326992Y120497D02*
X330991D01*
X328992D01*
Y114499D01*
X338988D02*
Y120497D01*
X340988Y118498D01*
X342987Y120497D01*
Y114499D01*
X347985D02*
X345986D01*
X344986Y115499D01*
Y117498D01*
X345986Y118498D01*
X347985D01*
X348985Y117498D01*
Y116499D01*
X344986D01*
X351984Y118498D02*
X353983D01*
X354983Y117498D01*
Y114499D01*
X351984D01*
X350985Y115499D01*
X351984Y116499D01*
X354983D01*
X356982Y114499D02*
X359982D01*
X360981Y115499D01*
X359982Y116499D01*
X357982D01*
X356982Y117498D01*
X357982Y118498D01*
X360981D01*
X362981D02*
Y115499D01*
X363980Y114499D01*
X366979D01*
Y118498D01*
X368979D02*
Y114499D01*
Y116499D01*
X369978Y117498D01*
X370978Y118498D01*
X371978D01*
X377976Y114499D02*
X375976D01*
X374977Y115499D01*
Y117498D01*
X375976Y118498D01*
X377976D01*
X378975Y117498D01*
Y116499D01*
X374977D01*
X381975Y113500D02*
X382974Y114499D01*
Y115499D01*
X381975D01*
Y114499D01*
X382974D01*
X381975Y113500D01*
X380975Y112500D01*
X392971Y114499D02*
Y120497D01*
X395970D01*
X396970Y119498D01*
Y117498D01*
X395970Y116499D01*
X392971D01*
X399969Y114499D02*
X401968D01*
X402968Y115499D01*
Y117498D01*
X401968Y118498D01*
X399969D01*
X398969Y117498D01*
Y115499D01*
X399969Y114499D01*
X404967Y118498D02*
Y115499D01*
X405967Y114499D01*
X406966Y115499D01*
X407966Y114499D01*
X408966Y115499D01*
Y118498D01*
X413964Y114499D02*
X411965D01*
X410965Y115499D01*
Y117498D01*
X411965Y118498D01*
X413964D01*
X414964Y117498D01*
Y116499D01*
X410965D01*
X416963Y118498D02*
Y114499D01*
Y116499D01*
X417963Y117498D01*
X418962Y118498D01*
X419962D01*
X428959Y114499D02*
Y120497D01*
X430959Y118498D01*
X432958Y120497D01*
Y114499D01*
X434957Y120497D02*
Y115499D01*
X435957Y114499D01*
X437956D01*
X438956Y115499D01*
Y120497D01*
X440955D02*
X444954Y114499D01*
Y120497D02*
X440955Y114499D01*
X303000Y124999D02*
Y130997D01*
X304999Y128998D01*
X306999Y130997D01*
Y124999D01*
X309998Y128998D02*
X311997D01*
X312997Y127998D01*
Y124999D01*
X309998D01*
X308998Y125999D01*
X309998Y126999D01*
X312997D01*
X314996Y124999D02*
X316996D01*
X315996D01*
Y128998D01*
X314996D01*
X319994Y124999D02*
Y128998D01*
X322993D01*
X323993Y127998D01*
Y124999D01*
X335989Y129998D02*
X334990Y130997D01*
X332990D01*
X331991Y129998D01*
Y128998D01*
X332990Y127998D01*
X334990D01*
X335989Y126999D01*
Y125999D01*
X334990Y124999D01*
X332990D01*
X331991Y125999D01*
X338988Y124999D02*
X340988D01*
X341987Y125999D01*
Y127998D01*
X340988Y128998D01*
X338988D01*
X337989Y127998D01*
Y125999D01*
X338988Y124999D01*
X347985Y129998D02*
X346986Y130997D01*
X344986D01*
X343987Y129998D01*
Y125999D01*
X344986Y124999D01*
X346986D01*
X347985Y125999D01*
X355983Y124999D02*
Y130997D01*
X358982D01*
X359982Y129998D01*
Y127998D01*
X358982Y126999D01*
X355983D01*
X365980Y129998D02*
X364980Y130997D01*
X362981D01*
X361981Y129998D01*
Y125999D01*
X362981Y124999D01*
X364980D01*
X365980Y125999D01*
X367979Y130997D02*
Y124999D01*
X370978D01*
X371978Y125999D01*
Y126999D01*
X370978Y127998D01*
X367979D01*
X370978D01*
X371978Y128998D01*
Y129998D01*
X370978Y130997D01*
X367979D01*
X374977Y124000D02*
X375976Y124999D01*
Y125999D01*
X374977D01*
Y124999D01*
X375976D01*
X374977Y124000D01*
X373977Y123000D01*
X385973Y124999D02*
Y128998D01*
X387972Y130997D01*
X389972Y128998D01*
Y124999D01*
Y127998D01*
X385973D01*
X391971Y128998D02*
Y125999D01*
X392971Y124999D01*
X395970D01*
Y128998D01*
X401968Y130997D02*
Y124999D01*
X398969D01*
X397969Y125999D01*
Y127998D01*
X398969Y128998D01*
X401968D01*
X403967Y124999D02*
X405967D01*
X404967D01*
Y128998D01*
X403967D01*
X409965Y124999D02*
X411965D01*
X412964Y125999D01*
Y127998D01*
X411965Y128998D01*
X409965D01*
X408966Y127998D01*
Y125999D01*
X409965Y124999D01*
X420962D02*
Y128998D01*
X422961Y130997D01*
X424961Y128998D01*
Y124999D01*
Y127998D01*
X420962D01*
X426960Y124999D02*
Y128998D01*
X427960D01*
X428959Y127998D01*
Y124999D01*
Y127998D01*
X429959Y128998D01*
X430959Y127998D01*
Y124999D01*
X432958Y123000D02*
Y128998D01*
X435957D01*
X436957Y127998D01*
Y125999D01*
X435957Y124999D01*
X432958D01*
X439956Y124000D02*
X440955Y124999D01*
Y125999D01*
X439956D01*
Y124999D01*
X440955D01*
X439956Y124000D01*
X438956Y123000D01*
X306999Y138998D02*
X305999Y139998D01*
X304000D01*
X303000Y138998D01*
Y137999D01*
X304000Y136999D01*
X305999D01*
X306999Y135999D01*
Y135000D01*
X305999Y134000D01*
X304000D01*
X303000Y135000D01*
X309998Y137999D02*
X311997D01*
X312997Y136999D01*
Y134000D01*
X309998D01*
X308998Y135000D01*
X309998Y135999D01*
X312997D01*
X314996Y134000D02*
Y137999D01*
X317995D01*
X318995Y136999D01*
Y134000D01*
X321994Y137999D02*
X323993D01*
X324993Y136999D01*
Y134000D01*
X321994D01*
X320994Y135000D01*
X321994Y135999D01*
X324993D01*
X327992Y138998D02*
Y137999D01*
X326992D01*
X328992D01*
X327992D01*
Y135000D01*
X328992Y134000D01*
X337989Y139998D02*
Y134000D01*
Y135999D01*
X341987Y139998D01*
X338988Y136999D01*
X341987Y134000D01*
X344986D02*
X346986D01*
X347985Y135000D01*
Y136999D01*
X346986Y137999D01*
X344986D01*
X343987Y136999D01*
Y135000D01*
X344986Y134000D01*
X349985D02*
Y137999D01*
X352984D01*
X353983Y136999D01*
Y134000D01*
X359982Y139998D02*
Y134000D01*
X356982D01*
X355983Y135000D01*
Y136999D01*
X356982Y137999D01*
X359982D01*
X362981D02*
X364980D01*
X365980Y136999D01*
Y134000D01*
X362981D01*
X361981Y135000D01*
X362981Y135999D01*
X365980D01*
X338501Y236999D02*
X337502Y237999D01*
X335502D01*
X334503Y236999D01*
Y233001D01*
X335502Y232001D01*
X337502D01*
X338501Y233001D01*
X344499Y232001D02*
X340501D01*
X344499Y236000D01*
Y236999D01*
X343500Y237999D01*
X341500D01*
X340501Y236999D01*
X346499D02*
X347498Y237999D01*
X349498D01*
X350497Y236999D01*
Y236000D01*
X349498Y235000D01*
X348498D01*
X349498D01*
X350497Y234000D01*
Y233001D01*
X349498Y232001D01*
X347498D01*
X346499Y233001D01*
X394001Y227499D02*
X393002Y228499D01*
X391002D01*
X390003Y227499D01*
Y223501D01*
X391002Y222501D01*
X393002D01*
X394001Y223501D01*
X399999Y222501D02*
X396001D01*
X399999Y226500D01*
Y227499D01*
X399000Y228499D01*
X397000D01*
X396001Y227499D01*
X405997Y222501D02*
X401999D01*
X405997Y226500D01*
Y227499D01*
X404998Y228499D01*
X402998D01*
X401999Y227499D01*
X324999Y181000D02*
X325999Y181999D01*
Y183999D01*
X324999Y184998D01*
X321001D01*
X320001Y183999D01*
Y181999D01*
X321001Y181000D01*
X324999Y179000D02*
X325999Y178001D01*
Y176001D01*
X324999Y175002D01*
X324000D01*
X323000Y176001D01*
X322000Y175002D01*
X321001D01*
X320001Y176001D01*
Y178001D01*
X321001Y179000D01*
X322000D01*
X323000Y178001D01*
X324000Y179000D01*
X324999D01*
X323000Y178001D02*
Y176001D01*
X211100Y224698D02*
Y219700D01*
X212100Y218700D01*
X214099D01*
X215099Y219700D01*
Y224698D01*
X221097Y218700D02*
X217098D01*
X221097Y222699D01*
Y223698D01*
X220097Y224698D01*
X218098D01*
X217098Y223698D01*
X247003Y149501D02*
Y155499D01*
X250002D01*
X251001Y154499D01*
Y152500D01*
X250002Y151500D01*
X247003D01*
X249002D02*
X251001Y149501D01*
X256999D02*
X253001D01*
X256999Y153500D01*
Y154499D01*
X256000Y155499D01*
X254000D01*
X253001Y154499D01*
X261998Y149501D02*
Y155499D01*
X258999Y152500D01*
X262997D01*
X172003Y172001D02*
Y177999D01*
X175002D01*
X176001Y176999D01*
Y175000D01*
X175002Y174000D01*
X172003D01*
X174002D02*
X176001Y172001D01*
X181999D02*
X178001D01*
X181999Y176000D01*
Y176999D01*
X181000Y177999D01*
X179000D01*
X178001Y176999D01*
X183999D02*
X184998Y177999D01*
X186998D01*
X187997Y176999D01*
Y176000D01*
X186998Y175000D01*
X185998D01*
X186998D01*
X187997Y174000D01*
Y173001D01*
X186998Y172001D01*
X184998D01*
X183999Y173001D01*
X235499Y167003D02*
X229501D01*
Y170002D01*
X230501Y171001D01*
X232500D01*
X233500Y170002D01*
Y167003D01*
Y169002D02*
X235499Y171001D01*
Y176999D02*
Y173001D01*
X231500Y176999D01*
X230501D01*
X229501Y176000D01*
Y174000D01*
X230501Y173001D01*
X235499Y182997D02*
Y178999D01*
X231500Y182997D01*
X230501D01*
X229501Y181998D01*
Y179998D01*
X230501Y178999D01*
X273002Y234501D02*
Y240499D01*
X276001D01*
X277001Y239499D01*
Y237500D01*
X276001Y236500D01*
X273002D01*
X275002D02*
X277001Y234501D01*
X282999D02*
X279000D01*
X282999Y238500D01*
Y239499D01*
X281999Y240499D01*
X280000D01*
X279000Y239499D01*
X284998Y234501D02*
X286998D01*
X285998D01*
Y240499D01*
X284998Y239499D01*
X337003Y254501D02*
Y260499D01*
X340002D01*
X341001Y259499D01*
Y257500D01*
X340002Y256500D01*
X337003D01*
X339002D02*
X341001Y254501D01*
X346999D02*
X343001D01*
X346999Y258500D01*
Y259499D01*
X346000Y260499D01*
X344000D01*
X343001Y259499D01*
X348999D02*
X349998Y260499D01*
X351998D01*
X352997Y259499D01*
Y255501D01*
X351998Y254501D01*
X349998D01*
X348999Y255501D01*
Y259499D01*
X401502Y259001D02*
Y264999D01*
X404501D01*
X405501Y263999D01*
Y262000D01*
X404501Y261000D01*
X401502D01*
X403502D02*
X405501Y259001D01*
X407501D02*
X409500D01*
X408500D01*
Y264999D01*
X407501Y263999D01*
X412499Y260001D02*
X413498Y259001D01*
X415498D01*
X416498Y260001D01*
Y263999D01*
X415498Y264999D01*
X413498D01*
X412499Y263999D01*
Y263000D01*
X413498Y262000D01*
X416498D01*
X297502Y489501D02*
Y495499D01*
X300501D01*
X301500Y494499D01*
Y492500D01*
X300501Y491500D01*
X297502D01*
X303500Y494499D02*
X304499Y495499D01*
X306499D01*
X307498Y494499D01*
Y493500D01*
X306499Y492500D01*
X307498Y491500D01*
Y490501D01*
X306499Y489501D01*
X304499D01*
X303500Y490501D01*
Y491500D01*
X304499Y492500D01*
X303500Y493500D01*
Y494499D01*
X304499Y492500D02*
X306499D01*
X452502Y229501D02*
Y235499D01*
X455501D01*
X456500Y234499D01*
Y232500D01*
X455501Y231500D01*
X452502D01*
X458500Y235499D02*
X462498D01*
Y234499D01*
X458500Y230501D01*
Y229501D01*
X105002Y324501D02*
Y330499D01*
X108001D01*
X109000Y329499D01*
Y327500D01*
X108001Y326500D01*
X105002D01*
X114998Y330499D02*
X112999Y329499D01*
X111000Y327500D01*
Y325501D01*
X111999Y324501D01*
X113999D01*
X114998Y325501D01*
Y326500D01*
X113999Y327500D01*
X111000D01*
X117502Y460001D02*
Y465999D01*
X120501D01*
X121500Y464999D01*
Y463000D01*
X120501Y462000D01*
X117502D01*
X127498Y465999D02*
X123500D01*
Y463000D01*
X125499Y464000D01*
X126499D01*
X127498Y463000D01*
Y461001D01*
X126499Y460001D01*
X124499D01*
X123500Y461001D01*
X108100Y168400D02*
Y174398D01*
X111099D01*
X112099Y173398D01*
Y171399D01*
X111099Y170399D01*
X108100D01*
X117097Y168400D02*
Y174398D01*
X114098Y171399D01*
X118097D01*
X419501Y228999D02*
X418502Y229999D01*
X416502D01*
X415502Y228999D01*
Y225001D01*
X416502Y224001D01*
X418502D01*
X419501Y225001D01*
X421500Y224001D02*
X423500D01*
X422500D01*
Y229999D01*
X421500Y228999D01*
X426499Y229999D02*
X430498D01*
Y228999D01*
X426499Y225001D01*
Y224001D01*
X218548Y196499D02*
X217549Y197499D01*
X215549D01*
X214550Y196499D01*
Y192501D01*
X215549Y191501D01*
X217549D01*
X218548Y192501D01*
X220548Y191501D02*
X222547D01*
X221547D01*
Y197499D01*
X220548Y196499D01*
X229545Y197499D02*
X227545Y196499D01*
X225546Y194500D01*
Y192501D01*
X226546Y191501D01*
X228545D01*
X229545Y192501D01*
Y193500D01*
X228545Y194500D01*
X225546D01*
X341501Y284499D02*
X340501Y285499D01*
X338502D01*
X337502Y284499D01*
Y280501D01*
X338502Y279501D01*
X340501D01*
X341501Y280501D01*
X343500Y279501D02*
X345500D01*
X344500D01*
Y285499D01*
X343500Y284499D01*
X352498Y285499D02*
X348499D01*
Y282500D01*
X350498Y283500D01*
X351498D01*
X352498Y282500D01*
Y280501D01*
X351498Y279501D01*
X349499D01*
X348499Y280501D01*
X374001Y284499D02*
X373002Y285499D01*
X371002D01*
X370002Y284499D01*
Y280501D01*
X371002Y279501D01*
X373002D01*
X374001Y280501D01*
X376000Y279501D02*
X378000D01*
X377000D01*
Y285499D01*
X376000Y284499D01*
X383998Y279501D02*
Y285499D01*
X380999Y282500D01*
X384998D01*
X311499Y180999D02*
X312499Y181999D01*
Y183998D01*
X311499Y184998D01*
X307501D01*
X306501Y183998D01*
Y181999D01*
X307501Y180999D01*
X306501Y178999D02*
Y177000D01*
Y178000D01*
X312499D01*
X311499Y178999D01*
Y174001D02*
X312499Y173001D01*
Y171002D01*
X311499Y170002D01*
X310500D01*
X309500Y171002D01*
Y172002D01*
Y171002D01*
X308500Y170002D01*
X307501D01*
X306501Y171002D01*
Y173001D01*
X307501Y174001D01*
X274001Y214499D02*
X273002Y215499D01*
X271002D01*
X270002Y214499D01*
Y210501D01*
X271002Y209501D01*
X273002D01*
X274001Y210501D01*
X276000Y209501D02*
X278000D01*
X277000D01*
Y215499D01*
X276000Y214499D01*
X284998Y209501D02*
X280999D01*
X284998Y213500D01*
Y214499D01*
X283998Y215499D01*
X281998D01*
X280999Y214499D01*
X172502Y162001D02*
Y167999D01*
X175502D01*
X176501Y166999D01*
Y165000D01*
X175502Y164000D01*
X172502D01*
X174502D02*
X176501Y162001D01*
X178500D02*
X180500D01*
X179500D01*
Y167999D01*
X178500Y166999D01*
X183499D02*
X184499Y167999D01*
X186498D01*
X187498Y166999D01*
Y166000D01*
X186498Y165000D01*
X187498Y164000D01*
Y163001D01*
X186498Y162001D01*
X184499D01*
X183499Y163001D01*
Y164000D01*
X184499Y165000D01*
X183499Y166000D01*
Y166999D01*
X184499Y165000D02*
X186498D01*
X272502Y224501D02*
Y230499D01*
X275501D01*
X276501Y229499D01*
Y227500D01*
X275501Y226500D01*
X272502D01*
X274502D02*
X276501Y224501D01*
X278501D02*
X280500D01*
X279500D01*
Y230499D01*
X278501Y229499D01*
X283499Y230499D02*
X287498D01*
Y229499D01*
X283499Y225501D01*
Y224501D01*
X177502Y252001D02*
Y257999D01*
X180501D01*
X181501Y256999D01*
Y255000D01*
X180501Y254000D01*
X177502D01*
X179502D02*
X181501Y252001D01*
X183501D02*
X185500D01*
X184500D01*
Y257999D01*
X183501Y256999D01*
X192498Y257999D02*
X190498Y256999D01*
X188499Y255000D01*
Y253001D01*
X189499Y252001D01*
X191498D01*
X192498Y253001D01*
Y254000D01*
X191498Y255000D01*
X188499D01*
X177502Y184501D02*
Y190499D01*
X180501D01*
X181501Y189499D01*
Y187500D01*
X180501Y186500D01*
X177502D01*
X179502D02*
X181501Y184501D01*
X183501D02*
X185500D01*
X184500D01*
Y190499D01*
X183501Y189499D01*
X192498Y190499D02*
X188499D01*
Y187500D01*
X190498Y188500D01*
X191498D01*
X192498Y187500D01*
Y185501D01*
X191498Y184501D01*
X189499D01*
X188499Y185501D01*
X401502Y233501D02*
Y239499D01*
X404501D01*
X405501Y238499D01*
Y236500D01*
X404501Y235500D01*
X401502D01*
X403502D02*
X405501Y233501D01*
X407501D02*
X409500D01*
X408500D01*
Y239499D01*
X407501Y238499D01*
X415498Y233501D02*
Y239499D01*
X412499Y236500D01*
X416498D01*
X177502Y242001D02*
Y247999D01*
X180501D01*
X181501Y246999D01*
Y245000D01*
X180501Y244000D01*
X177502D01*
X179502D02*
X181501Y242001D01*
X183501D02*
X185500D01*
X184500D01*
Y247999D01*
X183501Y246999D01*
X188499D02*
X189499Y247999D01*
X191498D01*
X192498Y246999D01*
Y246000D01*
X191498Y245000D01*
X190498D01*
X191498D01*
X192498Y244000D01*
Y243001D01*
X191498Y242001D01*
X189499D01*
X188499Y243001D01*
X190002Y232001D02*
Y237999D01*
X193001D01*
X194001Y236999D01*
Y235000D01*
X193001Y234000D01*
X190002D01*
X192002D02*
X194001Y232001D01*
X196001D02*
X198000D01*
X197000D01*
Y237999D01*
X196001Y236999D01*
X204998Y232001D02*
X200999D01*
X204998Y236000D01*
Y236999D01*
X203998Y237999D01*
X201999D01*
X200999Y236999D01*
X106001Y470001D02*
Y475999D01*
X109000D01*
X110000Y474999D01*
Y473000D01*
X109000Y472000D01*
X106001D01*
X111999Y470001D02*
X113999D01*
X112999D01*
Y475999D01*
X111999Y474999D01*
X127099Y175898D02*
X126099Y176898D01*
X124100D01*
X123100Y175898D01*
Y171900D01*
X124100Y170900D01*
X126099D01*
X127099Y171900D01*
X133097Y170900D02*
X129098D01*
X133097Y174899D01*
Y175898D01*
X132097Y176898D01*
X130098D01*
X129098Y175898D01*
X135096Y170900D02*
X137095D01*
X136096D01*
Y176898D01*
X135096Y175898D01*
X148501Y176999D02*
X147502Y177999D01*
X145502D01*
X144503Y176999D01*
Y173001D01*
X145502Y172001D01*
X147502D01*
X148501Y173001D01*
X154499Y172001D02*
X150501D01*
X154499Y176000D01*
Y176999D01*
X153500Y177999D01*
X151500D01*
X150501Y176999D01*
X156499D02*
X157498Y177999D01*
X159498D01*
X160497Y176999D01*
Y173001D01*
X159498Y172001D01*
X157498D01*
X156499Y173001D01*
Y176999D01*
X109499Y313498D02*
X107499D01*
X108499D01*
Y308500D01*
X107499Y307500D01*
X106500D01*
X105500Y308500D01*
X111498Y307500D02*
X113497D01*
X112498D01*
Y313498D01*
X111498Y312498D01*
X124599Y248398D02*
X123599Y249398D01*
X121600D01*
X120600Y248398D01*
Y244400D01*
X121600Y243400D01*
X123599D01*
X124599Y244400D01*
X126598Y243400D02*
X128597D01*
X127598D01*
Y249398D01*
X126598Y248398D01*
X131596Y244400D02*
X132596Y243400D01*
X134596D01*
X135595Y244400D01*
Y248398D01*
X134596Y249398D01*
X132596D01*
X131596Y248398D01*
Y247399D01*
X132596Y246399D01*
X135595D01*
X146501Y241999D02*
X145501Y242999D01*
X143502D01*
X142502Y241999D01*
Y238001D01*
X143502Y237001D01*
X145501D01*
X146501Y238001D01*
X148501Y237001D02*
X150500D01*
X149500D01*
Y242999D01*
X148501Y241999D01*
X153499D02*
X154499Y242999D01*
X156498D01*
X157498Y241999D01*
Y241000D01*
X156498Y240000D01*
X157498Y239000D01*
Y238001D01*
X156498Y237001D01*
X154499D01*
X153499Y238001D01*
Y239000D01*
X154499Y240000D01*
X153499Y241000D01*
Y241999D01*
X154499Y240000D02*
X156498D01*
X234501Y120002D02*
X240499D01*
Y123001D01*
X239499Y124000D01*
X235501D01*
X234501Y123001D01*
Y120002D01*
X235501Y126000D02*
X234501Y126999D01*
Y128999D01*
X235501Y129998D01*
X236500D01*
X237500Y128999D01*
Y127999D01*
Y128999D01*
X238500Y129998D01*
X239499D01*
X240499Y128999D01*
Y126999D01*
X239499Y126000D01*
X455002Y128499D02*
Y122501D01*
Y125500D01*
X459000D01*
Y128499D01*
Y122501D01*
X463999D02*
Y128499D01*
X461000Y125500D01*
X464998D01*
X124002Y116999D02*
Y111001D01*
Y114000D01*
X128000D01*
Y116999D01*
Y111001D01*
X130000Y115999D02*
X130999Y116999D01*
X132999D01*
X133998Y115999D01*
Y115000D01*
X132999Y114000D01*
X131999D01*
X132999D01*
X133998Y113000D01*
Y112001D01*
X132999Y111001D01*
X130999D01*
X130000Y112001D01*
X437502Y501499D02*
Y495501D01*
Y498500D01*
X441500D01*
Y501499D01*
Y495501D01*
X447498D02*
X443500D01*
X447498Y499500D01*
Y500499D01*
X446499Y501499D01*
X444499D01*
X443500Y500499D01*
X123501Y496999D02*
Y491001D01*
Y494000D01*
X127500D01*
Y496999D01*
Y491001D01*
X129499D02*
X131499D01*
X130499D01*
Y496999D01*
X129499Y495999D01*
X353501Y197999D02*
Y193001D01*
X354501Y192001D01*
X356500D01*
X357500Y193001D01*
Y197999D01*
X359499Y192001D02*
X361499D01*
X360499D01*
Y197999D01*
X359499Y196999D01*
X158501Y377498D02*
X164499D01*
Y374499D01*
X163499Y373499D01*
X161500D01*
X160500Y374499D01*
Y377498D01*
Y375499D02*
X158501Y373499D01*
Y371500D02*
Y369500D01*
Y370500D01*
X164499D01*
X163499Y371500D01*
X158501Y366501D02*
Y364502D01*
Y365502D01*
X164499D01*
X163499Y366501D01*
X169501Y377498D02*
X175499D01*
Y374499D01*
X174499Y373499D01*
X172500D01*
X171500Y374499D01*
Y377498D01*
Y375498D02*
X169501Y373499D01*
Y371499D02*
Y369500D01*
Y370500D01*
X175499D01*
X174499Y371499D01*
Y366501D02*
X175499Y365501D01*
Y363502D01*
X174499Y362502D01*
X170501D01*
X169501Y363502D01*
Y365501D01*
X170501Y366501D01*
X174499D01*
X287502Y277001D02*
Y282999D01*
X290501D01*
X291500Y281999D01*
Y280000D01*
X290501Y279000D01*
X287502D01*
X289501D02*
X291500Y277001D01*
X293500Y278001D02*
X294499Y277001D01*
X296499D01*
X297498Y278001D01*
Y281999D01*
X296499Y282999D01*
X294499D01*
X293500Y281999D01*
Y281000D01*
X294499Y280000D01*
X297498D01*
X287502Y287001D02*
Y292999D01*
X290501D01*
X291500Y291999D01*
Y290000D01*
X290501Y289000D01*
X287502D01*
X289501D02*
X291500Y287001D01*
X293500Y291999D02*
X294499Y292999D01*
X296499D01*
X297498Y291999D01*
Y291000D01*
X296499Y290000D01*
X297498Y289000D01*
Y288001D01*
X296499Y287001D01*
X294499D01*
X293500Y288001D01*
Y289000D01*
X294499Y290000D01*
X293500Y291000D01*
Y291999D01*
X294499Y290000D02*
X296499D01*
X287502Y297001D02*
Y302999D01*
X290501D01*
X291500Y301999D01*
Y300000D01*
X290501Y299000D01*
X287502D01*
X289501D02*
X291500Y297001D01*
X293500Y302999D02*
X297498D01*
Y301999D01*
X293500Y298001D01*
Y297001D01*
X195002Y270501D02*
Y276499D01*
X198001D01*
X199000Y275499D01*
Y273500D01*
X198001Y272500D01*
X195002D01*
X197001D02*
X199000Y270501D01*
X204998Y276499D02*
X202999Y275499D01*
X201000Y273500D01*
Y271501D01*
X201999Y270501D01*
X203999D01*
X204998Y271501D01*
Y272500D01*
X203999Y273500D01*
X201000D01*
X195002Y301001D02*
Y306999D01*
X198001D01*
X199000Y305999D01*
Y304000D01*
X198001Y303000D01*
X195002D01*
X197001D02*
X199000Y301001D01*
X204998Y306999D02*
X201000D01*
Y304000D01*
X202999Y305000D01*
X203999D01*
X204998Y304000D01*
Y302001D01*
X203999Y301001D01*
X201999D01*
X201000Y302001D01*
X287502Y307001D02*
Y312999D01*
X290501D01*
X291500Y311999D01*
Y310000D01*
X290501Y309000D01*
X287502D01*
X289501D02*
X291500Y307001D01*
X296499D02*
Y312999D01*
X293500Y310000D01*
X297498D01*
X389502Y294501D02*
Y300499D01*
X392501D01*
X393500Y299499D01*
Y297500D01*
X392501Y296500D01*
X389502D01*
X391501D02*
X393500Y294501D01*
X395500Y299499D02*
X396499Y300499D01*
X398499D01*
X399498Y299499D01*
Y298500D01*
X398499Y297500D01*
X397499D01*
X398499D01*
X399498Y296500D01*
Y295501D01*
X398499Y294501D01*
X396499D01*
X395500Y295501D01*
X387502Y321501D02*
Y327499D01*
X390501D01*
X391500Y326499D01*
Y324500D01*
X390501Y323500D01*
X387502D01*
X389501D02*
X391500Y321501D01*
X397498D02*
X393500D01*
X397498Y325500D01*
Y326499D01*
X396499Y327499D01*
X394499D01*
X393500Y326499D01*
X337499Y348501D02*
X331501D01*
Y351500D01*
X332501Y352500D01*
X334500D01*
X335500Y351500D01*
Y348501D01*
Y350501D02*
X337499Y352500D01*
Y354499D02*
Y356499D01*
Y355499D01*
X331501D01*
X332501Y354499D01*
X317000Y295501D02*
Y299499D01*
X316001Y300499D01*
X314001D01*
X313002Y299499D01*
Y295501D01*
X314001Y294501D01*
X316001D01*
X315001Y296500D02*
X317000Y294501D01*
X316001D02*
X317000Y295501D01*
X322998Y300499D02*
X319000D01*
Y297500D01*
X320999Y298500D01*
X321999D01*
X322998Y297500D01*
Y295501D01*
X321999Y294501D01*
X319999D01*
X319000Y295501D01*
X343000Y296001D02*
Y299999D01*
X342001Y300999D01*
X340001D01*
X339002Y299999D01*
Y296001D01*
X340001Y295001D01*
X342001D01*
X341001Y297000D02*
X343000Y295001D01*
X342001D02*
X343000Y296001D01*
X348998Y295001D02*
X345000D01*
X348998Y299000D01*
Y299999D01*
X347999Y300999D01*
X345999D01*
X345000Y299999D01*
X358799Y353500D02*
Y357498D01*
X357799Y358498D01*
X355800D01*
X354800Y357498D01*
Y353500D01*
X355800Y352500D01*
X357799D01*
X356799Y354499D02*
X358799Y352500D01*
X357799D02*
X358799Y353500D01*
X360798Y352500D02*
X362797D01*
X361798D01*
Y358498D01*
X360798Y357498D01*
X107502Y234501D02*
Y240499D01*
X110501D01*
X111500Y239499D01*
Y237500D01*
X110501Y236500D01*
X107502D01*
X113500Y239499D02*
X114499Y240499D01*
X116499D01*
X117498Y239499D01*
Y238500D01*
X116499Y237500D01*
X115499D01*
X116499D01*
X117498Y236500D01*
Y235501D01*
X116499Y234501D01*
X114499D01*
X113500Y235501D01*
X255002Y489501D02*
Y495499D01*
X258001D01*
X259000Y494499D01*
Y492500D01*
X258001Y491500D01*
X255002D01*
X264998Y489501D02*
X261000D01*
X264998Y493500D01*
Y494499D01*
X263999Y495499D01*
X261999D01*
X261000Y494499D01*
X382600Y359898D02*
Y353900D01*
X386599D01*
X392597Y358898D02*
X391597Y359898D01*
X389598D01*
X388598Y358898D01*
Y357899D01*
X389598Y356899D01*
X391597D01*
X392597Y355899D01*
Y354900D01*
X391597Y353900D01*
X389598D01*
X388598Y354900D01*
X394596Y353900D02*
X396596D01*
X395596D01*
Y359898D01*
X394596Y358898D01*
X355001Y159999D02*
Y154001D01*
X359000D01*
X360999D02*
X362999D01*
X361999D01*
Y159999D01*
X360999Y158999D01*
X260503Y416999D02*
X262502D01*
X261503D01*
Y411001D01*
X260503D01*
X262502D01*
X265501D02*
Y416999D01*
X269500Y411001D01*
Y416999D01*
X271499Y411001D02*
Y415000D01*
X273499Y416999D01*
X275498Y415000D01*
Y411001D01*
Y414000D01*
X271499D01*
X277498Y411001D02*
X279497D01*
X278497D01*
Y416999D01*
X277498Y415999D01*
X294484Y347499D02*
X300482D01*
Y350499D01*
X299482Y351498D01*
X295483D01*
X294484Y350499D01*
Y347499D01*
X300482Y357496D02*
Y353498D01*
X296483Y357496D01*
X295483D01*
X294484Y356497D01*
Y354497D01*
X295483Y353498D01*
X312501Y348001D02*
X318499D01*
Y351000D01*
X317499Y352000D01*
X313501D01*
X312501Y351000D01*
Y348001D01*
X318499Y353999D02*
Y355999D01*
Y354999D01*
X312501D01*
X313501Y353999D01*
X383499Y171499D02*
X384499Y172499D01*
Y174498D01*
X383499Y175498D01*
X379501D01*
X378501Y174498D01*
Y172499D01*
X379501Y171499D01*
X378501Y169500D02*
Y167500D01*
Y168500D01*
X384499D01*
X383499Y169500D01*
X378501Y164501D02*
Y162502D01*
Y163502D01*
X384499D01*
X383499Y164501D01*
X336001Y164001D02*
X335001Y163002D01*
Y161002D01*
X336001Y160002D01*
X339999D01*
X340999Y161002D01*
Y163002D01*
X339999Y164001D01*
X340999Y166000D02*
Y168000D01*
Y167000D01*
X335001D01*
X336001Y166000D01*
Y170999D02*
X335001Y171999D01*
Y173998D01*
X336001Y174998D01*
X339999D01*
X340999Y173998D01*
Y171999D01*
X339999Y170999D01*
X336001D01*
X184599Y415898D02*
X183599Y416898D01*
X181600D01*
X180600Y415898D01*
Y411900D01*
X181600Y410900D01*
X183599D01*
X184599Y411900D01*
X186598D02*
X187598Y410900D01*
X189597D01*
X190597Y411900D01*
Y415898D01*
X189597Y416898D01*
X187598D01*
X186598Y415898D01*
Y414899D01*
X187598Y413899D01*
X190597D01*
X351500Y479499D02*
X350501Y480499D01*
X348501D01*
X347502Y479499D01*
Y475501D01*
X348501Y474501D01*
X350501D01*
X351500Y475501D01*
X353500Y480499D02*
X357498D01*
Y479499D01*
X353500Y475501D01*
Y474501D01*
X344000Y456999D02*
X343001Y457999D01*
X341001D01*
X340002Y456999D01*
Y453001D01*
X341001Y452001D01*
X343001D01*
X344000Y453001D01*
X349998Y457999D02*
X347999Y456999D01*
X346000Y455000D01*
Y453001D01*
X346999Y452001D01*
X348999D01*
X349998Y453001D01*
Y454000D01*
X348999Y455000D01*
X346000D01*
X279000Y444499D02*
X278001Y445499D01*
X276001D01*
X275002Y444499D01*
Y440501D01*
X276001Y439501D01*
X278001D01*
X279000Y440501D01*
X284998Y445499D02*
X281000D01*
Y442500D01*
X282999Y443500D01*
X283999D01*
X284998Y442500D01*
Y440501D01*
X283999Y439501D01*
X281999D01*
X281000Y440501D01*
X234000Y306999D02*
X233001Y307999D01*
X231001D01*
X230002Y306999D01*
Y303001D01*
X231001Y302001D01*
X233001D01*
X234000Y303001D01*
X238999Y302001D02*
Y307999D01*
X236000Y305000D01*
X239998D01*
X436500Y341999D02*
X435501Y342999D01*
X433501D01*
X432502Y341999D01*
Y338001D01*
X433501Y337001D01*
X435501D01*
X436500Y338001D01*
X438500Y341999D02*
X439499Y342999D01*
X441499D01*
X442498Y341999D01*
Y341000D01*
X441499Y340000D01*
X440499D01*
X441499D01*
X442498Y339000D01*
Y338001D01*
X441499Y337001D01*
X439499D01*
X438500Y338001D01*
X349000Y406999D02*
X348001Y407999D01*
X346001D01*
X345002Y406999D01*
Y403001D01*
X346001Y402001D01*
X348001D01*
X349000Y403001D01*
X354998Y402001D02*
X351000D01*
X354998Y406000D01*
Y406999D01*
X353999Y407999D01*
X351999D01*
X351000Y406999D01*
X317500Y404499D02*
X316500Y405499D01*
X314501D01*
X313501Y404499D01*
Y400501D01*
X314501Y399501D01*
X316500D01*
X317500Y400501D01*
X319499Y399501D02*
X321499D01*
X320499D01*
Y405499D01*
X319499Y404499D01*
D14*
X306483Y358994D02*
D03*
X325000Y346004D02*
D03*
M02*
