M48
;Layer_Color=9474304
;FILE_FORMAT=2:5
INCH,LZ
;TYPE=PLATED
T01F00S00C0.02756
T02F00S00C0.02800
T03F00S00C0.03110
T04F00S00C0.03346
T05F00S00C0.03543
T06F00S00C0.05000
T07F00S00C0.06650
T08F00S00C0.12500
%
T01
X013Y013
X0398Y0183
Y0213
X03775Y024
Y027
X03575
X03275
X01275Y02325
Y02025
X013Y016
X01875Y037
Y04
X028Y04575
X03725Y04415
Y04715
X03375Y04775
X03075
X028Y04875
T02
X0325Y02105
X0341Y0217
X0343Y0196
X0377
Y0218
X0367Y0226
X0229Y0218
X0157Y04635
T03
X0334Y03025
X03065Y02995
Y03095
Y03195
X0334Y03225
Y03125
X036Y03225
Y03325
Y03425
T04
X033Y02475
X036
X0394Y0245
Y0254
X0424
Y0245
X04085Y03065
X03785
X02825Y031
Y03
Y029
Y028
X02525
Y029
Y03
Y031
X0215Y0295
Y02825
X0185
Y0295
X01975Y0255
Y0245
Y02275
X01875
Y01975
X01975
X01925Y0175
Y0165
X02225
Y0175
X02425Y016
X02525
Y019
X02425
X02375Y02275
Y02375
X02275Y0245
Y0255
X02675Y02375
Y02275
X01725Y03825
X01615
Y04125
X01725
X03425Y03675
Y03375
X03785Y03165
X04085
T05
X01125Y015
X01525
X0424Y0203
Y0213
X04575Y021
Y022
X028Y01975
Y01875
X024Y029
X023
X01525Y0225
Y0215
X01125Y02175
Y02275
Y016
X01525
X011Y03375
Y03475
Y03575
Y03675
Y0383
Y0393
Y0403
Y0413
Y0423
Y0433
Y0443
Y0453
Y0463
X01225Y0453
Y0443
Y0433
Y0423
Y0413
Y0403
Y0393
Y0383
X0204Y0382
Y0372
Y0362
Y0352
Y0342
Y0332
Y0392
Y0402
X0306483Y0366474
Y0338521
X0325Y0338524
Y0366476
X03175Y03825
Y03925
X035
Y03825
X03875Y0345
X03975
X043Y0315
X045
X04595Y0434
Y0444
Y0454
Y0464
X03895
Y0454
Y0444
Y0434
Y0424
X03275Y0455
X03175
Y04925
X03275
X03895Y0474
X02475Y04925
X02375
X02275
X02175
X02075
X01975
X01875
X01775
T06
X025Y012
Y013
T07
X01705Y02875
X01559Y02952
X01475Y02875
X01341Y02952
X01245Y02875
T08
X0112Y0113
X0457Y0112
X04575Y04925
X01125Y049
M30
