G04*
G04 #@! TF.GenerationSoftware,Altium Limited,Altium Designer,26.2.0 (7)*
G04*
G04 Layer_Color=2752767*
%FSLAX25Y25*%
%MOIN*%
G70*
G04*
G04 #@! TF.SameCoordinates,792443EE-4A4A-475B-936D-B76CB5C204F7*
G04*
G04*
G04 #@! TF.FilePolarity,Positive*
G04*
G01*
G75*
%ADD11C,0.00500*%
%ADD55C,0.00667*%
D11*
X123500Y286500D02*
Y285500D01*
X125500D01*
Y286500D01*
X126500D01*
Y288500D01*
X125500D01*
Y289500D01*
X123500D01*
Y288500D01*
X122500D01*
Y286500D01*
X123500D01*
X169500D02*
Y285500D01*
X171500D01*
Y286500D01*
X172500D01*
Y288500D01*
X171500D01*
Y289500D01*
X169500D01*
Y288500D01*
X168500D01*
Y286500D01*
X169500D01*
X146500D02*
Y285500D01*
X148500D01*
Y286500D01*
X149500D01*
Y288500D01*
X148500D01*
Y289500D01*
X146500D01*
Y288500D01*
X145500D01*
Y286500D01*
X146500D01*
X133100Y294200D02*
Y293200D01*
X135100D01*
Y294200D01*
X136100D01*
Y296200D01*
X135100D01*
Y297200D01*
X133100D01*
Y296200D01*
X132100D01*
Y294200D01*
X133100D01*
X154900D02*
Y293200D01*
X156900D01*
Y294200D01*
X157900D01*
Y296200D01*
X156900D01*
Y297200D01*
X154900D01*
Y296200D01*
X153900D01*
Y294200D01*
X154900D01*
X459500Y462000D02*
X457500Y466000D01*
X461500D01*
X459500Y462000D01*
Y452000D02*
X457500Y456000D01*
X461500D01*
X459500Y452000D01*
Y442000D02*
X457500Y446000D01*
X461500D01*
X459500Y442000D01*
Y432000D02*
X457500Y436000D01*
X461500D01*
X459500Y432000D01*
X389500Y472000D02*
X387500Y476000D01*
X391500D01*
X389500Y472000D01*
Y462000D02*
X387500Y466000D01*
X391500D01*
X389500Y462000D01*
Y452000D02*
X387500Y456000D01*
X391500D01*
X389500Y452000D01*
Y442000D02*
X387500Y446000D01*
X391500D01*
X389500Y442000D01*
Y432000D02*
X387500Y436000D01*
X391500D01*
X389500Y432000D01*
Y422000D02*
X387500Y426000D01*
X391500D01*
X389500Y422000D01*
X204000Y380000D02*
X202000Y384000D01*
X206000D01*
X204000Y380000D01*
X187500Y490500D02*
X185500Y494500D01*
X189500D01*
X187500Y490500D01*
X370500Y439500D02*
Y443500D01*
X374500D01*
Y439500D01*
X370500D01*
X317500Y380500D02*
X315500Y384500D01*
X319500D01*
X317500Y380500D01*
X350000D02*
X348000Y384500D01*
X352000D01*
X350000Y380500D01*
X278000Y455500D02*
Y459500D01*
X282000D01*
Y455500D01*
X278000D01*
X317500Y453000D02*
X315500Y457000D01*
X319500D01*
X317500Y453000D01*
X305500Y475500D02*
Y479500D01*
X309500D01*
Y475500D01*
X305500D01*
X280000Y185500D02*
X278000Y189500D01*
X282000D01*
X280000Y185500D01*
X375500Y268000D02*
Y272000D01*
X379500D01*
Y268000D01*
X375500D01*
X355500D02*
Y272000D01*
X359500D01*
Y268000D01*
X355500D01*
X424000Y201000D02*
X422000Y205000D01*
X426000D01*
X424000Y201000D01*
X152500Y213000D02*
X150500Y217000D01*
X154500D01*
X152500Y213000D01*
X125500Y200500D02*
Y204500D01*
X129500D01*
Y200500D01*
X125500D01*
X152500Y148000D02*
X150500Y152000D01*
X154500D01*
X152500Y148000D01*
X128000Y128000D02*
Y132000D01*
X132000D01*
Y128000D01*
X128000D01*
X396000Y181000D02*
Y185000D01*
X400000D01*
Y181000D01*
X396000D01*
X248000Y118000D02*
X249000Y120000D01*
X248000Y122000D01*
X250000Y121000D01*
X252000Y122000D01*
X251000Y120000D01*
X252000Y118000D01*
X250000Y119000D01*
X248000Y118000D01*
X204000Y330000D02*
X202000Y334000D01*
X206000D01*
X204000Y330000D01*
X387500Y343000D02*
X385500Y347000D01*
X389500D01*
X387500Y343000D01*
X237500Y490500D02*
X235500Y494500D01*
X239500D01*
X237500Y490500D01*
X112500Y215500D02*
X110500Y219500D01*
X114500D01*
X112500Y215500D01*
Y148000D02*
X110500Y152000D01*
X114500D01*
X112500Y148000D01*
X457500Y208000D02*
X455500Y212000D01*
X459500D01*
X457500Y208000D01*
X317500Y490500D02*
X315500Y494500D01*
X319500D01*
X317500Y490500D01*
X332000Y300500D02*
X333000D01*
X334000Y301500D01*
X335000Y300500D01*
X336000D01*
Y301500D01*
X335000Y302500D01*
X336000Y303500D01*
Y304500D01*
X335000D01*
X334000Y303500D01*
X333000Y304500D01*
X332000D01*
Y303500D01*
X333000Y302500D01*
X332000Y301500D01*
Y300500D01*
X304500Y297500D02*
X305500D01*
X306500Y298500D01*
X307500Y297500D01*
X308500D01*
Y298500D01*
X307500Y299500D01*
X308500Y300500D01*
Y301500D01*
X307500D01*
X306500Y300500D01*
X305500Y301500D01*
X304500D01*
Y300500D01*
X305500Y299500D01*
X304500Y298500D01*
Y297500D01*
X278000Y485500D02*
Y489500D01*
X282000D01*
Y485500D01*
X278000D01*
X370500Y469500D02*
Y473500D01*
X374500D01*
Y469500D01*
X370500D01*
X247500Y490500D02*
X245500Y494500D01*
X249500D01*
X247500Y490500D01*
X110000Y461000D02*
X108000Y465000D01*
X112000D01*
X110000Y461000D01*
X204000Y400000D02*
X202000Y404000D01*
X206000D01*
X204000Y400000D01*
X185500Y398000D02*
Y402000D01*
X189500D01*
Y398000D01*
X185500D01*
X177500Y490500D02*
X175500Y494500D01*
X179500D01*
X177500Y490500D01*
X204000Y370000D02*
X202000Y374000D01*
X206000D01*
X204000Y370000D01*
X304500Y317500D02*
X305500D01*
X306500Y318500D01*
X307500Y317500D01*
X308500D01*
Y318500D01*
X307500Y319500D01*
X308500Y320500D01*
Y321500D01*
X307500D01*
X306500Y320500D01*
X305500Y321500D01*
X304500D01*
Y320500D01*
X305500Y319500D01*
X304500Y318500D01*
Y317500D01*
Y307500D02*
X305500D01*
X306500Y308500D01*
X307500Y307500D01*
X308500D01*
Y308500D01*
X307500Y309500D01*
X308500Y310500D01*
Y311500D01*
X307500D01*
X306500Y310500D01*
X305500Y311500D01*
X304500D01*
Y310500D01*
X305500Y309500D01*
X304500Y308500D01*
Y307500D01*
X332000Y320500D02*
X333000D01*
X334000Y321500D01*
X335000Y320500D01*
X336000D01*
Y321500D01*
X335000Y322500D01*
X336000Y323500D01*
Y324500D01*
X335000D01*
X334000Y323500D01*
X333000Y324500D01*
X332000D01*
Y323500D01*
X333000Y322500D01*
X332000Y321500D01*
Y320500D01*
Y310500D02*
X333000D01*
X334000Y311500D01*
X335000Y310500D01*
X336000D01*
Y311500D01*
X335000Y312500D01*
X336000Y313500D01*
Y314500D01*
X335000D01*
X334000Y313500D01*
X333000Y314500D01*
X332000D01*
Y313500D01*
X333000Y312500D01*
X332000Y311500D01*
Y310500D01*
X358000Y320500D02*
X359000D01*
X360000Y321500D01*
X361000Y320500D01*
X362000D01*
Y321500D01*
X361000Y322500D01*
X362000Y323500D01*
Y324500D01*
X361000D01*
X360000Y323500D01*
X359000Y324500D01*
X358000D01*
Y323500D01*
X359000Y322500D01*
X358000Y321500D01*
Y320500D01*
Y340500D02*
X359000D01*
X360000Y341500D01*
X361000Y340500D01*
X362000D01*
Y341500D01*
X361000Y342500D01*
X362000Y343500D01*
Y344500D01*
X361000D01*
X360000Y343500D01*
X359000Y344500D01*
X358000D01*
Y343500D01*
X359000Y342500D01*
X358000Y341500D01*
Y340500D01*
Y330500D02*
X359000D01*
X360000Y331500D01*
X361000Y330500D01*
X362000D01*
Y331500D01*
X361000Y332500D01*
X362000Y333500D01*
Y334500D01*
X361000D01*
X360000Y333500D01*
X359000Y334500D01*
X358000D01*
Y333500D01*
X359000Y332500D01*
X358000Y331500D01*
Y330500D01*
X327500Y490500D02*
X325500Y494500D01*
X329500D01*
X327500Y490500D01*
X457500Y218000D02*
X455500Y222000D01*
X459500D01*
X457500Y218000D01*
X110000Y365500D02*
X108000Y369500D01*
X112000D01*
X110000Y365500D01*
Y355500D02*
X108000Y359500D01*
X112000D01*
X110000Y355500D01*
Y345500D02*
X108000Y349500D01*
X112000D01*
X110000Y345500D01*
Y335500D02*
X108000Y339500D01*
X112000D01*
X110000Y335500D01*
X122500Y381000D02*
X120500Y385000D01*
X124500D01*
X122500Y381000D01*
Y391000D02*
X120500Y395000D01*
X124500D01*
X122500Y391000D01*
Y401000D02*
X120500Y405000D01*
X124500D01*
X122500Y401000D01*
Y411000D02*
X120500Y415000D01*
X124500D01*
X122500Y411000D01*
Y421000D02*
X120500Y425000D01*
X124500D01*
X122500Y421000D01*
Y431000D02*
X120500Y435000D01*
X124500D01*
X122500Y431000D01*
Y441000D02*
X120500Y445000D01*
X124500D01*
X122500Y441000D01*
Y451000D02*
X120500Y455000D01*
X124500D01*
X122500Y451000D01*
X112500Y158000D02*
X110500Y162000D01*
X114500D01*
X112500Y158000D01*
Y225500D02*
X110500Y229500D01*
X114500D01*
X112500Y225500D01*
X227500Y490500D02*
X225500Y494500D01*
X229500D01*
X227500Y490500D01*
X217500D02*
X215500Y494500D01*
X219500D01*
X217500Y490500D01*
X207500D02*
X205500Y494500D01*
X209500D01*
X207500Y490500D01*
X197500D02*
X195500Y494500D01*
X199500D01*
X197500Y490500D01*
X110000Y381000D02*
X108000Y385000D01*
X112000D01*
X110000Y381000D01*
Y401000D02*
X108000Y405000D01*
X112000D01*
X110000Y401000D01*
Y411000D02*
X108000Y415000D01*
X112000D01*
X110000Y411000D01*
Y421000D02*
X108000Y425000D01*
X112000D01*
X110000Y421000D01*
Y431000D02*
X108000Y435000D01*
X112000D01*
X110000Y431000D01*
Y441000D02*
X108000Y445000D01*
X112000D01*
X110000Y441000D01*
Y451000D02*
X108000Y455000D01*
X112000D01*
X110000Y451000D01*
Y391000D02*
X108000Y395000D01*
X112000D01*
X110000Y391000D01*
X397500Y343000D02*
X395500Y347000D01*
X399500D01*
X397500Y343000D01*
X204000Y390000D02*
X202000Y394000D01*
X206000D01*
X204000Y390000D01*
Y360000D02*
X202000Y364000D01*
X206000D01*
X204000Y360000D01*
Y350000D02*
X202000Y354000D01*
X206000D01*
X204000Y350000D01*
Y340000D02*
X202000Y344000D01*
X206000D01*
X204000Y340000D01*
X455000Y112000D02*
X457000Y114000D01*
X459000Y112000D01*
X457000Y110000D01*
X455000Y112000D01*
X110000Y113000D02*
X112000Y115000D01*
X114000Y113000D01*
X112000Y111000D01*
X110000Y113000D01*
X455500Y492500D02*
X457500Y494500D01*
X459500Y492500D01*
X457500Y490500D01*
X455500Y492500D01*
X110500Y490000D02*
X112500Y492000D01*
X114500Y490000D01*
X112500Y488000D01*
X110500Y490000D01*
X248000Y128000D02*
X249000Y130000D01*
X248000Y132000D01*
X250000Y131000D01*
X252000Y132000D01*
X251000Y130000D01*
X252000Y128000D01*
X250000Y129000D01*
X248000Y128000D01*
X306483Y364474D02*
X304483Y368474D01*
X308483D01*
X306483Y364474D01*
Y336521D02*
X304483Y340521D01*
X308483D01*
X306483Y336521D01*
X325000Y336524D02*
X323000Y340524D01*
X327000D01*
X325000Y336524D01*
Y364476D02*
X323000Y368476D01*
X327000D01*
X325000Y364476D01*
X396000Y211000D02*
Y215000D01*
X400000D01*
Y211000D01*
X396000D01*
X128000Y158000D02*
Y162000D01*
X132000D01*
Y158000D01*
X128000D01*
X152500D02*
X150500Y162000D01*
X154500D01*
X152500Y158000D01*
X125500Y230500D02*
Y234500D01*
X129500D01*
Y230500D01*
X125500D01*
X152500Y223000D02*
X150500Y227000D01*
X154500D01*
X152500Y223000D01*
X424000Y211000D02*
X422000Y215000D01*
X426000D01*
X424000Y211000D01*
X325500Y268000D02*
Y272000D01*
X329500D01*
Y268000D01*
X325500D01*
X375500Y238000D02*
Y242000D01*
X379500D01*
Y238000D01*
X375500D01*
X280000Y195500D02*
X278000Y199500D01*
X282000D01*
X280000Y195500D01*
X185500Y368000D02*
Y372000D01*
X189500D01*
Y368000D01*
X185500D01*
X335500Y475500D02*
Y479500D01*
X339500D01*
Y475500D01*
X335500D01*
X327500Y453000D02*
X325500Y457000D01*
X329500D01*
X327500Y453000D01*
X230000Y288000D02*
X228000Y292000D01*
X232000D01*
X230000Y288000D01*
X240000D02*
X238000Y292000D01*
X242000D01*
X240000Y288000D01*
X430000Y313000D02*
X428000Y317000D01*
X432000D01*
X430000Y313000D01*
X450000D02*
X448000Y317000D01*
X452000D01*
X450000Y313000D01*
X350000Y390500D02*
X348000Y394500D01*
X352000D01*
X350000Y390500D01*
X317500D02*
X315500Y394500D01*
X319500D01*
X317500Y390500D01*
X157000Y461500D02*
X158000Y462500D01*
X159000D01*
X158000Y463500D01*
X159000Y464500D01*
X158000D01*
X157000Y465500D01*
X156000Y464500D01*
X155000D01*
X156000Y463500D01*
X155000Y462500D01*
X156000D01*
X157000Y461500D01*
X325000Y208500D02*
X326000Y209500D01*
X327000D01*
X326000Y210500D01*
X327000Y211500D01*
X326000D01*
X325000Y212500D01*
X324000Y211500D01*
X323000D01*
X324000Y210500D01*
X323000Y209500D01*
X324000D01*
X325000Y208500D01*
X367000Y224000D02*
X368000Y225000D01*
X369000D01*
X368000Y226000D01*
X369000Y227000D01*
X368000D01*
X367000Y228000D01*
X366000Y227000D01*
X365000D01*
X366000Y226000D01*
X365000Y225000D01*
X366000D01*
X367000Y224000D01*
X377000Y194000D02*
X378000Y195000D01*
X379000D01*
X378000Y196000D01*
X379000Y197000D01*
X378000D01*
X377000Y198000D01*
X376000Y197000D01*
X375000D01*
X376000Y196000D01*
X375000Y195000D01*
X376000D01*
X377000Y194000D01*
Y216000D02*
X378000Y217000D01*
X379000D01*
X378000Y218000D01*
X379000Y219000D01*
X378000D01*
X377000Y220000D01*
X376000Y219000D01*
X375000D01*
X376000Y218000D01*
X375000Y217000D01*
X376000D01*
X377000Y216000D01*
X343000Y194000D02*
X344000Y195000D01*
X345000D01*
X344000Y196000D01*
X345000Y197000D01*
X344000D01*
X343000Y198000D01*
X342000Y197000D01*
X341000D01*
X342000Y196000D01*
X341000Y195000D01*
X342000D01*
X343000Y194000D01*
X341000Y215000D02*
X342000Y216000D01*
X343000D01*
X342000Y217000D01*
X343000Y218000D01*
X342000D01*
X341000Y219000D01*
X340000Y218000D01*
X339000D01*
X340000Y217000D01*
X339000Y216000D01*
X340000D01*
X341000Y215000D01*
X229000Y216000D02*
X230000Y217000D01*
X231000D01*
X230000Y218000D01*
X231000Y219000D01*
X230000D01*
X229000Y220000D01*
X228000Y219000D01*
X227000D01*
X228000Y218000D01*
X227000Y217000D01*
X228000D01*
X229000Y216000D01*
D55*
X187000Y282500D02*
G03*
X187000Y282500I-2000J0D01*
G01*
X284500Y280000D02*
G03*
X284500Y280000I-2000J0D01*
G01*
X189500Y197500D02*
G03*
X189500Y197500I-2000J0D01*
G01*
X199500Y255000D02*
G03*
X199500Y255000I-2000J0D01*
G01*
X426000Y254000D02*
G03*
X426000Y254000I-2000J0D01*
G01*
X269500Y237500D02*
G03*
X269500Y237500I-2000J0D01*
G01*
X194500Y175000D02*
G03*
X194500Y175000I-2000J0D01*
G01*
X254500Y160000D02*
G03*
X254500Y160000I-2000J0D01*
G01*
X174500Y412500D02*
G03*
X174500Y412500I-2000J0D01*
G01*
X163500D02*
G03*
X163500Y412500I-2000J0D01*
G01*
X254500Y190000D02*
G03*
X254500Y190000I-2000J0D01*
G01*
X224500Y175000D02*
G03*
X224500Y175000I-2000J0D01*
G01*
X244500Y160000D02*
G03*
X244500Y160000I-2000J0D01*
G01*
Y190000D02*
G03*
X244500Y190000I-2000J0D01*
G01*
X239500Y237500D02*
G03*
X239500Y237500I-2000J0D01*
G01*
X362000Y247500D02*
G03*
X362000Y247500I-2000J0D01*
G01*
X332000D02*
G03*
X332000Y247500I-2000J0D01*
G01*
X396000Y254000D02*
G03*
X396000Y254000I-2000J0D01*
G01*
X194500Y165000D02*
G03*
X194500Y165000I-2000J0D01*
G01*
X224500D02*
G03*
X224500Y165000I-2000J0D01*
G01*
X269500Y227500D02*
G03*
X269500Y227500I-2000J0D01*
G01*
X239500D02*
G03*
X239500Y227500I-2000J0D01*
G01*
X229500Y255000D02*
G03*
X229500Y255000I-2000J0D01*
G01*
X189500Y227500D02*
G03*
X189500Y227500I-2000J0D01*
G01*
X426000Y245000D02*
G03*
X426000Y245000I-2000J0D01*
G01*
X396000D02*
G03*
X396000Y245000I-2000J0D01*
G01*
X199500D02*
G03*
X199500Y245000I-2000J0D01*
G01*
X229500D02*
G03*
X229500Y245000I-2000J0D01*
G01*
X199500Y197500D02*
G03*
X199500Y197500I-2000J0D01*
G01*
Y227500D02*
G03*
X199500Y227500I-2000J0D01*
G01*
X163500Y382500D02*
G03*
X163500Y382500I-2000J0D01*
G01*
X174500D02*
G03*
X174500Y382500I-2000J0D01*
G01*
X254500Y280000D02*
G03*
X254500Y280000I-2000J0D01*
G01*
X284500Y290000D02*
G03*
X284500Y290000I-2000J0D01*
G01*
X254500D02*
G03*
X254500Y290000I-2000J0D01*
G01*
Y300000D02*
G03*
X254500Y300000I-2000J0D01*
G01*
X284500D02*
G03*
X284500Y300000I-2000J0D01*
G01*
X217000Y282500D02*
G03*
X217000Y282500I-2000J0D01*
G01*
Y295000D02*
G03*
X217000Y295000I-2000J0D01*
G01*
X187000D02*
G03*
X187000Y295000I-2000J0D01*
G01*
X254500Y310000D02*
G03*
X254500Y310000I-2000J0D01*
G01*
X284500D02*
G03*
X284500Y310000I-2000J0D01*
G01*
X380500Y306500D02*
G03*
X380500Y306500I-2000J0D01*
G01*
X410500D02*
G03*
X410500Y306500I-2000J0D01*
G01*
X380500Y316500D02*
G03*
X380500Y316500I-2000J0D01*
G01*
X410500D02*
G03*
X410500Y316500I-2000J0D01*
G01*
X344500Y337500D02*
G03*
X344500Y337500I-2000J0D01*
G01*
Y367500D02*
G03*
X344500Y367500I-2000J0D01*
G01*
M02*
