G04*
G04 #@! TF.GenerationSoftware,Altium Limited,Altium Designer,26.2.0 (7)*
G04*
G04 Layer_Color=12632256*
%FSLAX25Y25*%
%MOIN*%
G70*
G04*
G04 #@! TF.SameCoordinates,792443EE-4A4A-475B-936D-B76CB5C204F7*
G04*
G04*
G04 #@! TF.FilePolarity,Positive*
G04*
G01*
G75*
%ADD39C,0.10000*%
%ADD40C,0.10650*%
%ADD41C,0.05906*%
%ADD42R,0.05906X0.05906*%
%ADD43C,0.04724*%
%ADD44C,0.07000*%
%ADD45C,0.05110*%
%ADD46C,0.05512*%
%ADD47R,0.05906X0.05906*%
%ADD48C,0.16500*%
D39*
X124500Y287500D02*
D03*
X147500D02*
D03*
X134100Y295200D02*
D03*
X155900D02*
D03*
D40*
X170500Y287500D02*
D03*
D41*
X459500Y464000D02*
D03*
Y454000D02*
D03*
Y444000D02*
D03*
Y434000D02*
D03*
X389500Y464000D02*
D03*
Y454000D02*
D03*
Y444000D02*
D03*
Y434000D02*
D03*
Y424000D02*
D03*
X204000Y382000D02*
D03*
X187500Y492500D02*
D03*
X317500Y382500D02*
D03*
X350000D02*
D03*
X317500Y455000D02*
D03*
X280000Y187500D02*
D03*
X424000Y203000D02*
D03*
X152500Y215000D02*
D03*
Y150000D02*
D03*
X204000Y332000D02*
D03*
X387500Y345000D02*
D03*
X237500Y492500D02*
D03*
X112500Y217500D02*
D03*
Y150000D02*
D03*
X457500Y210000D02*
D03*
X317500Y492500D02*
D03*
X110000Y463000D02*
D03*
X177500Y492500D02*
D03*
X204000Y372000D02*
D03*
X110000Y367500D02*
D03*
Y357500D02*
D03*
Y347500D02*
D03*
X122500Y393000D02*
D03*
Y403000D02*
D03*
Y413000D02*
D03*
Y423000D02*
D03*
Y433000D02*
D03*
Y443000D02*
D03*
Y453000D02*
D03*
X227500Y492500D02*
D03*
X217500D02*
D03*
X207500D02*
D03*
X197500D02*
D03*
X110000Y403000D02*
D03*
Y413000D02*
D03*
Y423000D02*
D03*
Y433000D02*
D03*
Y443000D02*
D03*
Y453000D02*
D03*
Y393000D02*
D03*
X204000Y392000D02*
D03*
Y362000D02*
D03*
Y352000D02*
D03*
Y342000D02*
D03*
X306483Y338521D02*
D03*
X325000Y366476D02*
D03*
X152500Y160000D02*
D03*
Y225000D02*
D03*
X424000Y213000D02*
D03*
X280000Y197500D02*
D03*
X327500Y455000D02*
D03*
X230000Y290000D02*
D03*
X240000D02*
D03*
X430000Y315000D02*
D03*
X450000D02*
D03*
X350000Y392500D02*
D03*
X317500D02*
D03*
D42*
X389500Y474000D02*
D03*
X204000Y402000D02*
D03*
X457500Y220000D02*
D03*
X110000Y337500D02*
D03*
X122500Y383000D02*
D03*
X112500Y160000D02*
D03*
Y227500D02*
D03*
X110000Y383000D02*
D03*
X306483Y366474D02*
D03*
X325000Y338524D02*
D03*
D43*
X372500Y441500D02*
D03*
X280000Y457500D02*
D03*
X307500Y477500D02*
D03*
X377500Y270000D02*
D03*
X357500D02*
D03*
X127500Y202500D02*
D03*
X130000Y130000D02*
D03*
X398000Y183000D02*
D03*
X280000Y487500D02*
D03*
X372500Y471500D02*
D03*
X187500Y400000D02*
D03*
X398000Y213000D02*
D03*
X130000Y160000D02*
D03*
X127500Y232500D02*
D03*
X327500Y270000D02*
D03*
X377500Y240000D02*
D03*
X187500Y370000D02*
D03*
X337500Y477500D02*
D03*
D44*
X250000Y120000D02*
D03*
Y130000D02*
D03*
D45*
X334000Y302500D02*
D03*
X306500Y299500D02*
D03*
Y319500D02*
D03*
Y309500D02*
D03*
X334000Y322500D02*
D03*
Y312500D02*
D03*
X360000Y322500D02*
D03*
Y342500D02*
D03*
Y332500D02*
D03*
D46*
X185000Y282500D02*
D03*
X282500Y280000D02*
D03*
X187500Y197500D02*
D03*
X197500Y255000D02*
D03*
X424000Y254000D02*
D03*
X267500Y237500D02*
D03*
X192500Y175000D02*
D03*
X252500Y160000D02*
D03*
X172500Y412500D02*
D03*
X161500D02*
D03*
X252500Y190000D02*
D03*
X222500Y175000D02*
D03*
X242500Y160000D02*
D03*
Y190000D02*
D03*
X237500Y237500D02*
D03*
X360000Y247500D02*
D03*
X330000D02*
D03*
X394000Y254000D02*
D03*
X192500Y165000D02*
D03*
X222500D02*
D03*
X267500Y227500D02*
D03*
X237500D02*
D03*
X227500Y255000D02*
D03*
X187500Y227500D02*
D03*
X424000Y245000D02*
D03*
X394000D02*
D03*
X197500D02*
D03*
X227500D02*
D03*
X197500Y197500D02*
D03*
Y227500D02*
D03*
X161500Y382500D02*
D03*
X172500D02*
D03*
X252500Y280000D02*
D03*
X282500Y290000D02*
D03*
X252500D02*
D03*
Y300000D02*
D03*
X282500D02*
D03*
X215000Y282500D02*
D03*
Y295000D02*
D03*
X185000D02*
D03*
X252500Y310000D02*
D03*
X282500D02*
D03*
X378500Y306500D02*
D03*
X408500D02*
D03*
X378500Y316500D02*
D03*
X408500D02*
D03*
X342500Y337500D02*
D03*
Y367500D02*
D03*
D47*
X247500Y492500D02*
D03*
X327500D02*
D03*
X397500Y345000D02*
D03*
D48*
X457000Y112000D02*
D03*
X112000Y113000D02*
D03*
X457500Y492500D02*
D03*
X112500Y490000D02*
D03*
M02*
