G04*
G04 #@! TF.GenerationSoftware,Altium Limited,Altium Designer,26.2.0 (7)*
G04*
G04 Layer_Color=32768*
%FSLAX25Y25*%
%MOIN*%
G70*
G04*
G04 #@! TF.SameCoordinates,792443EE-4A4A-475B-936D-B76CB5C204F7*
G04*
G04*
G04 #@! TF.FilePolarity,Positive*
G04*
G01*
G75*
%ADD52C,0.00394*%
%ADD53C,0.00197*%
%ADD54C,0.00600*%
G36*
X347081Y214110D02*
Y211126D01*
X348278D01*
Y210961D01*
X347081D01*
Y207024D01*
D01*
Y202465D01*
X348278D01*
Y201004D01*
X349049D01*
Y199807D01*
X355281D01*
D01*
X360400D01*
D01*
X366207D01*
Y201004D01*
X366978D01*
Y202465D01*
X368175D01*
Y206008D01*
X368175D01*
Y210961D01*
X366978D01*
Y211126D01*
X368175D01*
Y214110D01*
X368175D01*
Y216276D01*
D01*
Y219032D01*
X366978D01*
Y219704D01*
X366305D01*
Y220902D01*
X362927D01*
D01*
X352329D01*
X348951D01*
Y219704D01*
X348278D01*
Y219032D01*
X347081D01*
Y214110D01*
D01*
D02*
G37*
D52*
X342500Y225532D02*
Y229468D01*
X340531Y227500D02*
X344468D01*
X336988Y224350D02*
X348012D01*
X336988Y230650D02*
X348012D01*
Y224350D02*
Y230650D01*
X336988Y224350D02*
Y230650D01*
X222547Y184531D02*
Y188469D01*
X220579Y186500D02*
X224516D01*
X217035Y183350D02*
X228059D01*
X217035Y189650D02*
X228059D01*
Y183350D02*
Y189650D01*
X217035Y183350D02*
Y189650D01*
X308032Y194000D02*
X311968D01*
X310000Y192032D02*
Y195968D01*
X313150Y188488D02*
Y199512D01*
X306850Y188488D02*
Y199512D01*
X313150D01*
X306850Y188488D02*
X313150D01*
X377031Y185047D02*
X380968D01*
X379000Y183079D02*
Y187016D01*
X382150Y179535D02*
Y190559D01*
X375850Y179535D02*
Y190559D01*
X382150D01*
X375850Y179535D02*
X382150D01*
X338032Y184047D02*
X341968D01*
X340000Y182079D02*
Y186016D01*
X336850Y178535D02*
Y189559D01*
X343150Y178535D02*
Y189559D01*
X336850Y178535D02*
X343150D01*
X336850Y189559D02*
X343150D01*
X322031Y194000D02*
X325969D01*
X324000Y192032D02*
Y195968D01*
X327150Y188488D02*
Y199512D01*
X320850Y188488D02*
Y199512D01*
X327150D01*
X320850Y188488D02*
X327150D01*
D53*
X221634Y202185D02*
Y215571D01*
X210216Y202185D02*
X221634D01*
X210216D02*
Y215571D01*
X221634D01*
X300398Y323039D02*
X316539D01*
X300398Y295961D02*
Y323039D01*
Y295961D02*
X316539D01*
Y323039D01*
X323961Y298961D02*
X340102D01*
Y326039D01*
X323961D02*
X340102D01*
X323961Y298961D02*
Y326039D01*
X353898Y346039D02*
X370039D01*
X353898Y318961D02*
Y346039D01*
Y318961D02*
X370039D01*
Y346039D01*
D54*
X347081Y214110D02*
Y219032D01*
X348278D01*
Y219704D01*
X348951D01*
Y220902D01*
X352329D01*
X362927D01*
X366305D01*
Y219704D02*
Y220902D01*
Y219704D02*
X366978D01*
Y219032D02*
Y219704D01*
Y219032D02*
X368175D01*
Y216276D02*
Y219032D01*
Y214110D02*
Y216276D01*
Y214110D02*
X368175D01*
Y211126D02*
Y214110D01*
X366978Y211126D02*
X368175D01*
X366978Y210961D02*
Y211126D01*
Y210961D02*
X368175D01*
Y206008D02*
Y210961D01*
X368175Y206008D02*
X368175D01*
X368175Y202465D02*
Y206008D01*
X366978Y202465D02*
X368175D01*
X366978Y201004D02*
Y202465D01*
X366207Y201004D02*
X366978D01*
X366207Y199807D02*
Y201004D01*
X360400Y199807D02*
X366207D01*
X355281D02*
X360400D01*
X349049D02*
X355281D01*
X349049D02*
Y201004D01*
X348278D02*
X349049D01*
X348278D02*
Y202465D01*
X347081D02*
X348278D01*
X347081D02*
Y207024D01*
Y210961D01*
X348278D01*
Y211126D01*
X347081D02*
X348278D01*
X347081D02*
Y214110D01*
M02*
