M48
;Layer_Color=9474304
;FILE_FORMAT=2:5
INCH,LZ
;TYPE=PLATED
T01F00S00C0.02756
T02F00S00C0.02800
T03F00S00C0.03346
T04F00S00C0.03500
T05F00S00C0.03543
T06F00S00C0.03900
T08F00S00C0.04300
T09F00S00C0.05236
T10F00S00C0.06693
T11F00S00C0.12500
%
T01
X0288Y0122
Y0152
X0328Y0138
X0447Y0146
X0493
Y0176
X0505Y0217
X0475
X0447Y0176
X0328Y0168
X0154Y0173
X0144
X0134
T02
X0288Y0178
X0212Y03
X0202Y0339
X0333Y0342
X0343Y0352
X0348Y0367
X0318Y0364
X0313Y0395
X0354
X0397Y0396
Y0405
X0381Y0423
X038Y037
X0392Y0354
X0355Y0339
X0493Y0349
T03
X0323Y01965
X0353
X03075
X02775
X0294Y0236
Y0266
Y0276
Y0306
X0298Y034
X02855
Y037
X0298
Y04
Y043
T04
X0476Y0236
X0486
X0496
X0506
Y0306
X0496
X0486
X0476
X0466
X0456
X0446
X0436
X0426
X0416
X0406
X0396
X0386
X0376
X0366
X0356
X0346
X0336
X0326
X0316
Y0236
X0326
X0336
X0346
X0356
X0366
X0376
X0386
X0396
X0406
X0416
X0426
X0436
X0446
X0456
X0466
T05
X0393Y0176
X0423
X0156Y0353
X0146
X0113Y0409
Y0419
X0166Y0353
X0176
X0186
X0196
X0206
X0332024Y0328
X0359976
X04045Y03775
Y03875
X0358476Y04415
X0330524
X0507Y0385
Y0375
T06
X0205Y016
Y0177717
X0230591
Y016
T08
X03459Y01423
X03593
X03727
X0366Y0159
X03526
T09
X0443Y035
Y036
Y037
Y0405
Y0415
Y0425
X0475
Y0415
Y0405
Y037
Y036
Y035
T10
X0334913Y0117
X0409087
T11
X0113Y0114
X0511Y0113
X0113Y0442
X0511
M30
