G04*
G04 #@! TF.GenerationSoftware,Altium Limited,Altium Designer,26.2.0 (7)*
G04*
G04 Layer_Color=16711935*
%FSLAX25Y25*%
%MOIN*%
G70*
G04*
G04 #@! TF.SameCoordinates,91D6BAE1-DD8B-4561-93EF-FE8846470966*
G04*
G04*
G04 #@! TF.FilePolarity,Positive*
G04*
G01*
G75*
%ADD11C,0.00787*%
%ADD14C,0.00600*%
%ADD15C,0.00500*%
%ADD69C,0.00100*%
%ADD70C,0.00394*%
%ADD71C,0.00300*%
D11*
X475394Y382953D02*
G03*
X475394Y382953I-394J0D01*
G01*
X443394D02*
G03*
X443394Y382953I-394J0D01*
G01*
X475394Y437953D02*
G03*
X475394Y437953I-394J0D01*
G01*
X443394D02*
G03*
X443394Y437953I-394J0D01*
G01*
D14*
X345900Y141300D02*
Y143300D01*
X344900Y142300D02*
X346900D01*
D15*
X234300Y393578D02*
X269717D01*
Y450315D01*
X234300D02*
X269717D01*
X234300Y393578D02*
Y450315D01*
X469183Y380000D02*
X485699D01*
X469183Y340000D02*
Y380000D01*
Y340000D02*
X485699D01*
Y380000D01*
X437183D02*
X453699D01*
X437183Y340000D02*
Y380000D01*
Y340000D02*
X453699D01*
Y380000D01*
X469183Y435000D02*
X485699D01*
X469183Y395000D02*
Y435000D01*
Y395000D02*
X485699D01*
Y435000D01*
X437183D02*
X453699D01*
X437183Y395000D02*
Y435000D01*
Y395000D02*
X453699D01*
Y435000D01*
D69*
X341350Y142300D02*
G03*
X341350Y142300I-800J0D01*
G01*
X216595Y180658D02*
G03*
X218995Y180658I1200J0D01*
G01*
X345304Y413091D02*
G03*
X347704Y413091I1200J0D01*
G01*
X338550Y135050D02*
Y153550D01*
X380050D01*
Y135050D02*
Y153550D01*
X338550Y135050D02*
X380050D01*
X205995Y175767D02*
Y179666D01*
X203050D02*
X205995D01*
X203050Y175767D02*
Y179666D01*
Y175767D02*
X205995D01*
Y158050D02*
Y161950D01*
X203050D02*
X205995D01*
X203050Y158050D02*
Y161950D01*
Y158050D02*
X205995D01*
X229595D02*
Y161950D01*
Y158050D02*
X232541D01*
Y161950D01*
X229595D02*
X232541D01*
X229595Y175767D02*
Y179666D01*
Y175767D02*
X232541D01*
Y179666D01*
X229595D02*
X232541D01*
X205995Y157058D02*
X229595D01*
Y180658D01*
X205995D02*
X229595D01*
X205995Y157058D02*
Y180658D01*
X331543Y361910D02*
X361465D01*
Y413091D01*
X331543D02*
X361465D01*
X331543Y361910D02*
Y413091D01*
D70*
X341669Y424146D02*
X350331D01*
X341669Y429854D02*
X350331D01*
Y424146D02*
Y429854D01*
X341669Y424146D02*
Y429854D01*
X501685Y407307D02*
Y420693D01*
X512315Y407307D02*
Y420693D01*
X501685Y407307D02*
X512315D01*
X501685Y420693D02*
X512315D01*
X386354Y377716D02*
Y386378D01*
X380646Y377716D02*
Y386378D01*
X386354D01*
X380646Y377716D02*
X386354D01*
X341669Y342146D02*
X350331D01*
X341669Y347854D02*
X350331D01*
Y342146D02*
Y347854D01*
X341669Y342146D02*
Y347854D01*
D71*
X208341Y179665D02*
X211673Y176333D01*
X208341D02*
X211673Y179665D01*
X208341Y177999D02*
X211673D01*
X210007Y176333D02*
Y179665D01*
M02*
