G04*
G04 #@! TF.GenerationSoftware,Altium Limited,Altium Designer,26.2.0 (7)*
G04*
G04 Layer_Color=2752767*
%FSLAX25Y25*%
%MOIN*%
G70*
G04*
G04 #@! TF.SameCoordinates,91D6BAE1-DD8B-4561-93EF-FE8846470966*
G04*
G04*
G04 #@! TF.FilePolarity,Positive*
G04*
G01*
G75*
%ADD15C,0.00500*%
%ADD73C,0.00667*%
%ADD74C,0.00400*%
D15*
X511000Y440000D02*
X509000Y444000D01*
X513000D01*
X511000Y440000D01*
Y440800D02*
X509800Y443200D01*
X512200D01*
X511000Y440800D01*
X113000Y440000D02*
X111000Y444000D01*
X115000D01*
X113000Y440000D01*
Y440800D02*
X111800Y443200D01*
X114200D01*
X113000Y440800D01*
X111000Y417000D02*
Y421000D01*
X115000D01*
Y417000D01*
X111000D01*
X111800Y417800D02*
Y420200D01*
X114200D01*
Y417800D01*
X111800D01*
X111000Y407000D02*
Y411000D01*
X115000D01*
Y407000D01*
X111000D01*
X111800Y407800D02*
Y410200D01*
X114200D01*
Y407800D01*
X111800D01*
X113000Y112000D02*
X111000Y116000D01*
X115000D01*
X113000Y112000D01*
Y112800D02*
X111800Y115200D01*
X114200D01*
X113000Y112800D01*
X511000Y111000D02*
X509000Y115000D01*
X513000D01*
X511000Y111000D01*
Y111800D02*
X509800Y114200D01*
X512200D01*
X511000Y111800D01*
X372700Y140300D02*
X370700Y144300D01*
X374700D01*
X372700Y140300D01*
X366000Y157000D02*
X364000Y161000D01*
X368000D01*
X366000Y157000D01*
X359300Y140300D02*
X357300Y144300D01*
X361300D01*
X359300Y140300D01*
X352600Y157000D02*
X350600Y161000D01*
X354600D01*
X352600Y157000D01*
X345900Y140300D02*
X343900Y144300D01*
X347900D01*
X345900Y140300D01*
X421000Y174000D02*
Y178000D01*
X425000D01*
Y174000D01*
X421000D01*
X421800Y174800D02*
Y177200D01*
X424200D01*
Y174800D01*
X421800D01*
X391000Y174000D02*
Y178000D01*
X395000D01*
Y174000D01*
X391000D01*
X391800Y174800D02*
Y177200D01*
X394200D01*
Y174800D01*
X391800D01*
X473000Y215000D02*
X474000D01*
X475000Y216000D01*
X476000Y215000D01*
X477000D01*
Y216000D01*
X476000Y217000D01*
X477000Y218000D01*
Y219000D01*
X476000D01*
X475000Y218000D01*
X474000Y219000D01*
X473000D01*
Y218000D01*
X474000Y217000D01*
X473000Y216000D01*
Y215000D01*
X503000D02*
X504000D01*
X505000Y216000D01*
X506000Y215000D01*
X507000D01*
Y216000D01*
X506000Y217000D01*
X507000Y218000D01*
Y219000D01*
X506000D01*
X505000Y218000D01*
X504000Y219000D01*
X503000D01*
Y218000D01*
X504000Y217000D01*
X503000Y216000D01*
Y215000D01*
X491000Y174000D02*
X492000D01*
X493000Y175000D01*
X494000Y174000D01*
X495000D01*
Y175000D01*
X494000Y176000D01*
X495000Y177000D01*
Y178000D01*
X494000D01*
X493000Y177000D01*
X492000Y178000D01*
X491000D01*
Y177000D01*
X492000Y176000D01*
X491000Y175000D01*
Y174000D01*
Y144000D02*
X492000D01*
X493000Y145000D01*
X494000Y144000D01*
X495000D01*
Y145000D01*
X494000Y146000D01*
X495000Y147000D01*
Y148000D01*
X494000D01*
X493000Y147000D01*
X492000Y148000D01*
X491000D01*
Y147000D01*
X492000Y146000D01*
X491000Y145000D01*
Y144000D01*
X231496Y406189D02*
X232496Y408189D01*
X231496Y410189D01*
X233496Y409189D01*
X235496Y410189D01*
X234496Y408189D01*
X235496Y406189D01*
X233496Y407189D01*
X231496Y406189D01*
X250000Y418000D02*
X251000Y420000D01*
X250000Y422000D01*
X252000Y421000D01*
X254000Y422000D01*
X253000Y420000D01*
X254000Y418000D01*
X252000Y419000D01*
X250000Y418000D01*
X251000Y395378D02*
Y394378D01*
X253000D01*
Y395378D01*
X254000D01*
Y397378D01*
X253000D01*
Y398378D01*
X251000D01*
Y397378D01*
X250000D01*
Y395378D01*
X251000D01*
X332913Y115000D02*
Y119000D01*
X336913D01*
Y115000D01*
X332913D01*
X407087D02*
Y119000D01*
X411087D01*
Y115000D01*
X407087D01*
X286000Y150000D02*
X287000D01*
X288000Y151000D01*
X289000Y150000D01*
X290000D01*
Y151000D01*
X289000Y152000D01*
X290000Y153000D01*
Y154000D01*
X289000D01*
X288000Y153000D01*
X287000Y154000D01*
X286000D01*
Y153000D01*
X287000Y152000D01*
X286000Y151000D01*
Y150000D01*
Y120000D02*
X287000D01*
X288000Y121000D01*
X289000Y120000D01*
X290000D01*
Y121000D01*
X289000Y122000D01*
X290000Y123000D01*
Y124000D01*
X289000D01*
X288000Y123000D01*
X287000Y124000D01*
X286000D01*
Y123000D01*
X287000Y122000D01*
X286000Y121000D01*
Y120000D01*
X326000Y136000D02*
X327000D01*
X328000Y137000D01*
X329000Y136000D01*
X330000D01*
Y137000D01*
X329000Y138000D01*
X330000Y139000D01*
Y140000D01*
X329000D01*
X328000Y139000D01*
X327000Y140000D01*
X326000D01*
Y139000D01*
X327000Y138000D01*
X326000Y137000D01*
Y136000D01*
Y166000D02*
X327000D01*
X328000Y167000D01*
X329000Y166000D01*
X330000D01*
Y167000D01*
X329000Y168000D01*
X330000Y169000D01*
Y170000D01*
X329000D01*
X328000Y169000D01*
X327000Y170000D01*
X326000D01*
Y169000D01*
X327000Y168000D01*
X326000Y167000D01*
Y166000D01*
X402500Y375500D02*
Y379500D01*
X406500D01*
Y375500D01*
X402500D01*
X403300Y376300D02*
Y378700D01*
X405700D01*
Y376300D01*
X403300D01*
X230591Y158000D02*
X231591Y159000D01*
X232591D01*
X231591Y160000D01*
X232591Y161000D01*
X231591D01*
X230591Y162000D01*
X229591Y161000D01*
X228591D01*
X229591Y160000D01*
X228591Y159000D01*
X229591D01*
X230591Y158000D01*
Y158800D02*
X231191Y159400D01*
X231791D01*
X231191Y160000D01*
X231791Y160600D01*
X231191D01*
X230591Y161200D01*
X229991Y160600D01*
X229391D01*
X229991Y160000D01*
X229391Y159400D01*
X229991D01*
X230591Y158800D01*
X205000Y158000D02*
X206000Y159000D01*
X207000D01*
X206000Y160000D01*
X207000Y161000D01*
X206000D01*
X205000Y162000D01*
X204000Y161000D01*
X203000D01*
X204000Y160000D01*
X203000Y159000D01*
X204000D01*
X205000Y158000D01*
Y158800D02*
X205600Y159400D01*
X206200D01*
X205600Y160000D01*
X206200Y160600D01*
X205600D01*
X205000Y161200D01*
X204400Y160600D01*
X203800D01*
X204400Y160000D01*
X203800Y159400D01*
X204400D01*
X205000Y158800D01*
X277500Y194500D02*
X278500Y195500D01*
X279500D01*
X278500Y196500D01*
X279500Y197500D01*
X278500D01*
X277500Y198500D01*
X276500Y197500D01*
X275500D01*
X276500Y196500D01*
X275500Y195500D01*
X276500D01*
X277500Y194500D01*
X142000Y171000D02*
X143000D01*
X144000Y172000D01*
X145000Y171000D01*
X146000D01*
Y172000D01*
X145000Y173000D01*
X146000Y174000D01*
Y175000D01*
X145000D01*
X144000Y174000D01*
X143000Y175000D01*
X142000D01*
Y174000D01*
X143000Y173000D01*
X142000Y172000D01*
Y171000D01*
X298000Y338000D02*
X299000Y339000D01*
X300000D01*
X299000Y340000D01*
X300000Y341000D01*
X299000D01*
X298000Y342000D01*
X297000Y341000D01*
X296000D01*
X297000Y340000D01*
X296000Y339000D01*
X297000D01*
X298000Y338000D01*
X285500D02*
X286500Y339000D01*
X287500D01*
X286500Y340000D01*
X287500Y341000D01*
X286500D01*
X285500Y342000D01*
X284500Y341000D01*
X283500D01*
X284500Y340000D01*
X283500Y339000D01*
X284500D01*
X285500Y338000D01*
X144000Y351000D02*
Y355000D01*
X148000D01*
Y351000D01*
X144000D01*
X144800Y351800D02*
Y354200D01*
X147200D01*
Y351800D01*
X144800D01*
X445000Y144000D02*
X446000D01*
X447000Y145000D01*
X448000Y144000D01*
X449000D01*
Y145000D01*
X448000Y146000D01*
X449000Y147000D01*
Y148000D01*
X448000D01*
X447000Y147000D01*
X446000Y148000D01*
X445000D01*
Y147000D01*
X446000Y146000D01*
X445000Y145000D01*
Y144000D01*
X307500Y194500D02*
X308500Y195500D01*
X309500D01*
X308500Y196500D01*
X309500Y197500D01*
X308500D01*
X307500Y198500D01*
X306500Y197500D01*
X305500D01*
X306500Y196500D01*
X305500Y195500D01*
X306500D01*
X307500Y194500D01*
X323000D02*
X324000Y195500D01*
X325000D01*
X324000Y196500D01*
X325000Y197500D01*
X324000D01*
X323000Y198500D01*
X322000Y197500D01*
X321000D01*
X322000Y196500D01*
X321000Y195500D01*
X322000D01*
X323000Y194500D01*
X402500Y385500D02*
Y389500D01*
X406500D01*
Y385500D01*
X402500D01*
X403300Y386300D02*
Y388700D01*
X405700D01*
Y386300D01*
X403300D01*
X353000Y194500D02*
X354000Y195500D01*
X355000D01*
X354000Y196500D01*
X355000Y197500D01*
X354000D01*
X353000Y198500D01*
X352000Y197500D01*
X351000D01*
X352000Y196500D01*
X351000Y195500D01*
X352000D01*
X353000Y194500D01*
X445000Y174000D02*
X446000D01*
X447000Y175000D01*
X448000Y174000D01*
X449000D01*
Y175000D01*
X448000Y176000D01*
X449000Y177000D01*
Y178000D01*
X448000D01*
X447000Y177000D01*
X446000Y178000D01*
X445000D01*
Y177000D01*
X446000Y176000D01*
X445000Y175000D01*
Y174000D01*
X152000Y171000D02*
X153000D01*
X154000Y172000D01*
X155000Y171000D01*
X156000D01*
Y172000D01*
X155000Y173000D01*
X156000Y174000D01*
Y175000D01*
X155000D01*
X154000Y174000D01*
X153000Y175000D01*
X152000D01*
Y174000D01*
X153000Y173000D01*
X152000Y172000D01*
Y171000D01*
X132000D02*
X133000D01*
X134000Y172000D01*
X135000Y171000D01*
X136000D01*
Y172000D01*
X135000Y173000D01*
X136000Y174000D01*
Y175000D01*
X135000D01*
X134000Y174000D01*
X133000Y175000D01*
X132000D01*
Y174000D01*
X133000Y173000D01*
X132000Y172000D01*
Y171000D01*
X154000Y351000D02*
Y355000D01*
X158000D01*
Y351000D01*
X154000D01*
X154800Y351800D02*
Y354200D01*
X157200D01*
Y351800D01*
X154800D01*
X164000Y351000D02*
Y355000D01*
X168000D01*
Y351000D01*
X164000D01*
X164800Y351800D02*
Y354200D01*
X167200D01*
Y351800D01*
X164800D01*
X174000Y351000D02*
Y355000D01*
X178000D01*
Y351000D01*
X174000D01*
X174800Y351800D02*
Y354200D01*
X177200D01*
Y351800D01*
X174800D01*
X194000Y351000D02*
Y355000D01*
X198000D01*
Y351000D01*
X194000D01*
X194800Y351800D02*
Y354200D01*
X197200D01*
Y351800D01*
X194800D01*
X204000Y351000D02*
Y355000D01*
X208000D01*
Y351000D01*
X204000D01*
X204800Y351800D02*
Y354200D01*
X207200D01*
Y351800D01*
X204800D01*
X184000Y351000D02*
Y355000D01*
X188000D01*
Y351000D01*
X184000D01*
X184800Y351800D02*
Y354200D01*
X187200D01*
Y351800D01*
X184800D01*
X205000Y175716D02*
X206000Y176716D01*
X207000D01*
X206000Y177717D01*
X207000Y178717D01*
X206000D01*
X205000Y179717D01*
X204000Y178717D01*
X203000D01*
X204000Y177717D01*
X203000Y176716D01*
X204000D01*
X205000Y175716D01*
Y176516D02*
X205600Y177117D01*
X206200D01*
X205600Y177717D01*
X206200Y178316D01*
X205600D01*
X205000Y178917D01*
X204400Y178316D01*
X203800D01*
X204400Y177717D01*
X203800Y177117D01*
X204400D01*
X205000Y176516D01*
X230591Y175716D02*
X231591Y176716D01*
X232591D01*
X231591Y177717D01*
X232591Y178717D01*
X231591D01*
X230591Y179717D01*
X229591Y178717D01*
X228591D01*
X229591Y177717D01*
X228591Y176716D01*
X229591D01*
X230591Y175716D01*
Y176516D02*
X231191Y177117D01*
X231791D01*
X231191Y177717D01*
X231791Y178316D01*
X231191D01*
X230591Y178917D01*
X229991Y178316D01*
X229391D01*
X229991Y177717D01*
X229391Y177117D01*
X229991D01*
X230591Y176516D01*
X294000Y234000D02*
X295000Y235000D01*
X296000D01*
X295000Y236000D01*
X296000Y237000D01*
X295000D01*
X294000Y238000D01*
X293000Y237000D01*
X292000D01*
X293000Y236000D01*
X292000Y235000D01*
X293000D01*
X294000Y234000D01*
Y264000D02*
X295000Y265000D01*
X296000D01*
X295000Y266000D01*
X296000Y267000D01*
X295000D01*
X294000Y268000D01*
X293000Y267000D01*
X292000D01*
X293000Y266000D01*
X292000Y265000D01*
X293000D01*
X294000Y264000D01*
X298000Y428000D02*
X299000Y429000D01*
X300000D01*
X299000Y430000D01*
X300000Y431000D01*
X299000D01*
X298000Y432000D01*
X297000Y431000D01*
X296000D01*
X297000Y430000D01*
X296000Y429000D01*
X297000D01*
X298000Y428000D01*
X294000Y274000D02*
X295000Y275000D01*
X296000D01*
X295000Y276000D01*
X296000Y277000D01*
X295000D01*
X294000Y278000D01*
X293000Y277000D01*
X292000D01*
X293000Y276000D01*
X292000Y275000D01*
X293000D01*
X294000Y274000D01*
X298000Y368000D02*
X299000Y369000D01*
X300000D01*
X299000Y370000D01*
X300000Y371000D01*
X299000D01*
X298000Y372000D01*
X297000Y371000D01*
X296000D01*
X297000Y370000D01*
X296000Y369000D01*
X297000D01*
X298000Y368000D01*
X294000Y304000D02*
X295000Y305000D01*
X296000D01*
X295000Y306000D01*
X296000Y307000D01*
X295000D01*
X294000Y308000D01*
X293000Y307000D01*
X292000D01*
X293000Y306000D01*
X292000Y305000D01*
X293000D01*
X294000Y304000D01*
X505000Y383000D02*
Y387000D01*
X509000D01*
Y383000D01*
X505000D01*
X505800Y383800D02*
Y386200D01*
X508200D01*
Y383800D01*
X505800D01*
X505000Y373000D02*
Y377000D01*
X509000D01*
Y373000D01*
X505000D01*
X505800Y373800D02*
Y376200D01*
X508200D01*
Y373800D01*
X505800D01*
X298000Y398000D02*
X299000Y399000D01*
X300000D01*
X299000Y400000D01*
X300000Y401000D01*
X299000D01*
X298000Y402000D01*
X297000Y401000D01*
X296000D01*
X297000Y400000D01*
X296000Y399000D01*
X297000D01*
X298000Y398000D01*
X285500Y368000D02*
X286500Y369000D01*
X287500D01*
X286500Y370000D01*
X287500Y371000D01*
X286500D01*
X285500Y372000D01*
X284500Y371000D01*
X283500D01*
X284500Y370000D01*
X283500Y369000D01*
X284500D01*
X285500Y368000D01*
X328524Y439500D02*
Y443500D01*
X332524D01*
Y439500D01*
X328524D01*
X329324Y440300D02*
Y442700D01*
X331724D01*
Y440300D01*
X329324D01*
X356476Y439500D02*
Y443500D01*
X360476D01*
Y439500D01*
X356476D01*
X357276Y440300D02*
Y442700D01*
X359676D01*
Y440300D01*
X357276D01*
X330024Y326000D02*
Y330000D01*
X334024D01*
Y326000D01*
X330024D01*
X330824Y326800D02*
Y329200D01*
X333224D01*
Y326800D01*
X330824D01*
X357976Y326000D02*
Y330000D01*
X361976D01*
Y326000D01*
X357976D01*
X358776Y326800D02*
Y329200D01*
X361176D01*
Y326800D01*
X358776D01*
X346000Y367000D02*
X348000Y369000D01*
X350000Y367000D01*
X348000Y365000D01*
X346000Y367000D01*
X390000Y354000D02*
X392000Y356000D01*
X394000Y354000D01*
X392000Y352000D01*
X390000Y354000D01*
X331000Y342000D02*
X333000Y344000D01*
X335000Y342000D01*
X333000Y340000D01*
X331000Y342000D01*
X379000Y423000D02*
X381000Y425000D01*
X383000Y423000D01*
X381000Y421000D01*
X379000Y423000D01*
X352000Y395000D02*
X354000Y397000D01*
X356000Y395000D01*
X354000Y393000D01*
X352000Y395000D01*
X311000D02*
X313000Y397000D01*
X315000Y395000D01*
X313000Y393000D01*
X311000Y395000D01*
X316000Y364000D02*
X318000Y366000D01*
X320000Y364000D01*
X318000Y362000D01*
X316000Y364000D01*
X341000Y352000D02*
X343000Y354000D01*
X345000Y352000D01*
X343000Y350000D01*
X341000Y352000D01*
X353000Y339000D02*
X355000Y341000D01*
X357000Y339000D01*
X355000Y337000D01*
X353000Y339000D01*
X378000Y370000D02*
X380000Y372000D01*
X382000Y370000D01*
X380000Y368000D01*
X378000Y370000D01*
X200000Y339000D02*
X202000Y341000D01*
X204000Y339000D01*
X202000Y337000D01*
X200000Y339000D01*
X210000Y300000D02*
X212000Y302000D01*
X214000Y300000D01*
X212000Y298000D01*
X210000Y300000D01*
X286000Y178000D02*
X288000Y180000D01*
X290000Y178000D01*
X288000Y176000D01*
X286000Y178000D01*
X395000Y396000D02*
X397000Y398000D01*
X399000Y396000D01*
X397000Y394000D01*
X395000Y396000D01*
Y405000D02*
X397000Y407000D01*
X399000Y405000D01*
X397000Y403000D01*
X395000Y405000D01*
X491000Y349000D02*
X493000Y351000D01*
X495000Y349000D01*
X493000Y347000D01*
X491000Y349000D01*
D73*
X488000Y236000D02*
G03*
X488000Y236000I-2000J0D01*
G01*
X438000D02*
G03*
X438000Y236000I-2000J0D01*
G01*
X388000D02*
G03*
X388000Y236000I-2000J0D01*
G01*
X338000D02*
G03*
X338000Y236000I-2000J0D01*
G01*
Y306000D02*
G03*
X338000Y306000I-2000J0D01*
G01*
X388000D02*
G03*
X388000Y306000I-2000J0D01*
G01*
X438000D02*
G03*
X438000Y306000I-2000J0D01*
G01*
X488000D02*
G03*
X488000Y306000I-2000J0D01*
G01*
X477000Y350000D02*
G03*
X477000Y350000I-2000J0D01*
G01*
X445000D02*
G03*
X445000Y350000I-2000J0D01*
G01*
X477000Y415000D02*
G03*
X477000Y415000I-2000J0D01*
G01*
X445000D02*
G03*
X445000Y415000I-2000J0D01*
G01*
X498000Y236000D02*
G03*
X498000Y236000I-2000J0D01*
G01*
X328000D02*
G03*
X328000Y236000I-2000J0D01*
G01*
X348000D02*
G03*
X348000Y236000I-2000J0D01*
G01*
X418000D02*
G03*
X418000Y236000I-2000J0D01*
G01*
X368000D02*
G03*
X368000Y236000I-2000J0D01*
G01*
X358000D02*
G03*
X358000Y236000I-2000J0D01*
G01*
X378000D02*
G03*
X378000Y236000I-2000J0D01*
G01*
X318000D02*
G03*
X318000Y236000I-2000J0D01*
G01*
X458000D02*
G03*
X458000Y236000I-2000J0D01*
G01*
X468000D02*
G03*
X468000Y236000I-2000J0D01*
G01*
X398000D02*
G03*
X398000Y236000I-2000J0D01*
G01*
X408000D02*
G03*
X408000Y236000I-2000J0D01*
G01*
X428000D02*
G03*
X428000Y236000I-2000J0D01*
G01*
X448000D02*
G03*
X448000Y236000I-2000J0D01*
G01*
X478000D02*
G03*
X478000Y236000I-2000J0D01*
G01*
X508000D02*
G03*
X508000Y236000I-2000J0D01*
G01*
X318000Y306000D02*
G03*
X318000Y306000I-2000J0D01*
G01*
X328000D02*
G03*
X328000Y306000I-2000J0D01*
G01*
X348000D02*
G03*
X348000Y306000I-2000J0D01*
G01*
X358000D02*
G03*
X358000Y306000I-2000J0D01*
G01*
X368000D02*
G03*
X368000Y306000I-2000J0D01*
G01*
X378000D02*
G03*
X378000Y306000I-2000J0D01*
G01*
X398000D02*
G03*
X398000Y306000I-2000J0D01*
G01*
X408000D02*
G03*
X408000Y306000I-2000J0D01*
G01*
X418000D02*
G03*
X418000Y306000I-2000J0D01*
G01*
X428000D02*
G03*
X428000Y306000I-2000J0D01*
G01*
X448000D02*
G03*
X448000Y306000I-2000J0D01*
G01*
X458000D02*
G03*
X458000Y306000I-2000J0D01*
G01*
X468000D02*
G03*
X468000Y306000I-2000J0D01*
G01*
X478000D02*
G03*
X478000Y306000I-2000J0D01*
G01*
X498000D02*
G03*
X498000Y306000I-2000J0D01*
G01*
X508000D02*
G03*
X508000Y306000I-2000J0D01*
G01*
X477000Y360000D02*
G03*
X477000Y360000I-2000J0D01*
G01*
Y370000D02*
G03*
X477000Y370000I-2000J0D01*
G01*
X445000Y360000D02*
G03*
X445000Y360000I-2000J0D01*
G01*
Y370000D02*
G03*
X445000Y370000I-2000J0D01*
G01*
X477000Y405000D02*
G03*
X477000Y405000I-2000J0D01*
G01*
Y425000D02*
G03*
X477000Y425000I-2000J0D01*
G01*
X445000Y405000D02*
G03*
X445000Y405000I-2000J0D01*
G01*
Y425000D02*
G03*
X445000Y425000I-2000J0D01*
G01*
D74*
X476200Y350000D02*
G03*
X476200Y350000I-1200J0D01*
G01*
X444200D02*
G03*
X444200Y350000I-1200J0D01*
G01*
X476200Y415000D02*
G03*
X476200Y415000I-1200J0D01*
G01*
X444200D02*
G03*
X444200Y415000I-1200J0D01*
G01*
X476200Y360000D02*
G03*
X476200Y360000I-1200J0D01*
G01*
Y370000D02*
G03*
X476200Y370000I-1200J0D01*
G01*
X444200Y360000D02*
G03*
X444200Y360000I-1200J0D01*
G01*
Y370000D02*
G03*
X444200Y370000I-1200J0D01*
G01*
X476200Y405000D02*
G03*
X476200Y405000I-1200J0D01*
G01*
Y425000D02*
G03*
X476200Y425000I-1200J0D01*
G01*
X444200Y405000D02*
G03*
X444200Y405000I-1200J0D01*
G01*
Y425000D02*
G03*
X444200Y425000I-1200J0D01*
G01*
M02*
