G04*
G04 #@! TF.GenerationSoftware,Altium Limited,Altium Designer,26.2.0 (7)*
G04*
G04 Layer_Color=255*
%FSLAX25Y25*%
%MOIN*%
G70*
G04*
G04 #@! TF.SameCoordinates,91D6BAE1-DD8B-4561-93EF-FE8846470966*
G04*
G04*
G04 #@! TF.FilePolarity,Positive*
G04*
G01*
G75*
%ADD42R,0.05900X0.05900*%
%ADD48C,0.16500*%
%ADD49R,0.05906X0.05906*%
%ADD50C,0.05906*%
%ADD51C,0.06300*%
%ADD52C,0.04724*%
%ADD53R,0.04724X0.04724*%
%ADD54O,0.08858X0.17717*%
%ADD55O,0.17717X0.08858*%
%ADD56O,0.19685X0.09843*%
%ADD57R,0.11024X0.11024*%
%ADD58C,0.11024*%
%ADD59C,0.05900*%
%ADD60O,0.05000X0.07500*%
%ADD61C,0.05512*%
%ADD62C,0.07854*%
%ADD63R,0.04724X0.04724*%
%ADD64R,0.05906X0.05906*%
%ADD65R,0.05000X0.07500*%
%ADD66R,0.07854X0.07854*%
D42*
X205000Y177717D02*
D03*
D48*
X511000Y442000D02*
D03*
X113000D02*
D03*
Y114000D02*
D03*
X511000Y113000D02*
D03*
D49*
X113000Y419000D02*
D03*
X507000Y385000D02*
D03*
D50*
X113000Y409000D02*
D03*
X423000Y176000D02*
D03*
X393000D02*
D03*
X404500Y377500D02*
D03*
X146000Y353000D02*
D03*
X404500Y387500D02*
D03*
X156000Y353000D02*
D03*
X166000D02*
D03*
X176000D02*
D03*
X196000D02*
D03*
X186000D02*
D03*
X507000Y375000D02*
D03*
X358476Y441500D02*
D03*
X359976Y328000D02*
D03*
D51*
X372700Y142300D02*
D03*
X366000Y159000D02*
D03*
X359300Y142300D02*
D03*
X352600Y159000D02*
D03*
X345900Y142300D02*
D03*
D52*
X475000Y217000D02*
D03*
X505000D02*
D03*
X493000Y146000D02*
D03*
X288000Y122000D02*
D03*
X328000Y138000D02*
D03*
Y168000D02*
D03*
X144000Y173000D02*
D03*
X447000Y146000D02*
D03*
Y176000D02*
D03*
X134000Y173000D02*
D03*
D53*
X493000Y176000D02*
D03*
X288000Y152000D02*
D03*
D54*
X233496Y408189D02*
D03*
D55*
X252000Y420000D02*
D03*
D56*
Y396378D02*
D03*
D57*
X334913Y117000D02*
D03*
D58*
X409087D02*
D03*
D59*
X230591Y160000D02*
D03*
X205000D02*
D03*
X230591Y177717D02*
D03*
D60*
X486000Y236000D02*
D03*
X436000D02*
D03*
X386000D02*
D03*
X336000D02*
D03*
Y306000D02*
D03*
X386000D02*
D03*
X436000D02*
D03*
X486000D02*
D03*
X496000Y236000D02*
D03*
X326000D02*
D03*
X346000D02*
D03*
X416000D02*
D03*
X366000D02*
D03*
X356000D02*
D03*
X376000D02*
D03*
X316000D02*
D03*
X456000D02*
D03*
X466000D02*
D03*
X396000D02*
D03*
X406000D02*
D03*
X426000D02*
D03*
X446000D02*
D03*
X476000D02*
D03*
X506000D02*
D03*
X316000Y306000D02*
D03*
X326000D02*
D03*
X346000D02*
D03*
X356000D02*
D03*
X366000D02*
D03*
X376000D02*
D03*
X396000D02*
D03*
X406000D02*
D03*
X416000D02*
D03*
X426000D02*
D03*
X446000D02*
D03*
X456000D02*
D03*
X466000D02*
D03*
X476000D02*
D03*
X496000D02*
D03*
D61*
X277500Y196500D02*
D03*
X298000Y340000D02*
D03*
X285500D02*
D03*
X307500Y196500D02*
D03*
X323000D02*
D03*
X353000D02*
D03*
X294000Y236000D02*
D03*
Y266000D02*
D03*
X298000Y430000D02*
D03*
X294000Y276000D02*
D03*
X298000Y370000D02*
D03*
X294000Y306000D02*
D03*
X298000Y400000D02*
D03*
X285500Y370000D02*
D03*
D62*
X475000Y350000D02*
D03*
X443000D02*
D03*
X475000Y415000D02*
D03*
X443000D02*
D03*
X475000Y360000D02*
D03*
X443000D02*
D03*
X475000Y405000D02*
D03*
X443000D02*
D03*
D63*
X154000Y173000D02*
D03*
D64*
X206000Y353000D02*
D03*
X330524Y441500D02*
D03*
X332024Y328000D02*
D03*
D65*
X506000Y306000D02*
D03*
D66*
X475000Y370000D02*
D03*
X443000D02*
D03*
X475000Y425000D02*
D03*
X443000D02*
D03*
M02*
