G04*
G04 #@! TF.GenerationSoftware,Altium Limited,Altium Designer,26.2.0 (7)*
G04*
G04 Layer_Color=128*
%FSLAX25Y25*%
%MOIN*%
G70*
G04*
G04 #@! TF.SameCoordinates,91D6BAE1-DD8B-4561-93EF-FE8846470966*
G04*
G04*
G04 #@! TF.FilePolarity,Positive*
G04*
G01*
G75*
%ADD15C,0.00500*%
D15*
X504750Y442000D02*
X517250D01*
X511000Y435750D02*
Y448250D01*
X106750Y442000D02*
X119250D01*
X113000Y435750D02*
Y448250D01*
X111228Y419000D02*
X114772D01*
X113000Y417228D02*
Y420772D01*
X111228Y409000D02*
X114772D01*
X113000Y407228D02*
Y410772D01*
X106750Y114000D02*
X119250D01*
X113000Y107750D02*
Y120250D01*
X504750Y113000D02*
X517250D01*
X511000Y106750D02*
Y119250D01*
X370550Y142300D02*
X374850D01*
X372700Y140150D02*
Y144450D01*
X363850Y159000D02*
X368150D01*
X366000Y156850D02*
Y161150D01*
X357150Y142300D02*
X361450D01*
X359300Y140150D02*
Y144450D01*
X350450Y159000D02*
X354750D01*
X352600Y156850D02*
Y161150D01*
X343750Y142300D02*
X348050D01*
X345900Y140150D02*
Y144450D01*
X421228Y176000D02*
X424772D01*
X423000Y174228D02*
Y177772D01*
X391228Y176000D02*
X394772D01*
X393000Y174228D02*
Y177772D01*
X473622Y217000D02*
X476378D01*
X475000Y215622D02*
Y218378D01*
X503622Y217000D02*
X506378D01*
X505000Y215622D02*
Y218378D01*
X491622Y176000D02*
X494378D01*
X493000Y174622D02*
Y177378D01*
X491622Y146000D02*
X494378D01*
X493000Y144622D02*
Y147378D01*
X231528Y408189D02*
X235465D01*
X233496Y406220D02*
Y410157D01*
X250031Y420000D02*
X253969D01*
X252000Y418032D02*
Y421969D01*
X250031Y396378D02*
X253969D01*
X252000Y394409D02*
Y398346D01*
X331567Y117000D02*
X338260D01*
X334913Y113654D02*
Y120346D01*
X405740Y117000D02*
X412433D01*
X409087Y113654D02*
Y120346D01*
X286622Y152000D02*
X289378D01*
X288000Y150622D02*
Y153378D01*
X286622Y122000D02*
X289378D01*
X288000Y120622D02*
Y123378D01*
X326622Y138000D02*
X329378D01*
X328000Y136622D02*
Y139378D01*
X326622Y168000D02*
X329378D01*
X328000Y166622D02*
Y169378D01*
X402728Y377500D02*
X406272D01*
X404500Y375728D02*
Y379272D01*
X228641Y160000D02*
X232541D01*
X230591Y158050D02*
Y161950D01*
X203050Y160000D02*
X206950D01*
X205000Y158050D02*
Y161950D01*
X484250Y236000D02*
X487750D01*
X486000Y234250D02*
Y237750D01*
X434250Y236000D02*
X437750D01*
X436000Y234250D02*
Y237750D01*
X384250Y236000D02*
X387750D01*
X386000Y234250D02*
Y237750D01*
X334250Y236000D02*
X337750D01*
X336000Y234250D02*
Y237750D01*
X334250Y306000D02*
X337750D01*
X336000Y304250D02*
Y307750D01*
X384250Y306000D02*
X387750D01*
X386000Y304250D02*
Y307750D01*
X434250Y306000D02*
X437750D01*
X436000Y304250D02*
Y307750D01*
X484250Y306000D02*
X487750D01*
X486000Y304250D02*
Y307750D01*
X275827Y196500D02*
X279173D01*
X277500Y194827D02*
Y198173D01*
X142622Y173000D02*
X145378D01*
X144000Y171622D02*
Y174378D01*
X296327Y340000D02*
X299673D01*
X298000Y338327D02*
Y341673D01*
X283827Y340000D02*
X287173D01*
X285500Y338327D02*
Y341673D01*
X472382Y350000D02*
X477618D01*
X475000Y347382D02*
Y352618D01*
X440382Y350000D02*
X445618D01*
X443000Y347382D02*
Y352618D01*
X144228Y353000D02*
X147772D01*
X146000Y351228D02*
Y354772D01*
X445622Y146000D02*
X448378D01*
X447000Y144622D02*
Y147378D01*
X305827Y196500D02*
X309173D01*
X307500Y194827D02*
Y198173D01*
X321327Y196500D02*
X324673D01*
X323000Y194827D02*
Y198173D01*
X402728Y387500D02*
X406272D01*
X404500Y385728D02*
Y389272D01*
X472382Y415000D02*
X477618D01*
X475000Y412382D02*
Y417618D01*
X440382Y415000D02*
X445618D01*
X443000Y412382D02*
Y417618D01*
X494250Y236000D02*
X497750D01*
X496000Y234250D02*
Y237750D01*
X351327Y196500D02*
X354673D01*
X353000Y194827D02*
Y198173D01*
X445622Y176000D02*
X448378D01*
X447000Y174622D02*
Y177378D01*
X152622Y173000D02*
X155378D01*
X154000Y171622D02*
Y174378D01*
X132622Y173000D02*
X135378D01*
X134000Y171622D02*
Y174378D01*
X154228Y353000D02*
X157772D01*
X156000Y351228D02*
Y354772D01*
X164228Y353000D02*
X167772D01*
X166000Y351228D02*
Y354772D01*
X174228Y353000D02*
X177772D01*
X176000Y351228D02*
Y354772D01*
X194228Y353000D02*
X197772D01*
X196000Y351228D02*
Y354772D01*
X204228Y353000D02*
X207772D01*
X206000Y351228D02*
Y354772D01*
X184228Y353000D02*
X187772D01*
X186000Y351228D02*
Y354772D01*
X203050Y177717D02*
X206950D01*
X205000Y175767D02*
Y179666D01*
X228641Y177717D02*
X232541D01*
X230591Y175767D02*
Y179666D01*
X324250Y236000D02*
X327750D01*
X326000Y234250D02*
Y237750D01*
X344250Y236000D02*
X347750D01*
X346000Y234250D02*
Y237750D01*
X414250Y236000D02*
X417750D01*
X416000Y234250D02*
Y237750D01*
X364250Y236000D02*
X367750D01*
X366000Y234250D02*
Y237750D01*
X354250Y236000D02*
X357750D01*
X356000Y234250D02*
Y237750D01*
X374250Y236000D02*
X377750D01*
X376000Y234250D02*
Y237750D01*
X314250Y236000D02*
X317750D01*
X316000Y234250D02*
Y237750D01*
X292327Y236000D02*
X295673D01*
X294000Y234327D02*
Y237673D01*
X454250Y236000D02*
X457750D01*
X456000Y234250D02*
Y237750D01*
X292327Y266000D02*
X295673D01*
X294000Y264327D02*
Y267673D01*
X464250Y236000D02*
X467750D01*
X466000Y234250D02*
Y237750D01*
X296327Y430000D02*
X299673D01*
X298000Y428327D02*
Y431673D01*
X292327Y276000D02*
X295673D01*
X294000Y274327D02*
Y277673D01*
X296327Y370000D02*
X299673D01*
X298000Y368327D02*
Y371673D01*
X292327Y306000D02*
X295673D01*
X294000Y304327D02*
Y307673D01*
X505228Y385000D02*
X508772D01*
X507000Y383228D02*
Y386772D01*
X505228Y375000D02*
X508772D01*
X507000Y373228D02*
Y376772D01*
X296327Y400000D02*
X299673D01*
X298000Y398327D02*
Y401673D01*
X283827Y370000D02*
X287173D01*
X285500Y368327D02*
Y371673D01*
X394250Y236000D02*
X397750D01*
X396000Y234250D02*
Y237750D01*
X404250Y236000D02*
X407750D01*
X406000Y234250D02*
Y237750D01*
X424250Y236000D02*
X427750D01*
X426000Y234250D02*
Y237750D01*
X444250Y236000D02*
X447750D01*
X446000Y234250D02*
Y237750D01*
X474250Y236000D02*
X477750D01*
X476000Y234250D02*
Y237750D01*
X504250Y236000D02*
X507750D01*
X506000Y234250D02*
Y237750D01*
X314250Y306000D02*
X317750D01*
X316000Y304250D02*
Y307750D01*
X324250Y306000D02*
X327750D01*
X326000Y304250D02*
Y307750D01*
X344250Y306000D02*
X347750D01*
X346000Y304250D02*
Y307750D01*
X354250Y306000D02*
X357750D01*
X356000Y304250D02*
Y307750D01*
X364250Y306000D02*
X367750D01*
X366000Y304250D02*
Y307750D01*
X374250Y306000D02*
X377750D01*
X376000Y304250D02*
Y307750D01*
X394250Y306000D02*
X397750D01*
X396000Y304250D02*
Y307750D01*
X404250Y306000D02*
X407750D01*
X406000Y304250D02*
Y307750D01*
X414250Y306000D02*
X417750D01*
X416000Y304250D02*
Y307750D01*
X424250Y306000D02*
X427750D01*
X426000Y304250D02*
Y307750D01*
X444250Y306000D02*
X447750D01*
X446000Y304250D02*
Y307750D01*
X454250Y306000D02*
X457750D01*
X456000Y304250D02*
Y307750D01*
X464250Y306000D02*
X467750D01*
X466000Y304250D02*
Y307750D01*
X474250Y306000D02*
X477750D01*
X476000Y304250D02*
Y307750D01*
X494250Y306000D02*
X497750D01*
X496000Y304250D02*
Y307750D01*
X504250Y306000D02*
X507750D01*
X506000Y304250D02*
Y307750D01*
X472382Y360000D02*
X477618D01*
X475000Y357382D02*
Y362618D01*
X472382Y370000D02*
X477618D01*
X475000Y367382D02*
Y372618D01*
X440382Y360000D02*
X445618D01*
X443000Y357382D02*
Y362618D01*
X440382Y370000D02*
X445618D01*
X443000Y367382D02*
Y372618D01*
X328752Y441500D02*
X332295D01*
X330524Y439728D02*
Y443272D01*
X356705Y441500D02*
X360248D01*
X358476Y439728D02*
Y443272D01*
X472382Y405000D02*
X477618D01*
X475000Y402382D02*
Y407618D01*
X472382Y425000D02*
X477618D01*
X475000Y422382D02*
Y427618D01*
X440382Y405000D02*
X445618D01*
X443000Y402382D02*
Y407618D01*
X440382Y425000D02*
X445618D01*
X443000Y422382D02*
Y427618D01*
X330252Y328000D02*
X333795D01*
X332024Y326228D02*
Y329772D01*
X358205Y328000D02*
X361748D01*
X359976Y326228D02*
Y329772D01*
X346600Y367000D02*
X349400D01*
X348000Y365600D02*
Y368400D01*
X390600Y354000D02*
X393400D01*
X392000Y352600D02*
Y355400D01*
X331600Y342000D02*
X334400D01*
X333000Y340600D02*
Y343400D01*
X379600Y423000D02*
X382400D01*
X381000Y421600D02*
Y424400D01*
X352600Y395000D02*
X355400D01*
X354000Y393600D02*
Y396400D01*
X311600Y395000D02*
X314400D01*
X313000Y393600D02*
Y396400D01*
X316600Y364000D02*
X319400D01*
X318000Y362600D02*
Y365400D01*
X341600Y352000D02*
X344400D01*
X343000Y350600D02*
Y353400D01*
X353600Y339000D02*
X356400D01*
X355000Y337600D02*
Y340400D01*
X378600Y370000D02*
X381400D01*
X380000Y368600D02*
Y371400D01*
X200600Y339000D02*
X203400D01*
X202000Y337600D02*
Y340400D01*
X210600Y300000D02*
X213400D01*
X212000Y298600D02*
Y301400D01*
X286600Y178000D02*
X289400D01*
X288000Y176600D02*
Y179400D01*
X395600Y396000D02*
X398400D01*
X397000Y394600D02*
Y397400D01*
X395600Y405000D02*
X398400D01*
X397000Y403600D02*
Y406400D01*
X491600Y349000D02*
X494400D01*
X493000Y347600D02*
Y350400D01*
M02*
