G04*
G04 #@! TF.GenerationSoftware,Altium Limited,Altium Designer,26.2.0 (7)*
G04*
G04 Layer_Color=65535*
%FSLAX25Y25*%
%MOIN*%
G70*
G04*
G04 #@! TF.SameCoordinates,91D6BAE1-DD8B-4561-93EF-FE8846470966*
G04*
G04*
G04 #@! TF.FilePolarity,Positive*
G04*
G01*
G75*
%ADD10C,0.00984*%
%ADD11C,0.00787*%
%ADD12C,0.01575*%
%ADD13C,0.01000*%
%ADD14C,0.00600*%
%ADD15C,0.00500*%
%ADD16C,0.00591*%
%ADD17R,0.03150X0.22047*%
%ADD18R,0.03150X0.07480*%
D10*
X433000Y176079D02*
G03*
X433000Y176079I-25000J0D01*
G01*
X414500Y382500D02*
G03*
X414500Y382500I-10000J0D01*
G01*
D11*
X523000Y161000D02*
G03*
X523000Y161000I-30000J0D01*
G01*
X318000Y137000D02*
G03*
X318000Y137000I-30000J0D01*
G01*
X475394Y382953D02*
G03*
X475394Y382953I-394J0D01*
G01*
X443394D02*
G03*
X443394Y382953I-394J0D01*
G01*
X475394Y437953D02*
G03*
X475394Y437953I-394J0D01*
G01*
X443394D02*
G03*
X443394Y437953I-394J0D01*
G01*
X108000Y404000D02*
X118000D01*
X108000D02*
Y424000D01*
X118000D01*
Y404000D02*
Y424000D01*
X467500Y209500D02*
Y224500D01*
X512500D01*
Y209500D02*
Y224500D01*
X467500Y209500D02*
X512500D01*
X390898Y105976D02*
Y128024D01*
X353102Y105976D02*
X390898D01*
X353102Y128024D02*
X390898D01*
X320500Y130500D02*
X335500D01*
X320500D02*
Y175500D01*
X335500D01*
Y130500D02*
Y175500D01*
X164000Y163000D02*
Y183000D01*
X119000D02*
X164000D01*
X119000Y173000D02*
Y183000D01*
Y173000D02*
X124000D01*
Y163000D02*
Y173000D01*
Y163000D02*
X164000D01*
X141000Y348000D02*
X211000D01*
Y358000D01*
X141000D02*
X211000D01*
X141000Y348000D02*
Y358000D01*
X298000Y365000D02*
X301000D01*
Y345000D02*
Y365000D01*
X295000Y345000D02*
X301000D01*
X295000D02*
Y365000D01*
X298000D01*
X294000Y261000D02*
X297000D01*
Y241000D02*
Y261000D01*
X291000Y241000D02*
X297000D01*
X291000D02*
Y261000D01*
X294000D01*
X291000Y281000D02*
X294000D01*
X291000D02*
Y301000D01*
X297000D01*
Y281000D02*
Y301000D01*
X294000Y281000D02*
X297000D01*
X502000Y370000D02*
X512000D01*
X502000D02*
Y390000D01*
X512000D01*
Y370000D02*
Y390000D01*
X298000Y425000D02*
X301000D01*
Y405000D02*
Y425000D01*
X295000Y405000D02*
X301000D01*
X295000D02*
Y425000D01*
X298000D01*
X285500Y365000D02*
X288500D01*
Y345000D02*
Y365000D01*
X282500Y345000D02*
X288500D01*
X282500D02*
Y365000D01*
X285500D01*
X502276Y412425D02*
Y415575D01*
X511724Y412425D02*
Y415575D01*
X352177Y437760D02*
Y445240D01*
X336823Y437760D02*
X352177D01*
X336823Y445240D02*
X352177D01*
X353677Y324260D02*
Y331740D01*
X338323Y324260D02*
X353677D01*
X338323Y331740D02*
X353677D01*
X348000Y193500D02*
Y196500D01*
X328000Y193500D02*
X348000D01*
X328000D02*
Y199500D01*
X348000D01*
Y196500D02*
Y199500D01*
X302500Y193500D02*
Y196500D01*
X282500Y193500D02*
X302500D01*
X282500D02*
Y199500D01*
X302500D01*
Y196500D02*
Y199500D01*
X439500Y183500D02*
X454500D01*
Y138500D02*
Y183500D01*
X439500Y138500D02*
X454500D01*
X439500D02*
Y183500D01*
D12*
X252787Y388504D02*
G03*
X252787Y388504I-787J0D01*
G01*
D13*
X511000Y273500D02*
G03*
X511000Y268500I0J-2500D01*
G01*
X104000Y373000D02*
X256000D01*
X256000Y153000D01*
X104000D02*
X256000D01*
X104000D02*
Y373000D01*
X311000Y298750D02*
X511000D01*
X311000Y243250D02*
Y298750D01*
Y243250D02*
X511000D01*
Y268500D01*
Y273500D02*
Y298750D01*
X412000Y395000D02*
X417000D01*
X414500Y392500D02*
Y397500D01*
X489002Y450999D02*
Y445001D01*
Y448000D01*
X493000D01*
Y450999D01*
Y445001D01*
X498998D02*
X495000D01*
X498998Y449000D01*
Y449999D01*
X497999Y450999D01*
X495999D01*
X495000Y449999D01*
X126001Y445999D02*
Y440001D01*
Y443000D01*
X130000D01*
Y445999D01*
Y440001D01*
X131999D02*
X133999D01*
X132999D01*
Y445999D01*
X131999Y444999D01*
X108002Y393001D02*
Y398999D01*
X111001D01*
X112000Y397999D01*
Y396000D01*
X111001Y395000D01*
X108002D01*
X114000Y397999D02*
X114999Y398999D01*
X116999D01*
X117998Y397999D01*
Y397000D01*
X116999Y396000D01*
X115999D01*
X116999D01*
X117998Y395000D01*
Y394001D01*
X116999Y393001D01*
X114999D01*
X114000Y394001D01*
X108002Y131999D02*
Y126001D01*
Y129000D01*
X112000D01*
Y131999D01*
Y126001D01*
X114000Y130999D02*
X114999Y131999D01*
X116999D01*
X117998Y130999D01*
Y130000D01*
X116999Y129000D01*
X115999D01*
X116999D01*
X117998Y128000D01*
Y127001D01*
X116999Y126001D01*
X114999D01*
X114000Y127001D01*
X489002Y124999D02*
Y119001D01*
Y122000D01*
X493000D01*
Y124999D01*
Y119001D01*
X497999D02*
Y124999D01*
X495000Y122000D01*
X498998D01*
X125000Y411998D02*
Y406000D01*
X127999D01*
X128999Y407000D01*
Y410998D01*
X127999Y411998D01*
X125000D01*
X133997Y406000D02*
X131998D01*
X130998Y407000D01*
Y408999D01*
X131998Y409999D01*
X133997D01*
X134997Y408999D01*
Y407999D01*
X130998D01*
X137996Y410998D02*
Y409999D01*
X136996D01*
X138996D01*
X137996D01*
Y407000D01*
X138996Y406000D01*
X144993D02*
X142994D01*
X141995Y407000D01*
Y408999D01*
X142994Y409999D01*
X144993D01*
X145993Y408999D01*
Y407999D01*
X141995D01*
X151991Y409999D02*
X148992D01*
X147993Y408999D01*
Y407000D01*
X148992Y406000D01*
X151991D01*
X154990Y410998D02*
Y409999D01*
X153991D01*
X155990D01*
X154990D01*
Y407000D01*
X155990Y406000D01*
X158989D02*
X160988D01*
X159989D01*
Y409999D01*
X158989D01*
X164987Y406000D02*
X166986D01*
X167986Y407000D01*
Y408999D01*
X166986Y409999D01*
X164987D01*
X163987Y408999D01*
Y407000D01*
X164987Y406000D01*
X169985D02*
Y409999D01*
X172985D01*
X173984Y408999D01*
Y406000D01*
X126000Y117998D02*
Y112000D01*
X127999Y113999D01*
X129999Y112000D01*
Y117998D01*
X131998Y112000D02*
X133997D01*
X132998D01*
Y115999D01*
X131998D01*
X136996D02*
Y112000D01*
Y113999D01*
X137996Y114999D01*
X138996Y115999D01*
X139996D01*
X145993Y112000D02*
X143994D01*
X142994Y113000D01*
Y114999D01*
X143994Y115999D01*
X145993D01*
X146993Y114999D01*
Y113999D01*
X142994D01*
X148993Y112000D02*
X150992D01*
X149992D01*
Y117998D01*
X148993D01*
X156990Y112000D02*
X154991D01*
X153991Y113000D01*
Y114999D01*
X154991Y115999D01*
X156990D01*
X157990Y114999D01*
Y113999D01*
X153991D01*
X159989Y112000D02*
X162988D01*
X163988Y113000D01*
X162988Y113999D01*
X160989D01*
X159989Y114999D01*
X160989Y115999D01*
X163988D01*
X165987Y112000D02*
X168986D01*
X169986Y113000D01*
X168986Y113999D01*
X166987D01*
X165987Y114999D01*
X166987Y115999D01*
X169986D01*
X177983Y117998D02*
X181982D01*
X179982D01*
Y112000D01*
X183981Y115999D02*
X187980Y112000D01*
X185981Y113999D01*
X187980Y115999D01*
X183981Y112000D01*
X129999Y128998D02*
X128999Y129997D01*
X127000D01*
X126000Y128998D01*
Y127998D01*
X127000Y126998D01*
X128999D01*
X129999Y125999D01*
Y124999D01*
X128999Y123999D01*
X127000D01*
X126000Y124999D01*
X134997Y123999D02*
X132998D01*
X131998Y124999D01*
Y126998D01*
X132998Y127998D01*
X134997D01*
X135997Y126998D01*
Y125999D01*
X131998D01*
X137996Y123999D02*
Y127998D01*
X140995D01*
X141995Y126998D01*
Y123999D01*
X143994D02*
X145993D01*
X144994D01*
Y127998D01*
X143994D01*
X149992Y123999D02*
X151992D01*
X152991Y124999D01*
Y126998D01*
X151992Y127998D01*
X149992D01*
X148993Y126998D01*
Y124999D01*
X149992Y123999D01*
X154991Y127998D02*
Y123999D01*
Y125999D01*
X155990Y126998D01*
X156990Y127998D01*
X157990D01*
X166987Y129997D02*
Y123999D01*
X169986D01*
X170985Y124999D01*
Y128998D01*
X169986Y129997D01*
X166987D01*
X175984Y123999D02*
X173985D01*
X172985Y124999D01*
Y126998D01*
X173985Y127998D01*
X175984D01*
X176983Y126998D01*
Y125999D01*
X172985D01*
X178983Y123999D02*
X181982D01*
X182982Y124999D01*
X181982Y125999D01*
X179982D01*
X178983Y126998D01*
X179982Y127998D01*
X182982D01*
X184981Y123999D02*
X186980D01*
X185981D01*
Y127998D01*
X184981D01*
X191979Y122000D02*
X192978D01*
X193978Y123000D01*
Y127998D01*
X190979D01*
X189979Y126998D01*
Y124999D01*
X190979Y123999D01*
X193978D01*
X195977D02*
Y127998D01*
X198976D01*
X199976Y126998D01*
Y123999D01*
X127000Y135999D02*
Y141997D01*
X129999D01*
X130999Y140998D01*
Y138998D01*
X129999Y137999D01*
X127000D01*
X128999D02*
X130999Y135999D01*
X132998Y139998D02*
Y136999D01*
X133998Y135999D01*
X136997D01*
Y135000D01*
X135997Y134000D01*
X134997D01*
X136997Y135999D02*
Y139998D01*
X139996D02*
X141995D01*
X142995Y138998D01*
Y135999D01*
X139996D01*
X138996Y136999D01*
X139996Y137999D01*
X142995D01*
X144994Y135999D02*
Y139998D01*
X147993D01*
X148993Y138998D01*
Y135999D01*
X156990D02*
Y141997D01*
X159989D01*
X160989Y140998D01*
Y138998D01*
X159989Y137999D01*
X156990D01*
X158990D02*
X160989Y135999D01*
X163988D02*
X165987D01*
X166987Y136999D01*
Y138998D01*
X165987Y139998D01*
X163988D01*
X162988Y138998D01*
Y136999D01*
X163988Y135999D01*
X168986Y141997D02*
Y135999D01*
X171985D01*
X172985Y136999D01*
Y137999D01*
Y138998D01*
X171985Y139998D01*
X168986D01*
X174985Y135999D02*
X176984D01*
X175984D01*
Y139998D01*
X174985D01*
X179983Y135999D02*
Y139998D01*
X182982D01*
X183982Y138998D01*
Y135999D01*
X185981D02*
X188980D01*
X189980Y136999D01*
X188980Y137999D01*
X186981D01*
X185981Y138998D01*
X186981Y139998D01*
X189980D01*
X192979Y135999D02*
X194978D01*
X195978Y136999D01*
Y138998D01*
X194978Y139998D01*
X192979D01*
X191979Y138998D01*
Y136999D01*
X192979Y135999D01*
X197977D02*
Y139998D01*
X200976D01*
X201976Y138998D01*
Y135999D01*
X347002Y173999D02*
Y170000D01*
X349002Y168001D01*
X351001Y170000D01*
Y173999D01*
X353000Y168001D02*
Y173999D01*
X355999D01*
X356999Y172999D01*
Y171000D01*
X355999Y170000D01*
X353000D01*
X355000D02*
X356999Y168001D01*
X358998D02*
X360998D01*
X359998D01*
Y173999D01*
X358998Y172999D01*
X521000Y218999D02*
X520001Y219999D01*
X518001D01*
X517002Y218999D01*
Y215001D01*
X518001Y214001D01*
X520001D01*
X521000Y215001D01*
X526998Y219999D02*
X523000D01*
Y217000D01*
X524999Y218000D01*
X525999D01*
X526998Y217000D01*
Y215001D01*
X525999Y214001D01*
X523999D01*
X523000Y215001D01*
X466000Y192999D02*
X465000Y193999D01*
X463001D01*
X462001Y192999D01*
Y189001D01*
X463001Y188001D01*
X465000D01*
X466000Y189001D01*
X467999Y188001D02*
X469999D01*
X468999D01*
Y193999D01*
X467999Y192999D01*
X219000Y443999D02*
X217001D01*
X218000D01*
Y439001D01*
X217001Y438001D01*
X216001D01*
X215001Y439001D01*
X220999Y438001D02*
X222999D01*
X221999D01*
Y443999D01*
X220999Y442999D01*
X417002Y111999D02*
Y106001D01*
X420001D01*
X421000Y107001D01*
Y110999D01*
X420001Y111999D01*
X417002D01*
X423000Y110999D02*
X423999Y111999D01*
X425999D01*
X426998Y110999D01*
Y110000D01*
X425999Y109000D01*
X424999D01*
X425999D01*
X426998Y108000D01*
Y107001D01*
X425999Y106001D01*
X423999D01*
X423000Y107001D01*
X266000Y172999D02*
X265001Y173999D01*
X263001D01*
X262002Y172999D01*
Y169001D01*
X263001Y168001D01*
X265001D01*
X266000Y169001D01*
X271998Y173999D02*
X269999Y172999D01*
X268000Y171000D01*
Y169001D01*
X268999Y168001D01*
X270999D01*
X271998Y169001D01*
Y170000D01*
X270999Y171000D01*
X268000D01*
X325099Y183898D02*
X324099Y184898D01*
X322100D01*
X321100Y183898D01*
Y179900D01*
X322100Y178900D01*
X324099D01*
X325099Y179900D01*
X327098Y184898D02*
X331097D01*
Y183898D01*
X327098Y179900D01*
Y178900D01*
X386001Y206999D02*
Y201001D01*
X390000D01*
X391999D02*
X393999D01*
X392999D01*
Y206999D01*
X391999Y205999D01*
X119600Y186400D02*
Y192398D01*
X122599D01*
X123599Y191398D01*
Y189399D01*
X122599Y188399D01*
X119600D01*
X121599D02*
X123599Y186400D01*
X125598Y191398D02*
X126598Y192398D01*
X128597D01*
X129597Y191398D01*
Y190399D01*
X128597Y189399D01*
X127597D01*
X128597D01*
X129597Y188399D01*
Y187400D01*
X128597Y186400D01*
X126598D01*
X125598Y187400D01*
X169002Y362001D02*
Y367999D01*
X172001D01*
X173000Y366999D01*
Y365000D01*
X172001Y364000D01*
X169002D01*
X178998Y362001D02*
X175000D01*
X178998Y366000D01*
Y366999D01*
X177999Y367999D01*
X175999D01*
X175000Y366999D01*
X205799Y189998D02*
X204799Y190998D01*
X202800D01*
X201800Y189998D01*
Y188999D01*
X202800Y187999D01*
X204799D01*
X205799Y186999D01*
Y186000D01*
X204799Y185000D01*
X202800D01*
X201800Y186000D01*
X207798Y190998D02*
Y185000D01*
X209797Y186999D01*
X211797Y185000D01*
Y190998D01*
X213796Y185000D02*
X215795D01*
X214796D01*
Y190998D01*
X213796Y189998D01*
X156999Y198998D02*
X155999Y199998D01*
X154000D01*
X153000Y198998D01*
Y195000D01*
X154000Y194000D01*
X155999D01*
X156999Y195000D01*
X159998Y194000D02*
X161997D01*
X162997Y195000D01*
Y196999D01*
X161997Y197999D01*
X159998D01*
X158998Y196999D01*
Y195000D01*
X159998Y194000D01*
X164996D02*
Y197999D01*
X167995D01*
X168995Y196999D01*
Y194000D01*
X171994Y198998D02*
Y197999D01*
X170994D01*
X172994D01*
X171994D01*
Y195000D01*
X172994Y194000D01*
X175993Y197999D02*
Y194000D01*
Y195999D01*
X176992Y196999D01*
X177992Y197999D01*
X178992D01*
X182990Y194000D02*
X184990D01*
X185989Y195000D01*
Y196999D01*
X184990Y197999D01*
X182990D01*
X181991Y196999D01*
Y195000D01*
X182990Y194000D01*
X187989D02*
X189988D01*
X188988D01*
Y199998D01*
X187989D01*
X192987Y194000D02*
X195986D01*
X196986Y195000D01*
X195986Y195999D01*
X193987D01*
X192987Y196999D01*
X193987Y197999D01*
X196986D01*
X295600Y376200D02*
Y382198D01*
X298599D01*
X299599Y381198D01*
Y379199D01*
X298599Y378199D01*
X295600D01*
X297599D02*
X299599Y376200D01*
X305597D02*
X301598D01*
X305597Y380199D01*
Y381198D01*
X304597Y382198D01*
X302598D01*
X301598Y381198D01*
X300001Y256998D02*
X305999D01*
Y253999D01*
X304999Y253000D01*
X303000D01*
X302000Y253999D01*
Y256998D01*
Y254999D02*
X300001Y253000D01*
Y248001D02*
X305999D01*
X303000Y251000D01*
Y247002D01*
X300001Y295998D02*
X305999D01*
Y292999D01*
X304999Y292000D01*
X303000D01*
X302000Y292999D01*
Y295998D01*
Y293999D02*
X300001Y292000D01*
X305999Y286002D02*
Y290000D01*
X303000D01*
X304000Y288001D01*
Y287001D01*
X303000Y286002D01*
X301001D01*
X300001Y287001D01*
Y289001D01*
X301001Y290000D01*
X502600Y393400D02*
Y399398D01*
X505599D01*
X506599Y398398D01*
Y396399D01*
X505599Y395399D01*
X502600D01*
X508598Y393400D02*
X510597D01*
X509598D01*
Y399398D01*
X508598Y398398D01*
X295600Y436200D02*
Y442198D01*
X298599D01*
X299599Y441198D01*
Y439199D01*
X298599Y438199D01*
X295600D01*
X297599D02*
X299599Y436200D01*
X305597Y442198D02*
X303597Y441198D01*
X301598Y439199D01*
Y437200D01*
X302598Y436200D01*
X304597D01*
X305597Y437200D01*
Y438199D01*
X304597Y439199D01*
X301598D01*
X283100Y376200D02*
Y382198D01*
X286099D01*
X287099Y381198D01*
Y379199D01*
X286099Y378199D01*
X283100D01*
X285099D02*
X287099Y376200D01*
X289098D02*
X291097D01*
X290098D01*
Y382198D01*
X289098Y381198D01*
X360453Y429499D02*
X359453Y430499D01*
X357454D01*
X356454Y429499D01*
Y425501D01*
X357454Y424501D01*
X359453D01*
X360453Y425501D01*
X362452Y429499D02*
X363452Y430499D01*
X365452D01*
X366451Y429499D01*
Y428500D01*
X365452Y427500D01*
X366451Y426500D01*
Y425501D01*
X365452Y424501D01*
X363452D01*
X362452Y425501D01*
Y426500D01*
X363452Y427500D01*
X362452Y428500D01*
Y429499D01*
X363452Y427500D02*
X365452D01*
X506299Y430098D02*
X505299Y431098D01*
X503300D01*
X502300Y430098D01*
Y426100D01*
X503300Y425100D01*
X505299D01*
X506299Y426100D01*
X508298D02*
X509298Y425100D01*
X511297D01*
X512297Y426100D01*
Y430098D01*
X511297Y431098D01*
X509298D01*
X508298Y430098D01*
Y429099D01*
X509298Y428099D01*
X512297D01*
X311500Y319198D02*
Y314200D01*
X312500Y313200D01*
X314499D01*
X315499Y314200D01*
Y319198D01*
X321497Y313200D02*
X317498D01*
X321497Y317199D01*
Y318198D01*
X320497Y319198D01*
X318498D01*
X317498Y318198D01*
X402500Y402499D02*
X401501Y403499D01*
X399501D01*
X398502Y402499D01*
Y398501D01*
X399501Y397501D01*
X401501D01*
X402500Y398501D01*
X404500Y402499D02*
X405499Y403499D01*
X407499D01*
X408498Y402499D01*
Y401500D01*
X407499Y400500D01*
X406499D01*
X407499D01*
X408498Y399500D01*
Y398501D01*
X407499Y397501D01*
X405499D01*
X404500Y398501D01*
X477000Y331001D02*
Y334999D01*
X476001Y335999D01*
X474001D01*
X473002Y334999D01*
Y331001D01*
X474001Y330001D01*
X476001D01*
X475001Y332000D02*
X477000Y330001D01*
X476001D02*
X477000Y331001D01*
X481999Y330001D02*
Y335999D01*
X479000Y333000D01*
X482998D01*
X445000Y331001D02*
Y334999D01*
X444001Y335999D01*
X442001D01*
X441002Y334999D01*
Y331001D01*
X442001Y330001D01*
X444001D01*
X443001Y332000D02*
X445000Y330001D01*
X444001D02*
X445000Y331001D01*
X447000Y334999D02*
X447999Y335999D01*
X449999D01*
X450998Y334999D01*
Y334000D01*
X449999Y333000D01*
X448999D01*
X449999D01*
X450998Y332000D01*
Y331001D01*
X449999Y330001D01*
X447999D01*
X447000Y331001D01*
X366501Y444499D02*
Y438501D01*
X369500D01*
X370500Y439501D01*
Y443499D01*
X369500Y444499D01*
X366501D01*
X372499Y438501D02*
X374499D01*
X373499D01*
Y444499D01*
X372499Y443499D01*
X473099Y442700D02*
Y446698D01*
X472099Y447698D01*
X470100D01*
X469100Y446698D01*
Y442700D01*
X470100Y441700D01*
X472099D01*
X471099Y443699D02*
X473099Y441700D01*
X472099D02*
X473099Y442700D01*
X479097Y441700D02*
X475098D01*
X479097Y445699D01*
Y446698D01*
X478097Y447698D01*
X476098D01*
X475098Y446698D01*
X441099Y442700D02*
Y446698D01*
X440099Y447698D01*
X438100D01*
X437100Y446698D01*
Y442700D01*
X438100Y441700D01*
X440099D01*
X439099Y443699D02*
X441099Y441700D01*
X440099D02*
X441099Y442700D01*
X443098Y441700D02*
X445097D01*
X444098D01*
Y447698D01*
X443098Y446698D01*
X368502Y330999D02*
Y325001D01*
X371501D01*
X372500Y326001D01*
Y329999D01*
X371501Y330999D01*
X368502D01*
X378498Y325001D02*
X374500D01*
X378498Y329000D01*
Y329999D01*
X377499Y330999D01*
X375499D01*
X374500Y329999D01*
X323800Y423398D02*
Y418400D01*
X324800Y417400D01*
X326799D01*
X327799Y418400D01*
Y423398D01*
X329798Y417400D02*
X331797D01*
X330798D01*
Y423398D01*
X329798Y422398D01*
X385199Y395798D02*
X384199Y396798D01*
X382200D01*
X381200Y395798D01*
Y391800D01*
X382200Y390800D01*
X384199D01*
X385199Y391800D01*
X390197Y390800D02*
Y396798D01*
X387198Y393799D01*
X391197D01*
X359954Y346999D02*
X358954Y347999D01*
X356955D01*
X355955Y346999D01*
Y343001D01*
X356955Y342001D01*
X358954D01*
X359954Y343001D01*
X361953Y342001D02*
X363953D01*
X362953D01*
Y347999D01*
X361953Y346999D01*
X366952D02*
X367951Y347999D01*
X369951D01*
X370950Y346999D01*
Y343001D01*
X369951Y342001D01*
X367951D01*
X366952Y343001D01*
Y346999D01*
X125000Y422997D02*
Y416999D01*
X127999D01*
X128999Y417999D01*
Y421998D01*
X127999Y422997D01*
X125000D01*
X131998Y416999D02*
X133997D01*
X134997Y417999D01*
Y419998D01*
X133997Y420998D01*
X131998D01*
X130998Y419998D01*
Y417999D01*
X131998Y416999D01*
X140995Y420998D02*
X137996D01*
X136996Y419998D01*
Y417999D01*
X137996Y416999D01*
X140995D01*
X142994D02*
Y422997D01*
Y418999D02*
X145993Y420998D01*
X142994Y418999D02*
X145993Y416999D01*
X148992D02*
X150992D01*
X149992D01*
Y420998D01*
X148992D01*
X153991Y416999D02*
Y420998D01*
X156990D01*
X157989Y419998D01*
Y416999D01*
X161988Y415000D02*
X162988D01*
X163987Y416000D01*
Y420998D01*
X160988D01*
X159989Y419998D01*
Y417999D01*
X160988Y416999D01*
X163987D01*
X320800Y202900D02*
Y208898D01*
X323799D01*
X324799Y207898D01*
Y205899D01*
X323799Y204899D01*
X320800D01*
X322799D02*
X324799Y202900D01*
X326798Y208898D02*
X330797D01*
Y207898D01*
X326798Y203900D01*
Y202900D01*
X275300D02*
Y208898D01*
X278299D01*
X279299Y207898D01*
Y205899D01*
X278299Y204899D01*
X275300D01*
X277299D02*
X279299Y202900D01*
X281298Y207898D02*
X282298Y208898D01*
X284297D01*
X285297Y207898D01*
Y206899D01*
X284297Y205899D01*
X285297Y204899D01*
Y203900D01*
X284297Y202900D01*
X282298D01*
X281298Y203900D01*
Y204899D01*
X282298Y205899D01*
X281298Y206899D01*
Y207898D01*
X282298Y205899D02*
X284297D01*
X444099Y191898D02*
X443099Y192898D01*
X441100D01*
X440100Y191898D01*
Y187900D01*
X441100Y186900D01*
X443099D01*
X444099Y187900D01*
X450097Y186900D02*
X446098D01*
X450097Y190899D01*
Y191898D01*
X449097Y192898D01*
X447098D01*
X446098Y191898D01*
D14*
X363375Y164800D02*
X380550D01*
X338050D02*
X359425D01*
X338050Y134550D02*
Y164800D01*
X359425D02*
X363375D01*
X380550Y134550D02*
Y164800D01*
X338050Y134550D02*
X380550D01*
X207510Y156558D02*
X228080D01*
X230095Y164231D02*
Y173485D01*
X209164Y181158D02*
X228080D01*
X205495Y164231D02*
Y173457D01*
X331043Y361409D02*
X361965D01*
Y362490D01*
X331043Y413590D02*
X361965D01*
X331043Y412510D02*
Y413590D01*
Y361409D02*
Y362490D01*
X361965Y412510D02*
Y413590D01*
D15*
X234283Y393622D02*
X238500D01*
X234283Y421978D02*
Y450315D01*
X266800Y393622D02*
X269717D01*
X234283D02*
Y395378D01*
X269717Y393622D02*
Y450315D01*
X234283D02*
X269717D01*
X469183Y380000D02*
X485699D01*
X469183Y340000D02*
Y380000D01*
Y340000D02*
X485699D01*
Y380000D01*
X437183D02*
X453699D01*
X437183Y340000D02*
Y380000D01*
Y340000D02*
X453699D01*
Y380000D01*
X469183Y435000D02*
X485699D01*
X469183Y395000D02*
Y435000D01*
Y395000D02*
X485699D01*
Y435000D01*
X437183D02*
X453699D01*
X437183Y395000D02*
Y435000D01*
Y395000D02*
X453699D01*
Y435000D01*
D16*
X492949Y193015D02*
Y196951D01*
X490981Y194983D02*
X494917D01*
X287949Y169015D02*
Y172951D01*
X285981Y170983D02*
X289917D01*
D17*
X354283Y117000D02*
D03*
D18*
X338004Y441500D02*
D03*
X339504Y328000D02*
D03*
M02*
